<svg xmlns="http://www.w3.org/2000/svg" xmlns:xlink="http://www.w3.org/1999/xlink" preserveAspectRatio="xMidYMid" width="1920" height="965" viewBox="0 0 1920 965">
  <defs>
    <style>
      .cls-1 {
        fill: #fff;
        opacity: 0.5;
        fill-rule: evenodd;
      }
    </style>
  </defs>
  <path d="M2057.792,253.654 C2051.408,253.654 2045.262,252.208 2039.985,249.420 C2034.423,257.338 2025.987,263.000 2016.203,263.000 C2006.288,263.000 1996.897,259.803 1990.018,253.744 C1987.903,255.338 1985.587,256.634 1983.048,257.609 C1980.663,258.166 1978.279,258.725 1975.896,259.282 C1975.006,259.362 1974.124,259.402 1973.249,259.402 C1969.030,259.402 1964.973,258.471 1961.076,256.611 C1959.023,255.254 1956.969,253.897 1954.914,252.540 C1953.152,251.009 1951.616,249.245 1950.277,247.339 C1946.251,251.829 1941.436,255.170 1935.813,257.330 C1932.702,258.058 1929.591,258.785 1926.478,259.512 C1925.318,259.617 1924.166,259.669 1923.024,259.669 C1917.520,259.669 1912.225,258.455 1907.140,256.028 C1904.458,254.256 1901.778,252.485 1899.098,250.713 C1894.225,246.480 1890.521,240.987 1888.326,234.901 C1884.269,239.198 1879.473,242.413 1873.932,244.543 L1864.191,246.819 C1862.979,246.929 1861.777,246.983 1860.584,246.983 C1854.840,246.983 1849.314,245.716 1844.008,243.183 L1835.616,237.637 C1828.006,231.029 1823.109,221.478 1822.171,211.311 C1821.204,200.814 1824.474,190.142 1831.155,182.109 C1835.535,176.888 1840.875,173.067 1847.173,170.645 C1848.994,170.219 1850.814,169.795 1852.635,169.370 C1851.992,167.590 1851.565,165.730 1851.386,163.830 C1850.816,157.772 1852.743,151.617 1856.679,146.980 C1859.262,143.968 1862.407,141.764 1866.119,140.367 C1868.033,139.929 1869.946,139.491 1871.860,139.053 C1872.573,138.990 1873.281,138.958 1873.983,138.958 C1877.368,138.958 1880.625,139.689 1883.753,141.152 C1885.056,141.995 1886.360,142.839 1887.666,143.682 C1889.006,135.745 1892.378,128.194 1897.524,122.004 C1902.566,115.995 1908.713,111.596 1915.964,108.809 C1919.701,107.936 1923.441,107.061 1927.179,106.188 C1928.573,106.063 1929.955,106.000 1931.327,106.000 C1937.939,106.000 1944.301,107.458 1950.410,110.375 C1953.629,112.503 1956.851,114.629 1960.071,116.757 C1963.793,119.991 1966.946,123.839 1969.430,128.091 C1969.613,127.860 1969.778,127.616 1969.966,127.390 C1974.818,121.608 1980.731,117.377 1987.708,114.695 C1991.304,113.855 1994.902,113.014 1998.498,112.174 C1999.840,112.053 2001.172,111.993 2002.493,111.993 C2008.854,111.993 2014.974,113.396 2020.850,116.202 L2030.146,122.343 C2037.783,128.976 2042.943,138.290 2044.617,148.358 C2061.767,148.827 2076.988,159.395 2078.719,178.162 C2079.315,184.632 2077.704,191.513 2074.485,197.512 C2080.723,202.382 2085.039,209.600 2085.898,218.918 C2087.376,234.963 2074.804,253.654 2057.792,253.654 ZM1834.284,784.889 C1835.659,784.688 1837.051,784.584 1838.461,784.584 C1839.300,784.584 1840.145,784.621 1840.997,784.696 C1843.361,785.234 1845.725,785.773 1848.088,786.310 C1852.674,788.029 1856.559,790.739 1859.747,794.442 C1864.610,800.143 1866.991,807.712 1866.286,815.159 C1865.604,822.371 1862.039,829.147 1856.501,833.836 C1855.614,834.407 1854.726,834.979 1853.839,835.550 C1853.886,836.675 1853.864,837.805 1853.758,838.933 C1853.142,845.434 1849.929,851.542 1844.936,855.768 C1843.101,856.951 1841.267,858.133 1839.430,859.314 C1835.949,860.934 1832.324,861.745 1828.555,861.745 C1827.772,861.745 1826.983,861.710 1826.187,861.640 L1819.796,860.183 C1818.762,859.796 1817.767,859.353 1816.811,858.853 C1815.948,859.788 1815.032,860.680 1814.055,861.507 C1811.768,862.979 1809.481,864.452 1807.193,865.925 C1802.853,867.945 1798.334,868.955 1793.636,868.955 C1792.661,868.955 1791.679,868.912 1790.689,868.824 C1788.033,868.219 1785.378,867.614 1782.722,867.009 C1778.021,865.249 1773.982,862.547 1770.588,858.928 C1770.389,859.104 1770.196,859.286 1769.992,859.457 C1767.635,860.975 1765.278,862.494 1762.920,864.012 C1758.448,866.092 1753.790,867.134 1748.949,867.134 C1747.944,867.134 1746.931,867.089 1745.910,866.999 C1743.174,866.376 1740.437,865.752 1737.701,865.129 C1737.206,864.943 1736.726,864.738 1736.245,864.533 C1735.107,865.266 1733.969,865.999 1732.831,866.732 C1728.155,868.908 1723.285,869.995 1718.224,869.995 C1717.173,869.995 1716.115,869.949 1715.049,869.855 C1712.188,869.203 1709.326,868.551 1706.465,867.899 C1700.916,865.822 1696.210,862.539 1692.351,858.056 C1690.532,855.925 1689.003,853.577 1687.779,851.084 C1687.395,851.168 1687.011,851.249 1686.621,851.317 C1684.077,851.421 1681.533,851.524 1678.989,851.629 C1674.003,851.136 1669.453,849.466 1665.342,846.619 L1664.094,845.668 C1662.285,844.027 1660.477,842.388 1658.668,840.748 C1655.335,836.807 1653.212,832.299 1652.297,827.222 C1650.981,819.789 1652.705,812.049 1657.049,805.870 C1660.685,800.699 1665.980,796.879 1671.983,795.001 C1671.758,792.883 1671.739,790.739 1671.941,788.604 C1672.732,780.253 1676.860,772.407 1683.272,766.979 C1685.630,765.461 1687.987,763.942 1690.345,762.425 C1694.818,760.343 1699.476,759.302 1704.318,759.302 C1705.322,759.302 1706.334,759.347 1707.354,759.437 C1710.091,760.061 1712.828,760.684 1715.565,761.307 C1718.807,762.522 1721.745,764.172 1724.386,766.246 C1725.305,765.220 1726.292,764.250 1727.348,763.354 C1729.548,761.939 1731.747,760.524 1733.945,759.107 C1738.117,757.166 1742.459,756.197 1746.974,756.196 C1747.911,756.196 1748.856,756.238 1749.808,756.322 C1752.361,756.902 1754.912,757.484 1757.465,758.066 C1762.401,759.914 1766.588,762.832 1770.026,766.815 C1772.942,763.220 1776.670,760.242 1781.116,758.252 C1784.818,756.596 1788.749,755.241 1792.743,754.537 C1795.189,754.105 1797.707,753.987 1800.225,753.987 C1801.852,753.987 1803.478,754.036 1805.087,754.082 C1807.805,754.701 1810.525,755.321 1813.245,755.941 C1818.518,757.917 1822.989,761.035 1826.657,765.296 C1831.329,770.771 1833.999,777.748 1834.284,784.889 ZM1669.565,301.630 C1669.493,301.850 1669.285,302.000 1669.048,302.000 L1623.586,302.000 C1623.321,302.000 1623.091,301.812 1623.052,301.555 C1622.976,301.065 1622.960,300.566 1623.008,300.068 C1623.162,298.481 1623.959,296.989 1625.197,295.949 C1625.218,295.932 1625.240,295.915 1625.264,295.901 C1625.703,295.624 1626.141,295.348 1626.579,295.072 C1626.603,295.057 1626.628,295.044 1626.654,295.032 C1627.518,294.645 1628.418,294.451 1629.353,294.451 C1629.536,294.451 1629.720,294.458 1629.906,294.473 C1629.934,294.476 1629.962,294.480 1629.990,294.486 C1630.139,294.519 1630.288,294.552 1630.436,294.585 C1630.477,294.595 1630.518,294.599 1630.558,294.599 C1630.842,294.599 1631.090,294.381 1631.096,294.092 C1631.100,293.883 1631.111,293.675 1631.131,293.466 C1631.340,291.312 1632.423,289.288 1634.106,287.881 C1634.127,287.863 1634.148,287.848 1634.171,287.833 C1634.773,287.454 1635.375,287.075 1635.977,286.696 C1636.001,286.681 1636.026,286.667 1636.052,286.656 C1637.226,286.127 1638.449,285.863 1639.719,285.863 C1639.971,285.863 1640.226,285.874 1640.482,285.895 C1640.510,285.897 1640.539,285.901 1640.567,285.907 L1640.572,285.909 C1640.613,285.918 1640.653,285.922 1640.693,285.922 C1640.939,285.922 1641.161,285.756 1641.217,285.512 C1641.745,283.201 1643.045,281.083 1644.905,279.542 C1647.361,277.509 1650.083,277.000 1653.204,277.000 C1655.977,277.000 1658.955,278.819 1660.687,280.805 C1662.628,283.030 1663.578,285.985 1663.297,288.892 C1663.255,289.326 1663.184,289.755 1663.088,290.178 C1663.024,290.460 1663.205,290.738 1663.493,290.803 C1663.718,290.853 1663.943,290.903 1664.168,290.953 C1664.195,290.959 1664.222,290.967 1664.248,290.976 C1665.675,291.506 1666.886,292.337 1667.881,293.467 C1669.412,295.223 1670.162,297.555 1669.940,299.849 C1669.882,300.457 1669.754,301.053 1669.565,301.630 ZM1627.628,460.590 C1628.523,461.164 1629.418,461.739 1630.314,462.313 C1630.362,462.344 1630.408,462.378 1630.452,462.415 C1632.980,464.577 1634.608,467.680 1634.922,470.982 C1635.020,472.016 1634.987,473.056 1634.833,474.075 C1634.752,474.608 1634.284,475.000 1633.741,475.000 L1540.883,475.000 C1540.400,475.000 1539.975,474.687 1539.828,474.230 C1539.442,473.031 1539.181,471.790 1539.061,470.527 C1538.608,465.754 1540.139,460.905 1543.267,457.252 C1545.300,454.900 1547.773,453.174 1550.687,452.071 C1550.741,452.051 1550.796,452.034 1550.851,452.022 C1551.311,451.918 1551.770,451.814 1552.229,451.709 C1552.818,451.576 1553.188,450.996 1553.057,450.410 C1552.861,449.530 1552.716,448.637 1552.630,447.735 C1552.056,441.688 1553.997,435.542 1557.960,430.914 C1561.498,426.784 1567.581,423.000 1573.244,423.000 C1579.620,423.000 1585.180,424.059 1590.197,428.288 C1593.996,431.493 1596.651,435.898 1597.729,440.705 C1597.843,441.214 1598.297,441.558 1598.800,441.558 C1598.881,441.558 1598.964,441.549 1599.046,441.530 L1599.058,441.527 C1599.115,441.515 1599.173,441.506 1599.231,441.501 C1599.754,441.457 1600.274,441.436 1600.789,441.436 C1603.384,441.436 1605.881,441.985 1608.279,443.084 C1608.332,443.108 1608.383,443.136 1608.432,443.167 C1609.662,443.956 1610.891,444.745 1612.121,445.533 C1612.168,445.563 1612.212,445.596 1612.254,445.632 C1615.692,448.560 1617.904,452.769 1618.330,457.250 C1618.371,457.683 1618.395,458.117 1618.403,458.551 C1618.414,459.153 1618.922,459.606 1619.501,459.606 C1619.583,459.606 1619.666,459.597 1619.749,459.578 C1620.053,459.509 1620.357,459.440 1620.661,459.371 C1620.718,459.358 1620.775,459.349 1620.833,459.344 C1621.212,459.314 1621.589,459.298 1621.963,459.298 C1623.872,459.298 1625.709,459.701 1627.475,460.507 C1627.528,460.531 1627.579,460.559 1627.628,460.590 ZM1417.529,690.698 C1417.281,691.470 1416.564,692.000 1415.749,692.000 L1259.050,692.000 C1258.134,692.000 1257.344,691.337 1257.208,690.435 C1256.948,688.710 1256.892,686.951 1257.058,685.201 C1257.587,679.613 1260.334,674.361 1264.601,670.702 C1264.674,670.639 1264.752,670.582 1264.833,670.530 C1266.345,669.558 1267.855,668.586 1269.366,667.614 C1269.448,667.561 1269.534,667.513 1269.623,667.473 C1272.604,666.109 1275.705,665.428 1278.926,665.428 C1279.557,665.428 1280.192,665.454 1280.832,665.506 C1280.930,665.514 1281.028,665.530 1281.123,665.551 C1281.636,665.668 1282.148,665.785 1282.661,665.901 C1282.802,665.933 1282.942,665.948 1283.080,665.948 C1284.058,665.948 1284.915,665.181 1284.933,664.163 C1284.947,663.429 1284.987,662.695 1285.056,661.961 C1285.775,654.379 1289.509,647.255 1295.309,642.300 C1295.381,642.240 1295.455,642.184 1295.534,642.133 C1297.609,640.799 1299.684,639.464 1301.760,638.129 C1301.842,638.077 1301.928,638.029 1302.017,637.988 C1306.065,636.128 1310.278,635.199 1314.656,635.199 C1315.527,635.199 1316.403,635.235 1317.287,635.309 C1317.384,635.317 1317.482,635.332 1317.578,635.354 L1317.598,635.359 C1317.737,635.391 1317.876,635.406 1318.013,635.406 C1318.863,635.406 1319.629,634.823 1319.821,633.963 C1321.640,625.828 1326.119,618.372 1332.532,612.950 C1340.996,605.791 1350.380,604.000 1361.138,604.000 C1370.696,604.000 1380.960,610.404 1386.930,617.393 C1393.619,625.225 1396.893,635.626 1395.925,645.860 C1395.781,647.386 1395.536,648.897 1395.205,650.386 C1394.984,651.378 1395.607,652.359 1396.602,652.585 C1397.377,652.761 1398.152,652.938 1398.927,653.114 C1399.021,653.135 1399.114,653.163 1399.204,653.197 C1404.121,655.063 1408.294,657.985 1411.725,661.965 C1417.004,668.146 1419.588,676.354 1418.823,684.430 C1418.621,686.568 1418.181,688.668 1417.529,690.698 ZM1352.116,269.230 C1351.969,269.687 1351.544,270.000 1351.061,270.000 L1258.203,270.000 C1257.660,270.000 1257.191,269.608 1257.111,269.075 C1256.957,268.056 1256.924,267.016 1257.022,265.982 C1257.336,262.680 1258.963,259.577 1261.492,257.415 C1261.536,257.378 1261.581,257.344 1261.630,257.313 C1262.525,256.739 1263.421,256.164 1264.316,255.590 C1264.364,255.559 1264.416,255.531 1264.468,255.507 C1266.234,254.701 1268.072,254.298 1269.981,254.298 C1270.355,254.298 1270.731,254.314 1271.111,254.344 C1271.169,254.349 1271.226,254.358 1271.283,254.371 C1271.587,254.440 1271.891,254.509 1272.194,254.578 C1272.278,254.597 1272.361,254.606 1272.443,254.606 C1273.022,254.606 1273.530,254.153 1273.541,253.551 C1273.549,253.117 1273.573,252.683 1273.614,252.250 C1274.040,247.769 1276.252,243.560 1279.690,240.632 C1279.732,240.596 1279.776,240.563 1279.823,240.533 C1281.053,239.745 1282.282,238.956 1283.512,238.167 C1283.561,238.136 1283.612,238.108 1283.665,238.084 C1286.063,236.985 1288.560,236.436 1291.154,236.436 C1291.670,236.436 1292.190,236.457 1292.713,236.501 C1292.771,236.506 1292.829,236.515 1292.886,236.527 L1292.898,236.530 C1292.980,236.549 1293.063,236.558 1293.144,236.558 C1293.647,236.558 1294.101,236.214 1294.215,235.705 C1295.293,230.898 1297.947,226.493 1301.747,223.288 C1306.763,219.059 1312.324,218.000 1318.699,218.000 C1324.363,218.000 1330.445,221.784 1333.984,225.914 C1337.947,230.542 1339.888,236.688 1339.314,242.735 C1339.228,243.637 1339.083,244.530 1338.887,245.410 C1338.756,245.996 1339.125,246.575 1339.715,246.709 C1340.174,246.814 1340.633,246.918 1341.092,247.022 C1341.148,247.034 1341.203,247.051 1341.256,247.071 C1344.171,248.173 1346.644,249.900 1348.677,252.252 C1351.805,255.905 1353.336,260.754 1352.883,265.527 C1352.763,266.790 1352.502,268.031 1352.116,269.230 ZM1256.112,51.230 C1255.965,51.687 1255.540,52.000 1255.057,52.000 L1162.199,52.000 C1161.656,52.000 1161.187,51.608 1161.106,51.075 C1160.953,50.056 1160.920,49.016 1161.018,47.982 C1161.331,44.680 1162.959,41.577 1165.488,39.415 C1165.531,39.378 1165.577,39.344 1165.625,39.313 C1166.521,38.739 1167.416,38.164 1168.312,37.590 C1168.360,37.559 1168.411,37.531 1168.464,37.507 C1170.230,36.701 1172.068,36.298 1173.977,36.298 C1174.351,36.298 1174.727,36.314 1175.107,36.344 C1175.164,36.349 1175.222,36.358 1175.278,36.371 C1175.583,36.440 1175.886,36.509 1176.190,36.578 C1176.273,36.597 1176.357,36.606 1176.438,36.606 C1177.018,36.606 1177.526,36.153 1177.537,35.551 C1177.545,35.117 1177.569,34.683 1177.610,34.250 C1178.036,29.769 1180.248,25.560 1183.686,22.632 C1183.728,22.596 1183.772,22.563 1183.819,22.533 C1185.048,21.745 1186.278,20.956 1187.508,20.167 C1187.557,20.136 1187.608,20.108 1187.661,20.084 C1190.059,18.985 1192.556,18.436 1195.150,18.436 C1195.666,18.436 1196.185,18.457 1196.709,18.501 C1196.767,18.506 1196.825,18.515 1196.881,18.527 L1196.893,18.530 C1196.976,18.549 1197.058,18.558 1197.140,18.558 C1197.643,18.558 1198.097,18.214 1198.211,17.705 C1199.289,12.898 1201.943,8.493 1205.743,5.288 C1210.759,1.059 1216.320,0.000 1222.695,0.000 C1228.359,0.000 1234.441,3.784 1237.979,7.914 C1241.943,12.542 1243.883,18.688 1243.309,24.735 C1243.224,25.637 1243.079,26.530 1242.883,27.410 C1242.752,27.996 1243.121,28.576 1243.711,28.709 C1244.170,28.814 1244.629,28.918 1245.088,29.022 C1245.144,29.034 1245.199,29.051 1245.252,29.071 C1248.166,30.173 1250.640,31.900 1252.672,34.252 C1255.801,37.905 1257.332,42.754 1256.879,47.527 C1256.759,48.790 1256.498,50.031 1256.112,51.230 ZM865.417,858.000 L825.759,858.000 C825.553,858.000 825.371,857.868 825.308,857.674 C825.144,857.167 825.032,856.642 824.981,856.108 C824.787,854.088 825.441,852.037 826.777,850.491 C827.646,849.496 828.702,848.766 829.946,848.299 C829.969,848.291 829.992,848.284 830.016,848.278 C830.213,848.234 830.409,848.190 830.605,848.146 C830.857,848.090 831.014,847.844 830.958,847.596 C830.875,847.224 830.813,846.847 830.776,846.465 C830.531,843.906 831.360,841.306 833.053,839.348 C834.564,837.601 837.161,836.000 839.580,836.000 C842.303,836.000 844.678,836.448 846.820,838.237 C848.443,839.593 849.577,841.457 850.037,843.491 C850.086,843.706 850.279,843.851 850.494,843.851 C850.529,843.851 850.564,843.848 850.600,843.840 L850.605,843.839 C850.629,843.833 850.654,843.829 850.678,843.827 C850.902,843.809 851.124,843.800 851.344,843.800 C852.452,843.800 853.518,844.032 854.543,844.497 C854.565,844.507 854.587,844.519 854.608,844.532 C855.133,844.866 855.658,845.200 856.184,845.533 C856.204,845.546 856.222,845.560 856.241,845.575 C857.709,846.814 858.654,848.595 858.835,850.490 C858.853,850.674 858.863,850.857 858.867,851.041 C858.871,851.295 859.088,851.487 859.336,851.487 C859.370,851.487 859.406,851.483 859.442,851.475 C859.571,851.446 859.701,851.417 859.831,851.388 C859.855,851.382 859.880,851.379 859.904,851.376 C860.066,851.363 860.227,851.357 860.387,851.357 C861.202,851.357 861.987,851.527 862.741,851.868 C862.764,851.878 862.786,851.890 862.806,851.903 C863.189,852.146 863.571,852.390 863.954,852.632 C863.974,852.645 863.994,852.660 864.012,852.675 C865.092,853.590 865.788,854.903 865.921,856.300 C865.963,856.738 865.949,857.177 865.884,857.609 C865.849,857.834 865.649,858.000 865.417,858.000 ZM602.535,989.637 L594.147,995.183 C588.844,997.716 583.322,998.983 577.582,998.983 C576.389,998.983 575.188,998.929 573.977,998.819 L564.241,996.543 C558.703,994.413 553.910,991.198 549.856,986.901 C547.662,992.987 543.960,998.480 539.090,1002.713 C536.411,1004.485 533.733,1006.256 531.053,1008.028 C525.971,1010.455 520.679,1011.669 515.179,1011.669 C514.036,1011.669 512.886,1011.616 511.726,1011.512 C508.615,1010.785 505.506,1010.058 502.396,1009.330 C496.777,1007.170 491.965,1003.829 487.942,999.339 C486.604,1001.245 485.068,1003.009 483.307,1004.540 C481.253,1005.897 479.201,1007.254 477.149,1008.611 C473.255,1010.471 469.199,1011.402 464.983,1011.402 C464.109,1011.402 463.227,1011.362 462.338,1011.281 C459.956,1010.725 457.573,1010.166 455.190,1009.609 C452.653,1008.634 450.337,1007.338 448.224,1005.744 C441.349,1011.803 431.963,1015.000 422.054,1015.000 C412.276,1015.000 403.846,1009.338 398.287,1001.420 C393.012,1004.207 386.870,1005.654 380.490,1005.654 C363.489,1005.654 350.924,986.963 352.401,970.918 C353.259,961.600 357.573,954.382 363.807,949.512 C360.590,943.513 358.980,936.632 359.576,930.162 C361.306,911.395 376.517,900.827 393.657,900.358 C395.330,890.290 400.488,880.976 408.120,874.343 L417.410,868.202 C423.283,865.396 429.399,863.993 435.756,863.993 C437.077,863.993 438.408,864.053 439.749,864.174 C443.343,865.014 446.938,865.855 450.532,866.695 C457.505,869.377 463.415,873.608 468.264,879.390 C468.452,879.616 468.617,879.860 468.800,880.091 C471.283,875.839 474.433,871.991 478.153,868.757 C481.371,866.629 484.591,864.503 487.809,862.375 C493.914,859.458 500.273,858.000 506.880,858.000 C508.252,858.000 509.633,858.063 511.026,858.188 C514.762,859.061 518.499,859.936 522.234,860.809 C529.481,863.596 535.624,867.995 540.663,874.004 C545.807,880.194 549.176,887.744 550.516,895.682 C551.820,894.839 553.123,893.995 554.426,893.152 C557.553,891.689 560.808,890.958 564.190,890.958 C564.892,890.958 565.599,890.990 566.312,891.053 C568.225,891.491 570.137,891.929 572.050,892.367 C575.759,893.764 578.903,895.968 581.484,898.980 C585.418,903.617 587.344,909.772 586.774,915.830 C586.595,917.730 586.169,919.590 585.525,921.370 C587.346,921.795 589.165,922.219 590.984,922.645 C597.279,925.067 602.616,928.888 606.993,934.109 C613.670,942.142 616.938,952.814 615.971,963.311 C615.034,973.478 610.140,983.029 602.535,989.637 ZM564.516,594.630 C564.444,594.850 564.236,595.000 564.000,595.000 L518.538,595.000 C518.272,595.000 518.043,594.812 518.003,594.555 C517.928,594.065 517.912,593.566 517.960,593.068 C518.113,591.481 518.910,589.989 520.148,588.949 C520.170,588.932 520.192,588.915 520.216,588.901 C520.654,588.624 521.093,588.348 521.531,588.072 C521.555,588.057 521.580,588.044 521.605,588.032 C522.470,587.645 523.370,587.451 524.305,587.451 C524.487,587.451 524.672,587.458 524.857,587.473 C524.886,587.476 524.914,587.480 524.942,587.486 C525.091,587.519 525.239,587.552 525.388,587.585 C525.429,587.595 525.470,587.599 525.509,587.599 C525.793,587.599 526.042,587.381 526.047,587.092 C526.051,586.883 526.063,586.675 526.083,586.466 C526.291,584.312 527.375,582.288 529.058,580.881 C529.078,580.864 529.100,580.848 529.123,580.833 C529.725,580.454 530.327,580.075 530.929,579.696 C530.953,579.681 530.978,579.667 531.004,579.656 C532.178,579.127 533.400,578.863 534.670,578.863 C534.923,578.863 535.177,578.874 535.434,578.895 C535.462,578.897 535.490,578.901 535.518,578.907 L535.524,578.909 C535.564,578.918 535.605,578.922 535.645,578.922 C535.891,578.922 536.113,578.756 536.169,578.512 C536.697,576.201 537.996,574.083 539.857,572.542 C542.312,570.509 545.035,570.000 548.156,570.000 C550.929,570.000 553.907,571.819 555.639,573.805 C557.579,576.030 558.529,578.985 558.248,581.892 C558.207,582.326 558.136,582.755 558.040,583.178 C557.976,583.459 558.156,583.738 558.445,583.802 C558.670,583.853 558.895,583.903 559.119,583.953 C559.147,583.959 559.174,583.967 559.200,583.976 C560.626,584.506 561.837,585.337 562.832,586.467 C564.364,588.223 565.114,590.555 564.892,592.850 C564.833,593.457 564.705,594.053 564.516,594.630 ZM337.072,251.230 C336.924,251.687 336.500,252.000 336.017,252.000 L243.158,252.000 C242.615,252.000 242.147,251.608 242.066,251.075 C241.912,250.056 241.879,249.016 241.978,247.982 C242.291,244.680 243.919,241.577 246.448,239.415 C246.491,239.378 246.537,239.344 246.585,239.313 C247.481,238.739 248.376,238.164 249.271,237.590 C249.320,237.559 249.371,237.531 249.424,237.507 C251.190,236.701 253.028,236.298 254.937,236.298 C255.310,236.298 255.687,236.314 256.066,236.344 C256.124,236.349 256.182,236.358 256.238,236.371 C256.542,236.440 256.846,236.509 257.150,236.578 C257.233,236.597 257.316,236.606 257.398,236.606 C257.978,236.606 258.486,236.153 258.496,235.551 C258.504,235.117 258.528,234.683 258.569,234.250 C258.995,229.769 261.208,225.560 264.645,222.632 C264.687,222.596 264.732,222.563 264.778,222.533 C266.008,221.745 267.237,220.956 268.468,220.167 C268.516,220.136 268.568,220.108 268.620,220.084 C271.019,218.985 273.515,218.436 276.110,218.436 C276.626,218.436 277.145,218.457 277.669,218.501 C277.726,218.506 277.784,218.515 277.841,218.527 L277.853,218.530 C277.935,218.549 278.018,218.558 278.099,218.558 C278.603,218.558 279.056,218.214 279.170,217.705 C280.248,212.898 282.903,208.493 286.703,205.288 C291.719,201.059 297.280,200.000 303.655,200.000 C309.318,200.000 315.401,203.784 318.939,207.914 C322.902,212.542 324.843,218.688 324.269,224.735 C324.184,225.637 324.039,226.530 323.842,227.410 C323.712,227.996 324.081,228.575 324.670,228.709 C325.130,228.814 325.589,228.918 326.048,229.022 C326.104,229.034 326.159,229.051 326.212,229.071 C329.126,230.173 331.599,231.900 333.632,234.252 C336.760,237.905 338.291,242.754 337.838,247.527 C337.719,248.790 337.458,250.031 337.072,251.230 ZM309.393,74.000 L269.735,74.000 C269.528,74.000 269.347,73.868 269.284,73.674 C269.119,73.167 269.008,72.642 268.957,72.108 C268.763,70.088 269.417,68.037 270.753,66.491 C271.621,65.496 272.677,64.766 273.922,64.299 C273.945,64.291 273.968,64.284 273.992,64.278 C274.188,64.234 274.384,64.190 274.580,64.146 C274.832,64.090 274.990,63.844 274.934,63.596 C274.850,63.224 274.788,62.847 274.752,62.465 C274.507,59.906 275.335,57.306 277.028,55.348 C278.539,53.601 281.137,52.000 283.556,52.000 C286.278,52.000 288.653,52.448 290.796,54.237 C292.419,55.593 293.552,57.457 294.013,59.491 C294.061,59.706 294.255,59.851 294.470,59.851 C294.505,59.851 294.540,59.848 294.575,59.840 L294.580,59.839 C294.605,59.833 294.629,59.829 294.654,59.827 C294.878,59.809 295.099,59.800 295.320,59.800 C296.428,59.800 297.494,60.032 298.518,60.497 C298.541,60.507 298.563,60.519 298.584,60.532 C299.109,60.866 299.634,61.200 300.159,61.533 C300.179,61.546 300.198,61.560 300.216,61.575 C301.684,62.814 302.629,64.595 302.811,66.490 C302.828,66.674 302.839,66.857 302.842,67.041 C302.847,67.295 303.064,67.487 303.311,67.487 C303.346,67.487 303.382,67.483 303.417,67.475 C303.547,67.446 303.677,67.417 303.807,67.388 C303.831,67.382 303.855,67.379 303.880,67.376 C304.042,67.363 304.203,67.357 304.362,67.357 C305.178,67.357 305.963,67.527 306.717,67.868 C306.739,67.878 306.761,67.890 306.782,67.903 C307.164,68.146 307.547,68.390 307.929,68.632 C307.950,68.645 307.969,68.660 307.988,68.675 C309.068,69.590 309.763,70.903 309.897,72.300 C309.939,72.738 309.925,73.177 309.859,73.609 C309.825,73.834 309.625,74.000 309.393,74.000 ZM168.120,602.224 C167.782,603.278 166.809,604.000 165.701,604.000 L-47.159,604.000 C-48.404,604.000 -49.478,603.096 -49.663,601.866 C-50.015,599.514 -50.091,597.115 -49.866,594.728 C-49.147,587.108 -45.416,579.947 -39.619,574.957 C-39.520,574.872 -39.414,574.794 -39.304,574.723 C-37.250,573.398 -35.198,572.072 -33.146,570.746 C-33.035,570.674 -32.918,570.609 -32.797,570.554 C-28.748,568.695 -24.536,567.765 -20.159,567.765 C-19.303,567.765 -18.440,567.801 -17.570,567.872 C-17.438,567.883 -17.305,567.904 -17.176,567.934 C-16.479,568.093 -15.783,568.252 -15.086,568.411 C-14.895,568.454 -14.705,568.475 -14.517,568.475 C-13.189,568.475 -12.024,567.429 -11.999,566.041 C-11.982,565.040 -11.926,564.038 -11.832,563.037 C-10.856,552.699 -5.784,542.984 2.096,536.227 C2.192,536.145 2.294,536.069 2.401,536.000 C5.219,534.181 8.037,532.360 10.858,530.540 C10.970,530.468 11.087,530.403 11.207,530.347 C16.706,527.811 22.428,526.544 28.376,526.544 C29.558,526.544 30.749,526.594 31.950,526.694 C32.082,526.705 32.215,526.726 32.345,526.756 L32.372,526.762 C32.561,526.805 32.750,526.826 32.937,526.826 C34.090,526.826 35.131,526.031 35.392,524.859 C37.863,513.765 43.948,503.598 52.658,496.204 C64.157,486.443 76.904,484.000 91.518,484.000 C104.501,484.000 118.443,492.733 126.554,502.263 C135.640,512.944 140.088,527.126 138.772,541.082 C138.577,543.163 138.244,545.223 137.795,547.254 C137.495,548.606 138.341,549.944 139.692,550.252 C140.745,550.493 141.797,550.734 142.850,550.973 C142.978,551.002 143.104,551.041 143.226,551.087 C149.906,553.631 155.575,557.615 160.235,563.044 C167.407,571.472 170.916,582.664 169.877,593.678 C169.603,596.593 169.005,599.457 168.120,602.224 ZM85.311,146.859 C77.902,153.131 69.689,154.701 60.270,154.701 C55.405,154.701 50.333,152.795 45.910,150.002 C44.347,152.274 42.490,154.350 40.367,156.147 C38.093,157.611 35.819,159.076 33.545,160.540 C29.232,162.547 24.740,163.551 20.072,163.551 C19.102,163.551 18.125,163.507 17.140,163.421 C14.499,162.820 11.859,162.219 9.220,161.618 C7.180,160.853 5.269,159.906 3.476,158.788 C0.203,161.893 -4.454,163.539 -9.389,163.539 C-12.872,163.539 -15.988,162.049 -18.434,159.752 C-20.594,161.144 -22.755,162.534 -24.917,163.926 C-29.323,165.976 -33.910,167.001 -38.678,167.001 C-39.669,167.001 -40.666,166.957 -41.672,166.869 C-44.368,166.255 -47.064,165.640 -49.759,165.027 C-54.989,163.068 -59.422,159.977 -63.059,155.753 C-66.644,151.552 -69.038,146.459 -70.070,141.089 C-70.286,141.074 -70.497,141.072 -70.711,141.053 C-73.108,140.506 -75.504,139.960 -77.901,139.415 C-82.549,137.674 -86.489,134.927 -89.721,131.171 C-94.652,125.394 -97.065,117.720 -96.352,110.170 C-95.659,102.859 -92.044,95.989 -86.431,91.236 C-84.366,89.908 -82.301,88.578 -80.237,87.249 C-76.321,85.427 -72.243,84.516 -68.005,84.516 C-67.124,84.516 -66.238,84.555 -65.343,84.634 C-62.946,85.179 -60.551,85.726 -58.153,86.271 C-56.990,86.707 -55.869,87.208 -54.794,87.770 C-53.023,80.617 -48.995,74.084 -43.329,69.287 C-40.763,67.636 -38.199,65.985 -35.635,64.333 C-30.770,62.070 -25.705,60.939 -20.439,60.939 C-19.346,60.939 -18.245,60.987 -17.134,61.085 L-9.452,62.834 C-7.515,60.043 -5.223,57.493 -2.608,55.278 L5.947,49.771 C11.355,47.255 16.988,45.996 22.843,45.996 C24.058,45.996 25.282,46.050 26.517,46.159 L36.447,48.420 C42.867,50.825 48.309,54.621 52.774,59.806 C59.376,67.543 62.697,77.740 61.997,87.857 C63.514,87.754 65.061,87.704 66.645,87.704 C75.009,87.704 83.995,93.315 89.220,99.437 C95.075,106.298 97.940,115.411 97.092,124.376 C96.271,133.059 91.979,141.216 85.311,146.859 Z" class="cls-1"/>
</svg>
