<svg xmlns="http://www.w3.org/2000/svg" xmlns:xlink="http://www.w3.org/1999/xlink" preserveAspectRatio="xMidYMid" width="1920" height="965" viewBox="0 0 1920 965">
  <defs>
    <style>
      .cls-1 {
        fill: #fff;
        opacity: 0.8;
        fill-rule: evenodd;
      }
    </style>
  </defs>
  <path d="M2085.569,601.866 C2085.384,603.096 2084.310,604.000 2083.066,604.000 L1870.214,604.000 C1869.107,604.000 1868.133,603.278 1867.796,602.224 C1866.911,599.457 1866.313,596.593 1866.038,593.678 C1865.000,582.664 1868.509,571.472 1875.680,563.044 C1880.340,557.615 1886.009,553.631 1892.688,551.087 C1892.811,551.041 1892.936,551.002 1893.064,550.973 C1894.117,550.734 1895.169,550.493 1896.222,550.252 C1897.574,549.944 1898.420,548.606 1898.120,547.254 C1897.670,545.223 1897.338,543.163 1897.142,541.082 C1895.827,527.126 1900.275,512.944 1909.360,502.263 C1917.470,492.733 1931.412,484.000 1944.394,484.000 C1959.008,484.000 1971.754,486.443 1983.253,496.204 C1991.963,503.598 1998.047,513.765 2000.518,524.859 C2000.779,526.031 2001.820,526.826 2002.973,526.826 C2003.160,526.826 2003.349,526.805 2003.538,526.762 L2003.565,526.756 C2003.695,526.726 2003.828,526.705 2003.960,526.694 C2005.161,526.594 2006.351,526.544 2007.534,526.544 C2013.481,526.544 2019.203,527.811 2024.702,530.347 C2024.822,530.403 2024.939,530.468 2025.051,530.540 C2027.871,532.360 2030.689,534.181 2033.508,536.000 C2033.615,536.069 2033.717,536.145 2033.813,536.227 C2041.693,542.984 2046.764,552.699 2047.740,563.037 C2047.834,564.038 2047.889,565.040 2047.907,566.041 C2047.932,567.429 2049.097,568.475 2050.425,568.475 C2050.612,568.475 2050.803,568.454 2050.994,568.411 C2051.690,568.252 2052.387,568.093 2053.084,567.934 C2053.213,567.904 2053.346,567.883 2053.478,567.872 C2054.347,567.801 2055.210,567.765 2056.067,567.765 C2060.443,567.765 2064.656,568.695 2068.704,570.554 C2068.825,570.609 2068.942,570.674 2069.053,570.746 C2071.105,572.072 2073.157,573.398 2075.211,574.723 C2075.321,574.794 2075.426,574.872 2075.526,574.957 C2081.322,579.947 2085.054,587.108 2085.772,594.728 C2085.997,597.115 2085.922,599.514 2085.569,601.866 ZM1792.761,252.000 L1699.907,252.000 C1699.423,252.000 1698.999,251.687 1698.852,251.230 C1698.465,250.031 1698.205,248.790 1698.085,247.527 C1697.632,242.754 1699.163,237.905 1702.291,234.252 C1704.324,231.900 1706.797,230.173 1709.711,229.071 C1709.764,229.051 1709.819,229.034 1709.875,229.022 C1710.334,228.918 1710.793,228.814 1711.252,228.709 C1711.842,228.575 1712.211,227.996 1712.080,227.410 C1711.884,226.530 1711.739,225.637 1711.654,224.735 C1711.080,218.688 1713.020,212.542 1716.983,207.914 C1720.521,203.784 1726.603,200.000 1732.267,200.000 C1738.642,200.000 1744.202,201.059 1749.218,205.288 C1753.018,208.493 1755.672,212.898 1756.750,217.705 C1756.864,218.214 1757.318,218.558 1757.821,218.558 C1757.902,218.558 1757.985,218.549 1758.068,218.530 L1758.079,218.527 C1758.136,218.515 1758.194,218.506 1758.252,218.501 C1758.775,218.457 1759.295,218.436 1759.811,218.436 C1762.405,218.436 1764.902,218.985 1767.300,220.084 C1767.353,220.108 1767.404,220.136 1767.453,220.167 C1768.683,220.956 1769.912,221.745 1771.142,222.533 C1771.188,222.563 1771.233,222.596 1771.275,222.632 C1774.712,225.560 1776.924,229.769 1777.350,234.250 C1777.391,234.683 1777.415,235.117 1777.423,235.551 C1777.434,236.153 1777.942,236.606 1778.522,236.606 C1778.603,236.606 1778.687,236.597 1778.770,236.578 C1779.074,236.509 1779.377,236.440 1779.681,236.371 C1779.738,236.358 1779.796,236.349 1779.853,236.344 C1780.233,236.314 1780.609,236.298 1780.983,236.298 C1782.892,236.298 1784.730,236.701 1786.496,237.507 C1786.548,237.531 1786.599,237.559 1786.648,237.590 C1787.543,238.164 1788.438,238.739 1789.334,239.313 C1789.382,239.344 1789.428,239.378 1789.472,239.415 C1792.000,241.577 1793.628,244.680 1793.941,247.982 C1794.040,249.016 1794.007,250.056 1793.853,251.075 C1793.772,251.608 1793.304,252.000 1792.761,252.000 ZM1766.186,74.000 L1726.529,74.000 C1726.297,74.000 1726.097,73.834 1726.063,73.609 C1725.997,73.177 1725.983,72.738 1726.025,72.300 C1726.159,70.903 1726.854,69.590 1727.934,68.675 C1727.952,68.660 1727.972,68.645 1727.993,68.632 C1728.375,68.390 1728.758,68.146 1729.140,67.903 C1729.161,67.890 1729.182,67.878 1729.205,67.868 C1729.959,67.527 1730.744,67.357 1731.559,67.357 C1731.719,67.357 1731.880,67.363 1732.042,67.376 C1732.066,67.379 1732.091,67.382 1732.115,67.388 C1732.245,67.417 1732.375,67.446 1732.504,67.475 C1732.540,67.483 1732.576,67.487 1732.610,67.487 C1732.858,67.487 1733.075,67.295 1733.080,67.041 C1733.083,66.857 1733.093,66.674 1733.111,66.490 C1733.293,64.595 1734.237,62.814 1735.705,61.575 C1735.723,61.560 1735.742,61.546 1735.762,61.533 C1736.287,61.200 1736.812,60.866 1737.338,60.532 C1737.359,60.519 1737.381,60.507 1737.403,60.497 C1738.427,60.032 1739.493,59.800 1740.602,59.800 C1740.822,59.800 1741.044,59.809 1741.267,59.827 C1741.292,59.829 1741.317,59.833 1741.341,59.839 L1741.346,59.840 C1741.381,59.848 1741.417,59.851 1741.451,59.851 C1741.666,59.851 1741.860,59.706 1741.909,59.491 C1742.369,57.457 1743.503,55.593 1745.125,54.237 C1747.268,52.448 1749.642,52.000 1752.365,52.000 C1754.784,52.000 1757.381,53.601 1758.892,55.348 C1760.585,57.306 1761.414,59.906 1761.169,62.465 C1761.132,62.847 1761.070,63.224 1760.987,63.596 C1760.931,63.844 1761.088,64.090 1761.340,64.146 C1761.536,64.190 1761.732,64.234 1761.928,64.278 C1761.952,64.284 1761.976,64.291 1761.998,64.299 C1763.243,64.766 1764.299,65.496 1765.167,66.491 C1766.503,68.037 1767.157,70.088 1766.964,72.108 C1766.912,72.642 1766.801,73.167 1766.636,73.674 C1766.573,73.868 1766.392,74.000 1766.186,74.000 ZM1655.435,1005.654 C1649.055,1005.654 1642.913,1004.207 1637.639,1001.420 C1632.080,1009.338 1623.650,1015.000 1613.873,1015.000 C1603.964,1015.000 1594.578,1011.803 1587.704,1005.744 C1585.591,1007.338 1583.276,1008.634 1580.738,1009.609 C1578.355,1010.166 1575.972,1010.725 1573.591,1011.281 C1572.702,1011.362 1571.820,1011.402 1570.945,1011.402 C1566.730,1011.402 1562.674,1010.471 1558.781,1008.611 C1556.728,1007.254 1554.676,1005.897 1552.623,1004.540 C1550.861,1003.009 1549.326,1001.245 1547.988,999.339 C1543.965,1003.829 1539.153,1007.170 1533.534,1009.330 C1530.425,1010.058 1527.315,1010.785 1524.205,1011.512 C1523.045,1011.616 1521.894,1011.669 1520.752,1011.669 C1515.252,1011.669 1509.960,1010.455 1504.879,1008.028 C1502.199,1006.256 1499.521,1004.485 1496.842,1002.713 C1491.972,998.480 1488.270,992.987 1486.077,986.901 C1482.022,991.198 1477.229,994.413 1471.692,996.543 L1461.957,998.819 C1460.745,998.929 1459.544,998.983 1458.352,998.983 C1452.612,998.983 1447.090,997.716 1441.787,995.183 L1433.400,989.637 C1425.795,983.029 1420.901,973.478 1419.964,963.311 C1418.997,952.814 1422.265,942.142 1428.942,934.109 C1433.319,928.888 1438.655,925.067 1444.950,922.645 C1446.770,922.219 1448.588,921.795 1450.409,921.370 C1449.765,919.590 1449.339,917.730 1449.160,915.830 C1448.590,909.772 1450.516,903.617 1454.450,898.980 C1457.031,895.968 1460.175,893.764 1463.884,892.367 C1465.797,891.929 1467.708,891.491 1469.621,891.053 C1470.334,890.990 1471.041,890.958 1471.743,890.958 C1475.125,890.958 1478.380,891.689 1481.506,893.152 C1482.809,893.995 1484.112,894.839 1485.417,895.682 C1486.756,887.744 1490.126,880.194 1495.269,874.004 C1500.308,867.995 1506.451,863.596 1513.697,860.809 C1517.432,859.936 1521.169,859.061 1524.905,858.188 C1526.298,858.063 1527.679,858.000 1529.050,858.000 C1535.658,858.000 1542.016,859.458 1548.121,862.375 C1551.338,864.503 1554.558,866.629 1557.776,868.757 C1561.496,871.991 1564.646,875.839 1567.129,880.091 C1567.312,879.860 1567.477,879.616 1567.665,879.390 C1572.513,873.608 1578.423,869.377 1585.396,866.695 C1588.989,865.855 1592.585,865.014 1596.179,864.174 C1597.520,864.053 1598.851,863.993 1600.171,863.993 C1606.528,863.993 1612.644,865.396 1618.516,868.202 L1627.806,874.343 C1635.438,880.976 1640.596,890.290 1642.269,900.358 C1659.408,900.827 1674.618,911.395 1676.348,930.162 C1676.944,936.632 1675.334,943.513 1672.117,949.512 C1678.351,954.382 1682.665,961.600 1683.523,970.918 C1685.000,986.963 1672.436,1005.654 1655.435,1005.654 ZM1514.393,595.000 L1468.933,595.000 C1468.697,595.000 1468.489,594.850 1468.417,594.630 C1468.228,594.053 1468.100,593.457 1468.041,592.850 C1467.820,590.555 1468.569,588.223 1470.101,586.467 C1471.096,585.337 1472.307,584.506 1473.733,583.976 C1473.759,583.967 1473.786,583.959 1473.814,583.953 C1474.038,583.903 1474.263,583.853 1474.488,583.802 C1474.777,583.738 1474.957,583.459 1474.893,583.178 C1474.797,582.755 1474.726,582.326 1474.685,581.892 C1474.404,578.985 1475.354,576.030 1477.294,573.805 C1479.026,571.819 1482.004,570.000 1484.776,570.000 C1487.898,570.000 1490.620,570.509 1493.076,572.542 C1494.936,574.083 1496.235,576.201 1496.763,578.512 C1496.819,578.756 1497.041,578.922 1497.287,578.922 C1497.327,578.922 1497.368,578.918 1497.408,578.909 L1497.414,578.907 C1497.442,578.901 1497.470,578.897 1497.498,578.895 C1497.755,578.874 1498.009,578.863 1498.261,578.863 C1499.532,578.863 1500.754,579.127 1501.928,579.656 C1501.954,579.667 1501.979,579.681 1502.003,579.696 C1502.605,580.075 1503.207,580.454 1503.809,580.833 C1503.832,580.848 1503.853,580.864 1503.874,580.881 C1505.557,582.288 1506.640,584.312 1506.849,586.466 C1506.869,586.675 1506.880,586.883 1506.884,587.092 C1506.890,587.381 1507.138,587.599 1507.422,587.599 C1507.462,587.599 1507.503,587.595 1507.543,587.585 C1507.692,587.552 1507.841,587.519 1507.990,587.486 C1508.017,587.480 1508.046,587.476 1508.074,587.473 C1508.260,587.458 1508.444,587.451 1508.627,587.451 C1509.562,587.451 1510.461,587.645 1511.326,588.032 C1511.352,588.044 1511.377,588.057 1511.401,588.072 C1511.839,588.348 1512.277,588.624 1512.716,588.901 C1512.739,588.915 1512.762,588.932 1512.783,588.949 C1514.021,589.989 1514.818,591.481 1514.971,593.068 C1515.019,593.566 1515.003,594.065 1514.928,594.555 C1514.888,594.812 1514.659,595.000 1514.393,595.000 ZM1472.834,356.415 C1470.437,356.960 1468.041,357.506 1465.645,358.053 C1465.430,358.072 1465.219,358.074 1465.004,358.089 C1463.972,363.459 1461.577,368.552 1457.993,372.753 C1454.356,376.977 1449.923,380.068 1444.694,382.027 C1441.999,382.640 1439.303,383.255 1436.607,383.869 C1435.601,383.957 1434.603,384.001 1433.613,384.001 C1428.845,384.001 1424.258,382.976 1419.852,380.926 C1417.691,379.534 1415.530,378.144 1413.369,376.752 C1410.924,379.049 1407.808,380.539 1404.326,380.539 C1399.391,380.539 1394.733,378.893 1391.460,375.788 C1389.668,376.906 1387.757,377.853 1385.717,378.618 C1383.078,379.219 1380.438,379.820 1377.798,380.421 C1376.812,380.507 1375.835,380.551 1374.866,380.551 C1370.197,380.551 1365.706,379.547 1361.393,377.540 C1359.119,376.076 1356.845,374.611 1354.571,373.147 C1352.448,371.350 1350.591,369.274 1349.028,367.002 C1344.606,369.795 1339.534,371.701 1334.669,371.701 C1325.250,371.701 1317.038,370.131 1309.629,363.859 C1302.961,358.216 1298.670,350.059 1297.848,341.376 C1297.000,332.411 1299.866,323.298 1305.720,316.437 C1310.945,310.315 1319.930,304.704 1328.294,304.704 C1329.878,304.704 1331.425,304.754 1332.942,304.857 C1332.242,294.740 1335.563,284.543 1342.165,276.806 C1346.629,271.621 1352.071,267.825 1358.491,265.420 L1368.421,263.159 C1369.655,263.050 1370.879,262.996 1372.095,262.996 C1377.949,262.996 1383.582,264.255 1388.990,266.771 L1397.544,272.278 C1400.159,274.493 1402.451,277.043 1404.388,279.834 L1412.070,278.085 C1413.180,277.987 1414.282,277.939 1415.375,277.939 C1420.640,277.939 1425.705,279.070 1430.570,281.333 C1433.133,282.985 1435.698,284.636 1438.263,286.287 C1443.929,291.084 1447.957,297.617 1449.728,304.770 C1450.803,304.208 1451.924,303.707 1453.087,303.271 C1455.485,302.726 1457.880,302.179 1460.277,301.634 C1461.171,301.555 1462.058,301.516 1462.938,301.516 C1467.177,301.516 1471.254,302.427 1475.170,304.249 C1477.234,305.578 1479.298,306.908 1481.364,308.236 C1486.977,312.989 1490.592,319.859 1491.284,327.170 C1491.998,334.720 1489.585,342.394 1484.654,348.171 C1481.422,351.927 1477.482,354.674 1472.834,356.415 ZM1210.186,858.000 L1170.529,858.000 C1170.297,858.000 1170.097,857.834 1170.063,857.609 C1169.997,857.177 1169.983,856.738 1170.025,856.300 C1170.159,854.903 1170.854,853.590 1171.934,852.675 C1171.952,852.660 1171.972,852.645 1171.993,852.632 C1172.375,852.390 1172.758,852.146 1173.140,851.903 C1173.161,851.890 1173.182,851.878 1173.205,851.868 C1173.959,851.527 1174.744,851.357 1175.559,851.357 C1175.719,851.357 1175.880,851.363 1176.042,851.376 C1176.066,851.379 1176.091,851.382 1176.115,851.388 C1176.245,851.417 1176.375,851.446 1176.504,851.475 C1176.540,851.483 1176.576,851.487 1176.610,851.487 C1176.858,851.487 1177.075,851.295 1177.080,851.041 C1177.083,850.857 1177.093,850.674 1177.111,850.490 C1177.293,848.595 1178.237,846.814 1179.705,845.575 C1179.723,845.560 1179.742,845.546 1179.762,845.533 C1180.287,845.200 1180.812,844.866 1181.338,844.532 C1181.359,844.519 1181.381,844.507 1181.403,844.497 C1182.427,844.032 1183.494,843.800 1184.602,843.800 C1184.822,843.800 1185.044,843.809 1185.267,843.827 C1185.292,843.829 1185.317,843.833 1185.341,843.839 L1185.346,843.840 C1185.381,843.848 1185.417,843.851 1185.451,843.851 C1185.666,843.851 1185.860,843.706 1185.909,843.491 C1186.369,841.457 1187.503,839.593 1189.125,838.237 C1191.268,836.448 1193.642,836.000 1196.365,836.000 C1198.784,836.000 1201.381,837.601 1202.892,839.348 C1204.585,841.306 1205.414,843.906 1205.169,846.465 C1205.132,846.847 1205.070,847.224 1204.987,847.596 C1204.931,847.844 1205.088,848.090 1205.340,848.146 C1205.536,848.190 1205.732,848.234 1205.928,848.278 C1205.952,848.284 1205.976,848.291 1205.998,848.299 C1207.243,848.766 1208.299,849.496 1209.167,850.491 C1210.503,852.037 1211.157,854.088 1210.964,856.108 C1210.913,856.642 1210.801,857.167 1210.636,857.674 C1210.573,857.868 1210.392,858.000 1210.186,858.000 ZM876.909,733.000 L720.217,733.000 C719.402,733.000 718.686,732.470 718.437,731.698 C717.785,729.668 717.345,727.568 717.143,725.430 C716.379,717.354 718.962,709.146 724.241,702.965 C727.671,698.985 731.844,696.063 736.762,694.197 C736.852,694.163 736.944,694.135 737.038,694.114 C737.814,693.938 738.588,693.761 739.363,693.585 C740.358,693.359 740.981,692.378 740.760,691.386 C740.429,689.897 740.184,688.386 740.041,686.860 C739.072,676.626 742.347,666.225 749.035,658.393 C755.005,651.404 765.268,645.000 774.825,645.000 C785.583,645.000 794.966,646.791 803.431,653.950 C809.843,659.372 814.322,666.828 816.141,674.963 C816.333,675.823 817.099,676.406 817.948,676.406 C818.086,676.406 818.225,676.391 818.364,676.359 L818.384,676.354 C818.480,676.332 818.578,676.317 818.675,676.309 C819.559,676.235 820.435,676.199 821.306,676.199 C825.684,676.199 829.896,677.128 833.944,678.988 C834.033,679.029 834.119,679.077 834.201,679.129 C836.277,680.464 838.352,681.799 840.427,683.133 C840.505,683.184 840.580,683.240 840.651,683.300 C846.452,688.255 850.185,695.379 850.904,702.961 C850.973,703.695 851.014,704.429 851.027,705.163 C851.045,706.181 851.903,706.948 852.880,706.948 C853.018,706.948 853.159,706.933 853.299,706.901 C853.812,706.785 854.324,706.668 854.837,706.551 C854.933,706.530 855.030,706.514 855.128,706.506 C855.768,706.454 856.403,706.428 857.034,706.428 C860.255,706.428 863.356,707.109 866.336,708.473 C866.425,708.513 866.512,708.561 866.594,708.614 C868.104,709.586 869.615,710.558 871.127,711.530 C871.208,711.582 871.285,711.639 871.358,711.702 C875.626,715.361 878.372,720.613 878.901,726.201 C879.067,727.951 879.011,729.710 878.752,731.435 C878.616,732.337 877.825,733.000 876.909,733.000 ZM873.761,52.000 L780.907,52.000 C780.423,52.000 779.999,51.687 779.851,51.230 C779.465,50.031 779.204,48.790 779.085,47.527 C778.632,42.754 780.163,37.905 783.291,34.252 C785.324,31.900 787.797,30.173 790.711,29.071 C790.764,29.051 790.819,29.034 790.875,29.022 C791.334,28.918 791.793,28.814 792.252,28.709 C792.842,28.576 793.211,27.996 793.080,27.410 C792.884,26.530 792.739,25.637 792.654,24.735 C792.080,18.688 794.020,12.542 797.983,7.914 C801.521,3.784 807.603,0.000 813.267,0.000 C819.642,0.000 825.202,1.059 830.218,5.288 C834.018,8.493 836.672,12.898 837.750,17.705 C837.864,18.214 838.318,18.558 838.821,18.558 C838.902,18.558 838.985,18.549 839.068,18.530 L839.079,18.527 C839.136,18.515 839.194,18.506 839.252,18.501 C839.775,18.457 840.295,18.436 840.811,18.436 C843.405,18.436 845.901,18.985 848.300,20.084 C848.353,20.108 848.404,20.136 848.452,20.167 C849.683,20.956 850.912,21.745 852.141,22.533 C852.188,22.563 852.233,22.596 852.275,22.632 C855.712,25.560 857.924,29.769 858.350,34.250 C858.391,34.683 858.415,35.117 858.423,35.551 C858.434,36.153 858.942,36.606 859.522,36.606 C859.603,36.606 859.686,36.597 859.770,36.578 C860.074,36.509 860.377,36.440 860.681,36.371 C860.738,36.358 860.796,36.349 860.853,36.344 C861.233,36.314 861.609,36.298 861.983,36.298 C863.892,36.298 865.729,36.701 867.495,37.507 C867.548,37.531 867.599,37.559 867.648,37.590 C868.543,38.164 869.438,38.739 870.334,39.313 C870.382,39.344 870.428,39.378 870.471,39.415 C873.000,41.577 874.628,44.680 874.941,47.982 C875.040,49.016 875.007,50.056 874.853,51.075 C874.772,51.608 874.304,52.000 873.761,52.000 ZM777.761,270.000 L684.907,270.000 C684.423,270.000 683.999,269.687 683.852,269.230 C683.465,268.031 683.204,266.790 683.085,265.527 C682.632,260.754 684.163,255.905 687.291,252.252 C689.324,249.900 691.797,248.173 694.711,247.071 C694.764,247.051 694.819,247.034 694.875,247.022 C695.334,246.918 695.793,246.814 696.252,246.709 C696.842,246.575 697.211,245.996 697.080,245.410 C696.884,244.530 696.739,243.637 696.654,242.735 C696.080,236.688 698.020,230.542 701.983,225.914 C705.521,221.784 711.603,218.000 717.267,218.000 C723.642,218.000 729.202,219.059 734.218,223.288 C738.018,226.493 740.672,230.898 741.750,235.705 C741.864,236.214 742.318,236.558 742.821,236.558 C742.902,236.558 742.985,236.549 743.068,236.530 L743.079,236.527 C743.136,236.515 743.194,236.506 743.252,236.501 C743.775,236.457 744.295,236.436 744.811,236.436 C747.405,236.436 749.901,236.985 752.300,238.084 C752.353,238.108 752.404,238.136 752.452,238.167 C753.683,238.956 754.912,239.745 756.141,240.533 C756.188,240.563 756.233,240.596 756.275,240.632 C759.712,243.560 761.924,247.769 762.350,252.250 C762.391,252.683 762.415,253.117 762.423,253.551 C762.434,254.153 762.942,254.606 763.522,254.606 C763.603,254.606 763.686,254.597 763.770,254.578 C764.073,254.509 764.377,254.440 764.681,254.371 C764.738,254.358 764.796,254.349 764.853,254.344 C765.233,254.314 765.609,254.298 765.983,254.298 C767.892,254.298 769.730,254.701 771.495,255.507 C771.548,255.531 771.599,255.559 771.648,255.590 C772.543,256.164 773.438,256.739 774.334,257.313 C774.382,257.344 774.428,257.378 774.471,257.415 C777.000,259.577 778.628,262.680 778.941,265.982 C779.039,267.016 779.007,268.056 778.853,269.075 C778.772,269.608 778.304,270.000 777.761,270.000 ZM496.148,474.230 C496.001,474.687 495.576,475.000 495.093,475.000 L402.239,475.000 C401.696,475.000 401.228,474.608 401.147,474.075 C400.993,473.056 400.960,472.016 401.058,470.982 C401.372,467.680 402.999,464.577 405.528,462.415 C405.572,462.378 405.617,462.344 405.666,462.313 C406.562,461.739 407.457,461.164 408.352,460.590 C408.400,460.559 408.452,460.531 408.504,460.507 C410.270,459.701 412.108,459.298 414.017,459.298 C414.391,459.298 414.767,459.314 415.146,459.344 C415.204,459.349 415.262,459.358 415.318,459.371 C415.622,459.440 415.926,459.509 416.230,459.578 C416.313,459.597 416.396,459.606 416.478,459.606 C417.058,459.606 417.566,459.153 417.576,458.551 C417.584,458.117 417.609,457.683 417.649,457.250 C418.075,452.769 420.287,448.560 423.725,445.632 C423.767,445.596 423.811,445.563 423.858,445.533 C425.088,444.745 426.317,443.956 427.547,443.167 C427.596,443.136 427.647,443.108 427.700,443.084 C430.098,441.985 432.595,441.436 435.189,441.436 C435.705,441.436 436.224,441.457 436.748,441.501 C436.806,441.506 436.864,441.515 436.920,441.527 L436.932,441.530 C437.015,441.549 437.097,441.558 437.179,441.558 C437.682,441.558 438.136,441.214 438.250,440.705 C439.327,435.898 441.982,431.493 445.781,428.288 C450.798,424.059 456.358,423.000 462.733,423.000 C468.396,423.000 474.478,426.784 478.016,430.914 C481.980,435.542 483.920,441.688 483.346,447.735 C483.261,448.637 483.116,449.530 482.920,450.410 C482.789,450.996 483.158,451.576 483.747,451.709 C484.207,451.814 484.666,451.918 485.125,452.022 C485.181,452.034 485.236,452.051 485.289,452.071 C488.203,453.174 490.676,454.900 492.709,457.252 C495.837,460.905 497.368,465.754 496.915,470.527 C496.795,471.790 496.534,473.031 496.148,474.230 ZM412.393,302.000 L366.933,302.000 C366.697,302.000 366.489,301.850 366.417,301.630 C366.228,301.053 366.100,300.457 366.041,299.849 C365.820,297.555 366.569,295.223 368.101,293.467 C369.096,292.337 370.307,291.506 371.733,290.976 C371.759,290.967 371.786,290.959 371.814,290.953 C372.038,290.903 372.263,290.853 372.488,290.803 C372.777,290.738 372.957,290.460 372.893,290.178 C372.797,289.755 372.726,289.326 372.685,288.892 C372.404,285.985 373.354,283.030 375.294,280.805 C377.026,278.819 380.004,277.000 382.776,277.000 C385.898,277.000 388.620,277.509 391.076,279.542 C392.936,281.083 394.235,283.201 394.763,285.512 C394.819,285.756 395.041,285.922 395.287,285.922 C395.327,285.922 395.368,285.918 395.408,285.909 L395.414,285.907 C395.442,285.901 395.470,285.897 395.498,285.895 C395.755,285.874 396.009,285.863 396.261,285.863 C397.532,285.863 398.754,286.127 399.928,286.656 C399.954,286.667 399.979,286.681 400.003,286.696 C400.605,287.075 401.207,287.454 401.809,287.833 C401.832,287.848 401.853,287.863 401.874,287.881 C403.557,289.288 404.640,291.312 404.849,293.466 C404.869,293.675 404.880,293.883 404.884,294.092 C404.890,294.381 405.138,294.599 405.422,294.599 C405.462,294.599 405.503,294.595 405.543,294.585 C405.692,294.552 405.841,294.519 405.990,294.486 C406.017,294.480 406.046,294.476 406.074,294.473 C406.260,294.458 406.444,294.451 406.627,294.451 C407.562,294.451 408.461,294.645 409.326,295.032 C409.352,295.044 409.377,295.057 409.401,295.072 C409.839,295.348 410.277,295.624 410.716,295.901 C410.739,295.915 410.762,295.932 410.783,295.949 C412.021,296.989 412.818,298.481 412.971,300.068 C413.019,300.566 413.003,301.065 412.928,301.555 C412.888,301.812 412.659,302.000 412.393,302.000 ZM378.932,805.870 C383.276,812.049 385.000,819.789 383.684,827.222 C382.769,832.299 380.646,836.807 377.313,840.748 C375.504,842.388 373.696,844.027 371.887,845.668 L370.640,846.619 C366.529,849.466 361.979,851.136 356.993,851.629 C354.450,851.524 351.905,851.421 349.361,851.317 C348.972,851.249 348.587,851.168 348.203,851.084 C346.979,853.577 345.451,855.925 343.632,858.056 C339.773,862.539 335.067,865.822 329.518,867.899 C326.658,868.551 323.795,869.203 320.935,869.855 C319.868,869.949 318.810,869.995 317.760,869.995 C312.699,869.995 307.829,868.908 303.153,866.732 C302.015,865.999 300.877,865.266 299.740,864.533 C299.259,864.738 298.779,864.943 298.284,865.129 C295.548,865.752 292.811,866.376 290.075,866.999 C289.054,867.089 288.041,867.134 287.036,867.134 C282.195,867.134 277.538,866.092 273.066,864.012 C270.708,862.494 268.351,860.975 265.994,859.457 C265.791,859.286 265.597,859.104 265.398,858.928 C262.004,862.547 257.965,865.249 253.264,867.009 C250.609,867.614 247.954,868.219 245.298,868.824 C244.308,868.912 243.326,868.955 242.351,868.955 C237.654,868.955 233.135,867.945 228.795,865.925 C226.507,864.452 224.220,862.979 221.933,861.507 C220.956,860.680 220.040,859.788 219.177,858.853 C218.221,859.353 217.226,859.796 216.193,860.183 L209.801,861.640 C209.006,861.710 208.217,861.745 207.433,861.745 C203.665,861.745 200.040,860.934 196.559,859.314 C194.722,858.133 192.888,856.951 191.053,855.768 C186.060,851.542 182.848,845.434 182.231,838.933 C182.125,837.805 182.104,836.675 182.151,835.550 C181.263,834.979 180.376,834.407 179.489,833.836 C173.951,829.147 170.387,822.371 169.705,815.159 C169.000,807.712 171.380,800.143 176.243,794.442 C179.431,790.739 183.316,788.029 187.902,786.310 C190.264,785.773 192.629,785.234 194.992,784.696 C195.844,784.621 196.689,784.584 197.528,784.584 C198.938,784.584 200.330,784.688 201.705,784.889 C201.990,777.748 204.660,770.771 209.331,765.296 C212.999,761.035 217.470,757.917 222.743,755.941 C225.463,755.321 228.182,754.701 230.901,754.082 C232.509,754.036 234.135,753.987 235.762,753.987 C238.280,753.987 240.799,754.105 243.244,754.537 C247.238,755.241 251.169,756.596 254.870,758.252 C259.316,760.242 263.045,763.220 265.961,766.815 C269.398,762.832 273.584,759.914 278.521,758.066 C281.073,757.484 283.625,756.902 286.177,756.322 C287.129,756.238 288.074,756.196 289.011,756.196 C293.526,756.197 297.868,757.166 302.040,759.107 C304.237,760.524 306.437,761.939 308.636,763.354 C309.693,764.250 310.680,765.220 311.598,766.246 C314.239,764.172 317.177,762.522 320.419,761.307 C323.156,760.684 325.892,760.061 328.630,759.437 C329.649,759.347 330.661,759.302 331.665,759.302 C336.507,759.302 341.165,760.343 345.638,762.425 C347.995,763.942 350.353,765.461 352.711,766.979 C359.122,772.407 363.250,780.253 364.041,788.604 C364.242,790.739 364.224,792.883 363.999,795.001 C370.001,796.879 375.296,800.699 378.932,805.870 ZM200.373,237.637 L191.981,243.183 C186.675,245.716 181.150,246.983 175.406,246.983 C174.214,246.983 173.012,246.929 171.800,246.819 L162.058,244.543 C156.518,242.413 151.722,239.198 147.665,234.901 C145.470,240.987 141.766,246.480 136.894,250.713 C134.213,252.485 131.534,254.256 128.852,256.028 C123.767,258.455 118.472,259.669 112.969,259.669 C111.826,259.669 110.675,259.617 109.514,259.512 C106.402,258.785 103.291,258.058 100.180,257.330 C94.557,255.170 89.743,251.829 85.717,247.339 C84.378,249.245 82.842,251.009 81.080,252.540 C79.025,253.897 76.972,255.254 74.918,256.611 C71.022,258.471 66.964,259.402 62.746,259.402 C61.871,259.402 60.989,259.362 60.099,259.282 C57.717,258.725 55.332,258.166 52.948,257.609 C50.409,256.634 48.092,255.338 45.978,253.744 C39.099,259.803 29.708,263.000 19.793,263.000 C10.010,263.000 1.575,257.338 -3.987,249.420 C-9.264,252.208 -15.409,253.654 -21.794,253.654 C-38.804,253.654 -51.376,234.963 -49.897,218.918 C-49.039,209.600 -44.723,202.382 -38.486,197.512 C-41.704,191.513 -43.315,184.632 -42.719,178.162 C-40.988,159.395 -25.768,148.827 -8.619,148.358 C-6.945,138.290 -1.785,128.976 5.852,122.343 L15.147,116.202 C21.023,113.396 27.142,111.993 33.503,111.993 C34.825,111.993 36.156,112.053 37.498,112.174 C41.094,113.014 44.691,113.855 48.288,114.695 C55.264,117.377 61.177,121.608 66.029,127.390 C66.216,127.616 66.382,127.860 66.565,128.091 C69.049,123.839 72.201,119.991 75.924,116.757 C79.143,114.629 82.365,112.503 85.584,110.375 C91.693,107.458 98.055,106.000 104.666,106.000 C106.038,106.000 107.420,106.063 108.814,106.188 C112.552,107.061 116.291,107.936 120.029,108.809 C127.279,111.596 133.426,115.995 138.467,122.004 C143.614,128.194 146.985,135.745 148.326,143.682 C149.631,142.839 150.935,141.995 152.238,141.152 C155.366,139.689 158.623,138.958 162.008,138.958 C162.710,138.958 163.417,138.990 164.131,139.053 C166.045,139.491 167.957,139.929 169.871,140.367 C173.583,141.764 176.728,143.968 179.310,146.980 C183.247,151.617 185.174,157.772 184.604,163.830 C184.425,165.730 183.998,167.590 183.354,169.370 C185.176,169.795 186.996,170.219 188.816,170.645 C195.115,173.067 200.454,176.888 204.833,182.109 C211.514,190.142 214.785,200.814 213.817,211.311 C212.879,221.478 207.983,231.029 200.373,237.637 Z" class="cls-1"/>
</svg>
