<svg xmlns="http://www.w3.org/2000/svg" xmlns:xlink="http://www.w3.org/1999/xlink" preserveAspectRatio="xMidYMid" width="73" height="74.938" viewBox="0 0 73 74.938">
  <defs>
    <style>
      .cls-1 {
        fill: #ffc509;
        fill-rule: evenodd;
      }
    </style>
  </defs>
  <path d="M69.828,39.196 L64.190,39.196 C62.451,39.196 61.022,38.106 61.022,36.782 C61.022,35.451 62.451,34.368 64.190,34.368 L69.828,34.368 C71.566,34.368 72.988,35.451 72.988,36.782 C72.988,38.106 71.566,39.196 69.828,39.196 ZM66.561,22.064 L61.678,24.907 C60.173,25.786 58.396,25.569 57.739,24.416 C57.082,23.264 57.778,21.606 59.283,20.732 L64.166,17.890 C65.673,17.011 67.441,17.236 68.105,18.382 C68.762,19.534 68.068,21.193 66.561,22.064 ZM52.417,13.811 C51.543,15.328 49.898,16.030 48.763,15.360 C47.620,14.698 47.396,12.914 48.269,11.397 L51.088,6.475 C51.953,4.956 53.598,4.256 54.743,4.918 C55.886,5.580 56.102,7.362 55.237,8.881 L52.417,13.811 ZM36.496,12.051 C35.175,12.051 34.101,10.617 34.101,8.865 L34.101,3.182 C34.101,1.421 35.175,-0.012 36.496,-0.012 C37.809,-0.012 38.891,1.421 38.891,3.182 L38.891,8.865 C38.891,10.617 37.809,12.051 36.496,12.051 ZM24.230,15.368 C23.087,16.030 21.441,15.328 20.575,13.811 L17.755,8.889 C16.883,7.370 17.106,5.580 18.244,4.918 C19.387,4.256 21.032,4.956 21.904,6.475 L24.716,11.397 C25.588,12.914 25.373,14.698 24.230,15.368 ZM11.314,24.907 L6.432,22.064 C4.925,21.193 4.231,19.534 4.887,18.382 C5.544,17.236 7.320,17.011 8.827,17.890 L13.709,20.732 C15.214,21.606 15.902,23.264 15.246,24.416 C14.589,25.569 12.819,25.786 11.314,24.907 ZM11.963,36.782 C11.963,38.106 10.541,39.196 8.803,39.196 L3.165,39.196 C1.419,39.196 -0.003,38.106 -0.003,36.782 C-0.003,35.451 1.419,34.368 3.165,34.368 L8.803,34.368 C10.541,34.368 11.963,35.451 11.963,36.782 ZM6.432,51.492 L11.314,48.650 C12.819,47.771 14.589,47.996 15.246,49.148 C15.902,50.292 15.214,51.951 13.701,52.832 L8.827,55.675 C7.312,56.546 5.544,56.329 4.887,55.176 C4.231,54.022 4.925,52.372 6.432,51.492 ZM36.496,18.248 C46.600,18.248 54.788,26.153 54.788,35.917 C54.788,47.497 46.817,50.450 46.817,57.192 C46.817,58.851 45.573,60.386 43.704,61.522 C44.128,61.857 44.369,62.240 44.369,62.636 C44.369,63.127 43.997,63.593 43.348,63.998 C44.037,64.411 44.438,64.887 44.438,65.401 C44.438,65.906 44.043,66.382 43.372,66.795 C44.037,67.199 44.414,67.666 44.414,68.172 C44.414,68.796 43.827,69.364 42.838,69.831 C43.202,70.166 43.410,70.549 43.410,70.937 C43.410,72.121 41.565,73.132 38.976,73.531 C38.527,74.364 37.616,74.948 36.550,74.948 C35.484,74.948 34.564,74.364 34.117,73.523 C31.552,73.118 29.729,72.113 29.729,70.937 C29.729,70.541 29.947,70.158 30.316,69.815 C29.351,69.356 28.772,68.788 28.772,68.164 C28.772,67.658 29.165,67.183 29.838,66.779 C29.181,66.374 28.794,65.900 28.794,65.401 C28.794,64.903 29.173,64.442 29.814,64.038 C29.126,63.625 28.725,63.143 28.725,62.628 C28.725,62.245 28.950,61.881 29.344,61.554 C27.443,60.410 26.183,58.859 26.183,57.192 C26.183,50.450 18.204,47.497 18.204,35.911 C18.204,26.153 26.393,18.248 36.496,18.248 ZM26.949,46.844 C28.772,49.537 30.835,52.591 30.965,56.779 C31.592,57.489 33.823,58.633 36.504,58.633 C39.176,58.633 41.408,57.489 42.035,56.787 C42.158,52.591 44.221,49.545 46.044,46.844 C48.075,43.837 49.999,40.995 49.999,35.911 C49.999,28.832 43.944,23.069 36.496,23.069 C29.049,23.069 22.986,28.832 22.986,35.911 C22.986,40.995 24.910,43.837 26.949,46.844 ZM61.678,48.650 L66.561,51.492 C68.068,52.372 68.762,54.022 68.105,55.176 C67.441,56.329 65.673,56.546 64.166,55.675 L59.283,52.832 C57.778,51.951 57.082,50.292 57.739,49.148 C58.396,47.996 60.173,47.771 61.678,48.650 Z" class="cls-1"/>
</svg>
