<?xml version="1.0" encoding="utf-8"?>
<!-- Generator: Adobe Illustrator 19.0.0, SVG Export Plug-In . SVG Version: 6.00 Build 0)  -->
<svg version="1.1" id="Layer_1" xmlns="http://www.w3.org/2000/svg" xmlns:xlink="http://www.w3.org/1999/xlink" x="0px" y="0px"
	 viewBox="-112 -11 387 426.9" style="enable-background:new -112 -11 387 426.9;" xml:space="preserve">
<style type="text/css">
	.st0{opacity:0.4;}
	.st1{fill:none;stroke:#474747;stroke-width:8;stroke-miterlimit:10;}
	.st2{fill:#474747;}
	.st3{fill:#F5CE9F;}
	.st4{fill:#3D9B46;}
	.st5{fill:#FFFFFF;stroke:#474747;stroke-width:3;stroke-linecap:round;stroke-linejoin:round;stroke-miterlimit:10;}
	.st6{fill:#FFC569;}
	.st7{fill:#FFFFFF;}
</style>
<g class="st0">
	<g>
		<path d="M45,294.5c-1.2,0-2.2,1-2.2,2.2v89.6c0,1.2,1,2.2,2.2,2.2s2.2-1,2.2-2.2v-89.6C47.1,295.5,46.2,294.5,45,294.5z
			 M108,293.2c-1.2,0-2.2,1-2.2,2.2V339c0,1.2,1,2.2,2.2,2.2s2.2-1,2.2-2.2v-43.7C110.1,294.1,109.2,293.2,108,293.2z M197.5,358.4
			c-1.2,0-2.2,1-2.2,2.2v33.8c0,1.2,1,2.2,2.2,2.2s2.2-1,2.2-2.2v-33.8C199.7,359.4,198.7,358.4,197.5,358.4z M197.5,294.4
			c-1.2,0-2.2,1-2.2,2.2V336c0,1.2,1,2.2,2.2,2.2s2.2-1,2.2-2.2v-39.5C199.7,295.4,198.7,294.4,197.5,294.4z M152.7,398.9
			c-1.2,0-2.2,1-2.2,2.2v12.6c0,1.2,1,2.2,2.2,2.2s2.2-1,2.2-2.2v-12.6C154.9,399.9,153.9,398.9,152.7,398.9z M152.7,354
			c-1.2,0-2.2,1-2.2,2.2v26.1c0,1.2,1,2.2,2.2,2.2s2.2-1,2.2-2.2v-26.1C154.9,355,153.9,354,152.7,354z"/>
	</g>
</g>
<path class="st1" d="M20.9,117.4C22.8,44,117,20,183.6,53.2"/>
<path class="st2" d="M31.4,158H23c-5.7,0-10.4-4.6-10.4-10.4c-3.6-6.7-4.3-14.2,0-22.6c0-5.7,4.6-10.4,10.4-10.4h8.4
	c5.7,0,10.4,4.6,10.4,10.4v22.6C41.8,153.4,37.2,158,31.4,158z"/>
<path class="st3" d="M224.4,196.6c-8.3-71.8-16.5-143.4-16.5-143.4h-169c0,0-8,69.4-16.2,140.1"/>
<path class="st4" d="M244.2,214.5c6.2-26.3-11.8-40.3-23-42.1c-64.8,24.5-124.5,20-193.8-2.3c0,0-10-1.7-23.7,9.4
	c0,0-40,38.3-103.6,41.7c12,30.3,30,51.2,63.3,43.9c6.3,11.9,19.1,31,42.6,27.2c-1.9,16.7-3.1,26.8-3.1,26.8h235.3
	c0,0-15.1-89-12.7-116.4C226.2,194.8,243.3,213.7,244.2,214.5z"/>
<path class="st3" d="M20.7,257.3c-3.9-2.9-7.6-4.6-11-5.3C5.3,242.7,0,231.6,0,231.6l18.1-10.7l3.7-24.3c-0.6,0.2-39.9,22.3-40,22.3
	c-4.5,2.5-6.4,7.8-4.1,12.5l19.6,41.3c2.9,3.5,16.3,17.2,31.8,5.4C36.6,272.5,32.3,265.9,20.7,257.3z"/>
<path class="st3" d="M262.6,222.7c-0.1,0-38.2-28.3-38.2-28.3l3.2,30.7l17.5,11.1l-7,7.9c-3.2-0.2-6.7,0.2-10.6,1.2
	c-13.7,3.5-17.1,10.8-10.7,17.8c12.3,13.4,24.7,7.9,28.1,5.1l22.5-32.1C269.7,231.5,267,225.2,262.6,222.7z"/>
<g>
	<path class="st5" d="M17.3,196.6"/>
</g>
<path class="st6" d="M84.7,227.9c10.1-4.6,18.3-8.9,20.6-15.9h41.2c3.5,7,10.4,11.6,20.6,15.9c0,37.4-41.6,59.9-41.6,59.9
	S84.7,270.6,84.7,227.9z"/>
<path class="st2" d="M123.1,293.2c-0.5,0-0.9-0.1-1.3-0.3c-0.4-0.2-42.8-18.6-42.8-63.1c0-1.3,0.8-2.6,2-3.1
	c8.2-3.7,16.8-8.3,18.7-14.3c0.5-1.4,1.8-2.4,3.3-2.4h41.2c1.3,0,2.5,0.8,3.1,1.9c3,5.8,9,10.5,18.9,14.7c1.3,0.5,2.1,1.8,2.1,3.2
	c0,39-41.7,62-43.4,62.9C124.2,293,123.7,293.2,123.1,293.2z M85.9,232c1.2,33.9,30.1,50.3,37.1,53.8c7-4.3,36.9-24,38.3-53.8
	c-9.3-4.2-15.4-9.1-19.1-15.1h-36.9C101.9,223,94.2,228.1,85.9,232z"/>
<g>
	<path class="st2" d="M121.3,243.1c0-8.8,6.7-14.5,14.9-14.5c5.8,0,9.5,2.9,11.6,6.2l-4.9,2.7c-1.3-2-3.6-3.6-6.6-3.6
		c-5.1,0-8.8,3.9-8.8,9.2s3.7,9.2,8.8,9.2c2.5,0,4.8-1.1,6-2.1l1.9-3.4h-7.4v-5.2H152l-4.8,10.7c-2.8,3.2-5.8,5.3-10.9,5.3
		C128,257.6,121.3,251.9,121.3,243.1z"/>
</g>
<g>
	<path class="st2" d="M117,248.5c-1.2,2.2-3.6,3.8-6.4,3.8c-5.1,0-8.8-3.9-8.8-9.2s3.7-9.2,8.8-9.2c2.8,0,5.2,1.7,6.4,3.8
		c0.5-2.1,1.4-4.1,2.5-5.8c-2.1-1.9-5-3.3-8.9-3.3c-8.4,0-14.9,5.9-14.9,14.5c0,8.6,6.5,14.5,14.9,14.5c4,0,6.8-1.4,8.9-3.3
		C118.4,252.5,117.5,250.6,117,248.5z"/>
</g>
<path class="st2" d="M264.5,222.1c-1.1-0.8-8.6-6.4-16.6-12.3c0.2,0.1,0.3,0.2,0.5,0.3c1-9.5-1-16.9-3.6-22
	c-4.7-9.4-13-15.2-20.1-17.4L211.1,53.4c-0.2-1.7-1.7-3.5-3.4-3.5h-36.4c-5.8-32.2-24.1-55.8-45.7-55.8c-8.1,0-15.8,3.3-22.5,9.2
	C84.4,4.5,68.4,23.4,61.3,49.9H38.8c-1.7,0-3.2,1.8-3.4,3.5l-13.1,114c-4.8,0.7-12.3,3-21,10.2c-0.1,0.1-0.1,0.2-0.2,0.2
	c-0.4,0.4-40,37.5-101.5,40.8c-1.1,0.1-2.1,0.7-2.7,1.6c-0.6,0.9-0.7,2.1-0.3,3.1c14.5,36.6,35.6,51.8,64.7,46.5
	c10.3,18.3,23.2,27.5,38.4,27.5c0.5,0,1.1,0,1.6-0.1L-1,317c-0.1,1,0.2,1.5,0.8,2.2c0.7,0.7,1.6,0.7,2.6,0.7h235.3
	c1,0,1.9,0,2.5-0.7c0.7-0.7,1-1.5,0.9-2.4c0-0.2-1.5-15.8-4.1-39.6c4.6-0.7,8.2-2.5,10-4l0,0c0.1,0,0.1-0.1,0.1-0.1
	c0.1-0.1,0.3-0.3,0.4-0.4c0,0,0,0,0.1-0.1l22.5-32.1c0.1-0.2,0.2-0.3,0.3-0.5C273.4,233.9,270.6,225.6,264.5,222.1z M125.6,1
	c18.1,0,33.5,20.6,38.8,48.9h-15.7c-6.3-23.5-19.6-41-35.6-45.5C117.1,2.2,121.3,1,125.6,1z M105.6,10.1
	c15.9,0.3,29.6,16.5,36.1,39.7H86.9C90,32.9,96.8,18.8,105.6,10.1z M95,12.3C87.9,22,82.6,35,79.9,49.9H68.4
	C73.6,31.4,83.3,17.5,95,12.3z M41.9,56.7h37c-0.6,4.8-0.9,9.7-0.9,14.8c0,1.9,1.5,3.4,3.4,3.4s3.4-1.5,3.4-3.4
	c0-5.1,0.3-10,0.9-14.8h79.7c0.6,4.8,0.9,9.7,0.9,14.8c0,1.9,1.5,3.4,3.4,3.4s3.4-1.5,3.4-3.4c0-5.1-0.3-10-0.9-14.8h32.3l13,113.5
	c-58.4,21.6-115,20.5-188.5-3L41.9,56.7z M6.3,313l3.2-27.4c1.5,0.3,3.1,0.6,4.7,0.6c4.8,0,9.8-1.5,14.8-5.3c3.3-2.5,5-5.5,5-8.9
	c0-5.2-4.1-10.5-13.5-17.5c-1-0.8-2.1-1.5-3.1-2.1l7.2-52.4l0.1-0.1c1.5-1,11.5-3.6,33.2,6.6c0.4,0.2,0.9,0.3,1.3,0.3
	c1.4,0,2.6-0.8,3.2-2.1c0.7-1.8-0.2-3.6-1.9-4.5c-27.1-13.2-41.3-5.5-41.2-5.2c-6.2,3.3-39.3,21.9-39.4,22c-6.2,3.4-8.6,10.7-5.6,17
	c0,0,15.6,33,17.8,37.3c2.1,4.3,6.8,10,10.8,12.1l-0.8,6.8c-13.3,0.9-24.4-6.3-33.8-22.1c4.2-1,7.8-2.5,9.7-5
	c1.2-1.5,0.9-3.6-0.6-4.8c-1.5-1.2-3.1-0.1-4.8,0.6c-14.1,6.4-27,5-30.3,4.3c-11.1-2.6-27.7-15.3-37.5-38.1
	c60.3-4.8,98.2-39.6,100.9-42.2c6.5-5.3,10.9-7.4,15.8-8.2s6.9,0.1,6.9,0.1c73.9,23.4,131.1,24.3,190.2,2.9c0,0,3.7-1.3,7,0.5
	s9.9,6.5,13.1,12.8c2.1,4.3,3.2,9,3.1,14.1c-6.4-4.7-10.7-8.6-14.3-10.6c-3.7-2.1-7.2-2.4-7.2-2.4c-7.3-0.9-18.4,1.7-33.7,8
	c-1.8,0.7-2.6,2.7-1.9,4.5c0.5,1.3,1.8,2.1,3.2,2.1c0.4,0,0.9-0.1,1.3-0.3c21.4-8.7,29.5-8,32.2-7.1l2.8,26.6c0,0,0,0,0,0.1
	c0,0.2,0,0.4,0.1,0.7l0.1,1.1v0.1c0.7,5.7,1.3,11.2,1.9,16.6c-10.8,2.9-14.4,7.7-15.4,11.3c-1.2,3.9,0.1,8.2,3.6,12
	c5.4,5.9,10.9,8.2,15.9,9c1.9,17.5,3.2,31.7,3.8,36.3H6.3V313z M-2.1,229.6c-1.5,0.9-2.1,2.8-1.3,4.4l12.9,27.1
	c0.8,1.7,2.9,2.4,4.6,1.6c1.2-0.6,2-1.8,1.9-3.1c0.1,0.1,0.3,0.2,0.4,0.3c8.8,6.6,10.7,10.2,10.7,12c0,0.4,0,1.6-2.3,3.4
	c-10.4,7.9-18.8,4.2-24.7-3.2c-4-5-19.6-41.3-19.6-41.3c-1.4-3-0.2-6.4,2.7-8c1.7-0.9,23.1-13,33.8-18.9c0,0-2.7,15.6-2.8,16
	L-2.1,229.6z M13.2,228.5l-2.3,19.8l-6.8-14.4L13.2,228.5z M264.4,236.7c-1.9,2.8-22,31.4-22,31.4c-1.8,1.2-11.9,7.2-23.1-5
	c-1.3-1.4-2.7-3.4-2.1-5.4c0.8-2.7,5-5.2,11.1-6.8c1.4-0.4,2.7-0.6,3.9-0.8c0.2,0.6,0.5,1.2,1,1.7c1.4,1.3,3.6,1.1,4.8-0.3l9.5-10.8
	c0.7-0.8,1-1.8,0.8-2.8c-0.1-1-0.7-1.9-1.6-2.4l-16.1-10.2l-2.2-21.3c32,23.7,30.3,22.3,32.3,23.9
	C263,229.6,266.4,233.9,264.4,236.7z M231.9,234.1l8.1,5.1l-3.3,3.8c-1.2,0-2.4,0.1-3.7,0.2C232.5,240.2,232.2,237.2,231.9,234.1z"
	/>
<ellipse class="st2" cx="93" cy="169.5" rx="8.5" ry="6"/>
<path class="st1" d="M17.8,139.3c0,0,14.2,29.5,75.2,30.2"/>
<g>
	<g>
		<circle class="st2" cx="75.3" cy="115.7" r="7.1"/>
	</g>
	<g>
		<circle class="st7" cx="74.4" cy="112.8" r="2.1"/>
	</g>
	<g>
		<circle class="st2" cx="171.1" cy="115.7" r="7.1"/>
	</g>
	<g>
		<circle class="st7" cx="170.2" cy="112.8" r="2.1"/>
	</g>
</g>
<g>
	<path class="st2" d="M71.8,87.7c-1.2,0-2.3-0.7-2.7-1.9c-0.6-1.5,0.1-3.2,1.6-3.8l11-4.4c1.5-0.6,3.2,0.1,3.8,1.6s-0.1,3.2-1.6,3.8
		l-11,4.4C72.6,87.6,72.2,87.7,71.8,87.7z"/>
</g>
<g>
	<path class="st2" d="M175.3,85h-11.8c-1.6,0-3-1.4-3-3s1.3-3,3-3h11.8c1.6,0,3,1.4,3,3S176.9,85,175.3,85z"/>
</g>
<g>
	<path class="st2" d="M124.1,158.6c-3.3,0-7-1.1-10.2-4.1c-1.2-1.1-1.2-3-0.1-4.2c1.1-1.2,3-1.3,4.2-0.1c5.7,5.4,12.7,0.6,13,0.3
		c1.3-0.9,3.2-0.6,4.1,0.7c0.9,1.3,0.7,3.2-0.7,4.1C132.2,156.8,128.4,158.6,124.1,158.6z"/>
</g>
<path class="st2" d="M217.8,96.4c-0.7-0.2-18-5.4-40.1-5.4s-39.7,5.2-40.4,5.4c-1.3,0.4-2.1,1.6-2.1,3c-2.8-2.2-6.3-3.6-10.2-3.6
	c-3.7,0-7.1,1.2-9.9,3.3c-0.1-1.3-0.9-2.4-2.2-2.7c-0.7-0.2-18.6-5.4-40.7-5.4s-40.1,5.2-40.9,5.4c-1.3,0.4-2.5,1.6-2.5,3v10.9
	c0,23.7,19.8,42.9,43.5,42.9s43.5-19.3,43.5-42.9v-0.7c0-4.4,4.7-7.6,9.5-7.6c5.6,0,10,4.6,10,10.2c0,0.3-0.2,2.6-0.1,2.9
	c1.5,22.4,19.1,38.1,41.8,38.1c23.7,0,41.8-19.3,41.8-42.9V99.4C219,98,219.2,96.8,217.8,96.4z M72.4,147h-0.5
	C51.7,147,35,130.6,35,110.4v-8.5c7-1.3,20.6-4.5,37.4-4.5s31.2,3.2,37.4,4.5c0,0-0.9,11.2-0.7,11.6C107.5,132.2,91.5,147,72.4,147z
	 M214,110.4c0,20.2-16.3,36.7-36.5,36.7S141,130.6,141,110.4v-8.5c6-1.3,19.7-4.5,36.5-4.5s32.5,3.2,36.5,4.5V110.4z"/>
</svg>
