<?xml version="1.0" encoding="utf-8"?>
<!-- Generator: Adobe Illustrator 18.0.0, SVG Export Plug-In . SVG Version: 6.00 Build 0)  -->
<!DOCTYPE svg PUBLIC "-//W3C//DTD SVG 1.1//EN" "http://www.w3.org/Graphics/SVG/1.1/DTD/svg11.dtd">
<svg version="1.1" id="Isolation_Mode" xmlns="http://www.w3.org/2000/svg" xmlns:xlink="http://www.w3.org/1999/xlink" x="0px"
	 y="0px" viewBox="0 0 167.5 198.5" width="220" height="245" enable-background="new 0 0 167.5 198.5" xml:space="preserve">
<path fill="none" stroke="#474747" stroke-width="3" stroke-linecap="round" stroke-linejoin="round" stroke-miterlimit="10" d="
	M73.9,40c0-17.9,8.6-32.3,19.3-32.3s19.3,14.5,19.3,32.3"/>
<path fill="#F5CE9F" stroke="#474747" stroke-width="3" stroke-linecap="round" stroke-linejoin="round" stroke-miterlimit="10" d="
	M144.9,90.1c-3.6-31.4-7.2-62.7-7.2-62.7H63.9c0,0-3.5,30.3-7.1,61.2"/>
<path fill="none" stroke="#474747" stroke-width="3" stroke-linecap="round" stroke-linejoin="round" stroke-miterlimit="10" d="
	M113.5,81.7c4,1.8,7-2.7,7-2.7"/>
<circle fill="#474747" cx="79.1" cy="59.3" r="3.4"/>
<circle fill="#FFFFFF" cx="78.7" cy="57.9" r="1"/>
<circle fill="#474747" cx="125.1" cy="59.3" r="3.4"/>
<path fill="none" stroke="#474747" stroke-width="3" stroke-linecap="round" stroke-linejoin="round" stroke-miterlimit="10" d="
	M82.9,36c0-17.9,8.6-32.3,19.3-32.3s19.3,14.5,19.3,32.3"/>
<path fill="#3D9B46" stroke="#474747" stroke-width="3" stroke-linecap="round" stroke-linejoin="round" stroke-miterlimit="10" d="
	M151.4,105.4c8-15.8-1.8-24-7.6-25c-28.3,10.7-54.4,8.7-84.7-1c0,0-4.4-0.8-10.4,4.1c0,0-17.5,16.8-45.3,18.2
	c5.2,13.2,13.1,22.4,27.7,19.2c3,5.7,9.5,15.3,21.8,11.2"/>
<path fill="#3D9B46" stroke="#474747" stroke-width="3" stroke-linecap="round" stroke-linejoin="round" stroke-miterlimit="10" d="
	M146.9,103.3c2.6,22.4,4.3,40.1,4.3,40.1H48.3c0,0,2.2-19,4.9-42.1"/>
<circle fill="#FFFFFF" cx="124.7" cy="57.9" r="1"/>
<path fill="#FFFFFF" stroke="#474747" stroke-width="3" stroke-linecap="round" stroke-linejoin="round" stroke-miterlimit="10" d="
	M22.8,121c0,0,11.4,0.7,13.7-2.3"/>
<path fill="#F5B44C" stroke="#474747" stroke-width="3" stroke-linecap="round" stroke-linejoin="round" stroke-miterlimit="10" d="
	M54.8,90.6"/>
<path fill="none" stroke="#474747" stroke-width="3" stroke-linecap="round" stroke-linejoin="round" stroke-miterlimit="10" d="
	M145.2,92.4c0,0,0.3-5.8-16.8,1.2"/>
<path fill="none" stroke="#474747" stroke-width="3" stroke-linecap="round" stroke-linejoin="round" stroke-miterlimit="10" d="
	M54.3,92.4c0,0-0.3-5.8,16.8,1.2"/>
<line fill="none" stroke="#474747" stroke-width="3" stroke-linecap="round" stroke-linejoin="round" stroke-miterlimit="10" x1="74" y1="49" x2="79.8" y2="47.4"/>
<line fill="none" stroke="#474747" stroke-width="3" stroke-linecap="round" stroke-linejoin="round" stroke-miterlimit="10" x1="122.6" y1="45.5" x2="128" y2="48"/>
<path fill="#FFC569" stroke="#474747" stroke-width="3" stroke-linecap="round" stroke-linejoin="round" stroke-miterlimit="10" d="
	M83.3,105.1c4.4-2,8-4.1,9-7.1h18c1.5,3,4.6,5.2,9,7.1c0,16.3-18.2,26.2-18.2,26.2S83.3,123.8,83.3,105.1z"/>
<path fill="#474747" d="M100.3,111c0-3.9,2.9-6.3,6.5-6.3c2.5,0,4.1,1.3,5.1,2.7l-2.2,1.2c-0.5-0.9-1.6-1.6-2.9-1.6
	c-2.2,0-3.8,1.7-3.8,4s1.6,4,3.8,4c1.1,0,2.1-0.5,2.6-0.9l0.8-1.5H107v-2.3h6.6l-2.1,4.7c-1.2,1.4-2.6,2.3-4.8,2.3
	C103.2,117.3,100.3,114.8,100.3,111z"/>
<path fill="#474747" d="M98.4,113.3c-0.5,1-1.6,1.7-2.8,1.7c-2.2,0-3.8-1.7-3.8-4c0-2.3,1.6-4,3.8-4c1.2,0,2.3,0.7,2.8,1.7
	c0.2-0.9,0.6-1.8,1.1-2.5c-0.9-0.8-2.2-1.4-3.9-1.4c-3.7,0-6.5,2.6-6.5,6.3c0,3.8,2.8,6.3,6.5,6.3c1.7,0,3-0.6,3.9-1.5
	C99,115.1,98.6,114.2,98.4,113.3z"/>
<path fill="#F5CE9F" stroke="#474747" stroke-width="3" stroke-linecap="round" stroke-linejoin="round" stroke-miterlimit="10" d="
	M42.9,118.4c0.1-0.2,0.1-0.4,0.2-0.6c1.8-3.6,6.2-4.4,11.2-0.7c5.1,3.8,6.9,6.7,3.7,9.1c-6.8,5.1-12.6-0.9-13.9-2.4"/>
<g>
	<path fill="#F5CE9F" d="M50.9,117.8c-2-4.2-5.6-11.9-5.6-11.9l7.9-4.7l1.6-10.6c-0.3,0.1-17.4,9.7-17.5,9.7c-2,1.1-2.8,3.4-1.8,5.5
		l8.6,18"/>
	<path fill="none" stroke="#474747" stroke-width="3" stroke-linecap="round" stroke-linejoin="round" stroke-miterlimit="10" d="
		M50.9,117.8c-2-4.2-5.6-11.9-5.6-11.9l7.9-4.7l1.6-10.6c-0.3,0.1-17.4,9.7-17.5,9.7c-2,1.1-2.8,3.4-1.8,5.5l8.6,18"/>
</g>
<path fill="#F5CE9F" stroke="#474747" stroke-width="3" stroke-linecap="round" stroke-linejoin="round" stroke-miterlimit="10" d="
	M158.1,117.1c-1.3-4-5.4-5.7-11.4-4.2s-7.5,4.7-4.7,7.8c5.4,5.9,10.8,3.5,12.3,2.2"/>
<g>
	<path fill="#F5CE9F" d="M150.3,113.6l4.2-4.7l-7.7-4.9l-1.4-13.4c0,0,16.7,12.4,16.7,12.4c1.9,1.1,3.1,3.9,2.1,5.9l-9.8,14"/>
	<path fill="none" stroke="#474747" stroke-width="3" stroke-linecap="round" stroke-linejoin="round" stroke-miterlimit="10" d="
		M150.3,113.6l4.2-4.7l-7.7-4.9l-1.4-13.4c0,0,16.7,12.4,16.7,12.4c1.9,1.1,3.1,3.9,2.1,5.9l-9.8,14"/>
</g>
<g>
	<path fill="none" stroke="#474747" stroke-width="3" stroke-linecap="round" stroke-linejoin="round" stroke-miterlimit="10" d="
		M126.4,76.5L126.4,76.5c-10.6,0-19.1-8.6-19.1-19.1v-5.3c0,0,8.6-2.5,19.1-2.5s19.1,2.5,19.1,2.5v5.3
		C145.5,67.9,136.9,76.5,126.4,76.5z"/>
	<path fill="none" stroke="#474747" stroke-width="3" stroke-linecap="round" stroke-linejoin="round" stroke-miterlimit="10" d="
		M75.5,76.5L75.5,76.5c-10.6,0-19.1-8.6-19.1-19.1v-5.3c0,0,8.6-2.5,19.1-2.5s19.1,2.5,19.1,2.5v5.3C94.7,67.9,86.1,76.5,75.5,76.5z
		"/>
	<path fill="none" stroke="#474747" stroke-width="3" stroke-linecap="round" stroke-linejoin="round" stroke-miterlimit="10" d="
		M94.5,58.3c0-3.5,2.9-6.4,6.4-6.4s6.4,2.9,6.4,6.4"/>
</g>
<g>
	<g>
		<path fill="#454545" d="M66.5,187.5c0.2-0.1,0.3-0.1,0.5-0.2c0,0,0,0,0.1,0c0-0.1,0.1-0.1,0.2-0.2c0.1-0.5,0.2-0.7,0.2-0.9v-41.4
			c0-0.5-0.4-1-1-1c-0.5,0-1,0.4-1,1v41.9c0,0.1,0.1,0.2,0.1,0.3c0.1,0.1,0.2,0.2,0.2,0.3c0.1,0,0.3,0.1,0.4,0.2
			C66.3,187.5,66.4,187.5,66.5,187.5z"/>
		<path fill="#454545" d="M132.5,171.6c-0.5,0-1,0.4-1,1v14.6c0,0.5,0.4,1,1,1s1-0.4,1-1v-14.6C133.4,172.1,133,171.6,132.5,171.6z"
			/>
		<path fill="#454545" d="M132.5,143.8c-0.5,0-1,0.4-1,1v17.1c0,0.5,0.4,1,1,1s1-0.4,1-1v-17.1C133.4,144.2,133,143.8,132.5,143.8z"
			/>
		<path fill="#454545" d="M113.1,169.7c-0.5,0-1,0.4-1,1V182c0,0.5,0.4,1,1,1s1-0.4,1-1v-11.3C114,170.1,113.6,169.7,113.1,169.7z"
			/>
		<path fill="#454545" d="M113.1,189.1c-0.5,0-1,0.4-1,1v5.5c0,0.5,0.4,1,1,1s1-0.4,1-1v-5.5C114,189.5,113.6,189.1,113.1,189.1z"/>
		<path fill="#454545" d="M93.7,143.4c-0.5,0-1,0.4-1,1v18.9c0,0.5,0.4,1,1,1s1-0.4,1-1v-18.9C94.7,143.7,94.3,143.4,93.7,143.4z"/>
	</g>
</g>
</svg>
