<?xml version="1.0" encoding="utf-8"?>
<!-- Generator: Adobe Illustrator 18.0.0, SVG Export Plug-In . SVG Version: 6.00 Build 0)  -->
<!DOCTYPE svg PUBLIC "-//W3C//DTD SVG 1.1//EN" "http://www.w3.org/Graphics/SVG/1.1/DTD/svg11.dtd">
<svg version="1.1" id="Objects" xmlns="http://www.w3.org/2000/svg" xmlns:xlink="http://www.w3.org/1999/xlink" x="0px" y="0px"
	 viewBox="0 0 193.4 181.7" width="264" height="127" enable-background="new 0 0 193.4 181.7" xml:space="preserve">
<g>
	<path fill="#EF3E3E" d="M52.3,152.2c0,0-1.9,2.9-5.8,6.5c-3,2.7-7.2,5.8-12.6,8.4c0.1-0.2,1.8-3.8,2.1-6.1
		c0.1-0.4-14,12.3-32.8,16.1c5.5-18.4,15.5-28.3,15.1-28.2c-2.3,0.1-6,1.5-6.3,1.5c1.8-3.2,4.1-6,6.5-8.6
		c6.6-7.1,13.9-11.5,13.9-11.5C37.3,140,44,147.3,52.3,152.2z"/>
	<path fill="#FF7B42" d="M46.4,158.6c-2.9,3.2-8,7.9-15.7,11.5c0.1-0.2,1.8-3.8,2.1-6.1c0.1-0.4-13.9,12.3-32.8,16.1
		c5.5-18.4,15.5-28.3,15.1-28.2c-2.3,0.1-6,1.5-6.3,1.5c2.7-4.5,6.2-8.5,9.6-11.7c-2.4,2.5-4.6,5.4-6.5,8.6c0.2-0.1,4-1.4,6.3-1.5
		c0.4,0-9.6,9.8-15.1,28.2c18.8-3.8,32.9-16.6,32.8-16.1c-0.3,2.3-2,5.9-2.1,6.1C39.3,164.5,43.5,161.4,46.4,158.6z"/>
	<path fill="#004057" d="M57.5,151.3c-10.6-6.8-18.8-15.7-24.4-26.7l7.7-7.1l24.4,26.7L57.5,151.3z"/>
	<g>
		<path fill="#004057" d="M71.1,69.4c0,0-26.2-9.8-63.8,27.1l37.1,6.4L71.1,69.4z"/>
		<path fill="#004057" d="M115.8,118.3c0,0,7.1,30.6-32.7,61.1l-3-37.5L115.8,118.3z"/>
	</g>
	<path fill="#E6EBF2" d="M186.9,28.6c-1.4,2.7-2.9,5.6-4.6,8.5c-11.1,19.2-28.1,41.9-39.5,56.6c-3.2,4.1-6,7.6-8.1,10.2
		c-2.6,3.2-4.1,5.1-4.1,5.1s-42.7,34.7-61.3,44.4c-14.4-9.6-26.8-23.3-37.2-40.7c11.3-17.6,49.7-57.1,49.7-57.1s2-1.4,5.4-3.7
		c2.8-1.9,6.5-4.3,10.9-7.2c15.7-10.1,39.8-25,59.9-34.3c3.1-1.4,6.1-2.8,8.9-3.9c12-4.8,21.5-6.6,25-2.7
		C195.4,7.9,192.7,17.1,186.9,28.6z"/>
	<circle fill="#004057" cx="82.7" cy="103.7" r="14"/>
	<path fill="#C4C4C4" d="M90.8,105.4c0.5-2.5-0.1-5.3-2-7.3c-3.1-3.4-8.4-3.6-11.8-0.5c-1.7,1.6-2.7,3.8-2.7,6
		C77.7,102.7,84.2,101.9,90.8,105.4z"/>
	<path fill="#F0F0F0" d="M74.4,103.5c0,2.1,0.7,4.2,2.2,5.8c3.1,3.4,8.4,3.6,11.8,0.5c1.3-1.2,2.2-2.8,2.5-4.5
		C84.2,101.9,77.7,102.7,74.4,103.5z"/>
	<g>
		<path fill="#FFFFFF" d="M142.7,93.7c-3.2,4.1-6,7.6-8.1,10.2c-6.8-23.8-24.4-43.1-47.5-52c2.8-1.9,6.5-4.3,10.9-7.2
			C118.6,54.8,134.6,72.3,142.7,93.7z"/>
		<path fill="#FFFFFF" d="M186.9,28.6c-1.4,2.7-2.9,5.6-4.6,8.5c-5.1-11.3-13.6-20.6-24.4-26.7c3.1-1.4,6.1-2.8,8.9-3.9
			C175,12.3,182,19.9,186.9,28.6z"/>
		<path fill="#FFFFFF" d="M118.6,119.4c3-2.5,6-5.1,9-7.8c-8.1-23.8-25.8-43.2-48.8-53.4c-3,2.8-5.8,5.5-8.6,8.3
			C93.9,75.4,111.9,95.1,118.6,119.4z"/>
	</g>
	<circle fill="#004057" cx="150.7" cy="41.5" r="18.1"/>
	<path fill="#C4C4C4" d="M161.2,43.7c0.7-3.3-0.2-6.8-2.6-9.5c-4-4.4-10.8-4.7-15.2-0.7c-2.3,2.1-3.4,4.9-3.5,7.7
		C144.3,40.2,152.6,39.2,161.2,43.7z"/>
	<path fill="#F0F0F0" d="M140,41.3c-0.1,2.7,0.9,5.4,2.8,7.5c4,4.4,10.8,4.7,15.2,0.7c1.7-1.6,2.8-3.6,3.3-5.8
		C152.6,39.2,144.3,40.2,140,41.3z"/>
</g>
</svg>
