<?xml version="1.0" encoding="utf-8"?>
<!-- Generator: Adobe Illustrator 18.0.0, SVG Export Plug-In . SVG Version: 6.00 Build 0)  -->
<!DOCTYPE svg PUBLIC "-//W3C//DTD SVG 1.1//EN" "http://www.w3.org/Graphics/SVG/1.1/DTD/svg11.dtd">
<svg version="1.1" id="objects" xmlns="http://www.w3.org/2000/svg" xmlns:xlink="http://www.w3.org/1999/xlink" x="0px" y="0px"
	 viewBox="0 0 264 127" width="264" height="127" enable-background="new 0 0 264 127" xml:space="preserve">
<g>
	<g>
		<g>
			<g>
				<path fill="#F66A00" d="M232.6,61.6V85c-0.5,0.9-1.1,1.7-1.7,2.5c-2.7,3.7-6.2,6.8-10.1,9c-4.8,2.7-10.2,4.2-15.9,4.2H97.9
					L71,87.5L48.6,76.6L41.3,73L33,69L5.4,55.6V4.2h23.1c0,0,0.8,1.9,2.4,5.6c1,2.3,2.3,5.3,3.9,8.9c0.8,1.7,1.6,3.6,2.5,5.7
					c1,2.2,2.1,4.2,3.3,6.1c5.7,8.8,15.1,14.4,25.4,15.6c42.3,5,68.2-10.3,68.2-10.3s-4.7-7.8,25.7-7.8c30.5,0,28,9.2,28,9.2
					l1.3,2.1l13.8,22.4H232.6z"/>
				<g>
					<path fill="#F47B2A" d="M232.6,61.5v5.3h-29.4l-13.8-22.4l-1.3-2.1c0,0,2.4-9.2-28-9.2c-30.5,0-25.8,7.8-25.8,7.8
						s-25.9,15.3-68.2,10.3c-10.4-1.2-19.8-6.9-25.4-15.6c-1.2-1.8-2.3-3.9-3.3-6.1c-0.9-2-1.7-3.9-2.5-5.7c-0.9-2.1-1.7-4-2.4-5.6
						c-0.5-1.2-1-2.4-1.4-3.3c-1.6-3.6-2.3-5.5-2.4-5.6c0,0,0,0,0,0H5.4V4.1h23.1c0,0,0.7,1.8,2.3,5.4c0,0.1,0.1,0.2,0.1,0.3
						c1,2.2,2.2,5.1,3.8,8.7c0,0.1,0.1,0.2,0.1,0.3c0.8,1.7,1.6,3.6,2.5,5.7c1,2.2,2.1,4.2,3.3,6.1c5.7,8.8,15.1,14.4,25.4,15.6
						c41.5,4.9,67.2-9.8,68.2-10.3c0,0,0,0,0,0s-0.2-0.3-0.3-0.9c0-0.1,0-0.2,0-0.4c0.1-2.2,3.2-6.6,26-6.6c27.8,0,28.2,7.7,28.1,9
						c0,0.1,0,0.1,0,0.1c0,0,0,0,0,0v0l1.3,2.1l13.8,22.4H232.6z"/>
					<path fill="#CC5809" d="M232.6,82.3v3c-0.5,0.9-1.1,1.7-1.7,2.5c-2.7,3.7-5.7,6.8-9.6,9c-4.8,2.7-10.2,4.2-15.9,4.2H98.5
						l-27-13.1l-11.2-5.4l-11.2-5.4l-7.4-3.6l-8.3-4L6,55.9v-1.4l19.9,9.7l8.3,4l7.4,3.6l21.7,10.6l0.7,0.3l10.5,5.1l16.5,8h106.9
						c5.7,0,11.1-1.5,15.9-4.2c1.9-1.1,3.8-2.4,5.4-3.9c1.7-1.5,3.3-3.2,4.7-5.1c0.1-0.1,0.2-0.2,0.2-0.3H232.6z"/>
				</g>
			</g>
			<g>
				<g>
					<g>
						<polygon fill="#F66A00" points="184.2,104.7 187,96.6 190.7,97.9 186.7,107.6 						"/>
						<g>
							<circle fill="#621800" cx="185.5" cy="110.8" r="7.3"/>
							<path fill="#7F1F05" d="M191.4,106.5c-1.2-0.9-2.7-1.4-4.3-1.4c-4,0-7.3,3.3-7.3,7.3c0,1.6,0.5,3.1,1.4,4.3
								c-1.8-1.3-3-3.5-3-5.9c0-4,3.3-7.3,7.3-7.3C188,103.5,190.1,104.7,191.4,106.5z"/>
						</g>
					</g>
					<g>
						<polygon fill="#F66A00" points="110.3,104.7 113.1,96.6 116.8,97.9 112.8,107.6 						"/>
						<g>
							<circle fill="#621800" cx="110.3" cy="109.8" r="5"/>
							<path fill="#7F1F05" d="M114.6,107.1c-0.8-0.5-1.7-0.7-2.6-0.7c-2.8,0-5,2.3-5,5c0,1,0.3,1.9,0.8,2.6
								c-1.4-0.9-2.4-2.5-2.4-4.3c0-2.8,2.3-5,5-5C112.1,104.7,113.7,105.7,114.6,107.1z"/>
						</g>
					</g>
				</g>
				<g>
					<g>
						<path fill="#621800" d="M246.9,74c0,2,0,3.9-0.1,5.8c0,1.1,0,2.2-0.1,3.3c-0.4,13.5-1.6,23.1-3.1,23.1
							c-1.5,0-2.9-9.6-3.6-23.1c0-0.8-0.1-1.6-0.1-2.5c-0.1-2.1-0.2-4.3-0.2-6.6c0-1,0-2-0.1-3c0-0.4,0-0.8,0-1.2c0-0.7,0-1.4,0-2.2
							c0-2.1,0-4.2,0-6.2c0.2-16,1.5-27.9,3.2-27.9c1.7,0,3.3,12.3,3.8,28.7c0.1,1.8,0.1,3.6,0.1,5.5c0,0.7,0,1.4,0,2.1
							c0,0.4,0,0.8,0,1.2C246.9,72,246.9,73,246.9,74z"/>
						<g>
							<path fill="#F5F3F6" d="M257,71.5c0,0.9-0.2,1.7-0.5,2.4c-1.3,3.2-5.3,4.9-9.7,5.8c-2.3,0.5-4.7,0.7-6.9,0.8
								c-4.1,0.2-7.3-0.1-7.3-0.1V61.6c0,0,3.1-0.3,7.1-0.2c2.2,0.1,4.7,0.3,7.1,0.8c4,0.8,7.6,2.4,9.3,5.5c0.5,1,0.9,2.1,0.9,3.4
								C257,71.2,257,71.4,257,71.5z"/>
							<path fill="#E8E8E8" d="M232.6,71v9.5c0,0,3.2,0.3,7.3,0.1c2.2-0.1,4.6-0.3,6.9-0.8c4.4-0.9,8.4-2.6,9.7-5.8
								c0.3-0.7,0.5-1.5,0.5-2.4c0-0.2,0-0.4,0-0.5H232.6z"/>
						</g>
					</g>
					<g>
						<g>
							<path fill="#F5F3F6" d="M34.7,18.4H5.4V9.4h25.4c0,0.1,0.1,0.2,0.1,0.3C31.9,11.9,33.2,14.8,34.7,18.4z"/>
							<path fill="#E8E8E8" d="M34.7,18.4c-0.7-1.6-1.4-3.1-2-4.5H5.4v4.5H34.7z"/>
						</g>
						<g>
							<path fill="#FFFFFF" d="M232.6,76.6V85c-0.5,0.9-1.1,1.7-1.7,2.5H71L48.6,76.6H232.6z"/>
							<path fill="#E8E8E8" d="M59.8,82.1L71,87.5h160.1c0.6-0.8,0.9-1.4,1.5-2.2l0-3.2H59.8z"/>
						</g>
						<g>
							<polygon fill="#F5F3F6" points="232.6,69 232.6,73 41.3,73 33,69 							"/>
							<polygon fill="#E8E8E8" points="37.1,71 41.3,73 232.6,73 232.6,71 							"/>
						</g>
						<g>
							<polygon opacity="0.5" fill="#CC5809" points="18,46.2 43.9,60.7 59.5,60.7 42,44.5 18.2,44.5 							"/>
							<path fill="#F5F3F6" d="M18.2,44.5H42c0.5,0,0.9,0.4,0.9,0.9v5.9c0,0.6-0.5,1-1.1,0.8L18,46.2C17,46,17.1,44.5,18.2,44.5z"/>
						</g>
					</g>
				</g>
			</g>
		</g>
		<g>
			<g>
				<g>
					<polygon fill="#8ABFAD" points="117.9,47.9 117.9,64.5 148.4,64.5 147.4,46.7 					"/>
					<polygon fill="#76AD99" points="147.5,49.3 120.4,50.4 120.4,64.5 117.9,64.5 117.9,47.9 147.4,46.7 					"/>
				</g>
				<g>
					
						<line fill="none" stroke="#FFFFFF" stroke-width="0.9901" stroke-linecap="round" stroke-miterlimit="10" x1="127.9" y1="54.5" x2="134.4" y2="61"/>
					
						<line fill="none" stroke="#FFFFFF" stroke-width="0.9901" stroke-linecap="round" stroke-miterlimit="10" x1="132" y1="54.5" x2="138.5" y2="61"/>
				</g>
			</g>
			<g>
				<g>
					<polygon fill="#8ABFAD" points="151.1,44.8 152,64.5 190.5,63.6 181.5,42.8 					"/>
					<polygon fill="#76AD99" points="152.7,46.4 153.5,64.4 152,64.5 151.1,44.8 181.5,42.8 182.2,44.4 					"/>
				</g>
				<g>
					
						<line fill="none" stroke="#FFFFFF" stroke-width="0.9901" stroke-linecap="round" stroke-miterlimit="10" x1="165.8" y1="53.6" x2="172.8" y2="60.7"/>
					
						<line fill="none" stroke="#FFFFFF" stroke-width="0.9901" stroke-linecap="round" stroke-miterlimit="10" x1="170.3" y1="53.6" x2="177.3" y2="60.7"/>
				</g>
			</g>
			<g>
				<g>
					<polygon fill="#8ABFAD" points="184.2,42.3 194.1,63.6 202.6,63.6 205.1,61.5 189.4,39.3 					"/>
					<polygon fill="#76AD99" points="195.1,63.6 194.1,63.6 184.2,42.3 189.4,39.3 190,40.2 185.5,42.9 					"/>
				</g>
				<g>
					
						<line fill="none" stroke="#FFFFFF" stroke-width="0.7426" stroke-linecap="round" stroke-miterlimit="10" x1="190.3" y1="49.3" x2="194.6" y2="53.6"/>
					
						<line fill="none" stroke="#FFFFFF" stroke-width="0.7426" stroke-linecap="round" stroke-miterlimit="10" x1="193" y1="49.3" x2="197.3" y2="53.6"/>
				</g>
			</g>
		</g>
	</g>
</g>
</svg>
