<?xml version="1.0" encoding="utf-8"?>
<!-- Generator: Adobe Illustrator 18.0.0, SVG Export Plug-In . SVG Version: 6.00 Build 0)  -->
<!DOCTYPE svg PUBLIC "-//W3C//DTD SVG 1.1//EN" "http://www.w3.org/Graphics/SVG/1.1/DTD/svg11.dtd">
<svg version="1.1" id="objects" xmlns="http://www.w3.org/2000/svg" xmlns:xlink="http://www.w3.org/1999/xlink" x="0px" y="0px"
	 viewBox="0 0 268 131" enable-background="new 0 0 268 131" xml:space="preserve">
<g>
	<g>
		<g>
			<g>
				<path fill="#FBC600" d="M31.2,65.8v23.4c0.5,0.9,1.1,1.7,1.7,2.5c2.7,3.7,6.2,6.8,10.1,9c4.8,2.7,10.2,4.2,15.9,4.2h106.9
					l27-13.1l22.3-10.9l7.4-3.6l8.3-4l27.5-13.4V8.3h-23.1c0,0-0.8,1.9-2.4,5.6c-1,2.3-2.3,5.3-3.9,8.9c-0.8,1.7-1.6,3.6-2.5,5.7
					c-1,2.2-2.1,4.2-3.3,6.1c-5.7,8.8-15.1,14.4-25.4,15.6c-42.3,5-68.2-10.3-68.2-10.3s4.7-7.8-25.7-7.8c-30.5,0-28,9.2-28,9.2
					l-1.3,2.1L60.6,65.8H31.2z"/>
				<g>
					<path fill="#F4D471" d="M31.2,65.7V71h29.4l13.8-22.4l1.3-2.1c0,0-2.4-9.2,28-9.2c30.5,0,25.8,7.8,25.8,7.8
						s25.9,15.3,68.2,10.3c10.4-1.2,19.8-6.9,25.4-15.6c1.2-1.8,2.3-3.9,3.3-6.1c0.9-2,1.7-3.9,2.5-5.7c0.9-2.1,1.7-4,2.4-5.6
						c0.5-1.2,1-2.4,1.4-3.3c1.6-3.6,2.3-5.5,2.4-5.6c0,0,0,0,0,0h23.1V8.2h-23.1c0,0-0.7,1.8-2.3,5.4c0,0.1-0.1,0.2-0.1,0.3
						c-1,2.2-2.2,5.1-3.8,8.7c0,0.1-0.1,0.2-0.1,0.3c-0.8,1.7-1.6,3.6-2.5,5.7c-1,2.2-2.1,4.2-3.3,6.1c-5.7,8.8-15.1,14.4-25.4,15.6
						c-41.5,4.9-67.2-9.8-68.2-10.3c0,0,0,0,0,0s0.2-0.3,0.3-0.9c0-0.1,0-0.2,0-0.4c-0.1-2.2-3.2-6.6-26-6.6
						c-27.8,0-28.2,7.7-28.1,9c0,0.1,0,0.1,0,0.1c0,0,0,0,0,0v0l-1.3,2.1L60.6,65.7H31.2z"/>
					<path fill="#C4970A" d="M31.2,86.5v3c0.5,0.9,1.1,1.7,1.7,2.5c2.7,3.7,5.7,6.8,9.6,9c4.8,2.7,10.2,4.2,15.9,4.2h106.9l27-13.1
						l11.2-5.4l11.2-5.4l7.4-3.6l8.3-4L257.8,60v-1.4l-19.9,9.7l-8.3,4l-7.4,3.6l-21.7,10.6l-0.7,0.3l-10.5,5.1l-16.5,8H66
						c-5.7,0-11.1-1.5-15.9-4.2c-1.9-1.1-3.8-2.4-5.4-3.9c-1.7-1.5-3.3-3.2-4.7-5.1c-0.1-0.1-0.2-0.2-0.2-0.3H31.2z"/>
				</g>
			</g>
			<g>
				<g>
					<g>
						<polygon fill="#C4970A" points="79.6,108.8 76.8,100.7 73.1,102 77,111.7 						"/>
						<g>
							<circle fill="#621800" cx="78.2" cy="114.9" r="7.3"/>
							<path fill="#7F1F05" d="M72.3,110.7c1.2-0.9,2.7-1.4,4.3-1.4c4,0,7.3,3.3,7.3,7.3c0,1.6-0.5,3.1-1.4,4.3c1.8-1.3,3-3.5,3-5.9
								c0-4-3.3-7.3-7.3-7.3C75.8,107.6,73.6,108.8,72.3,110.7z"/>
						</g>
					</g>
					<g>
						<polygon fill="#C4970A" points="153.5,108.8 150.7,100.7 147,102 151,111.7 						"/>
						<g>
							<circle fill="#621800" cx="153.5" cy="113.9" r="5"/>
							<path fill="#7F1F05" d="M149.2,111.2c0.8-0.5,1.7-0.7,2.6-0.7c2.8,0,5,2.3,5,5c0,1-0.3,1.9-0.8,2.6c1.4-0.9,2.4-2.5,2.4-4.3
								c0-2.8-2.3-5-5-5C151.7,108.8,150.1,109.8,149.2,111.2z"/>
						</g>
					</g>
				</g>
				<g>
					<g>
						<path fill="#621800" d="M16.9,78.1c0,2,0,3.9,0.1,5.8c0,1.1,0,2.2,0.1,3.3c0.4,13.5,1.6,23.1,3.1,23.1c1.5,0,2.9-9.6,3.6-23.1
							c0-0.8,0.1-1.6,0.1-2.5c0.1-2.1,0.2-4.3,0.2-6.6c0-1,0-2,0.1-3c0-0.4,0-0.8,0-1.2c0-0.7,0-1.4,0-2.2c0-2.1,0-4.2,0-6.2
							c-0.2-16-1.5-27.9-3.2-27.9c-1.7,0-3.3,12.3-3.8,28.7c-0.1,1.8-0.1,3.6-0.1,5.5c0,0.7,0,1.4,0,2.1c0,0.4,0,0.8,0,1.2
							C16.9,76.1,16.9,77.1,16.9,78.1z"/>
						<g>
							<path fill="#F5F3F6" d="M6.8,75.7c0,0.9,0.2,1.7,0.5,2.4c1.3,3.2,5.3,4.9,9.7,5.8c2.3,0.5,4.7,0.7,6.9,0.8
								c4.1,0.2,7.3-0.1,7.3-0.1V65.7c0,0-3.1-0.3-7.1-0.2c-2.2,0.1-4.7,0.3-7.1,0.8c-4,0.8-7.6,2.4-9.3,5.5c-0.5,1-0.9,2.1-0.9,3.4
								C6.8,75.3,6.8,75.5,6.8,75.7z"/>
							<path fill="#E8E8E8" d="M31.2,75.1v9.5c0,0-3.2,0.3-7.3,0.1c-2.2-0.1-4.6-0.3-6.9-0.8c-4.4-0.9-8.4-2.6-9.7-5.8
								c-0.3-0.7-0.5-1.5-0.5-2.4c0-0.2,0-0.4,0-0.5H31.2z"/>
						</g>
					</g>
					<g>
						<g>
							<path fill="#F5F3F6" d="M229,22.5h29.3v-8.9h-25.4c0,0.1-0.1,0.2-0.1,0.3C231.8,16,230.6,18.9,229,22.5z"/>
							<path fill="#E8E8E8" d="M229,22.5c0.7-1.6,1.4-3.1,2-4.5h27.3v4.5H229z"/>
						</g>
						<g>
							<path fill="#FFFFFF" d="M31.2,80.8v8.4c0.5,0.9,1.1,1.7,1.7,2.5h159.9l22.3-10.9H31.2z"/>
							<path fill="#E8E8E8" d="M204,86.2l-11.2,5.4H32.7c-0.6-0.8-0.9-1.4-1.5-2.2l0-3.2H204z"/>
						</g>
						<g>
							<polygon fill="#F5F3F6" points="31.2,73.1 31.2,77.2 222.5,77.2 230.8,73.1 							"/>
							<polygon fill="#E8E8E8" points="226.7,75.1 222.5,77.2 31.2,77.2 31.2,75.1 							"/>
						</g>
						<g>
							<polygon fill="#C4970A" points="245.8,50.4 219.8,64.8 204.2,64.8 221.7,48.6 245.6,48.6 							"/>
							<path fill="#F5F3F6" d="M245.6,48.6h-23.9c-0.5,0-0.9,0.4-0.9,0.9v5.9c0,0.6,0.5,1,1.1,0.8l23.9-5.9
								C246.8,50.1,246.6,48.6,245.6,48.6z"/>
						</g>
					</g>
				</g>
			</g>
		</g>
		<g>
			<g>
				<g>
					<polygon fill="#8ABFAD" points="145.9,52.1 145.9,68.6 115.4,68.6 116.4,50.8 					"/>
					<polygon fill="#76AD99" points="116.2,53.4 143.4,54.6 143.4,68.6 145.9,68.6 145.9,52.1 116.4,50.8 					"/>
				</g>
				<g>
					
						<line fill="none" stroke="#FFFFFF" stroke-width="0.9901" stroke-linecap="round" stroke-miterlimit="10" x1="135.9" y1="58.6" x2="129.3" y2="65.1"/>
					
						<line fill="none" stroke="#FFFFFF" stroke-width="0.9901" stroke-linecap="round" stroke-miterlimit="10" x1="131.7" y1="58.6" x2="125.2" y2="65.1"/>
				</g>
			</g>
			<g>
				<g>
					<polygon fill="#8ABFAD" points="112.7,48.9 111.7,68.6 73.3,67.7 82.2,46.9 					"/>
					<polygon fill="#76AD99" points="111.1,50.5 110.2,68.6 111.7,68.6 112.7,48.9 82.2,46.9 81.5,48.6 					"/>
				</g>
				<g>
					
						<line fill="none" stroke="#FFFFFF" stroke-width="0.9901" stroke-linecap="round" stroke-miterlimit="10" x1="98" y1="57.8" x2="90.9" y2="64.8"/>
					
						<line fill="none" stroke="#FFFFFF" stroke-width="0.9901" stroke-linecap="round" stroke-miterlimit="10" x1="93.5" y1="57.8" x2="86.4" y2="64.8"/>
				</g>
			</g>
			<g>
				<g>
					<polygon fill="#8ABFAD" points="79.6,46.4 69.7,67.7 61.2,67.7 58.7,65.6 74.4,43.4 					"/>
					<polygon fill="#76AD99" points="68.6,67.7 69.7,67.7 79.6,46.4 74.4,43.4 73.7,44.4 78.2,47 					"/>
				</g>
				<g>
					
						<line fill="none" stroke="#FFFFFF" stroke-width="0.7426" stroke-linecap="round" stroke-miterlimit="10" x1="73.5" y1="53.4" x2="69.2" y2="57.7"/>
					
						<line fill="none" stroke="#FFFFFF" stroke-width="0.7426" stroke-linecap="round" stroke-miterlimit="10" x1="70.8" y1="53.4" x2="66.5" y2="57.7"/>
				</g>
			</g>
		</g>
	</g>
</g>
</svg>
