<svg xmlns="http://www.w3.org/2000/svg" xmlns:xlink="http://www.w3.org/1999/xlink" preserveAspectRatio="xMidYMid" width="1877.469" height="965" viewBox="0 0 1877.469 965">
  <defs>
    <style>
      .cls-1 {
        fill: #fff;
        opacity: 0.5;
        fill-rule: evenodd;
      }
    </style>
  </defs>
  <g>
    <path d="M1722.796,26.000 C1721.423,26.000 1720.042,26.063 1718.648,26.188 C1714.910,27.061 1711.170,27.936 1707.432,28.809 C1700.182,31.596 1694.035,35.995 1688.993,42.004 C1683.846,48.194 1680.475,55.745 1679.134,63.682 C1677.829,62.839 1676.525,61.995 1675.221,61.152 C1672.093,59.689 1668.836,58.958 1665.452,58.958 C1664.749,58.958 1664.042,58.990 1663.329,59.053 C1661.414,59.491 1659.502,59.929 1657.588,60.367 C1653.876,61.764 1650.730,63.968 1648.148,66.980 C1644.211,71.617 1642.285,77.772 1642.855,83.830 C1643.033,85.730 1643.460,87.590 1644.104,89.370 C1642.283,89.795 1640.463,90.219 1638.642,90.645 C1632.343,93.067 1627.003,96.888 1622.624,102.109 C1615.943,110.142 1612.672,120.814 1613.640,131.311 C1614.578,141.478 1619.475,151.029 1627.084,157.637 L1635.477,163.183 C1640.783,165.716 1646.308,166.983 1652.052,166.983 C1653.245,166.983 1654.447,166.929 1655.659,166.819 L1665.401,164.543 C1670.942,162.413 1675.738,159.198 1679.795,154.901 C1681.990,160.987 1685.694,166.480 1690.567,170.713 C1693.247,172.485 1695.927,174.256 1698.609,176.028 C1703.694,178.455 1708.989,179.669 1714.492,179.669 C1715.635,179.669 1716.786,179.617 1717.947,179.512 C1721.060,178.785 1724.171,178.058 1727.282,177.330 C1732.905,175.170 1737.720,171.829 1741.745,167.339 C1743.084,169.245 1744.621,171.009 1746.383,172.540 C1748.438,173.897 1750.491,175.254 1752.545,176.611 C1756.441,178.471 1760.499,179.402 1764.717,179.402 C1765.593,179.402 1766.475,179.362 1767.365,179.282 C1769.747,178.725 1772.132,178.166 1774.516,177.609 C1777.055,176.634 1779.372,175.338 1781.487,173.744 C1788.365,179.803 1797.757,183.000 1807.672,183.000 C1817.456,183.000 1825.891,177.338 1831.453,169.420 C1836.731,172.208 1842.877,173.654 1849.261,173.654 C1866.272,173.654 1878.844,154.963 1877.366,138.918 C1876.508,129.600 1872.191,122.382 1865.954,117.512 C1869.173,111.513 1870.784,104.632 1870.187,98.162 C1868.456,79.395 1853.236,68.827 1836.086,68.358 C1834.412,58.290 1829.251,48.976 1821.614,42.343 L1812.319,36.202 C1806.442,33.396 1800.323,31.993 1793.962,31.993 C1792.640,31.993 1791.309,32.053 1789.967,32.174 C1786.371,33.014 1782.773,33.855 1779.177,34.695 C1772.200,37.377 1766.286,41.608 1761.435,47.390 C1761.247,47.616 1761.082,47.860 1760.898,48.091 C1758.414,43.839 1755.262,39.991 1751.540,36.757 C1748.320,34.629 1745.098,32.503 1741.878,30.375 C1735.769,27.458 1729.407,26.000 1722.796,26.000 " class="cls-1"/>
    <path d="M485.349,858.000 C486.721,858.000 488.101,858.063 489.494,858.188 C493.230,859.061 496.968,859.936 500.703,860.809 C507.949,863.596 514.093,867.995 519.132,874.004 C524.275,880.194 527.645,887.744 528.984,895.682 C530.289,894.839 531.592,893.995 532.895,893.152 C536.021,891.689 539.276,890.958 542.659,890.958 C543.361,890.958 544.068,890.990 544.781,891.053 C546.694,891.491 548.605,891.929 550.518,892.367 C554.228,893.764 557.372,895.968 559.952,898.980 C563.887,903.617 565.812,909.772 565.243,915.830 C565.064,917.730 564.637,919.590 563.994,921.370 C565.814,921.795 567.633,922.219 569.453,922.645 C575.748,925.067 581.084,928.888 585.461,934.109 C592.139,942.142 595.407,952.814 594.440,963.311 C593.503,973.478 588.609,983.029 581.004,989.637 L572.616,995.183 C567.313,997.716 561.791,998.983 556.051,998.983 C554.858,998.983 553.657,998.929 552.446,998.819 L542.710,996.543 C537.172,994.413 532.379,991.198 528.324,986.901 C526.131,992.987 522.429,998.480 517.559,1002.713 C514.880,1004.485 512.202,1006.256 509.521,1008.028 C504.440,1010.455 499.147,1011.669 493.647,1011.669 C492.505,1011.669 491.355,1011.616 490.194,1011.512 C487.084,1010.785 483.974,1010.058 480.865,1009.330 C475.246,1007.170 470.434,1003.829 466.410,999.339 C465.072,1001.245 463.537,1003.009 461.775,1004.540 C459.722,1005.897 457.670,1007.254 455.617,1008.611 C451.723,1010.471 447.668,1011.402 443.452,1011.402 C442.577,1011.402 441.695,1011.362 440.806,1011.281 C438.425,1010.725 436.042,1010.166 433.659,1009.609 C431.121,1008.634 428.806,1007.338 426.692,1005.744 C419.818,1011.803 410.432,1015.000 400.523,1015.000 C390.745,1015.000 382.314,1009.338 376.756,1001.420 C371.481,1004.207 365.339,1005.654 358.958,1005.654 C341.957,1005.654 329.393,986.963 330.870,970.918 C331.728,961.600 336.042,954.382 342.276,949.512 C339.059,943.513 337.448,936.632 338.044,930.162 C339.774,911.395 354.986,900.827 372.126,900.358 C373.799,890.290 378.956,880.976 386.589,874.343 L395.879,868.202 C401.752,865.396 407.868,863.993 414.225,863.993 C415.546,863.993 416.876,864.053 418.218,864.174 C421.811,865.014 425.407,865.855 429.001,866.695 C435.974,869.377 441.884,873.608 446.733,879.390 C446.920,879.616 447.086,879.860 447.269,880.091 C449.751,875.839 452.902,871.991 456.622,868.757 C459.840,866.629 463.060,864.503 466.278,862.375 C472.383,859.458 478.741,858.000 485.349,858.000 " class="cls-1"/>
    <path d="M119.311,73.996 C120.527,73.996 121.751,74.050 122.986,74.159 L132.915,76.420 C139.336,78.825 144.778,82.621 149.243,87.806 C155.845,95.543 159.166,105.740 158.465,115.857 C159.983,115.754 161.530,115.704 163.114,115.704 C171.478,115.704 180.464,121.315 185.689,127.437 C191.543,134.298 194.409,143.411 193.561,152.376 C192.739,161.059 188.448,169.216 181.780,174.859 C174.371,181.131 166.158,182.701 156.739,182.701 C151.874,182.701 146.802,180.795 142.379,178.002 C140.816,180.274 138.959,182.350 136.836,184.147 C134.562,185.611 132.288,187.076 130.014,188.540 C125.700,190.547 121.209,191.551 116.540,191.551 C115.570,191.551 114.593,191.507 113.608,191.421 C110.968,190.820 108.328,190.219 105.689,189.618 C103.649,188.853 101.738,187.906 99.945,186.788 C96.672,189.893 92.015,191.539 87.079,191.539 C83.596,191.539 80.480,190.049 78.035,187.752 C75.874,189.144 73.713,190.534 71.552,191.926 C67.146,193.976 62.559,195.001 57.790,195.001 C56.800,195.001 55.802,194.957 54.797,194.869 C52.100,194.255 49.404,193.640 46.709,193.027 C41.480,191.068 37.047,187.977 33.410,183.753 C29.825,179.552 27.431,174.459 26.398,169.089 C26.183,169.074 25.972,169.072 25.757,169.053 C23.361,168.506 20.965,167.960 18.568,167.415 C13.920,165.674 9.980,162.927 6.747,159.171 C1.817,153.394 -0.597,145.720 0.117,138.170 C0.809,130.859 4.425,123.989 10.038,119.236 C12.103,117.908 14.168,116.578 16.232,115.249 C20.148,113.427 24.225,112.516 28.464,112.516 C29.344,112.516 30.231,112.555 31.125,112.634 C33.522,113.179 35.917,113.726 38.315,114.271 C39.479,114.707 40.600,115.208 41.675,115.770 C43.446,108.617 47.474,102.084 53.140,97.287 C55.705,95.636 58.270,93.985 60.834,92.333 C65.699,90.070 70.764,88.939 76.030,88.939 C77.123,88.939 78.224,88.987 79.334,89.085 L87.017,90.834 C88.954,88.043 91.246,85.493 93.861,83.278 L102.415,77.771 C107.824,75.255 113.457,73.996 119.311,73.996 " class="cls-1"/>
    <path d="M1201.164,0.000 C1206.828,0.000 1212.910,3.784 1216.448,7.914 C1220.411,12.542 1222.352,18.688 1221.778,24.735 C1221.693,25.637 1221.548,26.530 1221.352,27.410 C1221.221,27.996 1221.590,28.576 1222.179,28.709 C1222.639,28.814 1223.098,28.918 1223.557,29.022 C1223.613,29.034 1223.668,29.051 1223.721,29.071 C1226.635,30.173 1229.108,31.900 1231.141,34.252 C1234.270,37.905 1235.801,42.754 1235.347,47.527 C1235.228,48.790 1234.967,50.031 1234.581,51.230 C1234.433,51.687 1234.009,52.000 1233.525,52.000 L1140.667,52.000 C1140.124,52.000 1139.656,51.608 1139.575,51.075 C1139.421,50.056 1139.388,49.016 1139.487,47.982 C1139.800,44.680 1141.428,41.577 1143.957,39.415 C1144.000,39.378 1144.046,39.344 1144.094,39.313 C1144.990,38.739 1145.885,38.164 1146.780,37.590 C1146.829,37.559 1146.880,37.531 1146.933,37.507 C1148.699,36.701 1150.537,36.298 1152.446,36.298 C1152.820,36.298 1153.196,36.314 1153.575,36.344 C1153.633,36.349 1153.691,36.358 1153.747,36.371 C1154.051,36.440 1154.355,36.509 1154.659,36.578 C1154.742,36.597 1154.825,36.606 1154.907,36.606 C1155.486,36.606 1155.995,36.153 1156.005,35.551 C1156.013,35.117 1156.038,34.683 1156.078,34.250 C1156.504,29.769 1158.717,25.560 1162.154,22.632 C1162.196,22.596 1162.241,22.563 1162.287,22.533 C1163.517,21.745 1164.746,20.956 1165.977,20.167 C1166.025,20.136 1166.077,20.108 1166.129,20.084 C1168.528,18.985 1171.024,18.436 1173.619,18.436 C1174.135,18.436 1174.654,18.457 1175.178,18.501 C1175.235,18.506 1175.293,18.515 1175.350,18.527 L1175.362,18.530 C1175.444,18.549 1175.527,18.558 1175.608,18.558 C1176.112,18.558 1176.566,18.214 1176.680,17.705 C1177.757,12.898 1180.412,8.493 1184.212,5.288 C1189.228,1.059 1194.789,0.000 1201.164,0.000 " class="cls-1"/>
    <path d="M1297.168,218.000 C1302.832,218.000 1308.914,221.784 1312.452,225.914 C1316.416,230.542 1318.356,236.688 1317.782,242.735 C1317.697,243.637 1317.552,244.530 1317.356,245.410 C1317.225,245.996 1317.594,246.575 1318.184,246.709 C1318.643,246.814 1319.102,246.918 1319.561,247.022 C1319.617,247.034 1319.672,247.051 1319.725,247.071 C1322.639,248.173 1325.112,249.900 1327.145,252.252 C1330.274,255.905 1331.805,260.754 1331.352,265.527 C1331.232,266.790 1330.971,268.031 1330.585,269.230 C1330.438,269.687 1330.013,270.000 1329.530,270.000 L1236.672,270.000 C1236.128,270.000 1235.660,269.608 1235.579,269.075 C1235.425,268.056 1235.393,267.016 1235.491,265.982 C1235.804,262.680 1237.432,259.577 1239.961,257.415 C1240.004,257.378 1240.050,257.344 1240.098,257.313 C1240.994,256.739 1241.889,256.164 1242.784,255.590 C1242.833,255.559 1242.884,255.531 1242.937,255.507 C1244.703,254.701 1246.541,254.298 1248.450,254.298 C1248.824,254.298 1249.200,254.314 1249.579,254.344 C1249.637,254.349 1249.695,254.358 1249.751,254.371 C1250.055,254.440 1250.359,254.509 1250.663,254.578 C1250.746,254.597 1250.830,254.606 1250.911,254.606 C1251.491,254.606 1251.999,254.153 1252.010,253.551 C1252.018,253.117 1252.042,252.683 1252.083,252.250 C1252.509,247.769 1254.721,243.560 1258.158,240.632 C1258.201,240.596 1258.245,240.563 1258.292,240.533 C1259.521,239.745 1260.750,238.956 1261.981,238.167 C1262.030,238.136 1262.081,238.108 1262.133,238.084 C1264.532,236.985 1267.028,236.436 1269.623,236.436 C1270.139,236.436 1270.658,236.457 1271.182,236.501 C1271.240,236.506 1271.298,236.515 1271.354,236.527 L1271.366,236.530 C1271.449,236.549 1271.531,236.558 1271.613,236.558 C1272.116,236.558 1272.570,236.214 1272.684,235.705 C1273.762,230.898 1276.416,226.493 1280.216,223.288 C1285.232,219.059 1290.793,218.000 1297.168,218.000 " class="cls-1"/>
    <path d="M526.625,570.000 C529.398,570.000 532.375,571.819 534.108,573.805 C536.048,576.030 536.998,578.985 536.717,581.892 C536.675,582.326 536.604,582.755 536.508,583.178 C536.444,583.459 536.625,583.738 536.914,583.802 C537.138,583.853 537.363,583.903 537.588,583.953 C537.615,583.959 537.642,583.967 537.668,583.976 C539.095,584.506 540.306,585.337 541.301,586.467 C542.833,588.223 543.582,590.555 543.360,592.850 C543.302,593.457 543.174,594.053 542.985,594.630 C542.913,594.850 542.705,595.000 542.468,595.000 L497.007,595.000 C496.741,595.000 496.511,594.812 496.472,594.555 C496.397,594.065 496.381,593.566 496.429,593.068 C496.582,591.481 497.379,589.989 498.617,588.949 C498.638,588.932 498.661,588.915 498.684,588.901 C499.123,588.624 499.561,588.348 500.000,588.072 C500.023,588.057 500.048,588.044 500.074,588.032 C500.939,587.645 501.838,587.451 502.773,587.451 C502.956,587.451 503.140,587.458 503.326,587.473 C503.354,587.476 503.383,587.480 503.410,587.486 C503.559,587.519 503.708,587.552 503.857,587.585 C503.898,587.595 503.938,587.599 503.978,587.599 C504.262,587.599 504.511,587.381 504.516,587.092 C504.520,586.883 504.532,586.675 504.552,586.466 C504.760,584.312 505.843,582.288 507.526,580.881 C507.547,580.864 507.569,580.848 507.592,580.833 C508.194,580.454 508.795,580.075 509.398,579.696 C509.422,579.681 509.447,579.667 509.472,579.656 C510.647,579.127 511.869,578.863 513.139,578.863 C513.392,578.863 513.646,578.874 513.902,578.895 C513.931,578.897 513.959,578.901 513.987,578.907 L513.993,578.909 C514.033,578.918 514.073,578.922 514.113,578.922 C514.360,578.922 514.582,578.756 514.638,578.512 C515.165,576.201 516.465,574.083 518.325,572.542 C520.781,570.509 523.504,570.000 526.625,570.000 " class="cls-1"/>
    <path d="M1631.673,277.000 C1634.446,277.000 1637.424,278.819 1639.156,280.805 C1641.096,283.030 1642.047,285.985 1641.765,288.892 C1641.724,289.326 1641.653,289.755 1641.557,290.178 C1641.493,290.460 1641.673,290.738 1641.962,290.803 C1642.187,290.853 1642.412,290.903 1642.636,290.953 C1642.664,290.959 1642.691,290.967 1642.717,290.976 C1644.143,291.506 1645.354,292.337 1646.350,293.467 C1647.881,295.223 1648.631,297.555 1648.409,299.849 C1648.350,300.457 1648.222,301.053 1648.033,301.630 C1647.961,301.850 1647.753,302.000 1647.517,302.000 L1602.055,302.000 C1601.789,302.000 1601.560,301.812 1601.520,301.555 C1601.445,301.065 1601.429,300.566 1601.477,300.068 C1601.630,298.481 1602.427,296.989 1603.665,295.949 C1603.687,295.932 1603.709,295.915 1603.733,295.901 C1604.171,295.624 1604.610,295.348 1605.048,295.072 C1605.072,295.057 1605.097,295.044 1605.123,295.032 C1605.987,294.645 1606.887,294.451 1607.822,294.451 C1608.004,294.451 1608.189,294.458 1608.374,294.473 C1608.403,294.476 1608.431,294.480 1608.459,294.486 C1608.608,294.519 1608.756,294.552 1608.905,294.585 C1608.946,294.595 1608.987,294.599 1609.027,294.599 C1609.310,294.599 1609.559,294.381 1609.564,294.092 C1609.568,293.883 1609.580,293.675 1609.600,293.466 C1609.809,291.312 1610.892,289.288 1612.575,287.881 C1612.595,287.863 1612.617,287.848 1612.640,287.833 C1613.242,287.454 1613.844,287.075 1614.446,286.696 C1614.470,286.681 1614.495,286.667 1614.521,286.656 C1615.695,286.127 1616.917,285.863 1618.188,285.863 C1618.440,285.863 1618.694,285.874 1618.951,285.895 C1618.979,285.897 1619.007,285.901 1619.035,285.907 L1619.041,285.909 C1619.081,285.918 1619.122,285.922 1619.162,285.922 C1619.408,285.922 1619.630,285.756 1619.686,285.512 C1620.214,283.201 1621.513,281.083 1623.374,279.542 C1625.829,277.509 1628.552,277.000 1631.673,277.000 " class="cls-1"/>
    <path d="M296.124,244.000 C301.787,244.000 307.870,247.784 311.408,251.914 C315.371,256.542 317.312,262.688 316.738,268.735 C316.652,269.637 316.507,270.530 316.311,271.410 C316.180,271.996 316.549,272.575 317.139,272.709 C317.598,272.814 318.057,272.918 318.517,273.022 C318.572,273.034 318.627,273.051 318.681,273.071 C321.595,274.173 324.068,275.900 326.101,278.252 C329.229,281.905 330.760,286.754 330.307,291.527 C330.187,292.790 329.926,294.031 329.540,295.230 C329.393,295.687 328.968,296.000 328.485,296.000 L235.627,296.000 C235.084,296.000 234.616,295.608 234.535,295.075 C234.381,294.056 234.348,293.016 234.446,291.982 C234.760,288.680 236.388,285.577 238.916,283.415 C238.960,283.378 239.006,283.344 239.054,283.313 C239.950,282.739 240.845,282.164 241.740,281.590 C241.789,281.559 241.840,281.531 241.892,281.507 C243.659,280.701 245.496,280.298 247.406,280.298 C247.779,280.298 248.156,280.314 248.535,280.344 C248.593,280.349 248.651,280.358 248.707,280.371 C249.011,280.440 249.315,280.509 249.618,280.578 C249.702,280.597 249.785,280.606 249.867,280.606 C250.446,280.606 250.954,280.153 250.965,279.551 C250.973,279.117 250.997,278.683 251.038,278.250 C251.464,273.769 253.676,269.560 257.114,266.632 C257.156,266.596 257.200,266.563 257.247,266.533 C258.477,265.745 259.706,264.956 260.936,264.167 C260.985,264.136 261.036,264.108 261.089,264.084 C263.487,262.985 265.984,262.436 268.579,262.436 C269.094,262.436 269.614,262.457 270.137,262.501 C270.195,262.506 270.253,262.515 270.310,262.527 L270.322,262.530 C270.404,262.549 270.487,262.558 270.568,262.558 C271.071,262.558 271.525,262.214 271.639,261.705 C272.717,256.898 275.371,252.493 279.171,249.288 C284.188,245.059 289.748,244.000 296.124,244.000 " class="cls-1"/>
    <path d="M1551.713,423.000 C1546.049,423.000 1539.967,426.784 1536.429,430.914 C1532.466,435.542 1530.525,441.688 1531.099,447.735 C1531.184,448.637 1531.329,449.530 1531.526,450.410 C1531.656,450.996 1531.287,451.576 1530.698,451.709 C1530.238,451.814 1529.779,451.918 1529.320,452.022 C1529.264,452.034 1529.209,452.051 1529.156,452.071 C1526.242,453.174 1523.769,454.900 1521.736,457.252 C1518.608,460.905 1517.076,465.754 1517.530,470.527 C1517.649,471.790 1517.910,473.031 1518.296,474.230 C1518.444,474.687 1518.868,475.000 1519.351,475.000 L1612.210,475.000 C1612.753,475.000 1613.221,474.608 1613.302,474.075 C1613.456,473.056 1613.488,472.016 1613.390,470.982 C1613.077,467.680 1611.449,464.577 1608.920,462.415 C1608.877,462.378 1608.831,462.344 1608.783,462.313 C1607.887,461.739 1606.992,461.164 1606.097,460.590 C1606.048,460.559 1605.997,460.531 1605.944,460.507 C1604.178,459.701 1602.340,459.298 1600.431,459.298 C1600.057,459.298 1599.681,459.314 1599.302,459.344 C1599.244,459.349 1599.186,459.358 1599.130,459.371 C1598.826,459.440 1598.522,459.509 1598.218,459.578 C1598.135,459.597 1598.052,459.606 1597.970,459.606 C1597.390,459.606 1596.882,459.153 1596.872,458.551 C1596.864,458.117 1596.840,457.683 1596.799,457.250 C1596.373,452.769 1594.160,448.560 1590.723,445.632 C1590.681,445.596 1590.636,445.563 1590.590,445.533 C1589.360,444.745 1588.131,443.956 1586.900,443.167 C1586.852,443.136 1586.800,443.108 1586.748,443.084 C1584.349,441.985 1581.853,441.436 1579.258,441.436 C1578.742,441.436 1578.223,441.457 1577.699,441.501 C1577.641,441.506 1577.584,441.515 1577.527,441.527 L1577.515,441.530 C1577.433,441.549 1577.350,441.558 1577.269,441.558 C1576.765,441.558 1576.312,441.214 1576.197,440.705 C1575.120,435.898 1572.465,431.493 1568.665,428.288 C1563.649,424.059 1558.088,423.000 1551.713,423.000 " class="cls-1"/>
    <path d="M262.024,52.000 C259.606,52.000 257.008,53.601 255.497,55.348 C253.804,57.306 252.975,59.906 253.221,62.465 C253.257,62.847 253.319,63.224 253.403,63.596 C253.458,63.844 253.301,64.090 253.049,64.146 C252.853,64.190 252.657,64.234 252.461,64.278 C252.437,64.284 252.413,64.291 252.391,64.299 C251.146,64.766 250.090,65.496 249.222,66.491 C247.886,68.037 247.232,70.088 247.425,72.108 C247.476,72.642 247.588,73.167 247.753,73.674 C247.816,73.868 247.997,74.000 248.203,74.000 L287.861,74.000 C288.093,74.000 288.293,73.834 288.328,73.609 C288.394,73.177 288.408,72.738 288.366,72.300 C288.232,70.903 287.537,69.590 286.457,68.675 C286.438,68.660 286.419,68.645 286.398,68.632 C286.015,68.390 285.633,68.146 285.251,67.903 C285.230,67.890 285.208,67.878 285.186,67.868 C284.431,67.527 283.646,67.357 282.831,67.357 C282.671,67.357 282.511,67.363 282.349,67.376 C282.324,67.379 282.299,67.382 282.275,67.388 C282.145,67.417 282.016,67.446 281.886,67.475 C281.850,67.483 281.815,67.487 281.780,67.487 C281.532,67.487 281.315,67.295 281.311,67.041 C281.308,66.857 281.297,66.674 281.280,66.490 C281.098,64.595 280.153,62.814 278.685,61.575 C278.667,61.560 278.648,61.546 278.628,61.533 C278.103,61.200 277.578,60.866 277.052,60.532 C277.031,60.519 277.010,60.507 276.987,60.497 C275.963,60.032 274.897,59.800 273.788,59.800 C273.568,59.800 273.346,59.809 273.123,59.827 C273.098,59.829 273.073,59.833 273.049,59.839 L273.044,59.840 C273.009,59.848 272.973,59.851 272.939,59.851 C272.724,59.851 272.530,59.706 272.481,59.491 C272.021,57.457 270.887,55.593 269.264,54.237 C267.122,52.448 264.747,52.000 262.024,52.000 " class="cls-1"/>
    <path d="M818.049,836.000 C815.630,836.000 813.032,837.601 811.521,839.348 C809.829,841.306 809.000,843.906 809.245,846.465 C809.281,846.847 809.343,847.224 809.427,847.596 C809.483,847.844 809.325,848.090 809.073,848.146 C808.877,848.190 808.681,848.234 808.485,848.278 C808.461,848.284 808.438,848.291 808.415,848.299 C807.170,848.766 806.114,849.496 805.246,850.491 C803.910,852.037 803.256,854.088 803.450,856.108 C803.501,856.642 803.612,857.167 803.777,857.674 C803.840,857.868 804.021,858.000 804.228,858.000 L843.886,858.000 C844.118,858.000 844.318,857.834 844.352,857.609 C844.418,857.177 844.432,856.738 844.390,856.300 C844.256,854.903 843.561,853.590 842.481,852.675 C842.462,852.660 842.443,852.645 842.422,852.632 C842.040,852.390 841.657,852.146 841.275,851.903 C841.254,851.890 841.232,851.878 841.210,851.868 C840.456,851.527 839.671,851.357 838.856,851.357 C838.696,851.357 838.535,851.363 838.373,851.376 C838.348,851.379 838.324,851.382 838.300,851.388 C838.170,851.417 838.040,851.446 837.910,851.475 C837.875,851.483 837.839,851.487 837.804,851.487 C837.557,851.487 837.340,851.295 837.335,851.041 C837.332,850.857 837.321,850.674 837.304,850.490 C837.122,848.595 836.177,846.814 834.709,845.575 C834.691,845.560 834.672,845.546 834.652,845.533 C834.127,845.200 833.602,844.866 833.077,844.532 C833.056,844.519 833.034,844.507 833.012,844.497 C831.987,844.032 830.921,843.800 829.813,843.800 C829.592,843.800 829.371,843.809 829.147,843.827 C829.122,843.829 829.098,843.833 829.073,843.839 L829.068,843.840 C829.033,843.848 828.998,843.851 828.963,843.851 C828.748,843.851 828.554,843.706 828.506,843.491 C828.045,841.457 826.912,839.593 825.289,838.237 C823.146,836.448 820.772,836.000 818.049,836.000 " class="cls-1"/>
    <path d="M141.987,499.000 C154.970,499.000 168.912,507.733 177.023,517.263 C186.108,527.944 190.557,542.126 189.241,556.082 C189.045,558.163 188.713,560.223 188.263,562.254 C187.964,563.606 188.810,564.944 190.161,565.252 C191.214,565.493 192.266,565.734 193.319,565.973 C193.447,566.002 193.573,566.041 193.695,566.087 C200.375,568.631 206.044,572.615 210.704,578.044 C217.875,586.472 221.385,597.664 220.346,608.678 C220.072,611.593 219.474,614.457 218.589,617.224 C218.251,618.278 217.278,619.000 216.170,619.000 L3.309,619.000 C2.065,619.000 0.991,618.096 0.806,616.866 C0.453,614.514 0.378,612.115 0.603,609.728 C1.321,602.108 5.053,594.947 10.850,589.957 C10.949,589.872 11.054,589.794 11.165,589.723 C13.219,588.398 15.270,587.072 17.322,585.746 C17.434,585.674 17.551,585.609 17.672,585.554 C21.720,583.695 25.933,582.765 30.309,582.765 C31.166,582.765 32.029,582.801 32.898,582.872 C33.031,582.883 33.164,582.904 33.293,582.934 C33.990,583.093 34.686,583.252 35.382,583.411 C35.574,583.454 35.764,583.475 35.951,583.475 C37.280,583.475 38.444,582.429 38.469,581.041 C38.487,580.040 38.543,579.038 38.636,578.037 C39.613,567.699 44.684,557.984 52.564,551.227 C52.661,551.145 52.762,551.069 52.869,551.000 C55.688,549.181 58.506,547.360 61.327,545.540 C61.438,545.468 61.555,545.403 61.676,545.347 C67.174,542.811 72.897,541.544 78.845,541.544 C80.027,541.544 81.218,541.594 82.418,541.694 C82.550,541.705 82.683,541.726 82.813,541.756 L82.840,541.762 C83.030,541.805 83.219,541.826 83.405,541.826 C84.559,541.826 85.599,541.031 85.861,539.859 C88.332,528.765 94.416,518.598 103.127,511.204 C114.626,501.443 127.373,499.000 141.987,499.000 " class="cls-1"/>
    <path d="M1339.607,604.000 C1349.164,604.000 1359.428,610.404 1365.399,617.393 C1372.087,625.225 1375.362,635.626 1374.393,645.860 C1374.250,647.386 1374.005,648.897 1373.674,650.386 C1373.453,651.378 1374.076,652.359 1375.071,652.585 C1375.846,652.761 1376.621,652.938 1377.396,653.114 C1377.490,653.135 1377.582,653.163 1377.672,653.197 C1382.590,655.063 1386.763,657.985 1390.194,661.965 C1395.473,668.146 1398.056,676.354 1397.292,684.430 C1397.090,686.568 1396.650,688.668 1395.998,690.698 C1395.749,691.470 1395.033,692.000 1394.217,692.000 L1237.519,692.000 C1236.603,692.000 1235.812,691.337 1235.676,690.435 C1235.416,688.710 1235.361,686.951 1235.527,685.201 C1236.056,679.613 1238.802,674.361 1243.070,670.702 C1243.143,670.639 1243.221,670.582 1243.302,670.530 C1244.814,669.558 1246.324,668.586 1247.835,667.614 C1247.917,667.561 1248.003,667.513 1248.092,667.473 C1251.072,666.109 1254.174,665.428 1257.395,665.428 C1258.026,665.428 1258.661,665.454 1259.301,665.506 C1259.398,665.514 1259.496,665.530 1259.591,665.551 C1260.104,665.668 1260.617,665.785 1261.130,665.901 C1261.270,665.933 1261.411,665.948 1261.549,665.948 C1262.526,665.948 1263.384,665.181 1263.402,664.163 C1263.415,663.429 1263.456,662.695 1263.525,661.961 C1264.244,654.379 1267.977,647.255 1273.778,642.300 C1273.849,642.240 1273.924,642.184 1274.003,642.133 C1276.078,640.799 1278.152,639.464 1280.229,638.129 C1280.311,638.077 1280.397,638.029 1280.486,637.988 C1284.534,636.128 1288.746,635.199 1293.125,635.199 C1293.995,635.199 1294.872,635.235 1295.755,635.309 C1295.853,635.317 1295.951,635.332 1296.046,635.354 L1296.066,635.359 C1296.206,635.391 1296.345,635.406 1296.482,635.406 C1297.331,635.406 1298.097,634.823 1298.290,633.963 C1300.109,625.828 1304.588,618.372 1311.000,612.950 C1319.465,605.791 1328.849,604.000 1339.607,604.000 " class="cls-1"/>
    <path d="M1778.694,753.987 C1780.321,753.987 1781.947,754.036 1783.556,754.082 C1786.274,754.701 1788.994,755.321 1791.714,755.941 C1796.987,757.917 1801.458,761.035 1805.126,765.296 C1809.798,770.771 1812.467,777.748 1812.753,784.889 C1814.127,784.688 1815.520,784.584 1816.930,784.584 C1817.769,784.584 1818.614,784.621 1819.466,784.696 C1821.829,785.234 1824.194,785.773 1826.557,786.310 C1831.142,788.029 1835.028,790.739 1838.216,794.442 C1843.079,800.143 1845.459,807.712 1844.754,815.159 C1844.072,822.371 1840.508,829.147 1834.970,833.836 C1834.083,834.407 1833.195,834.979 1832.308,835.550 C1832.355,836.675 1832.333,837.805 1832.227,838.933 C1831.611,845.434 1828.398,851.542 1823.405,855.768 C1821.570,856.951 1819.735,858.133 1817.899,859.314 C1814.417,860.934 1810.793,861.745 1807.024,861.745 C1806.241,861.745 1805.452,861.710 1804.656,861.640 L1798.264,860.183 C1797.231,859.796 1796.236,859.353 1795.280,858.853 C1794.417,859.788 1793.500,860.680 1792.524,861.507 C1790.236,862.979 1787.949,864.452 1785.661,865.925 C1781.321,867.945 1776.802,868.955 1772.105,868.955 C1771.130,868.955 1770.148,868.912 1769.157,868.824 C1766.502,868.219 1763.847,867.614 1761.191,867.009 C1756.490,865.249 1752.450,862.547 1749.057,858.928 C1748.857,859.104 1748.664,859.286 1748.461,859.457 C1746.103,860.975 1743.747,862.494 1741.389,864.012 C1736.917,866.092 1732.259,867.134 1727.418,867.134 C1726.412,867.134 1725.400,867.089 1724.379,866.999 C1721.642,866.376 1718.906,865.752 1716.169,865.129 C1715.674,864.943 1715.194,864.738 1714.713,864.533 C1713.576,865.266 1712.438,865.999 1711.300,866.732 C1706.623,868.908 1701.753,869.995 1696.693,869.995 C1695.642,869.995 1694.584,869.949 1693.517,869.855 C1690.657,869.203 1687.794,868.551 1684.934,867.899 C1679.385,865.822 1674.679,862.539 1670.820,858.056 C1669.000,855.925 1667.472,853.577 1666.248,851.084 C1665.864,851.168 1665.480,851.249 1665.090,851.317 C1662.546,851.421 1660.001,851.524 1657.458,851.629 C1652.471,851.136 1647.921,849.466 1643.810,846.619 L1642.563,845.668 C1640.754,844.027 1638.946,842.388 1637.137,840.748 C1633.804,836.807 1631.681,832.299 1630.765,827.222 C1629.449,819.789 1631.174,812.049 1635.518,805.870 C1639.154,800.699 1644.449,796.879 1650.451,795.001 C1650.227,792.883 1650.208,790.739 1650.409,788.604 C1651.200,780.253 1655.329,772.407 1661.740,766.979 C1664.099,765.461 1666.456,763.942 1668.813,762.425 C1673.287,760.343 1677.945,759.302 1682.787,759.302 C1683.791,759.302 1684.802,759.347 1685.822,759.437 C1688.560,760.061 1691.297,760.684 1694.034,761.307 C1697.276,762.522 1700.214,764.172 1702.855,766.246 C1703.773,765.220 1704.760,764.250 1705.817,763.354 C1708.016,761.939 1710.216,760.524 1712.413,759.107 C1716.585,757.166 1720.928,756.197 1725.443,756.196 C1726.380,756.196 1727.325,756.238 1728.276,756.322 C1730.829,756.902 1733.381,757.484 1735.934,758.066 C1740.870,759.914 1745.057,762.832 1748.494,766.815 C1751.410,763.220 1755.139,760.242 1759.585,758.252 C1763.286,756.596 1767.217,755.241 1771.211,754.537 C1773.657,754.105 1776.176,753.987 1778.694,753.987 " class="cls-1"/>
  </g>
</svg>
