<svg xmlns="http://www.w3.org/2000/svg" xmlns:xlink="http://www.w3.org/1999/xlink" preserveAspectRatio="xMidYMid" width="1920" height="965" viewBox="0 0 1920 965">
  <defs>
    <style>
      .cls-1 {
        fill: #fff;
        opacity: 0.1;
        fill-rule: evenodd;
      }
    </style>
  </defs>
  <path d="M2057.792,253.654 C2051.408,253.654 2045.262,252.208 2039.985,249.420 C2034.423,257.338 2025.987,263.000 2016.203,263.000 C2006.288,263.000 1996.897,259.803 1990.018,253.744 C1987.903,255.338 1985.587,256.634 1983.048,257.609 C1980.663,258.166 1978.279,258.725 1975.896,259.282 C1975.006,259.362 1974.124,259.402 1973.249,259.402 C1969.030,259.402 1964.973,258.471 1961.076,256.611 C1959.023,255.254 1956.969,253.897 1954.914,252.540 C1953.152,251.009 1951.616,249.245 1950.277,247.339 C1946.251,251.829 1941.436,255.170 1935.813,257.330 C1932.702,258.058 1929.591,258.785 1926.478,259.512 C1925.318,259.617 1924.166,259.669 1923.024,259.669 C1917.520,259.669 1912.225,258.455 1907.140,256.028 C1904.458,254.256 1901.778,252.485 1899.098,250.713 C1894.225,246.480 1890.521,240.987 1888.326,234.901 C1884.269,239.198 1879.473,242.413 1873.932,244.543 L1864.191,246.819 C1862.979,246.929 1861.777,246.983 1860.584,246.983 C1854.840,246.983 1849.314,245.716 1844.008,243.183 L1835.616,237.637 C1828.006,231.029 1823.109,221.478 1822.171,211.311 C1821.204,200.814 1824.474,190.142 1831.155,182.109 C1835.535,176.888 1840.875,173.067 1847.173,170.645 C1848.994,170.219 1850.814,169.795 1852.635,169.370 C1851.992,167.590 1851.565,165.730 1851.386,163.830 C1850.816,157.772 1852.743,151.617 1856.679,146.980 C1859.262,143.968 1862.407,141.764 1866.119,140.367 C1868.033,139.929 1869.946,139.491 1871.860,139.053 C1872.573,138.990 1873.281,138.958 1873.983,138.958 C1877.368,138.958 1880.625,139.689 1883.753,141.152 C1885.056,141.995 1886.360,142.839 1887.666,143.682 C1889.006,135.745 1892.378,128.194 1897.524,122.004 C1902.566,115.995 1908.713,111.596 1915.964,108.809 C1919.701,107.936 1923.441,107.061 1927.179,106.188 C1928.573,106.063 1929.955,106.000 1931.327,106.000 C1937.939,106.000 1944.301,107.458 1950.410,110.375 C1953.629,112.503 1956.851,114.629 1960.071,116.757 C1963.793,119.991 1966.946,123.839 1969.430,128.091 C1969.613,127.860 1969.778,127.616 1969.966,127.390 C1974.818,121.608 1980.731,117.377 1987.708,114.695 C1991.304,113.855 1994.902,113.014 1998.498,112.174 C1999.840,112.053 2001.172,111.993 2002.493,111.993 C2008.854,111.993 2014.974,113.396 2020.850,116.202 L2030.146,122.343 C2037.783,128.976 2042.943,138.290 2044.617,148.358 C2061.767,148.827 2076.988,159.395 2078.719,178.162 C2079.315,184.632 2077.704,191.513 2074.485,197.512 C2080.723,202.382 2085.039,209.600 2085.898,218.918 C2087.376,234.963 2074.804,253.654 2057.792,253.654 ZM1352.116,269.230 C1351.969,269.687 1351.544,270.000 1351.061,270.000 L1258.203,270.000 C1257.660,270.000 1257.191,269.608 1257.111,269.075 C1256.957,268.056 1256.924,267.016 1257.022,265.982 C1257.336,262.680 1258.963,259.577 1261.492,257.415 C1261.536,257.378 1261.581,257.344 1261.630,257.313 C1262.525,256.739 1263.421,256.164 1264.316,255.590 C1264.364,255.559 1264.416,255.531 1264.468,255.507 C1266.234,254.701 1268.072,254.298 1269.981,254.298 C1270.355,254.298 1270.731,254.314 1271.111,254.344 C1271.169,254.349 1271.226,254.358 1271.283,254.371 C1271.587,254.440 1271.891,254.509 1272.194,254.578 C1272.278,254.597 1272.361,254.606 1272.443,254.606 C1273.022,254.606 1273.530,254.153 1273.541,253.551 C1273.549,253.117 1273.573,252.683 1273.614,252.250 C1274.040,247.769 1276.252,243.560 1279.690,240.632 C1279.732,240.596 1279.776,240.563 1279.823,240.533 C1281.053,239.745 1282.282,238.956 1283.512,238.167 C1283.561,238.136 1283.612,238.108 1283.665,238.084 C1286.063,236.985 1288.560,236.436 1291.154,236.436 C1291.670,236.436 1292.190,236.457 1292.713,236.501 C1292.771,236.506 1292.829,236.515 1292.886,236.527 L1292.898,236.530 C1292.980,236.549 1293.063,236.558 1293.144,236.558 C1293.647,236.558 1294.101,236.214 1294.215,235.705 C1295.293,230.898 1297.947,226.493 1301.747,223.288 C1306.763,219.059 1312.324,218.000 1318.699,218.000 C1324.363,218.000 1330.445,221.784 1333.984,225.914 C1337.947,230.542 1339.888,236.688 1339.314,242.735 C1339.228,243.637 1339.083,244.530 1338.887,245.410 C1338.756,245.996 1339.125,246.575 1339.715,246.709 C1340.174,246.814 1340.633,246.918 1341.092,247.022 C1341.148,247.034 1341.203,247.051 1341.256,247.071 C1344.171,248.173 1346.644,249.900 1348.677,252.252 C1351.805,255.905 1353.336,260.754 1352.883,265.527 C1352.763,266.790 1352.502,268.031 1352.116,269.230 ZM1256.112,51.230 C1255.965,51.687 1255.540,52.000 1255.057,52.000 L1162.199,52.000 C1161.656,52.000 1161.187,51.608 1161.106,51.075 C1160.953,50.056 1160.920,49.016 1161.018,47.982 C1161.331,44.680 1162.959,41.577 1165.488,39.415 C1165.531,39.378 1165.577,39.344 1165.625,39.313 C1166.521,38.739 1167.416,38.164 1168.312,37.590 C1168.360,37.559 1168.411,37.531 1168.464,37.507 C1170.230,36.701 1172.068,36.298 1173.977,36.298 C1174.351,36.298 1174.727,36.314 1175.107,36.344 C1175.164,36.349 1175.222,36.358 1175.278,36.371 C1175.583,36.440 1175.886,36.509 1176.190,36.578 C1176.273,36.597 1176.357,36.606 1176.438,36.606 C1177.018,36.606 1177.526,36.153 1177.537,35.551 C1177.545,35.117 1177.569,34.683 1177.610,34.250 C1178.036,29.769 1180.248,25.560 1183.686,22.632 C1183.728,22.596 1183.772,22.563 1183.819,22.533 C1185.048,21.745 1186.278,20.956 1187.508,20.167 C1187.557,20.136 1187.608,20.108 1187.661,20.084 C1190.059,18.985 1192.556,18.436 1195.150,18.436 C1195.666,18.436 1196.185,18.457 1196.709,18.501 C1196.767,18.506 1196.825,18.515 1196.881,18.527 L1196.893,18.530 C1196.976,18.549 1197.058,18.558 1197.140,18.558 C1197.643,18.558 1198.097,18.214 1198.211,17.705 C1199.289,12.898 1201.943,8.493 1205.743,5.288 C1210.759,1.059 1216.320,0.000 1222.695,0.000 C1228.359,0.000 1234.441,3.784 1237.979,7.914 C1241.943,12.542 1243.883,18.688 1243.309,24.735 C1243.224,25.637 1243.079,26.530 1242.883,27.410 C1242.752,27.996 1243.121,28.576 1243.711,28.709 C1244.170,28.814 1244.629,28.918 1245.088,29.022 C1245.144,29.034 1245.199,29.051 1245.252,29.071 C1248.166,30.173 1250.640,31.900 1252.672,34.252 C1255.801,37.905 1257.332,42.754 1256.879,47.527 C1256.759,48.790 1256.498,50.031 1256.112,51.230 ZM602.535,989.637 L594.147,995.183 C588.844,997.716 583.322,998.983 577.582,998.983 C576.389,998.983 575.188,998.929 573.977,998.819 L564.241,996.543 C558.703,994.413 553.910,991.198 549.856,986.901 C547.662,992.987 543.960,998.480 539.090,1002.713 C536.411,1004.485 533.733,1006.256 531.053,1008.028 C525.971,1010.455 520.679,1011.669 515.179,1011.669 C514.036,1011.669 512.886,1011.616 511.726,1011.512 C508.615,1010.785 505.506,1010.058 502.396,1009.330 C496.777,1007.170 491.965,1003.829 487.942,999.339 C486.604,1001.245 485.068,1003.009 483.307,1004.540 C481.253,1005.897 479.201,1007.254 477.149,1008.611 C473.255,1010.471 469.199,1011.402 464.983,1011.402 C464.109,1011.402 463.227,1011.362 462.338,1011.281 C459.956,1010.725 457.573,1010.166 455.190,1009.609 C452.653,1008.634 450.337,1007.338 448.224,1005.744 C441.349,1011.803 431.963,1015.000 422.054,1015.000 C412.276,1015.000 403.846,1009.338 398.287,1001.420 C393.012,1004.207 386.870,1005.654 380.490,1005.654 C363.489,1005.654 350.924,986.963 352.401,970.918 C353.259,961.600 357.573,954.382 363.807,949.512 C360.590,943.513 358.980,936.632 359.576,930.162 C361.306,911.395 376.517,900.827 393.657,900.358 C395.330,890.290 400.488,880.976 408.120,874.343 L417.410,868.202 C423.283,865.396 429.399,863.993 435.756,863.993 C437.077,863.993 438.408,864.053 439.749,864.174 C443.343,865.014 446.938,865.855 450.532,866.695 C457.505,869.377 463.415,873.608 468.264,879.390 C468.452,879.616 468.617,879.860 468.800,880.091 C471.283,875.839 474.433,871.991 478.153,868.757 C481.371,866.629 484.591,864.503 487.809,862.375 C493.914,859.458 500.273,858.000 506.880,858.000 C508.252,858.000 509.633,858.063 511.026,858.188 C514.762,859.061 518.499,859.936 522.234,860.809 C529.481,863.596 535.624,867.995 540.663,874.004 C545.807,880.194 549.176,887.744 550.516,895.682 C551.820,894.839 553.123,893.995 554.426,893.152 C557.553,891.689 560.808,890.958 564.190,890.958 C564.892,890.958 565.599,890.990 566.312,891.053 C568.225,891.491 570.137,891.929 572.050,892.367 C575.759,893.764 578.903,895.968 581.484,898.980 C585.418,903.617 587.344,909.772 586.774,915.830 C586.595,917.730 586.169,919.590 585.525,921.370 C587.346,921.795 589.165,922.219 590.984,922.645 C597.279,925.067 602.616,928.888 606.993,934.109 C613.670,942.142 616.938,952.814 615.971,963.311 C615.034,973.478 610.140,983.029 602.535,989.637 ZM564.516,594.630 C564.444,594.850 564.236,595.000 564.000,595.000 L518.538,595.000 C518.272,595.000 518.043,594.812 518.003,594.555 C517.928,594.065 517.912,593.566 517.960,593.068 C518.113,591.481 518.910,589.989 520.148,588.949 C520.170,588.932 520.192,588.915 520.216,588.901 C520.654,588.624 521.093,588.348 521.531,588.072 C521.555,588.057 521.580,588.044 521.605,588.032 C522.470,587.645 523.370,587.451 524.305,587.451 C524.487,587.451 524.672,587.458 524.857,587.473 C524.886,587.476 524.914,587.480 524.942,587.486 C525.091,587.519 525.239,587.552 525.388,587.585 C525.429,587.595 525.470,587.599 525.509,587.599 C525.793,587.599 526.042,587.381 526.047,587.092 C526.051,586.883 526.063,586.675 526.083,586.466 C526.291,584.312 527.375,582.288 529.058,580.881 C529.078,580.864 529.100,580.848 529.123,580.833 C529.725,580.454 530.327,580.075 530.929,579.696 C530.953,579.681 530.978,579.667 531.004,579.656 C532.178,579.127 533.400,578.863 534.670,578.863 C534.923,578.863 535.177,578.874 535.434,578.895 C535.462,578.897 535.490,578.901 535.518,578.907 L535.524,578.909 C535.564,578.918 535.605,578.922 535.645,578.922 C535.891,578.922 536.113,578.756 536.169,578.512 C536.697,576.201 537.996,574.083 539.857,572.542 C542.312,570.509 545.035,570.000 548.156,570.000 C550.929,570.000 553.907,571.819 555.639,573.805 C557.579,576.030 558.529,578.985 558.248,581.892 C558.207,582.326 558.136,582.755 558.040,583.178 C557.976,583.459 558.156,583.738 558.445,583.802 C558.670,583.853 558.895,583.903 559.119,583.953 C559.147,583.959 559.174,583.967 559.200,583.976 C560.626,584.506 561.837,585.337 562.832,586.467 C564.364,588.223 565.114,590.555 564.892,592.850 C564.833,593.457 564.705,594.053 564.516,594.630 ZM85.311,146.859 C77.902,153.131 69.689,154.701 60.270,154.701 C55.405,154.701 50.333,152.795 45.910,150.002 C44.347,152.274 42.490,154.350 40.367,156.147 C38.093,157.611 35.819,159.076 33.545,160.540 C29.232,162.547 24.740,163.551 20.072,163.551 C19.102,163.551 18.125,163.507 17.140,163.421 C14.499,162.820 11.859,162.219 9.220,161.618 C7.180,160.853 5.269,159.906 3.476,158.788 C0.203,161.893 -4.454,163.539 -9.389,163.539 C-12.872,163.539 -15.988,162.049 -18.434,159.752 C-20.594,161.144 -22.755,162.534 -24.917,163.926 C-29.323,165.976 -33.910,167.001 -38.678,167.001 C-39.669,167.001 -40.666,166.957 -41.672,166.869 C-44.368,166.255 -47.064,165.640 -49.759,165.027 C-54.989,163.068 -59.422,159.977 -63.059,155.753 C-66.644,151.552 -69.038,146.459 -70.070,141.089 C-70.286,141.074 -70.497,141.072 -70.711,141.053 C-73.108,140.506 -75.504,139.960 -77.901,139.415 C-82.549,137.674 -86.489,134.927 -89.721,131.171 C-94.652,125.394 -97.065,117.720 -96.352,110.170 C-95.659,102.859 -92.044,95.989 -86.431,91.236 C-84.366,89.908 -82.301,88.578 -80.237,87.249 C-76.321,85.427 -72.243,84.516 -68.005,84.516 C-67.124,84.516 -66.238,84.555 -65.343,84.634 C-62.946,85.179 -60.551,85.726 -58.153,86.271 C-56.990,86.707 -55.869,87.208 -54.794,87.770 C-53.023,80.617 -48.995,74.084 -43.329,69.287 C-40.763,67.636 -38.199,65.985 -35.635,64.333 C-30.770,62.070 -25.705,60.939 -20.439,60.939 C-19.346,60.939 -18.245,60.987 -17.134,61.085 L-9.452,62.834 C-7.515,60.043 -5.223,57.493 -2.608,55.278 L5.947,49.771 C11.355,47.255 16.988,45.996 22.843,45.996 C24.058,45.996 25.282,46.050 26.517,46.159 L36.447,48.420 C42.867,50.825 48.309,54.621 52.774,59.806 C59.376,67.543 62.697,77.740 61.997,87.857 C63.514,87.754 65.061,87.704 66.645,87.704 C75.009,87.704 83.995,93.315 89.220,99.437 C95.075,106.298 97.940,115.411 97.092,124.376 C96.271,133.059 91.979,141.216 85.311,146.859 Z" class="cls-1"/>
</svg>
