<svg xmlns="http://www.w3.org/2000/svg" xmlns:xlink="http://www.w3.org/1999/xlink" preserveAspectRatio="xMidYMid" width="1890.91" height="943" viewBox="0 0 1890.91 943">
  <defs>
    <style>
      .cls-1 {
        fill: #fff;
        opacity: 0.8;
        fill-rule: evenodd;
      }
    </style>
  </defs>
  <g>
    <path d="M154.666,84.000 C156.038,84.000 157.420,84.063 158.814,84.188 C162.552,85.061 166.291,85.936 170.029,86.809 C177.279,89.596 183.426,93.995 188.467,100.004 C193.614,106.194 196.985,113.745 198.326,121.682 C199.631,120.839 200.935,119.995 202.238,119.152 C205.366,117.689 208.623,116.958 212.008,116.958 C212.710,116.958 213.417,116.990 214.131,117.053 C216.045,117.491 217.957,117.929 219.871,118.367 C223.583,119.764 226.728,121.968 229.310,124.980 C233.247,129.617 235.174,135.772 234.604,141.830 C234.425,143.730 233.998,145.590 233.354,147.370 C235.176,147.795 236.996,148.219 238.816,148.645 C245.115,151.067 250.454,154.888 254.833,160.109 C261.514,168.142 264.785,178.814 263.817,189.311 C262.879,199.478 257.983,209.029 250.373,215.637 L241.981,221.183 C236.675,223.716 231.150,224.983 225.406,224.983 C224.214,224.983 223.012,224.929 221.800,224.819 L212.058,222.543 C206.518,220.413 201.722,217.198 197.665,212.901 C195.470,218.987 191.766,224.480 186.894,228.713 C184.213,230.485 181.534,232.256 178.852,234.028 C173.767,236.455 168.472,237.669 162.969,237.669 C161.826,237.669 160.675,237.617 159.514,237.512 C156.402,236.785 153.291,236.058 150.180,235.330 C144.557,233.170 139.743,229.829 135.717,225.339 C134.378,227.245 132.842,229.009 131.080,230.540 C129.025,231.897 126.972,233.254 124.918,234.611 C121.022,236.471 116.964,237.402 112.746,237.402 C111.871,237.402 110.989,237.362 110.099,237.282 C107.717,236.725 105.332,236.166 102.948,235.609 C100.409,234.634 98.092,233.338 95.978,231.744 C89.099,237.803 79.708,241.000 69.793,241.000 C60.010,241.000 51.575,235.338 46.013,227.420 C40.736,230.208 34.591,231.654 28.206,231.654 C11.196,231.654 -1.376,212.963 0.103,196.918 C0.961,187.600 5.277,180.382 11.514,175.512 C8.296,169.513 6.685,162.632 7.281,156.162 C9.012,137.395 24.232,126.827 41.381,126.358 C43.055,116.290 48.215,106.976 55.852,100.343 L65.147,94.202 C71.023,91.396 77.142,89.993 83.503,89.993 C84.825,89.993 86.156,90.053 87.498,90.174 C91.094,91.014 94.691,91.855 98.288,92.695 C105.264,95.377 111.177,99.608 116.029,105.390 C116.216,105.616 116.382,105.860 116.565,106.091 C119.049,101.839 122.201,97.991 125.924,94.757 C129.143,92.629 132.365,90.503 135.584,88.375 C141.693,85.458 148.055,84.000 154.666,84.000 " class="cls-1"/>
    <path d="M1420.050,848.000 C1418.679,848.000 1417.298,848.063 1415.905,848.188 C1412.169,849.061 1408.432,849.936 1404.697,850.809 C1397.451,853.596 1391.308,857.995 1386.269,864.004 C1381.126,870.194 1377.756,877.744 1376.417,885.682 C1375.112,884.839 1373.809,883.995 1372.506,883.152 C1369.380,881.689 1366.125,880.958 1362.743,880.958 C1362.041,880.958 1361.334,880.990 1360.621,881.053 C1358.708,881.491 1356.797,881.929 1354.884,882.367 C1351.175,883.764 1348.031,885.968 1345.450,888.980 C1341.516,893.617 1339.590,899.772 1340.160,905.830 C1340.339,907.730 1340.765,909.590 1341.409,911.370 C1339.588,911.795 1337.770,912.219 1335.950,912.645 C1329.655,915.067 1324.319,918.888 1319.942,924.109 C1313.265,932.142 1309.997,942.814 1310.964,953.311 C1311.901,963.478 1316.795,973.029 1324.400,979.637 L1332.787,985.183 C1338.090,987.716 1343.612,988.983 1349.352,988.983 C1350.544,988.983 1351.745,988.929 1352.957,988.819 L1362.692,986.543 C1368.229,984.413 1373.022,981.198 1377.077,976.901 C1379.270,982.987 1382.972,988.480 1387.842,992.713 C1390.521,994.485 1393.199,996.256 1395.879,998.028 C1400.960,1000.455 1406.252,1001.669 1411.752,1001.669 C1412.894,1001.669 1414.045,1001.616 1415.205,1001.512 C1418.315,1000.785 1421.425,1000.058 1424.534,999.330 C1430.153,997.170 1434.965,993.829 1438.988,989.339 C1440.326,991.245 1441.861,993.009 1443.623,994.540 C1445.676,995.897 1447.728,997.254 1449.781,998.611 C1453.674,1000.471 1457.730,1001.402 1461.945,1001.402 C1462.820,1001.402 1463.702,1001.362 1464.591,1001.281 C1466.972,1000.725 1469.355,1000.166 1471.738,999.609 C1474.276,998.634 1476.591,997.338 1478.704,995.744 C1485.578,1001.803 1494.964,1005.000 1504.873,1005.000 C1514.650,1005.000 1523.080,999.338 1528.639,991.420 C1533.913,994.207 1540.055,995.654 1546.435,995.654 C1563.436,995.654 1576.000,976.963 1574.523,960.918 C1573.665,951.600 1569.351,944.382 1563.117,939.512 C1566.334,933.513 1567.944,926.632 1567.348,920.162 C1565.618,901.395 1550.408,890.827 1533.269,890.358 C1531.596,880.290 1526.438,870.976 1518.806,864.343 L1509.516,858.202 C1503.644,855.396 1497.528,853.993 1491.171,853.993 C1489.851,853.993 1488.520,854.053 1487.179,854.174 C1483.585,855.014 1479.989,855.855 1476.396,856.695 C1469.423,859.377 1463.513,863.608 1458.665,869.390 C1458.477,869.616 1458.312,869.860 1458.129,870.091 C1455.646,865.839 1452.496,861.991 1448.776,858.757 C1445.558,856.629 1442.338,854.503 1439.121,852.375 C1433.016,849.458 1426.658,848.000 1420.050,848.000 " class="cls-1"/>
    <path d="M1359.095,240.996 C1357.879,240.996 1356.655,241.050 1355.421,241.159 L1345.491,243.420 C1339.071,245.825 1333.629,249.621 1329.165,254.806 C1322.563,262.543 1319.242,272.740 1319.942,282.857 C1318.425,282.754 1316.878,282.704 1315.294,282.704 C1306.930,282.704 1297.945,288.315 1292.720,294.437 C1286.866,301.298 1284.000,310.411 1284.848,319.376 C1285.670,328.059 1289.961,336.216 1296.629,341.859 C1304.038,348.131 1312.250,349.701 1321.669,349.701 C1326.534,349.701 1331.606,347.795 1336.028,345.002 C1337.591,347.274 1339.448,349.350 1341.571,351.147 C1343.845,352.611 1346.119,354.076 1348.393,355.540 C1352.706,357.547 1357.197,358.551 1361.866,358.551 C1362.835,358.551 1363.812,358.507 1364.798,358.421 C1367.438,357.820 1370.078,357.219 1372.717,356.618 C1374.757,355.853 1376.668,354.906 1378.460,353.789 C1381.733,356.893 1386.391,358.539 1391.326,358.539 C1394.808,358.539 1397.924,357.049 1400.369,354.752 C1402.530,356.144 1404.691,357.534 1406.852,358.926 C1411.258,360.976 1415.845,362.001 1420.613,362.001 C1421.603,362.001 1422.601,361.957 1423.607,361.869 C1426.303,361.255 1428.999,360.640 1431.694,360.027 C1436.923,358.068 1441.356,354.977 1444.993,350.753 C1448.577,346.552 1450.972,341.459 1452.004,336.089 C1452.219,336.074 1452.430,336.072 1452.645,336.053 C1455.041,335.506 1457.437,334.960 1459.834,334.415 C1464.482,332.674 1468.422,329.927 1471.654,326.171 C1476.585,320.394 1478.998,312.720 1478.284,305.170 C1477.592,297.859 1473.977,290.989 1468.364,286.236 C1466.298,284.908 1464.234,283.578 1462.170,282.249 C1458.254,280.427 1454.177,279.516 1449.938,279.516 C1449.058,279.516 1448.171,279.555 1447.277,279.634 C1444.880,280.179 1442.485,280.726 1440.087,281.271 C1438.924,281.707 1437.803,282.208 1436.728,282.770 C1434.957,275.617 1430.929,269.084 1425.263,264.287 C1422.698,262.636 1420.133,260.985 1417.570,259.333 C1412.705,257.070 1407.640,255.939 1402.375,255.939 C1401.282,255.939 1400.180,255.987 1399.070,256.085 L1391.388,257.834 C1389.451,255.043 1387.159,252.493 1384.544,250.278 L1375.990,244.771 C1370.582,242.255 1364.949,240.996 1359.095,240.996 " class="cls-1"/>
    <path d="M791.267,0.000 C785.603,0.000 779.521,3.784 775.983,7.914 C772.020,12.542 770.079,18.688 770.654,24.735 C770.739,25.637 770.884,26.530 771.080,27.410 C771.211,27.996 770.842,28.576 770.252,28.709 C769.793,28.814 769.334,28.918 768.875,29.022 C768.819,29.034 768.764,29.051 768.711,29.071 C765.797,30.173 763.324,31.900 761.291,34.252 C758.163,37.905 756.632,42.754 757.085,47.527 C757.204,48.790 757.465,50.031 757.851,51.230 C757.999,51.687 758.423,52.000 758.907,52.000 L851.761,52.000 C852.304,52.000 852.772,51.608 852.853,51.075 C853.007,50.056 853.039,49.016 852.941,47.982 C852.628,44.680 851.000,41.577 848.471,39.415 C848.428,39.378 848.382,39.344 848.334,39.313 C847.438,38.739 846.543,38.164 845.648,37.590 C845.599,37.559 845.548,37.531 845.495,37.507 C843.729,36.701 841.892,36.298 839.983,36.298 C839.609,36.298 839.233,36.314 838.853,36.344 C838.796,36.349 838.738,36.358 838.681,36.371 C838.377,36.440 838.073,36.509 837.770,36.578 C837.686,36.597 837.603,36.606 837.521,36.606 C836.942,36.606 836.434,36.153 836.423,35.551 C836.415,35.117 836.391,34.683 836.350,34.250 C835.924,29.769 833.712,25.560 830.275,22.632 C830.232,22.596 830.188,22.563 830.141,22.533 C828.912,21.745 827.683,20.956 826.452,20.167 C826.404,20.136 826.352,20.108 826.300,20.084 C823.901,18.985 821.405,18.436 818.810,18.436 C818.295,18.436 817.775,18.457 817.252,18.501 C817.194,18.506 817.136,18.515 817.079,18.527 L817.067,18.530 C816.985,18.549 816.902,18.558 816.821,18.558 C816.318,18.558 815.864,18.214 815.750,17.705 C814.672,12.898 812.018,8.493 808.218,5.288 C803.202,1.059 797.642,0.000 791.267,0.000 " class="cls-1"/>
    <path d="M704.267,196.000 C698.603,196.000 692.521,199.784 688.983,203.914 C685.020,208.542 683.080,214.688 683.654,220.735 C683.739,221.637 683.884,222.530 684.080,223.410 C684.211,223.996 683.842,224.575 683.252,224.709 C682.793,224.814 682.334,224.918 681.875,225.022 C681.819,225.034 681.764,225.051 681.711,225.071 C678.797,226.173 676.324,227.900 674.291,230.252 C671.163,233.905 669.632,238.754 670.085,243.527 C670.204,244.790 670.465,246.031 670.852,247.230 C670.999,247.687 671.423,248.000 671.907,248.000 L764.761,248.000 C765.304,248.000 765.772,247.608 765.853,247.075 C766.007,246.056 766.039,245.016 765.941,243.982 C765.628,240.680 764.000,237.577 761.471,235.415 C761.428,235.378 761.382,235.344 761.334,235.313 C760.438,234.739 759.543,234.164 758.648,233.590 C758.599,233.559 758.548,233.531 758.495,233.507 C756.729,232.701 754.892,232.298 752.983,232.298 C752.609,232.298 752.233,232.314 751.853,232.344 C751.796,232.349 751.738,232.358 751.681,232.371 C751.377,232.440 751.073,232.509 750.770,232.578 C750.686,232.597 750.603,232.606 750.522,232.606 C749.942,232.606 749.434,232.153 749.423,231.551 C749.415,231.117 749.391,230.683 749.350,230.250 C748.924,225.769 746.712,221.560 743.275,218.632 C743.233,218.596 743.188,218.563 743.141,218.533 C741.912,217.745 740.683,216.956 739.452,216.167 C739.404,216.136 739.353,216.108 739.300,216.084 C736.901,214.985 734.405,214.436 731.811,214.436 C731.295,214.436 730.775,214.457 730.252,214.501 C730.194,214.506 730.136,214.515 730.079,214.527 L730.068,214.530 C729.985,214.549 729.902,214.558 729.821,214.558 C729.318,214.558 728.864,214.214 728.750,213.705 C727.672,208.898 725.018,204.493 721.218,201.288 C716.202,197.059 710.642,196.000 704.267,196.000 " class="cls-1"/>
    <path d="M1471.776,548.000 C1469.004,548.000 1466.026,549.819 1464.294,551.805 C1462.354,554.030 1461.404,556.985 1461.685,559.892 C1461.726,560.326 1461.797,560.755 1461.893,561.178 C1461.957,561.459 1461.777,561.738 1461.488,561.802 C1461.263,561.853 1461.038,561.903 1460.814,561.953 C1460.786,561.959 1460.759,561.967 1460.733,561.976 C1459.307,562.506 1458.096,563.337 1457.101,564.467 C1455.569,566.223 1454.820,568.555 1455.041,570.850 C1455.100,571.457 1455.228,572.053 1455.417,572.630 C1455.489,572.850 1455.697,573.000 1455.933,573.000 L1501.393,573.000 C1501.659,573.000 1501.888,572.812 1501.928,572.555 C1502.003,572.065 1502.019,571.566 1501.971,571.068 C1501.818,569.481 1501.021,567.989 1499.783,566.949 C1499.762,566.932 1499.739,566.915 1499.716,566.901 C1499.277,566.624 1498.839,566.348 1498.401,566.072 C1498.377,566.057 1498.352,566.044 1498.326,566.032 C1497.461,565.645 1496.562,565.451 1495.627,565.451 C1495.444,565.451 1495.260,565.458 1495.074,565.473 C1495.046,565.476 1495.017,565.480 1494.990,565.486 C1494.841,565.519 1494.692,565.552 1494.543,565.585 C1494.503,565.595 1494.462,565.599 1494.422,565.599 C1494.138,565.599 1493.890,565.381 1493.884,565.092 C1493.880,564.883 1493.869,564.675 1493.849,564.466 C1493.640,562.312 1492.557,560.288 1490.874,558.881 C1490.853,558.864 1490.832,558.848 1490.809,558.833 C1490.207,558.454 1489.605,558.075 1489.003,557.696 C1488.979,557.681 1488.954,557.667 1488.928,557.656 C1487.754,557.127 1486.532,556.863 1485.261,556.863 C1485.009,556.863 1484.755,556.874 1484.498,556.895 C1484.470,556.897 1484.442,556.901 1484.414,556.907 L1484.408,556.909 C1484.368,556.918 1484.327,556.922 1484.287,556.922 C1484.041,556.922 1483.819,556.756 1483.763,556.512 C1483.235,554.201 1481.936,552.083 1480.076,550.542 C1477.620,548.509 1474.898,548.000 1471.776,548.000 " class="cls-1"/>
    <path d="M369.776,255.000 C367.004,255.000 364.026,256.819 362.294,258.805 C360.354,261.030 359.404,263.985 359.685,266.892 C359.726,267.326 359.797,267.755 359.893,268.178 C359.957,268.460 359.777,268.738 359.488,268.803 C359.263,268.853 359.038,268.903 358.814,268.953 C358.786,268.959 358.759,268.967 358.733,268.976 C357.307,269.506 356.096,270.337 355.101,271.467 C353.569,273.223 352.820,275.555 353.041,277.849 C353.100,278.457 353.228,279.053 353.417,279.630 C353.489,279.850 353.697,280.000 353.933,280.000 L399.393,280.000 C399.659,280.000 399.888,279.812 399.928,279.555 C400.003,279.065 400.019,278.566 399.971,278.068 C399.818,276.481 399.021,274.989 397.783,273.949 C397.762,273.932 397.739,273.915 397.716,273.901 C397.277,273.624 396.839,273.348 396.401,273.072 C396.377,273.057 396.352,273.044 396.326,273.032 C395.461,272.645 394.562,272.451 393.627,272.451 C393.444,272.451 393.260,272.458 393.074,272.473 C393.046,272.476 393.017,272.480 392.990,272.486 C392.841,272.519 392.692,272.552 392.543,272.585 C392.503,272.595 392.462,272.599 392.422,272.599 C392.138,272.599 391.890,272.381 391.884,272.092 C391.880,271.883 391.869,271.675 391.849,271.466 C391.640,269.312 390.557,267.288 388.874,265.881 C388.853,265.863 388.832,265.848 388.809,265.833 C388.207,265.454 387.605,265.075 387.003,264.696 C386.979,264.681 386.954,264.667 386.928,264.656 C385.754,264.127 384.532,263.863 383.261,263.863 C383.009,263.863 382.755,263.874 382.498,263.895 C382.470,263.897 382.442,263.901 382.414,263.907 L382.408,263.909 C382.368,263.918 382.327,263.922 382.287,263.922 C382.041,263.922 381.819,263.756 381.763,263.512 C381.235,261.201 379.936,259.083 378.076,257.542 C375.620,255.509 372.898,255.000 369.776,255.000 " class="cls-1"/>
    <path d="M1719.267,178.000 C1713.603,178.000 1707.521,181.784 1703.983,185.914 C1700.020,190.542 1698.080,196.688 1698.654,202.735 C1698.739,203.637 1698.884,204.530 1699.080,205.410 C1699.211,205.996 1698.842,206.575 1698.252,206.709 C1697.793,206.814 1697.334,206.918 1696.875,207.022 C1696.819,207.034 1696.764,207.051 1696.711,207.071 C1693.797,208.173 1691.324,209.900 1689.291,212.252 C1686.163,215.905 1684.632,220.754 1685.085,225.527 C1685.205,226.790 1685.465,228.031 1685.852,229.230 C1685.999,229.687 1686.423,230.000 1686.907,230.000 L1779.761,230.000 C1780.304,230.000 1780.772,229.608 1780.853,229.075 C1781.007,228.056 1781.040,227.016 1780.941,225.982 C1780.628,222.680 1779.000,219.577 1776.472,217.415 C1776.428,217.378 1776.382,217.344 1776.334,217.313 C1775.438,216.739 1774.543,216.164 1773.648,215.590 C1773.599,215.559 1773.548,215.531 1773.496,215.507 C1771.730,214.701 1769.892,214.298 1767.983,214.298 C1767.609,214.298 1767.233,214.314 1766.853,214.344 C1766.796,214.349 1766.738,214.358 1766.681,214.371 C1766.377,214.440 1766.074,214.509 1765.770,214.578 C1765.687,214.597 1765.603,214.606 1765.522,214.606 C1764.942,214.606 1764.434,214.153 1764.423,213.551 C1764.415,213.117 1764.391,212.683 1764.350,212.250 C1763.924,207.769 1761.712,203.560 1758.275,200.632 C1758.233,200.596 1758.188,200.563 1758.142,200.533 C1756.912,199.745 1755.683,198.956 1754.453,198.167 C1754.404,198.136 1754.353,198.108 1754.300,198.084 C1751.902,196.985 1749.405,196.436 1746.811,196.436 C1746.295,196.436 1745.775,196.457 1745.252,196.501 C1745.194,196.506 1745.136,196.515 1745.079,196.527 L1745.068,196.530 C1744.985,196.549 1744.902,196.558 1744.821,196.558 C1744.318,196.558 1743.864,196.214 1743.750,195.705 C1742.672,190.898 1740.018,186.493 1736.218,183.288 C1731.202,179.059 1725.642,178.000 1719.267,178.000 " class="cls-1"/>
    <path d="M449.733,401.000 C455.396,401.000 461.478,404.784 465.016,408.914 C468.980,413.542 470.920,419.688 470.346,425.735 C470.261,426.637 470.116,427.530 469.920,428.410 C469.789,428.996 470.158,429.576 470.747,429.709 C471.207,429.814 471.666,429.918 472.125,430.022 C472.181,430.034 472.236,430.051 472.289,430.071 C475.203,431.174 477.676,432.900 479.709,435.252 C482.837,438.905 484.368,443.754 483.915,448.527 C483.795,449.790 483.534,451.031 483.148,452.230 C483.001,452.687 482.576,453.000 482.093,453.000 L389.239,453.000 C388.696,453.000 388.228,452.608 388.147,452.075 C387.993,451.056 387.960,450.016 388.058,448.982 C388.372,445.680 389.999,442.577 392.528,440.415 C392.572,440.378 392.617,440.344 392.666,440.313 C393.562,439.739 394.457,439.164 395.352,438.590 C395.400,438.559 395.452,438.531 395.504,438.507 C397.270,437.701 399.108,437.298 401.017,437.298 C401.391,437.298 401.767,437.314 402.146,437.344 C402.204,437.349 402.262,437.358 402.318,437.371 C402.622,437.440 402.926,437.509 403.230,437.578 C403.313,437.597 403.396,437.606 403.478,437.606 C404.058,437.606 404.566,437.153 404.576,436.551 C404.584,436.117 404.609,435.683 404.649,435.250 C405.075,430.769 407.287,426.560 410.725,423.632 C410.767,423.596 410.811,423.563 410.858,423.533 C412.088,422.745 413.317,421.956 414.547,421.167 C414.596,421.136 414.647,421.108 414.700,421.084 C417.098,419.985 419.595,419.436 422.189,419.436 C422.705,419.436 423.224,419.457 423.748,419.501 C423.806,419.506 423.864,419.515 423.920,419.527 L423.932,419.530 C424.015,419.549 424.097,419.558 424.179,419.558 C424.682,419.558 425.136,419.214 425.250,418.705 C426.327,413.898 428.982,409.493 432.781,406.288 C437.798,402.059 443.358,401.000 449.733,401.000 " class="cls-1"/>
    <path d="M1739.365,30.000 C1741.784,30.000 1744.381,31.601 1745.892,33.348 C1747.585,35.306 1748.414,37.906 1748.169,40.465 C1748.132,40.847 1748.070,41.224 1747.987,41.596 C1747.931,41.844 1748.088,42.090 1748.340,42.146 C1748.536,42.190 1748.732,42.234 1748.928,42.278 C1748.952,42.284 1748.976,42.291 1748.998,42.299 C1750.243,42.766 1751.299,43.496 1752.167,44.491 C1753.503,46.037 1754.157,48.088 1753.964,50.108 C1753.912,50.642 1753.801,51.167 1753.636,51.674 C1753.573,51.868 1753.392,52.000 1753.186,52.000 L1713.529,52.000 C1713.297,52.000 1713.097,51.834 1713.063,51.609 C1712.997,51.177 1712.983,50.738 1713.025,50.300 C1713.159,48.903 1713.854,47.590 1714.934,46.675 C1714.952,46.660 1714.972,46.645 1714.993,46.632 C1715.375,46.390 1715.758,46.146 1716.140,45.903 C1716.161,45.890 1716.182,45.878 1716.205,45.868 C1716.959,45.527 1717.744,45.357 1718.559,45.357 C1718.719,45.357 1718.880,45.363 1719.042,45.376 C1719.066,45.379 1719.091,45.382 1719.115,45.388 C1719.245,45.417 1719.375,45.446 1719.504,45.475 C1719.540,45.483 1719.576,45.487 1719.610,45.487 C1719.858,45.487 1720.075,45.295 1720.080,45.041 C1720.083,44.857 1720.093,44.674 1720.111,44.490 C1720.293,42.595 1721.237,40.814 1722.705,39.575 C1722.723,39.560 1722.742,39.546 1722.762,39.533 C1723.287,39.200 1723.812,38.866 1724.338,38.532 C1724.359,38.519 1724.381,38.507 1724.403,38.497 C1725.427,38.032 1726.493,37.800 1727.602,37.800 C1727.822,37.800 1728.044,37.809 1728.267,37.827 C1728.292,37.829 1728.317,37.833 1728.341,37.839 L1728.346,37.840 C1728.381,37.848 1728.417,37.851 1728.451,37.851 C1728.666,37.851 1728.860,37.706 1728.909,37.491 C1729.369,35.457 1730.503,33.593 1732.125,32.237 C1734.268,30.448 1736.642,30.000 1739.365,30.000 " class="cls-1"/>
    <path d="M1183.365,814.000 C1185.784,814.000 1188.381,815.601 1189.892,817.348 C1191.585,819.306 1192.414,821.906 1192.169,824.465 C1192.132,824.847 1192.070,825.224 1191.987,825.596 C1191.931,825.844 1192.088,826.090 1192.340,826.146 C1192.536,826.190 1192.732,826.234 1192.928,826.278 C1192.952,826.284 1192.976,826.291 1192.998,826.299 C1194.243,826.766 1195.299,827.496 1196.167,828.491 C1197.503,830.037 1198.157,832.088 1197.964,834.108 C1197.913,834.642 1197.801,835.167 1197.636,835.674 C1197.573,835.868 1197.392,836.000 1197.186,836.000 L1157.529,836.000 C1157.297,836.000 1157.097,835.834 1157.063,835.609 C1156.997,835.177 1156.983,834.738 1157.025,834.300 C1157.159,832.903 1157.854,831.590 1158.934,830.675 C1158.952,830.660 1158.972,830.645 1158.993,830.632 C1159.375,830.390 1159.758,830.146 1160.140,829.903 C1160.161,829.890 1160.182,829.878 1160.205,829.868 C1160.959,829.527 1161.744,829.357 1162.559,829.357 C1162.719,829.357 1162.880,829.363 1163.042,829.376 C1163.066,829.379 1163.091,829.382 1163.115,829.388 C1163.245,829.417 1163.375,829.446 1163.504,829.475 C1163.540,829.483 1163.576,829.487 1163.610,829.487 C1163.858,829.487 1164.075,829.295 1164.080,829.041 C1164.083,828.857 1164.093,828.674 1164.111,828.490 C1164.293,826.595 1165.237,824.814 1166.705,823.575 C1166.723,823.560 1166.742,823.546 1166.762,823.533 C1167.287,823.200 1167.812,822.866 1168.338,822.532 C1168.359,822.519 1168.381,822.507 1168.403,822.497 C1169.427,822.032 1170.493,821.800 1171.602,821.800 C1171.822,821.800 1172.044,821.809 1172.267,821.827 C1172.292,821.829 1172.317,821.833 1172.341,821.839 L1172.346,821.840 C1172.381,821.848 1172.417,821.851 1172.451,821.851 C1172.666,821.851 1172.860,821.706 1172.909,821.491 C1173.369,819.457 1174.503,817.593 1176.125,816.237 C1178.268,814.448 1180.642,814.000 1183.365,814.000 " class="cls-1"/>
    <path d="M1749.394,519.000 C1736.412,519.000 1722.470,527.733 1714.360,537.263 C1705.275,547.944 1700.827,562.126 1702.142,576.082 C1702.338,578.163 1702.670,580.223 1703.120,582.254 C1703.420,583.606 1702.574,584.944 1701.222,585.252 C1700.169,585.493 1699.117,585.734 1698.064,585.973 C1697.936,586.002 1697.811,586.041 1697.688,586.087 C1691.009,588.631 1685.340,592.615 1680.680,598.044 C1673.509,606.472 1670.000,617.664 1671.038,628.678 C1671.313,631.593 1671.911,634.457 1672.796,637.224 C1673.133,638.278 1674.107,639.000 1675.214,639.000 L1888.066,639.000 C1889.310,639.000 1890.384,638.096 1890.569,636.866 C1890.922,634.514 1890.997,632.115 1890.772,629.728 C1890.054,622.108 1886.322,614.947 1880.526,609.957 C1880.426,609.872 1880.321,609.794 1880.211,609.723 C1878.157,608.398 1876.105,607.072 1874.053,605.746 C1873.942,605.674 1873.825,605.609 1873.704,605.554 C1869.656,603.695 1865.443,602.765 1861.067,602.765 C1860.210,602.765 1859.347,602.801 1858.478,602.872 C1858.346,602.883 1858.213,602.904 1858.084,602.934 C1857.387,603.093 1856.690,603.252 1855.994,603.411 C1855.803,603.454 1855.612,603.475 1855.425,603.475 C1854.097,603.475 1852.932,602.429 1852.907,601.041 C1852.889,600.040 1852.834,599.038 1852.740,598.037 C1851.764,587.699 1846.693,577.984 1838.813,571.227 C1838.717,571.145 1838.615,571.069 1838.508,571.000 C1835.689,569.181 1832.871,567.360 1830.051,565.540 C1829.939,565.468 1829.822,565.403 1829.702,565.347 C1824.203,562.811 1818.481,561.544 1812.534,561.544 C1811.351,561.544 1810.161,561.594 1808.960,561.694 C1808.828,561.705 1808.695,561.726 1808.565,561.756 L1808.538,561.762 C1808.349,561.805 1808.160,561.826 1807.973,561.826 C1806.820,561.826 1805.779,561.031 1805.518,559.859 C1803.047,548.765 1796.963,538.598 1788.253,531.204 C1776.754,521.443 1764.008,519.000 1749.394,519.000 " class="cls-1"/>
    <path d="M761.825,623.000 C752.268,623.000 742.005,629.404 736.035,636.393 C729.347,644.225 726.072,654.626 727.041,664.860 C727.184,666.386 727.429,667.897 727.760,669.386 C727.981,670.378 727.358,671.359 726.363,671.585 C725.588,671.761 724.814,671.938 724.038,672.114 C723.944,672.135 723.852,672.163 723.762,672.197 C718.844,674.063 714.671,676.985 711.241,680.965 C705.962,687.146 703.379,695.354 704.143,703.430 C704.345,705.568 704.785,707.668 705.437,709.698 C705.686,710.470 706.402,711.000 707.217,711.000 L863.909,711.000 C864.825,711.000 865.616,710.337 865.752,709.435 C866.011,707.710 866.067,705.951 865.901,704.201 C865.372,698.613 862.626,693.361 858.358,689.702 C858.285,689.639 858.208,689.582 858.127,689.530 C856.615,688.558 855.104,687.586 853.594,686.614 C853.512,686.561 853.425,686.513 853.336,686.473 C850.356,685.109 847.255,684.428 844.034,684.428 C843.403,684.428 842.768,684.454 842.128,684.506 C842.030,684.514 841.933,684.530 841.837,684.551 C841.324,684.668 840.812,684.785 840.299,684.901 C840.159,684.933 840.018,684.948 839.880,684.948 C838.903,684.948 838.045,684.181 838.027,683.163 C838.014,682.429 837.973,681.695 837.904,680.961 C837.185,673.379 833.452,666.255 827.651,661.300 C827.580,661.240 827.505,661.184 827.427,661.133 C825.352,659.799 823.277,658.464 821.201,657.129 C821.119,657.077 821.033,657.029 820.944,656.988 C816.896,655.128 812.684,654.199 808.306,654.199 C807.435,654.199 806.559,654.235 805.675,654.309 C805.578,654.317 805.480,654.332 805.384,654.354 L805.364,654.359 C805.225,654.391 805.086,654.406 804.948,654.406 C804.099,654.406 803.333,653.823 803.141,652.963 C801.322,644.828 796.843,637.372 790.431,631.950 C781.966,624.791 772.583,623.000 761.825,623.000 " class="cls-1"/>
    <path d="M222.762,731.987 C221.135,731.987 219.509,732.036 217.901,732.082 C215.182,732.701 212.463,733.321 209.743,733.941 C204.470,735.917 199.999,739.035 196.331,743.296 C191.660,748.771 188.990,755.748 188.705,762.889 C187.330,762.688 185.938,762.584 184.528,762.584 C183.689,762.584 182.844,762.621 181.992,762.696 C179.629,763.234 177.264,763.773 174.902,764.310 C170.316,766.029 166.431,768.739 163.243,772.442 C158.380,778.143 156.000,785.712 156.705,793.159 C157.387,800.371 160.951,807.147 166.489,811.836 C167.376,812.407 168.263,812.979 169.151,813.550 C169.104,814.675 169.125,815.805 169.231,816.933 C169.848,823.434 173.060,829.542 178.053,833.768 C179.888,834.951 181.722,836.133 183.559,837.314 C187.040,838.934 190.665,839.745 194.433,839.745 C195.217,839.745 196.006,839.710 196.801,839.640 L203.193,838.183 C204.226,837.796 205.221,837.353 206.177,836.853 C207.040,837.788 207.956,838.680 208.933,839.507 C211.220,840.979 213.507,842.452 215.795,843.925 C220.135,845.945 224.654,846.955 229.351,846.955 C230.326,846.955 231.308,846.912 232.298,846.824 C234.954,846.219 237.609,845.614 240.264,845.009 C244.965,843.249 249.004,840.547 252.398,836.928 C252.597,837.104 252.791,837.286 252.994,837.457 C255.351,838.975 257.708,840.494 260.066,842.012 C264.538,844.092 269.195,845.134 274.036,845.134 C275.041,845.134 276.054,845.089 277.075,844.999 C279.811,844.376 282.548,843.752 285.284,843.129 C285.779,842.943 286.259,842.738 286.740,842.533 C287.877,843.266 289.015,843.999 290.153,844.732 C294.829,846.908 299.699,847.995 304.760,847.995 C305.810,847.995 306.868,847.949 307.935,847.855 C310.795,847.203 313.658,846.551 316.518,845.899 C322.067,843.822 326.773,840.539 330.632,836.056 C332.451,833.925 333.979,831.577 335.203,829.084 C335.587,829.168 335.972,829.249 336.361,829.317 C338.905,829.421 341.450,829.524 343.993,829.629 C348.979,829.136 353.529,827.466 357.640,824.619 L358.887,823.668 C360.696,822.027 362.504,820.388 364.313,818.748 C367.646,814.807 369.769,810.299 370.684,805.222 C372.000,797.789 370.276,790.049 365.932,783.870 C362.296,778.699 357.001,774.879 350.999,773.001 C351.224,770.883 351.242,768.739 351.041,766.604 C350.250,758.253 346.122,750.407 339.711,744.979 C337.353,743.461 334.995,741.942 332.638,740.425 C328.165,738.343 323.507,737.302 318.665,737.302 C317.661,737.302 316.649,737.347 315.630,737.437 C312.892,738.061 310.156,738.684 307.419,739.307 C304.177,740.522 301.239,742.172 298.598,744.246 C297.680,743.220 296.693,742.250 295.636,741.354 C293.437,739.939 291.237,738.524 289.040,737.107 C284.868,735.166 280.526,734.197 276.011,734.196 C275.074,734.196 274.129,734.238 273.177,734.322 C270.625,734.902 268.073,735.484 265.521,736.066 C260.584,737.914 256.398,740.832 252.961,744.815 C250.045,741.220 246.316,738.242 241.870,736.252 C238.169,734.596 234.238,733.241 230.244,732.537 C227.799,732.105 225.280,731.987 222.762,731.987 " class="cls-1"/>
  </g>
</svg>
