<svg xmlns="http://www.w3.org/2000/svg" xmlns:xlink="http://www.w3.org/1999/xlink" preserveAspectRatio="xMidYMid" width="19.97" height="11" viewBox="0 0 19.97 11">
  <defs>
    <style>
      .cls-1 {
        fill: #3d9b46;
        fill-rule: evenodd;
      }
    </style>
  </defs>
  <path d="M1.065,2.804 C1.841,1.891 2.873,1.210 3.706,0.975 C5.227,0.354 11.810,-0.005 13.622,-0.005 C13.954,-0.005 14.206,0.003 14.393,0.019 C15.239,0.090 15.507,0.555 15.571,0.774 C15.889,1.454 16.141,2.144 16.321,2.832 C17.307,2.974 18.068,3.354 18.452,3.581 C19.017,3.916 19.965,4.618 19.964,5.547 C19.964,6.723 18.215,7.993 16.288,8.264 C16.112,8.912 15.878,9.547 15.610,10.101 C15.406,11.003 14.389,11.003 13.647,11.003 C12.412,11.003 10.072,10.863 7.823,10.654 C6.702,10.548 5.752,10.441 5.077,10.342 C4.485,10.255 4.036,10.117 3.627,9.983 C2.777,9.707 -2.131,7.086 1.065,2.804 Z" class="cls-1"/>
</svg>
