<svg xmlns="http://www.w3.org/2000/svg" xmlns:xlink="http://www.w3.org/1999/xlink" preserveAspectRatio="xMidYMid" width="236" height="236" viewBox="0 0 236 236">
  <defs>
    <style>
      .cls-1 {
        fill: #f2303f;
        fill-rule: evenodd;
      }
    </style>
  </defs>
  <path d="M234.011,180.688 C235.336,182.012 236.000,183.571 236.000,185.368 C236.000,187.164 235.336,188.724 234.011,190.050 L189.992,234.016 C188.667,235.338 187.151,236.000 185.447,236.000 C183.934,236.000 182.324,235.338 180.621,234.016 L117.858,171.328 L55.093,234.016 C53.770,235.338 52.255,236.000 50.550,236.000 C49.037,236.000 47.426,235.338 45.722,234.016 L1.704,190.050 C0.569,188.914 0.000,187.307 0.000,185.228 C0.000,183.335 0.569,181.824 1.704,180.688 L64.468,117.999 L1.987,55.312 C0.662,54.177 0.000,52.665 0.000,50.773 C0.000,48.693 0.662,47.086 1.987,45.952 L45.722,1.984 C47.048,0.660 48.659,-0.001 50.550,-0.001 C52.445,-0.001 53.958,0.660 55.093,1.984 L117.858,64.673 L180.621,1.984 C181.946,0.660 183.507,-0.001 185.306,-0.001 C187.105,-0.001 188.667,0.660 189.992,1.984 L234.013,45.952 C235.336,47.276 236.000,48.836 236.000,50.632 C236.000,52.429 235.336,53.988 234.013,55.312 L171.249,117.999 L234.011,180.688 Z" class="cls-1"/>
</svg>
