<?xml version="1.0" encoding="utf-8"?>
<!-- Generator: Adobe Illustrator 18.0.0, SVG Export Plug-In . SVG Version: 6.00 Build 0)  -->
<!DOCTYPE svg PUBLIC "-//W3C//DTD SVG 1.1//EN" "http://www.w3.org/Graphics/SVG/1.1/DTD/svg11.dtd">
<svg version="1.1" id="Layer_1" xmlns="http://www.w3.org/2000/svg" xmlns:xlink="http://www.w3.org/1999/xlink" x="0px" y="0px"
	 viewBox="0 0 387 814" enable-background="new 0 0 387 814" xml:space="preserve">
<g opacity="0.4">
	<g>
		<path d="M157,305.5c-1.2,0-2.2,1-2.2,2.2v119.6c0,1.2,1,2.2,2.2,2.2c1.2,0,2.2-1,2.2-2.2V307.7C159.1,306.5,158.2,305.5,157,305.5
			z M157,466.1c-1.2,0-2.2,1-2.2,2.2v20.1c0,1.2,1,2.2,2.2,2.2c1.2,0,2.2-1,2.2-2.2v-20.1C159.1,467.1,158.2,466.1,157,466.1z
			 M157,502.3c-1.2,0-2.2,1-2.2,2.2v9.6c0,1.2,1,2.2,2.2,2.2c1.2,0,2.2-1,2.2-2.2v-9.6C159.1,503.3,158.2,502.3,157,502.3z
			 M220,304.2c-1.2,0-2.2,1-2.2,2.2V350c0,1.2,1,2.2,2.2,2.2c1.2,0,2.2-1,2.2-2.2v-43.7C222.1,305.1,221.2,304.2,220,304.2z
			 M220,511.6c-1.2,0-2.2,1-2.2,2.2v13.1c0,1.2,1,2.2,2.2,2.2c1.2,0,2.2-1,2.2-2.2v-13.1C222.1,512.6,221.2,511.6,220,511.6z
			 M215.6,621.5c-1.2,0-2.2,1-2.2,2.2v2.4c0,1.2,1,2.2,2.2,2.2c1.2,0,2.2-1,2.2-2.2v-2.4C217.8,622.5,216.8,621.5,215.6,621.5z
			 M309.5,369.4c-1.2,0-2.2,1-2.2,2.2v33.8c0,1.2,1,2.2,2.2,2.2c1.2,0,2.2-1,2.2-2.2v-33.8C311.7,370.4,310.7,369.4,309.5,369.4z
			 M309.5,305.4c-1.2,0-2.2,1-2.2,2.2V347c0,1.2,1,2.2,2.2,2.2c1.2,0,2.2-1,2.2-2.2v-39.5C311.7,306.4,310.7,305.4,309.5,305.4z
			 M179.3,798.1c-1.2,0-2.2,1-2.2,2.2v7.3c0,1.2,1,2.2,2.2,2.2c1.2,0,2.2-1,2.2-2.2v-7.3C181.5,799.1,180.5,798.1,179.3,798.1z
			 M202.8,654.2c-1.2,0-2.2,1-2.2,2.2v7.3c0,1.2,1,2.2,2.2,2.2c1.2,0,2.2-1,2.2-2.2v-7.3C205,655.1,204,654.2,202.8,654.2z
			 M264.7,409.9c-1.2,0-2.2,1-2.2,2.2v12.6c0,1.2,1,2.2,2.2,2.2c1.2,0,2.2-1,2.2-2.2v-12.6C266.9,410.9,265.9,409.9,264.7,409.9z
			 M264.7,365c-1.2,0-2.2,1-2.2,2.2v26.1c0,1.2,1,2.2,2.2,2.2c1.2,0,2.2-1,2.2-2.2v-26.1C266.9,366,265.9,365,264.7,365z"/>
	</g>
</g>
<path fill="none" stroke="#474747" stroke-width="8" stroke-miterlimit="10" d="M132.9,128.4C134.8,55,229,31,295.6,64.2"/>
<path fill="#474747" d="M143.4,169h-8.4c-5.7,0-10.4-4.6-10.4-10.4c-3.6-6.7-4.3-14.2,0-22.6c0-5.7,4.6-10.4,10.4-10.4h8.4
	c5.7,0,10.4,4.6,10.4,10.4v22.6C153.8,164.4,149.2,169,143.4,169z"/>
<path fill="#F5CE9F" d="M336.4,207.6c-8.3-71.8-16.5-143.4-16.5-143.4H150.9c0,0-8,69.4-16.2,140.1"/>
<path fill="#3D9B46" d="M356.2,225.5c6.2-26.3-11.8-40.3-23-42.1c-64.8,24.5-124.5,20-193.8-2.3c0,0-10-1.7-23.7,9.4
	c0,0-40,38.3-103.6,41.7c12,30.3,30,51.2,63.3,43.9c6.3,11.9,19.1,31,42.6,27.2c-1.9,16.7-3.1,26.8-3.1,26.8h235.3
	c0,0-15.1-89-12.7-116.4C338.2,205.8,355.3,224.7,356.2,225.5z"/>
<path fill="#F5CE9F" d="M132.7,268.3c-3.9-2.9-7.6-4.6-11-5.3c-4.4-9.3-9.7-20.4-9.7-20.4l18.1-10.7l3.7-24.3
	c-0.6,0.2-39.9,22.3-40,22.3c-4.5,2.5-6.4,7.8-4.1,12.5l19.6,41.3c2.9,3.5,16.3,17.2,31.8,5.4C148.6,283.5,144.3,276.9,132.7,268.3z
	"/>
<path fill="#F5CE9F" d="M374.6,233.7c-0.1,0-38.2-28.3-38.2-28.3l3.2,30.7l17.5,11.1l-7,7.9c-3.2-0.2-6.7,0.2-10.6,1.2
	c-13.7,3.5-17.1,10.8-10.7,17.8c12.3,13.4,24.7,7.9,28.1,5.1l22.5-32.1C381.7,242.5,379,236.2,374.6,233.7z"/>
<g>
	
		<path fill="#FFFFFF" stroke="#474747" stroke-width="3" stroke-linecap="round" stroke-linejoin="round" stroke-miterlimit="10" d="
		M129.3,207.6"/>
</g>
<path fill="#FFC569" d="M196.7,238.9c10.1-4.6,18.3-8.9,20.6-15.9h41.2c3.5,7,10.4,11.6,20.6,15.9c0,37.4-41.6,59.9-41.6,59.9
	S196.7,281.6,196.7,238.9z"/>
<path fill="#474747" d="M235.1,304.2c-0.5,0-0.9-0.1-1.3-0.3c-0.4-0.2-42.8-18.6-42.8-63.1c0-1.3,0.8-2.6,2-3.1
	c8.2-3.7,16.8-8.3,18.7-14.3c0.5-1.4,1.8-2.4,3.3-2.4h41.2c1.3,0,2.5,0.8,3.1,1.9c3,5.8,9,10.5,18.9,14.7c1.3,0.5,2.1,1.8,2.1,3.2
	c0,39-41.7,62-43.4,62.9C236.2,304,235.7,304.2,235.1,304.2z M197.9,243c1.2,33.9,30.1,50.3,37.1,53.8c7-4.3,36.9-24,38.3-53.8
	c-9.3-4.2-15.4-9.1-19.1-15.1h-36.9C213.9,234,206.2,239.1,197.9,243z"/>
<g>
	<path fill="#474747" d="M233.3,254.1c0-8.8,6.7-14.5,14.9-14.5c5.8,0,9.5,2.9,11.6,6.2l-4.9,2.7c-1.3-2-3.6-3.6-6.6-3.6
		c-5.1,0-8.8,3.9-8.8,9.2c0,5.3,3.7,9.2,8.8,9.2c2.5,0,4.8-1.1,6-2.1l1.9-3.4h-7.4v-5.2h15.2l-4.8,10.7c-2.8,3.2-5.8,5.3-10.9,5.3
		C240,268.6,233.3,262.9,233.3,254.1z"/>
</g>
<g>
	<path fill="#474747" d="M229,259.5c-1.2,2.2-3.6,3.8-6.4,3.8c-5.1,0-8.8-3.9-8.8-9.2c0-5.3,3.7-9.2,8.8-9.2c2.8,0,5.2,1.7,6.4,3.8
		c0.5-2.1,1.4-4.1,2.5-5.8c-2.1-1.9-5-3.3-8.9-3.3c-8.4,0-14.9,5.9-14.9,14.5c0,8.6,6.5,14.5,14.9,14.5c4,0,6.8-1.4,8.9-3.3
		C230.4,263.5,229.5,261.6,229,259.5z"/>
</g>
<path fill="#474747" d="M376.5,233.1c-1.1-0.8-8.6-6.4-16.6-12.3c0.2,0.1,0.3,0.2,0.5,0.3c1-9.5-1-16.9-3.6-22
	c-4.7-9.4-13-15.2-20.1-17.4L323.1,64.4c-0.2-1.7-1.7-3.5-3.4-3.5h-36.4c-5.8-32.2-24.1-55.8-45.7-55.8c-8.1,0-15.8,3.3-22.5,9.2
	c-18.7,1.2-34.7,20.1-41.8,46.6h-22.5c-1.7,0-3.2,1.8-3.4,3.5l-13.1,114c-4.8,0.7-12.3,3-21,10.2c-0.1,0.1-0.1,0.2-0.2,0.2
	c-0.4,0.4-40,37.5-101.5,40.8c-1.1,0.1-2.1,0.7-2.7,1.6c-0.6,0.9-0.7,2.1-0.3,3.1c14.5,36.6,35.6,51.8,64.7,46.5
	c10.3,18.3,23.2,27.5,38.4,27.5c0.5,0,1.1,0,1.6-0.1l-2.3,19.8c-0.1,1,0.2,1.5,0.8,2.2c0.7,0.7,1.6,0.7,2.6,0.7h235.3
	c1,0,1.9,0,2.5-0.7c0.7-0.7,1-1.5,0.9-2.4c0-0.2-1.5-15.8-4.1-39.6c4.6-0.7,8.2-2.5,10-4c0,0,0,0,0,0c0.1,0,0.1-0.1,0.1-0.1
	c0.1-0.1,0.3-0.3,0.4-0.4c0,0,0,0,0.1-0.1l22.5-32.1c0.1-0.2,0.2-0.3,0.3-0.5C385.4,244.9,382.6,236.6,376.5,233.1z M237.6,12
	c18.1,0,33.5,20.6,38.8,48.9h-15.7c-6.3-23.5-19.6-41-35.6-45.5C229.1,13.2,233.3,12,237.6,12z M217.6,21.1
	c15.9,0.3,29.6,16.5,36.1,39.7h-54.8C202,43.9,208.8,29.8,217.6,21.1z M207,23.3c-7.1,9.7-12.4,22.7-15.1,37.6h-11.5
	C185.6,42.4,195.3,28.5,207,23.3z M153.9,67.7h37c-0.6,4.8-0.9,9.7-0.9,14.8c0,1.9,1.5,3.4,3.4,3.4c1.9,0,3.4-1.5,3.4-3.4
	c0-5.1,0.3-10,0.9-14.8h79.7c0.6,4.8,0.9,9.7,0.9,14.8c0,1.9,1.5,3.4,3.4,3.4s3.4-1.5,3.4-3.4c0-5.1-0.3-10-0.9-14.8h32.3l13,113.5
	c-58.4,21.6-115,20.5-188.5-3L153.9,67.7z M118.3,324l3.2-27.4c1.5,0.3,3.1,0.6,4.7,0.6c4.8,0,9.8-1.5,14.8-5.3c3.3-2.5,5-5.5,5-8.9
	c0-5.2-4.1-10.5-13.5-17.5c-1-0.8-2.1-1.5-3.1-2.1l7.2-52.4c0,0,0.1-0.1,0.1-0.1c1.5-1,11.5-3.6,33.2,6.6c0.4,0.2,0.9,0.3,1.3,0.3
	c1.4,0,2.6-0.8,3.2-2.1c0.7-1.8-0.2-3.6-1.9-4.5c-27.1-13.2-41.3-5.5-41.2-5.2c-6.2,3.3-39.3,21.9-39.4,22c-6.2,3.4-8.6,10.7-5.6,17
	c0,0,15.6,33,17.8,37.3c2.1,4.3,6.8,10,10.8,12.1l-0.8,6.8c-13.3,0.9-24.4-6.3-33.8-22.1c4.2-1,7.8-2.5,9.7-5
	c1.2-1.5,0.9-3.6-0.6-4.8c-1.5-1.2-3.1-0.1-4.8,0.6c-14.1,6.4-27,5-30.3,4.3c-11.1-2.6-27.7-15.3-37.5-38.1
	c60.3-4.8,98.2-39.6,100.9-42.2c6.5-5.3,10.9-7.4,15.8-8.2s6.9,0.1,6.9,0.1c73.9,23.4,131.1,24.3,190.2,2.9c0,0,3.7-1.3,7,0.5
	c3.3,1.8,9.9,6.5,13.1,12.8c2.1,4.3,3.2,9,3.1,14.1c-6.4-4.7-10.7-8.6-14.3-10.6c-3.7-2.1-7.2-2.4-7.2-2.4c-7.3-0.9-18.4,1.7-33.7,8
	c-1.8,0.7-2.6,2.7-1.9,4.5c0.5,1.3,1.8,2.1,3.2,2.1c0.4,0,0.9-0.1,1.3-0.3c21.4-8.7,29.5-8,32.2-7.1l2.8,26.6c0,0,0,0,0,0.1
	c0,0.2,0,0.4,0.1,0.7l0.1,1.1c0,0,0,0.1,0,0.1c0.7,5.7,1.3,11.2,1.9,16.6c-10.8,2.9-14.4,7.7-15.4,11.3c-1.2,3.9,0.1,8.2,3.6,12
	c5.4,5.9,10.9,8.2,15.9,9c1.9,17.5,3.2,31.7,3.8,36.3H118.3z M109.9,240.6c-1.5,0.9-2.1,2.8-1.3,4.4l12.9,27.1
	c0.8,1.7,2.9,2.4,4.6,1.6c1.2-0.6,2-1.8,1.9-3.1c0.1,0.1,0.3,0.2,0.4,0.3c8.8,6.6,10.7,10.2,10.7,12c0,0.4,0,1.6-2.3,3.4
	c-10.4,7.9-18.8,4.2-24.7-3.2c-4-5-19.6-41.3-19.6-41.3c-1.4-3-0.2-6.4,2.7-8c1.7-0.9,23.1-13,33.8-18.9c0,0-2.7,15.6-2.8,16
	L109.9,240.6z M125.2,239.5l-2.3,19.8l-6.8-14.4L125.2,239.5z M376.4,247.7c-1.9,2.8-22,31.4-22,31.4c-1.8,1.2-11.9,7.2-23.1-5
	c-1.3-1.4-2.7-3.4-2.1-5.4c0.8-2.7,5-5.2,11.1-6.8c1.4-0.4,2.7-0.6,3.9-0.8c0.2,0.6,0.5,1.2,1,1.7c1.4,1.3,3.6,1.1,4.8-0.3l9.5-10.8
	c0.7-0.8,1-1.8,0.8-2.8c-0.1-1-0.7-1.9-1.6-2.4l-16.1-10.2l-2.2-21.3c32,23.7,30.3,22.3,32.3,23.9
	C375,240.6,378.4,244.9,376.4,247.7z M343.9,245.1l8.1,5.1l-3.3,3.8c-1.2,0-2.4,0.1-3.7,0.2C344.5,251.2,344.2,248.2,343.9,245.1z"
	/>
<ellipse fill="#474747" cx="205" cy="180.5" rx="8.5" ry="6"/>
<path fill="none" stroke="#474747" stroke-width="8" stroke-miterlimit="10" d="M129.8,150.3c0,0,14.2,29.5,75.2,30.2"/>
<g>
	<g>
		<circle fill="#474747" cx="187.3" cy="126.7" r="7.1"/>
	</g>
	<g>
		<circle fill="#FFFFFF" cx="186.4" cy="123.8" r="2.1"/>
	</g>
	<g>
		<circle fill="#474747" cx="283.1" cy="126.7" r="7.1"/>
	</g>
	<g>
		<circle fill="#FFFFFF" cx="282.2" cy="123.8" r="2.1"/>
	</g>
</g>
<g>
	<path fill="#474747" d="M183.8,98.7c-1.2,0-2.3-0.7-2.7-1.9c-0.6-1.5,0.1-3.2,1.6-3.8l11-4.4c1.5-0.6,3.2,0.1,3.8,1.6
		c0.6,1.5-0.1,3.2-1.6,3.8l-11,4.4C184.6,98.6,184.2,98.7,183.8,98.7z"/>
</g>
<g>
	<path fill="#474747" d="M287.3,96h-11.8c-1.6,0-3-1.4-3-3s1.3-3,3-3h11.8c1.6,0,3,1.4,3,3S288.9,96,287.3,96z"/>
</g>
<g>
	<path fill="#474747" d="M236.1,169.6c-3.3,0-7-1.1-10.2-4.1c-1.2-1.1-1.2-3-0.1-4.2c1.1-1.2,3-1.3,4.2-0.1c5.7,5.4,12.7,0.6,13,0.3
		c1.3-0.9,3.2-0.6,4.1,0.7c0.9,1.3,0.7,3.2-0.7,4.1C244.2,167.8,240.4,169.6,236.1,169.6z"/>
</g>
<path fill="#474747" d="M329.8,107.4c-0.7-0.2-18-5.4-40.1-5.4s-39.7,5.2-40.4,5.4c-1.3,0.4-2.1,1.6-2.1,3
	c-2.8-2.2-6.3-3.6-10.2-3.6c-3.7,0-7.1,1.2-9.9,3.3c-0.1-1.3-0.9-2.4-2.2-2.7c-0.7-0.2-18.6-5.4-40.7-5.4c-22.1,0-40.1,5.2-40.9,5.4
	c-1.3,0.4-2.5,1.6-2.5,3v10.9c0,23.7,19.8,42.9,43.5,42.9c23.7,0,43.5-19.3,43.5-42.9v-0.7c0-4.4,4.7-7.6,9.5-7.6
	c5.6,0,10,4.6,10,10.2c0,0.3-0.2,2.6-0.1,2.9c1.5,22.4,19.1,38.1,41.8,38.1c23.7,0,41.8-19.3,41.8-42.9v-10.9
	C331,109,331.2,107.8,329.8,107.4z M184.4,158h-0.5c-20.2,0-36.9-16.4-36.9-36.6v-8.5c7-1.3,20.6-4.5,37.4-4.5
	c16.8,0,31.2,3.2,37.4,4.5c0,0-0.9,11.2-0.7,11.6C219.5,143.2,203.5,158,184.4,158z M326,121.4c0,20.2-16.3,36.7-36.5,36.7
	S253,141.6,253,121.4v-8.5c6-1.3,19.7-4.5,36.5-4.5s32.5,3.2,36.5,4.5V121.4z"/>
</svg>
