<?xml version="1.0" encoding="utf-8"?>
<!-- Generator: Adobe Illustrator 18.0.0, SVG Export Plug-In . SVG Version: 6.00 Build 0)  -->
<!DOCTYPE svg PUBLIC "-//W3C//DTD SVG 1.1//EN" "http://www.w3.org/Graphics/SVG/1.1/DTD/svg11.dtd">
<svg version="1.1" id="Layer_1" xmlns="http://www.w3.org/2000/svg" xmlns:xlink="http://www.w3.org/1999/xlink" x="0px" y="0px"
	 viewBox="0 0 394.5 349.5" width="395" height="350" enable-background="new 0 0 394.5 349.5" xml:space="preserve">
<g>
	<g>
		<path fill="#F5CE9F" d="M338.3,213.6c-8.3-71.8-16.5-143.4-16.5-143.4H152.8c0,0-8,69.4-16.2,140.1"/>
		<path fill="#3D9B46" d="M358.1,231.4c6.2-26.3-11.8-40.3-23-42.1c-64.8,24.5-124.5,20-193.8-2.3c0,0-10-1.7-23.7,9.4
			c0,0-40,38.3-103.6,41.7c12,30.3,30,51.2,63.3,43.9c6.3,11.9,19.1,31,42.6,27.2c-1.9,16.7-3.1,26.8-3.1,26.8h235.3
			c0,0-15.1-89-12.7-116.4C340.1,211.7,357.2,230.6,358.1,231.4z"/>
		<path fill="#F5CE9F" d="M134.6,274.2c-3.9-2.9-7.6-4.6-11-5.3c-4.4-9.3-9.7-20.4-9.7-20.4l18.1-10.7l3.7-24.3
			c-0.6,0.2-39.9,22.3-40,22.3c-4.5,2.5-6.4,7.8-4.1,12.5l19.6,41.3c2.9,3.5,16.3,17.2,31.8,5.4
			C150.4,289.5,146.2,282.8,134.6,274.2z"/>
		<path fill="#F5CE9F" d="M376.5,239.6c-0.1,0-38.2-28.3-38.2-28.3l3.2,30.7l17.5,11.1l-7,7.9c-3.2-0.2-6.7,0.2-10.6,1.2
			c-13.7,3.5-17.1,10.8-10.7,17.8c12.3,13.4,24.7,7.9,28.1,5.1l22.5-32.1C383.5,248.4,380.9,242.1,376.5,239.6z"/>
		<g>
			<g>
				<circle fill="#474747" cx="184.4" cy="141.8" r="7.8"/>
			</g>
			<g>
				<circle fill="#FFFFFF" cx="183.4" cy="138.6" r="2.3"/>
			</g>
			<g>
				<circle fill="#474747" cx="289.6" cy="141.8" r="7.8"/>
			</g>
			<g>
				<circle fill="#FFFFFF" cx="288.7" cy="138.6" r="2.3"/>
			</g>
		</g>
		<g>
			
				<path fill="#FFFFFF" stroke="#474747" stroke-width="3" stroke-linecap="round" stroke-linejoin="round" stroke-miterlimit="10" d="
				M131.1,213.6"/>
		</g>
		<g>
			<path fill="#474747" d="M177.3,110.3c-1.4,0-2.7-0.8-3.2-2.2c-0.7-1.8,0.2-3.8,1.9-4.5l12.7-5.1c1.8-0.7,3.8,0.2,4.5,1.9
				c0.7,1.8-0.2,3.8-1.9,4.5l-12.7,5.1C178.1,110.2,177.7,110.3,177.3,110.3z"/>
		</g>
		<g>
			<path fill="#474747" d="M297.4,107.9h-13.7c-1.9,0-3.4-1.6-3.4-3.5s1.5-3.5,3.4-3.5h13.7c1.9,0,3.4,1.6,3.4,3.5
				S299.3,107.9,297.4,107.9z"/>
		</g>
		<path fill="#FFC569" d="M198.6,244.9c10.1-4.6,18.3-8.9,20.6-15.9h41.2c3.5,7,10.4,11.6,20.6,15.9c0,37.4-41.6,59.9-41.6,59.9
			S198.6,287.5,198.6,244.9z"/>
		<path fill="#474747" d="M237,310.1c-0.5,0-0.9-0.1-1.3-0.3c-0.4-0.2-42.8-18.6-42.8-63.1c0-1.3,0.8-2.6,2-3.1
			c8.2-3.7,16.8-8.3,18.7-14.3c0.5-1.4,1.8-2.4,3.3-2.4H258c1.3,0,2.5,0.8,3.1,1.9c3,5.8,9,10.5,18.9,14.7c1.3,0.5,2.1,1.8,2.1,3.2
			c0,39-41.7,62-43.4,62.9C238.1,309.9,237.6,310.1,237,310.1z M199.8,249c1.2,33.9,30.1,50.3,37.1,53.8c7-4.3,36.9-24,38.3-53.8
			c-9.3-4.2-15.4-9.1-19.1-15.1h-36.9C215.8,239.9,208,245.1,199.8,249z"/>
		<g>
			<path fill="#474747" d="M235.1,260.1c0-8.8,6.7-14.5,14.9-14.5c5.8,0,9.5,2.9,11.6,6.2l-4.9,2.7c-1.3-2-3.6-3.6-6.6-3.6
				c-5.1,0-8.8,3.9-8.8,9.2c0,5.3,3.7,9.2,8.8,9.2c2.5,0,4.8-1.1,6-2.1l1.9-3.4h-7.4v-5.2h15.2l-4.8,10.7c-2.8,3.2-5.8,5.3-10.9,5.3
				C241.8,274.6,235.1,268.9,235.1,260.1z"/>
		</g>
		<g>
			<path fill="#474747" d="M230.9,265.4c-1.2,2.2-3.6,3.8-6.4,3.8c-5.1,0-8.8-3.9-8.8-9.2c0-5.3,3.7-9.2,8.8-9.2
				c2.8,0,5.2,1.7,6.4,3.8c0.5-2.1,1.4-4.1,2.5-5.8c-2.1-1.9-5-3.3-8.9-3.3c-8.4,0-14.9,5.9-14.9,14.5s6.5,14.5,14.9,14.5
				c4,0,6.8-1.4,8.9-3.3C232.2,269.5,231.4,267.5,230.9,265.4z"/>
		</g>
		<path fill="#474747" d="M378.3,239c-1.1-0.8-8.6-6.4-16.6-12.3c0.2,0.1,0.3,0.2,0.5,0.3c1-9.5-1-16.9-3.6-22
			c-4.7-9.4-13-15.2-20.1-17.4L325,70.3c-0.2-1.7-1.7-3.5-3.4-3.5h-36.4C279.5,34.6,261.2,11,239.5,11c-8.1,0-15.8,3.3-22.5,9.2
			c-18.7,1.2-34.7,20.1-41.8,46.6h-22.5c-1.7,0-3.2,1.8-3.4,3.5l-13.1,114c-4.8,0.7-12.3,3-21,10.2c-0.1,0.1-0.1,0.2-0.2,0.2
			c-0.4,0.4-40,37.5-101.5,40.8c-1.1,0.1-2.1,0.7-2.7,1.6c-0.6,0.9-0.7,2.1-0.3,3.1c14.5,36.6,35.6,51.8,64.7,46.5
			c10.3,18.3,23.2,27.5,38.4,27.5c0.5,0,1.1,0,1.6-0.1l-2.3,19.8c-0.1,1,0.2,1.5,0.8,2.2c0.7,0.7,1.6,0.7,2.6,0.7h235.3
			c1,0,1.9,0,2.5-0.7c0.7-0.7,1-1.5,0.9-2.4c0-0.2-1.5-15.8-4.1-39.6c4.6-0.7,8.2-2.5,10-4c0,0,0,0,0,0c0.1,0,0.1-0.1,0.1-0.1
			c0.1-0.1,0.3-0.3,0.4-0.4c0,0,0,0,0.1-0.1l22.5-32.1c0.1-0.2,0.2-0.3,0.3-0.5C387.3,250.9,384.5,242.6,378.3,239z M239.5,17.9
			c18.1,0,33.5,20.6,38.8,48.9h-15.7c-6.3-23.5-19.6-41-35.6-45.5C231,19.1,235.2,17.9,239.5,17.9z M219.4,27.1
			c15.9,0.3,29.6,16.5,36.1,39.7h-54.8C203.9,49.9,210.7,35.7,219.4,27.1z M208.9,29.2c-7.1,9.7-12.4,22.7-15.1,37.6h-11.5
			C187.5,48.4,197.2,34.4,208.9,29.2z M155.8,73.7h37c-0.6,4.8-0.9,9.7-0.9,14.8c0,1.9,1.5,3.4,3.4,3.4c1.9,0,3.4-1.5,3.4-3.4
			c0-5.1,0.3-10,0.9-14.8h79.7c0.6,4.8,0.9,9.7,0.9,14.8c0,1.9,1.5,3.4,3.4,3.4s3.4-1.5,3.4-3.4c0-5.1-0.3-10-0.9-14.8h32.3
			l13,113.5c-58.4,21.6-115,20.5-188.5-3L155.8,73.7z M120.1,330l3.2-27.4c1.5,0.3,3.1,0.6,4.7,0.6c4.8,0,9.8-1.5,14.8-5.3
			c3.3-2.5,5-5.5,5-8.9c0-5.2-4.1-10.5-13.5-17.5c-1-0.8-2.1-1.5-3.1-2.1l7.2-52.4c0,0,0.1-0.1,0.1-0.1c1.5-1,11.5-3.6,33.2,6.6
			c0.4,0.2,0.9,0.3,1.3,0.3c1.4,0,2.6-0.8,3.2-2.1c0.7-1.8-0.2-3.6-1.9-4.5c-27.1-13.2-41.3-5.5-41.2-5.2
			c-6.2,3.3-39.3,21.9-39.4,22c-6.2,3.4-8.6,10.7-5.6,17c0,0,15.6,33,17.8,37.3c2.1,4.3,6.8,10,10.8,12.1L116,307
			c-13.3,0.9-24.4-6.3-33.8-22.1c4.2-1,7.8-2.5,9.7-5c1.2-1.5,0.9-3.6-0.6-4.8c-1.5-1.2-3.1-0.1-4.8,0.6c-14.1,6.4-27,5-30.3,4.3
			c-11.1-2.6-27.7-15.3-37.5-38.1c60.3-4.8,98.2-39.6,100.9-42.2c6.5-5.3,10.9-7.4,15.8-8.2c4.8-0.8,6.9,0.1,6.9,0.1
			c73.9,23.4,131.1,24.3,190.2,2.9c0,0,3.7-1.3,7,0.5s9.9,6.5,13.1,12.8c2.1,4.3,3.2,9,3.1,14.1c-6.4-4.7-10.7-8.6-14.3-10.6
			c-3.7-2.1-7.2-2.4-7.2-2.4c-7.3-0.9-18.4,1.7-33.7,8c-1.8,0.7-2.6,2.7-1.9,4.5c0.5,1.3,1.8,2.1,3.2,2.1c0.4,0,0.9-0.1,1.3-0.3
			c21.4-8.7,29.5-8,32.2-7.1l2.8,26.6c0,0,0,0,0,0.1c0,0.2,0,0.4,0.1,0.7l0.1,1.1c0,0,0,0.1,0,0.1c0.7,5.7,1.3,11.2,1.9,16.6
			c-10.8,2.9-14.4,7.7-15.4,11.3c-1.2,3.9,0.1,8.2,3.6,12c5.4,5.9,10.9,8.2,15.9,9c1.9,17.5,3.2,31.7,3.8,36.3H120.1z M111.8,246.6
			c-1.5,0.9-2.1,2.8-1.3,4.4l12.9,27.1c0.8,1.7,2.9,2.4,4.6,1.6c1.2-0.6,2-1.8,1.9-3.1c0.1,0.1,0.3,0.2,0.4,0.3
			c8.8,6.6,10.7,10.2,10.7,12c0,0.4,0,1.6-2.3,3.4c-10.4,7.9-18.8,4.2-24.7-3.2c-4-5-19.6-41.3-19.6-41.3c-1.4-3-0.2-6.4,2.7-8
			c1.7-0.9,23.1-13,33.8-18.9c0,0-2.7,15.6-2.8,16L111.8,246.6z M127.1,245.5l-2.3,19.8l-6.8-14.4L127.1,245.5z M378.3,253.6
			c-1.9,2.8-22,31.4-22,31.4c-1.8,1.2-11.9,7.2-23.1-5c-1.3-1.4-2.7-3.4-2.1-5.4c0.8-2.7,5-5.2,11.1-6.8c1.4-0.4,2.7-0.6,3.9-0.8
			c0.2,0.6,0.5,1.2,1,1.7c1.4,1.3,3.6,1.1,4.8-0.3l9.5-10.8c0.7-0.8,1-1.8,0.8-2.8c-0.1-1-0.7-1.9-1.6-2.4l-16.1-10.2l-2.2-21.3
			c32,23.7,30.3,22.3,32.3,23.9C376.8,246.5,380.2,250.9,378.3,253.6z M345.7,251l8.1,5.1l-3.3,3.8c-1.2,0-2.4,0.1-3.7,0.2
			C346.4,257.1,346.1,254.1,345.7,251z"/>
		<g>
			<path fill="#474747" d="M238,186.8c-3.9,0-8.1-1.2-11.9-4.8c-1.4-1.3-1.4-3.5-0.1-4.9c1.3-1.4,3.5-1.5,4.9-0.1
				c6.7,6.2,14.8,0.6,15.1,0.4c1.5-1.1,3.7-0.7,4.8,0.8c1.1,1.5,0.8,3.7-0.8,4.8C247.5,184.7,243,186.8,238,186.8z"/>
		</g>
	</g>
	<path fill="#474747" d="M341.3,120.7c-0.8-0.2-20-5.9-44.2-5.9s-43.6,5.7-44.5,5.9c-1.5,0.4-2.3,1.8-2.4,3.3
		c-3.1-2.5-6.9-3.9-11.2-3.9c-4.1,0-7.8,1.4-10.8,3.7c-0.1-1.4-1-2.6-2.4-3c-0.8-0.2-20.4-5.9-44.7-5.9c-24.3,0-44.4,5.7-45.2,5.9
		c-1.5,0.4-3,1.8-3,3.3v12c0,26,22,47.2,48,47.2c26,0,48-21.2,48-47.2v-0.8c0-4.8,5.3-8.4,10.5-8.4c6.2,0,11.1,5,11.1,11.2
		c0,0.3-0.2,2.9-0.1,3.2c1.6,24.6,21.3,41.9,46.3,41.9c26,0,46.2-21.2,46.2-47.2v-12C342.9,122.4,342.8,121.1,341.3,120.7z
		 M181.1,176.9h-0.5c-22.2,0-40.7-18.7-40.7-41v-9.4c7-1.5,22.7-5,41.2-5c18.4,0,34.3,3.5,41.2,5c0,0-0.9,12.7-0.8,13.1
		C219.7,160.3,202.2,176.9,181.1,176.9z M336.9,136c0,22.2-18.3,40.3-40.5,40.3c-22.2,0-40.5-18.1-40.5-40.3v-9.4
		c7-1.5,22.1-5,40.5-5s35.5,3.5,40.5,5V136z"/>
</g>
</svg>
