<?xml version="1.0" encoding="utf-8"?>
<!-- Generator: Adobe Illustrator 18.0.0, SVG Export Plug-In . SVG Version: 6.00 Build 0)  -->
<!DOCTYPE svg PUBLIC "-//W3C//DTD SVG 1.1//EN" "http://www.w3.org/Graphics/SVG/1.1/DTD/svg11.dtd">
<svg version="1.1" id="Layer_1" xmlns="http://www.w3.org/2000/svg" xmlns:xlink="http://www.w3.org/1999/xlink" x="0px" y="0px"
	 viewBox="0 0 369 826.5" enable-background="new 0 0 369 826.5" xml:space="preserve">
<g opacity="0.4">
	<g>
		<path d="M128.6,305.3c-1.2,0-2.2,1-2.2,2.2V427c0,1.2,1,2.2,2.2,2.2c1.2,0,2.2-1,2.2-2.2V307.5
			C130.8,306.2,129.8,305.3,128.6,305.3z M128.6,465.8c-1.2,0-2.2,1-2.2,2.2v20.1c0,1.2,1,2.2,2.2,2.2c1.2,0,2.2-1,2.2-2.2V468
			C130.8,466.8,129.8,465.8,128.6,465.8z M128.6,502c-1.2,0-2.2,1-2.2,2.2v9.6c0,1.2,1,2.2,2.2,2.2c1.2,0,2.2-1,2.2-2.2v-9.6
			C130.8,503,129.8,502,128.6,502z M191.6,303.9c-1.2,0-2.2,1-2.2,2.2v43.7c0,1.2,1,2.2,2.2,2.2c1.2,0,2.2-1,2.2-2.2v-43.7
			C193.8,304.9,192.8,303.9,191.6,303.9z M191.6,511.4c-1.2,0-2.2,1-2.2,2.2v13.1c0,1.2,1,2.2,2.2,2.2c1.2,0,2.2-1,2.2-2.2v-13.1
			C193.8,512.3,192.8,511.4,191.6,511.4z M187.3,621.2c-1.2,0-2.2,1-2.2,2.2v2.4c0,1.2,1,2.2,2.2,2.2c1.2,0,2.2-1,2.2-2.2v-2.4
			C189.4,622.2,188.5,621.2,187.3,621.2z M281.2,369.2c-1.2,0-2.2,1-2.2,2.2v33.8c0,1.2,1,2.2,2.2,2.2c1.2,0,2.2-1,2.2-2.2v-33.8
			C283.4,370.1,282.4,369.2,281.2,369.2z M281.2,305.1c-1.2,0-2.2,1-2.2,2.2v39.5c0,1.2,1,2.2,2.2,2.2c1.2,0,2.2-1,2.2-2.2v-39.5
			C283.4,306.1,282.4,305.1,281.2,305.1z M151,797.9c-1.2,0-2.2,1-2.2,2.2v7.3c0,1.2,1,2.2,2.2,2.2c1.2,0,2.2-1,2.2-2.2V800
			C153.1,798.8,152.2,797.9,151,797.9z M174.5,653.9c-1.2,0-2.2,1-2.2,2.2v7.3c0,1.2,1,2.2,2.2,2.2c1.2,0,2.2-1,2.2-2.2v-7.3
			C176.6,654.9,175.7,653.9,174.5,653.9z M236.4,409.6c-1.2,0-2.2,1-2.2,2.2v12.6c0,1.2,1,2.2,2.2,2.2c1.2,0,2.2-1,2.2-2.2v-12.6
			C238.5,410.6,237.6,409.6,236.4,409.6z M236.4,364.7c-1.2,0-2.2,1-2.2,2.2V393c0,1.2,1,2.2,2.2,2.2c1.2,0,2.2-1,2.2-2.2v-26.1
			C238.5,365.7,237.6,364.7,236.4,364.7z"/>
	</g>
</g>
<path fill="#F5CE9F" d="M293.8,214.6c-8.3-71.8-16.5-143.4-16.5-143.4H108.4c0,0-8,69.4-16.2,140.1"/>
<path fill="#3D9B46" stroke="#474747" stroke-width="7" stroke-miterlimit="10" d="M94.1,328.2V180.1c-22.8,8.6-48.7,54.4-82,132.5
	c23.2,24,41.6-11.4,59.7,9.2c1.8,2.9,0.9,6.4,0.9,6.4H94.1z"/>
<path fill="#3D9B46" d="M298.4,245.2c-0.1-0.4,9.2-6.7,9.1-7.2c-0.5-1.6,3.1-33.1,2.4-34.7c-4.6-7.5-21-7.3-19.5-15.3
	c-63.8,23.4-122.8,18.7-191.1-3.3c0,0-2.9-0.5-7.7,0.8c1.4,4.4,1.9,9.2,1.2,14c-1.3,9.7-3.5,19.3-6.1,28.7
	c-1,10.7-2.4,21.3-4.4,31.8c-3.1,16.3-9.1,31.6-14.6,47.1c3.1,0.4,6.5,0.4,10.1-0.2c-1.9,16.7-3.1,26.8-3.1,26.8h235.3
	C310.1,333.8,296.4,273.8,298.4,245.2z"/>
<g>
	<g>
		<circle fill="#474747" cx="137.9" cy="140.8" r="7.8"/>
	</g>
	<g>
		<circle fill="#FFFFFF" cx="137" cy="137.6" r="2.3"/>
	</g>
	<g>
		<circle fill="#474747" cx="243.2" cy="140.8" r="7.8"/>
	</g>
	<g>
		<circle fill="#FFFFFF" cx="242.2" cy="137.6" r="2.3"/>
	</g>
</g>
<g>
	<path fill="#474747" d="M130.3,109.4c-1.4,0-2.7-0.8-3.2-2.2c-0.7-1.8,0.2-3.8,1.9-4.5l12.9-5.1c1.8-0.7,3.8,0.2,4.5,1.9
		c0.7,1.8-0.2,3.8-1.9,4.5l-12.9,5.1C131.2,109.3,130.8,109.4,130.3,109.4z"/>
</g>
<g>
	<path fill="#474747" d="M251.5,106.9h-13.8c-1.9,0-3.5-1.6-3.5-3.5s1.5-3.5,3.5-3.5h13.8c1.9,0,3.5,1.6,3.5,3.5
		S253.4,106.9,251.5,106.9z"/>
</g>
<g>
	<path fill="#474747" d="M191.6,185.8c-3.9,0-8.1-1.2-11.9-4.8c-1.4-1.3-1.4-3.5-0.1-4.9c1.3-1.4,3.5-1.5,4.9-0.1
		c6.7,6.2,14.8,0.6,15.1,0.4c1.5-1.1,3.7-0.7,4.8,0.8c1.1,1.5,0.8,3.7-0.8,4.8C201,183.7,196.5,185.8,191.6,185.8z"/>
</g>
<g>
	
		<path fill="#FFFFFF" stroke="#474747" stroke-width="3" stroke-linecap="round" stroke-linejoin="round" stroke-miterlimit="10" d="
		M86.7,214.6"/>
</g>
<path fill="#FFC569" d="M154.1,245.9c10.1-4.6,18.3-8.9,20.6-15.9h41.2c3.5,7,10.4,11.6,20.6,15.9c0,37.4-41.6,59.9-41.6,59.9
	S154.1,288.5,154.1,245.9z"/>
<path fill="#474747" d="M192.5,311.1c-0.5,0-0.9-0.1-1.3-0.3c-0.4-0.2-42.8-18.6-42.8-63.1c0-1.3,0.8-2.6,2-3.1
	c8.2-3.7,16.8-8.3,18.7-14.3c0.5-1.4,1.8-2.4,3.3-2.4h41.2c1.3,0,2.5,0.8,3.1,1.9c3,5.8,9,10.5,18.9,14.7c1.3,0.5,2.1,1.8,2.1,3.2
	c0,39-41.7,62-43.4,62.9C193.7,310.9,193.1,311.1,192.5,311.1z M155.3,250c1.2,33.9,30.1,50.3,37.1,53.8c7-4.3,36.9-24,38.3-53.8
	c-9.3-4.2-15.4-9.1-19.1-15.1h-36.9C171.3,240.9,163.6,246.1,155.3,250z"/>
<g>
	<path fill="#474747" d="M190.7,261.1c0-8.8,6.7-14.5,14.9-14.5c5.8,0,9.5,2.9,11.6,6.2l-4.9,2.7c-1.3-2-3.6-3.6-6.6-3.6
		c-5.1,0-8.8,3.9-8.8,9.2s3.7,9.2,8.8,9.2c2.5,0,4.8-1.1,6-2.1l1.9-3.4H206v-5.2h15.2l-4.8,10.7c-2.8,3.2-5.8,5.3-10.9,5.3
		C197.4,275.6,190.7,269.9,190.7,261.1z"/>
</g>
<g>
	<path fill="#474747" d="M186.4,266.4c-1.2,2.2-3.6,3.8-6.4,3.8c-5.1,0-8.8-3.9-8.8-9.2c0-5.3,3.7-9.2,8.8-9.2
		c2.8,0,5.2,1.7,6.4,3.8c0.5-2.1,1.4-4.1,2.5-5.8c-2.1-1.9-5-3.3-8.9-3.3c-8.4,0-14.9,5.9-14.9,14.5s6.5,14.5,14.9,14.5
		c4,0,6.8-1.4,8.9-3.3C187.8,270.5,186.9,268.5,186.4,266.4z"/>
</g>
<path fill="#474747" d="M97.8,192.8c73.9,23.4,131.1,24.3,190.2,2.9c0,0,3.7-1.3,7,0.5c2.1,1.2,5.7,3.9,8.6,6.7s6.3,10.3,6.3,16.6
	c0,7.9-3.7,15.4-9.8,20.2l-2.5-26.7c-0.3-1.7-7.9-2.8-7.9-2.8c-7.3-0.9-18.4,1.7-33.7,8c-1.8,0.7-2.6,2.7-1.9,4.5
	c0.5,1.3,1.8,2.1,3.2,2.1c0.4,0,0.9-0.1,1.3-0.3c21.4-8.7,29.5-8,32.2-7.1l2.8,26.6c0,0,0,0,0,0.1c0,0.2,0,0.4,0.1,0.7l0.1,1.1
	c0,0,0,0,0,0.1c0.7,5.7,9.1,80.2,9.7,85.2H75.7l1-8.5L97.8,192.8z M70,321.2l-1.6,13.6c-0.1,1,0.2,1.6,0.8,2.3
	c0.7,0.7,1.6,0.8,2.6,0.8h235.3c1,0,1.9,0,2.5-0.7s1-1.5,0.9-2.4c0-0.2-7.8-69.1-9.8-87.2c9.8-5.8,16-16.5,16-28
	c0-8-2.5-14.9-6.5-19.7c-4.7-5.9-10.8-9.7-16.2-11.4L280.6,71.4c-0.2-1.7-1.7-3.4-3.4-3.4h-36.4c-5.8-32-24.1-55.8-45.7-55.8
	c-8.1,0-15.8,3.4-22.5,9.3c-18.7,1.2-34.7,19.6-41.8,46.6h-22.5c-1.7,0-3.2,1.7-3.4,3.4l-13.1,114c-0.2,0-0.4,0.1-0.6,0.1
	c0.1,2.4-0.1,4.9-0.6,7.3L70,321.2z M195.1,19c18.1,0,33.5,21,38.8,49h-15.7c-6.3-24-19.6-41.1-35.6-45.5
	C186.5,20.2,190.7,19,195.1,19z M175,28.2c15.9,0.3,29.6,16.7,36.1,39.7h-54.8C159.4,50.9,166.2,36.9,175,28.2z M164.4,30.4
	c-7.1,9.7-12.4,22.6-15.1,37.6h-11.5C143,48.9,152.7,35.5,164.4,30.4z M98.6,185.3l12.7-110.4h37c-0.6,5-0.9,9.6-0.9,14.6
	c0,1.9,1.5,3.4,3.4,3.4c1.9,0,3.4-1.4,3.4-3.3c0-5.1,0.3-9.7,0.9-14.7h79.7c0.6,5,0.9,9.6,0.9,14.6c0,1.9,1.5,3.4,3.4,3.4
	c1.9,0,3.4-1.4,3.4-3.3c0-5.1-0.3-9.7-0.9-14.7h32.3l13,113.4C228.7,209.9,172.2,208.9,98.6,185.3z"/>
<g>
	<path fill="#474747" d="M356,139c-0.1,0-0.2-0.1-0.3-0.1c-1.8-0.7-2.6-2.8-1.9-4.6c5.6-13.6-1-29.2-14.6-34.7
		c-1.8-0.7-2.6-2.8-1.9-4.6c0.7-1.8,2.8-2.6,4.6-1.9c17.2,7,25.4,26.7,18.4,43.8C359.5,138.7,357.7,139.5,356,139z"/>
</g>
<g>
	<path fill="#474747" d="M343,136.8c-0.1,0-0.2-0.1-0.3-0.1c-1.8-0.7-2.6-2.8-1.9-4.6c3.3-8.2-0.6-17.6-8.8-20.9
		c-1.8-0.7-2.6-2.8-1.9-4.6c0.7-1.8,2.8-2.6,4.6-1.9c11.8,4.8,17.4,18.3,12.6,30C346.6,136.4,344.7,137.3,343,136.8z"/>
</g>
<g>
	<path fill="#545454" d="M317.1,178.2l-12.9-2.3c-2.4-0.4-4-2.8-3.6-5.2l8.6-47.9c0.4-2.4,2.8-4,5.2-3.6l12.9,2.3
		c2.4,0.4,4,2.8,3.6,5.2l-8.6,47.9C321.9,177,319.6,178.6,317.1,178.2z"/>
	<path fill="#474747" d="M302.7,179.1c-3.9-1.2-6.3-5.1-5.6-9l8.6-47.9c0.4-2.1,1.5-3.9,3.3-5.1c1.7-1.2,3.9-1.7,6-1.3l12.9,2.3
		c4.4,0.8,7.2,5,6.4,9.3l-8.6,47.9c-0.8,4.3-4.9,7.2-9.3,6.4l-12.9-2.3C303.3,179.2,303,179.2,302.7,179.1z M326.8,125
		c0,0-0.1,0-0.1,0l-12.9-2.3c-0.3-0.1-0.6,0.1-0.7,0.2c-0.2,0.1-0.3,0.3-0.4,0.6l-8.6,47.9c-0.1,0.5,0.3,1,0.8,1.1l12.9,2.3
		c0.5,0.1,1-0.3,1.1-0.8l8.6-47.9C327.6,125.6,327.3,125.1,326.8,125z"/>
</g>
<path fill="#F5CE9F" stroke="#474747" stroke-width="7" stroke-miterlimit="10" d="M344.3,212.1l-7-45.2
	c-1.8-4.2-10.7-21.1-28.9-14.3c-8.7,3.3-6.5,10.8,2.1,22.4c2.9,3.9,6,6.6,9.1,8.2c1.6,10.2,3.4,22.3,3.4,22.3l-30.3,8.8l4.3,20.7
	c13.1-2.9,39.7-12.1,39.8-12.1C341.8,221.8,345.1,217.2,344.3,212.1z"/>
<g>
	<path fill="#DBDBDB" stroke="#474747" stroke-width="7" stroke-miterlimit="10" d="M132,286.5l-49.4-7.3c-0.8-0.1-1.3-0.9-1.2-1.6
		l10.3-69.2c0.1-0.8,0.9-1.3,1.6-1.2l49.4,7.3c0.8,0.1,1.3,0.9,1.2,1.6l-10.3,69.2C133.6,286.1,132.8,286.7,132,286.5z"/>
	
		<line fill="none" stroke="#474747" stroke-width="7" stroke-linecap="round" stroke-miterlimit="10" x1="101.9" y1="225.2" x2="128.6" y2="229.2"/>
	
		<line fill="none" stroke="#474747" stroke-width="7" stroke-linecap="round" stroke-miterlimit="10" x1="98.2" y1="249.9" x2="124.9" y2="253.9"/>
	
		<line fill="none" stroke="#474747" stroke-width="7" stroke-linecap="round" stroke-miterlimit="10" x1="105.1" y1="237.8" x2="122.9" y2="240.4"/>
	
		<line fill="none" stroke="#474747" stroke-width="7" stroke-linecap="round" stroke-miterlimit="10" x1="103.2" y1="263.8" x2="117.1" y2="265.9"/>
</g>
<path fill="#F5CE9F" stroke="#474747" stroke-width="7" stroke-miterlimit="10" d="M110.8,257.7c-4.4-2-8.4-2.9-11.9-2.9
	c-6.3-8.2-13.7-17.9-13.7-17.9l6.2-33.1c-10.2,9-26.6,24.4-26.6,24.4c-3.9,3.3-4.6,9-1.4,13.1l27.8,36.3c3.6,2.8,19.5,13.4,32.2-1.3
	C129.4,269.4,123.9,263.8,110.8,257.7z"/>
<path fill="#474747" d="M295.8,119.9c-0.8-0.2-20.2-6-44.6-6s-44,5.7-44.9,6c-1.5,0.4-2.4,1.8-2.4,3.3c-3.1-2.5-7-4-11.3-4
	c-4.1,0-7.9,1.4-10.9,3.7c-0.1-1.4-1.1-2.6-2.4-3c-0.8-0.2-20.6-6-45.1-6c-24.5,0-44.8,5.7-45.7,6c-1.5,0.4-3.1,1.8-3.1,3.3v12.1
	c0,26.2,22.3,47.6,48.5,47.6c26.2,0,48.5-21.3,48.5-47.6v-0.8c0-4.8,5.3-8.4,10.6-8.4c6.2,0,11.2,5.1,11.2,11.3
	c0,0.3-0.2,2.9-0.1,3.2c1.6,24.8,21.6,42.2,46.7,42.2c26.2,0,46.7-21.3,46.7-47.6v-12.1C297.4,121.6,297.2,120.3,295.8,119.9z
	 M134.2,176.9h-0.5c-22.4,0-41.3-19.2-41.3-41.6v-9.5c7-1.5,23-5,41.6-5c18.6,0,34.6,3.5,41.6,5c0,0-0.9,13-0.8,13.4
	C173.1,160,155.5,176.9,134.2,176.9z M291.4,135.3c0,22.4-18.6,40.6-41,40.6s-41-18.2-41-40.6v-9.5c7-1.5,22.4-5,41-5s36,3.5,41,5
	V135.3z"/>
</svg>
