<?xml version="1.0" encoding="utf-8"?>
<!-- Generator: Adobe Illustrator 18.0.0, SVG Export Plug-In . SVG Version: 6.00 Build 0)  -->
<!DOCTYPE svg PUBLIC "-//W3C//DTD SVG 1.1//EN" "http://www.w3.org/Graphics/SVG/1.1/DTD/svg11.dtd">
<svg version="1.1" id="Layer_1" xmlns="http://www.w3.org/2000/svg" xmlns:xlink="http://www.w3.org/1999/xlink" x="0px" y="0px"
	 viewBox="0 0 416.5 339" enable-background="new 0 0 416.5 339" xml:space="preserve">
<g>
	<path fill="#F5CE9F" d="M333.4,206.6c-8.3-71.8-16.5-143.4-16.5-143.4H147.9c0,0-8,69.4-16.2,140.1"/>
	<g>
		<g>
			<circle fill="#474747" cx="179.5" cy="134.9" r="7.8"/>
		</g>
		<g>
			<circle fill="#FFFFFF" cx="178.5" cy="131.7" r="2.3"/>
		</g>
		<g>
			<circle fill="#474747" cx="284.7" cy="134.9" r="7.8"/>
		</g>
		<g>
			<circle fill="#FFFFFF" cx="283.8" cy="131.7" r="2.3"/>
		</g>
	</g>
	<g>
		
			<path fill="#FFFFFF" stroke="#474747" stroke-width="3" stroke-linecap="round" stroke-linejoin="round" stroke-miterlimit="10" d="
			M126.3,206.6"/>
	</g>
	<g>
		<path fill="#474747" d="M172.4,103.4c-1.4,0-2.7-0.8-3.2-2.2c-0.7-1.8,0.2-3.8,1.9-4.5l12.7-5.1c1.8-0.7,3.8,0.2,4.5,1.9
			c0.7,1.8-0.2,3.8-1.9,4.5l-12.7,5.1C173.3,103.3,172.8,103.4,172.4,103.4z"/>
	</g>
	<g>
		<path fill="#474747" d="M292.6,101h-13.7c-1.9,0-3.4-1.6-3.4-3.5s1.5-3.5,3.4-3.5h13.7c1.9,0,3.4,1.6,3.4,3.5S294.5,101,292.6,101
			z"/>
	</g>
	<g>
		<path fill="#474747" d="M233.1,179.8c-3.9,0-8.1-1.2-11.9-4.8c-1.4-1.3-1.4-3.5-0.1-4.9c1.3-1.4,3.5-1.5,4.9-0.1
			c6.7,6.2,14.8,0.6,15.1,0.4c1.5-1.1,3.7-0.7,4.8,0.8c1.1,1.5,0.8,3.7-0.8,4.8C242.6,177.8,238.1,179.8,233.1,179.8z"/>
	</g>
	<path fill="#474747" d="M336.4,113.7c-0.8-0.2-20-5.9-44.2-5.9s-43.6,5.7-44.5,5.9c-1.5,0.4-2.3,1.8-2.4,3.3
		c-3.1-2.5-6.9-3.9-11.2-3.9c-4.1,0-7.8,1.4-10.8,3.7c-0.1-1.4-1-2.6-2.4-3c-0.8-0.2-20.4-5.9-44.7-5.9c-24.3,0-44.4,5.7-45.2,5.9
		c-1.5,0.4-3,1.8-3,3.3v12c0,26,22,47.2,48,47.2c26,0,48-21.2,48-47.2v-0.8c0-4.8,5.3-8.4,10.5-8.4c6.2,0,11.1,5,11.1,11.2
		c0,0.3-0.2,2.9-0.1,3.2c1.6,24.6,21.3,41.9,46.3,41.9c26,0,46.2-21.2,46.2-47.2v-12C338,115.5,337.9,114.2,336.4,113.7z M176.2,170
		h-0.5c-22.2,0-40.7-18.7-40.7-41v-9.4c7-1.5,22.7-5,41.2-5c18.4,0,34.3,3.5,41.2,5c0,0-0.9,12.7-0.8,13.1
		C214.8,153.4,197.3,170,176.2,170z M332,129c0,22.2-18.3,40.3-40.5,40.3S251,151.3,251,129v-9.4c7-1.5,22.1-5,40.5-5
		s35.5,3.5,40.5,5V129z"/>
	<g>
		<g>
			<path fill="#3D9B46" d="M330.2,180.3c-64.8,24.5-124.5,20-193.8-2.3c0,0-10-1.7-23.7,9.4c0,0-40,38.3-103.6,41.7
				c12,30.3,30,51.2,63.3,43.9c3.2,6,19.9,19.3,19.9,19.3l6.3,6.3l15.1,20.8l2.2,7.6h231.3l-9.1-90.6c0,0,10.9-17.1,11.9-16.4
				C356.1,193.7,341.4,182.2,330.2,180.3z"/>
		</g>
	</g>
	<path fill="#474747" d="M356.3,210.3c0-8-2.5-14.9-6.5-19.7c-1.7-2.1-7.9-10.3-16.3-11.8L320.1,62.3c-0.2-1.7-1.7-3.3-3.4-3.3
		H149.8c-1.7,0-3.2,1.6-3.4,3.3l-15,112.7h-0.1l-0.1,0.7c-4.8,0.7-12.3,3-21,10.1c-0.1,0.1-0.1,0.2-0.2,0.2
		c-0.4,0.4-40,37.5-101.5,40.7c-1.5,0.1-2.9,1.2-3.2,2.9c-0.1,0.7,0,1.3,0.2,2c14.5,36.5,35.6,51.7,64.7,46.4
		c5.1,9,12.2,15.7,19.9,20.3l22.9,28.9c0.2,0.2,0.4,0.4,0.6,0.6c0,0.1,0.1,0.1,0.1,0.2c0.6,0.7,1.5,1,2.4,1h230.9
		c0.9,0,1.7-0.3,2.3-1c0.6-0.7,0.9-1.5,0.8-2.5c0-0.2-7.8-69.2-9.8-87.2C350.1,232.6,356.3,221.8,356.3,210.3z M152.8,66h160.8
		l12.6,109h0l0.4,3.5c-58.3,21.6-114.9,20.7-188.4-2.8L152.8,66z M114.5,312l-0.6,5.2l-22.2-25.8c-5.6-3.6-10.8-8.6-14.6-15
		c4.2-1,7.8-2.5,9.7-5c1.2-1.5,0.9-3.6-0.6-4.8c-1.5-1.2-3.1-0.1-4.8,0.6c-14.1,6.4-27,5-30.3,4.3c-11.1-2.6-27.7-15.3-37.5-38.1
		c60.3-4.8,98.2-39.6,100.9-42.2c6.4-5.2,10.8-7.3,15.5-8.1c0,0.1,0,0.1,0,0.2c0.5-0.2,1.1-0.3,1.8-0.3c0.2,0,0.5,0,0.7,0
		c0.3-0.1,0.7-0.1,1-0.1c0.6,0,1.2,0.1,1.7,0.3c0.9,0,1.7,0.2,2.5,0.5c73.6,23.3,130.8,24.1,189.7,2.7c0,0,3.7-1.3,7,0.5
		c2.1,1.2,5.7,3.9,8.6,6.7s6.3,10.3,6.3,16.6c0,7.9-3.7,15.4-9.8,20.2l-2.5-26.7c-0.3-1.7-7.9-2.8-7.9-2.8c-7.3-0.9-18.4,1.7-33.7,8
		c-1.8,0.7-2.6,2.7-1.9,4.5c0.5,1.3,1.8,2.1,3.2,2.1c0.4,0,0.9-0.1,1.3-0.3c21.4-8.7,29.5-8,32.2-7.1l2.8,26.6c0,0,0,0,0,0.1
		c0,0.2,0,0.4,0.1,0.7l0.1,1.1c0,0,0,0.2,0,0.2c0.7,5.7,9.1,80.4,9.7,85.4H120.2l1-8.7l13.4-107.5c3.9-0.9,13.8-1,31.4,7.2
		c0.4,0.2,0.9,0.2,1.3,0.2c1.4,0,2.6-0.8,3.2-2.1c0.7-1.8-0.2-3.7-1.9-4.5c-26.6-12.9-40.6-5.1-40.7-5L114.5,312z"/>
	<g>
		<g>
			<g>
				<path fill="#F5CE9F" d="M55.8,66.7c2.1-6.3,8.9-9.7,15.2-7.6c6.3,2.1,9.7,8.9,7.6,15.2c-9.2,27.8-1.9,68.8,6.4,77.9
					c3.1,6.9,23.4,33.2,46.3,53.4l-4,29.9c-6.3-5.7-17.2-19.5-29.3-31.2c-37.5-36.1-36.4-47.7-38.1-51.5
					C51.8,134,52.2,77.8,55.8,66.7z"/>
			</g>
			<g>
				<path fill="#474747" d="M129.9,242.6l-4.9-4.4c-3.1-2.8-7-7.2-11.7-12.4c-5.3-6-11.4-12.7-17.7-18.9
					c-33.2-32-36.9-45.5-38.4-51.2c-0.2-0.6-0.3-1.2-0.4-1.5c-8.4-19.4-8.3-76.3-4.2-88.6c2.1-6.4,8-10.6,14.7-10.6
					c1.6,0,3.3,0.3,4.9,0.8c3.9,1.3,7.1,4,9,7.7s2.2,7.9,0.9,11.8c-8.8,26.8-1.6,66.4,5.7,74.5l0.4,0.4l0.2,0.5
					c2.7,5.9,21.9,31.5,45.4,52.2l1.4,1.2L129.9,242.6z M67.2,62c-3.7,0-6.9,2.3-8.1,5.8c-3.2,9.8-4,65.2,4,83.6
					c0.3,0.7,0.5,1.5,0.8,2.4c1.3,4.7,4.7,17.3,36.5,48c6.6,6.3,12.7,13.2,18.1,19.2c2.3,2.5,4.4,4.9,6.2,6.9l2.8-21
					C105.5,187.1,86,162.1,82,154.1c-9.2-11.1-16.1-52.7-6.7-81c0.7-2.2,0.5-4.5-0.5-6.5s-2.8-3.5-4.9-4.2C69,62.1,68.1,62,67.2,62z
					"/>
			</g>
		</g>
	</g>
	<g>
		<g>
			<path fill="#F5CE9F" d="M58,76.5c0,0-13-7.4-13.7-26.8c-0.2-4.8,9-26.7,22.6-23.7c5.4,1.2,15.6,12.4,8.1,39.6"/>
		</g>
		<g>
			<path fill="#474747" d="M58,80c-0.6,0-1.2-0.1-1.7-0.5c-0.6-0.3-14.7-8.6-15.5-29.7c-0.2-4.3,4.5-16.6,12.4-23.2
				c4.5-3.8,9.5-5.2,14.5-4.1c3.4,0.7,6.7,3.5,9.2,7.5c3.6,6,6.8,17.2,1.6,36.4c-0.5,1.9-2.4,3-4.3,2.5c-1.9-0.5-3-2.4-2.5-4.3
				c4.8-17.7,1.6-27-0.8-30.9c-1.8-3-3.8-4.1-4.7-4.3c-2.9-0.6-5.6,0.2-8.5,2.6c-6.4,5.3-10,15.7-9.9,17.6
				c0.6,17.3,11.9,23.9,12,23.9c1.7,1,2.3,3.1,1.3,4.8C60.4,79.3,59.2,80,58,80z"/>
		</g>
	</g>
	<path fill="#FFC569" d="M193.7,237.9c10.1-4.6,18.3-8.9,20.6-15.9h41.2c3.5,7,10.4,11.6,20.6,15.9c0,37.4-41.6,59.9-41.6,59.9
		S193.7,280.6,193.7,237.9z"/>
	<path fill="#474747" d="M232.1,303.2c-0.5,0-0.9-0.1-1.3-0.3c-0.4-0.2-42.8-18.6-42.8-63.1c0-1.3,0.8-2.6,2-3.1
		c8.2-3.7,16.8-8.3,18.7-14.3c0.5-1.4,1.8-2.4,3.3-2.4h41.2c1.3,0,2.5,0.8,3.1,1.9c3,5.8,9,10.5,18.9,14.7c1.3,0.5,2.1,1.8,2.1,3.2
		c0,39-41.7,62-43.4,62.9C233.2,303,232.7,303.2,232.1,303.2z M194.9,242c1.2,33.9,30.1,50.3,37.1,53.8c7-4.3,36.9-24,38.3-53.8
		c-9.3-4.2-15.4-9.1-19.1-15.1h-36.9C210.9,233,203.2,238.1,194.9,242z"/>
	<g>
		<path fill="#474747" d="M230.3,253.1c0-8.8,6.7-14.5,14.9-14.5c5.8,0,9.5,2.9,11.6,6.2l-4.9,2.7c-1.3-2-3.6-3.6-6.6-3.6
			c-5.1,0-8.8,3.9-8.8,9.2c0,5.3,3.7,9.2,8.8,9.2c2.5,0,4.8-1.1,6-2.1l1.9-3.4h-7.4v-5.2h15.2l-4.8,10.7c-2.8,3.2-5.8,5.3-10.9,5.3
			C237,267.6,230.3,261.9,230.3,253.1z"/>
	</g>
	<g>
		<path fill="#474747" d="M226,258.5c-1.2,2.2-3.6,3.8-6.4,3.8c-5.1,0-8.8-3.9-8.8-9.2c0-5.3,3.7-9.2,8.8-9.2c2.8,0,5.2,1.7,6.4,3.8
			c0.5-2.1,1.4-4.1,2.5-5.8c-2.1-1.9-5-3.3-8.9-3.3c-8.4,0-14.9,5.9-14.9,14.5c0,8.6,6.5,14.5,14.9,14.5c4,0,6.8-1.4,8.9-3.3
			C227.4,262.5,226.5,260.6,226,258.5z"/>
	</g>
	<path fill="#474747" d="M317.5,59h-36.4C275.3,27,257,3.4,235.4,3.4c-8.1,0-15.8,3.3-22.5,9.1C194.1,13.7,178.2,32,171.1,59h-22.5
		l3.1,7h37c-0.6,5-0.9,9.8-0.9,14.9c0,1.9,1.5,3.5,3.4,3.5c1.9,0,3.4-1.6,3.4-3.5c0-5.1,0.3-9.9,0.9-14.9h79.7
		c0.6,5,0.9,9.8,0.9,14.9c0,1.9,1.5,3.5,3.4,3.5c1.9,0,3.4-1.6,3.4-3.5c0-5.1-0.3-9.9-0.9-14.9h32.3L317.5,59z M189.6,59h-11.5
		c5.2-19,14.9-32.4,26.6-37.6C197.6,31.1,192.3,44,189.6,59z M196.6,59c3.2-17,9.9-31.1,18.7-39.7c15.9,0.3,29.6,16.7,36.1,39.7
		H196.6z M258.4,59c-6.3-24-19.6-40.8-35.6-45.3c3.9-2.2,8.1-3.5,12.5-3.5c18.1,0,33.5,20.8,38.8,48.8H258.4z"/>
	<g>
		<g>
			<g>
				<g>
					<path fill="#F5CE9F" d="M375.6,106.8c-6.7-7.5-17.5-20.4-27.7-26.2c-5.7-3.3-13.1-1.3-16.4,4.4c-3.3,5.7-1.3,13.1,4.4,16.4
						c9.8,5.7,47.1,40.8,45.4,52.7c-3.1,6.9-24.4,33.2-47.3,53.4l3,29.9c6.3-5.7,19.2-19.5,31.3-31.2c37.5-36.1,36.9-47.5,38.1-51.5
						C408.6,147.8,395.1,128.5,375.6,106.8z"/>
				</g>
				<g>
					<path fill="#474747" d="M334.3,244.7l-3.9-38.6l1.3-1.2c22.9-20.2,42.7-45.1,46.2-51.7c0-3.3-4.6-11.7-17.5-25.4
						c-10.2-10.8-21.8-20.8-26.2-23.4c-3.6-2.1-6.2-5.4-7.2-9.4c-1.1-4-0.5-8.2,1.5-11.8c2.8-4.8,7.9-7.8,13.5-7.8
						c2.7,0,5.4,0.7,7.7,2.1c9.4,5.4,19,16.2,26,24c0.9,1,1.7,2,2.5,2.8c16.1,17.8,34.6,41.2,31.7,51.3c-0.1,0.3-0.2,0.7-0.3,1.1
						c-1.2,5.5-4,18.5-38.8,52c-5.8,5.6-11.8,11.7-17.2,17.2c-5.8,5.9-10.9,11.1-14.2,14.1L334.3,244.7z M337.8,209l2.1,21
						c2.6-2.5,5.6-5.6,8.8-8.9c5.4-5.5,11.4-11.6,17.3-17.3c33.2-32,35.8-44,36.8-48.4c0.1-0.6,0.2-1.1,0.4-1.6
						c0.9-2.9-4.4-16-30.1-44.7c-0.8-0.9-1.7-1.9-2.6-2.9c-6.7-7.5-15.8-17.8-24.2-22.6c-1.3-0.7-2.7-1.1-4.2-1.1
						c-3,0-5.9,1.6-7.4,4.3c-1.1,2-1.4,4.3-0.8,6.5c0.6,2.2,2,4,4,5.2c5.7,3.3,17.9,14.1,27.8,24.7c13.7,14.6,20.2,25.2,19.3,31.6
						l-0.1,0.5l-0.2,0.5C381.1,163.4,359.6,189.5,337.8,209z"/>
				</g>
			</g>
		</g>
		<g>
			<g>
				<path fill="#F5CE9F" d="M351.3,87.7c0,0,0-15-16.5-25.2c-4.1-2.5-27.7-5.4-31.8,7.9c-1.6,5.2,3.1,19.7,30.4,26.7"/>
			</g>
			<g>
				<path fill="#474747" d="M333.4,100.5c-0.3,0-0.6,0-0.9-0.1c-19.3-5-27.4-13.3-30.8-19.4c-2.3-4.1-3-8.4-2-11.7
					c1.5-4.9,5.2-8.5,10.7-10.6c9.6-3.6,22.6-1.5,26.3,0.7c17.9,11.1,18.2,27.5,18.2,28.2c0,1.9-1.6,3.5-3.5,3.5
					c-1.9,0-3.5-1.6-3.5-3.5c0-0.6-0.4-13.3-14.8-22.3c-1.6-1-12.4-3-20.2-0.1c-3.5,1.3-5.6,3.3-6.5,6.1c-0.3,0.9-0.3,3.1,1.4,6.2
					c2.2,4,8.7,11.5,26.5,16c1.9,0.5,3,2.4,2.5,4.3C336.4,99.5,334.9,100.5,333.4,100.5z"/>
			</g>
		</g>
	</g>
</g>
</svg>
