<svg xmlns="http://www.w3.org/2000/svg" xmlns:xlink="http://www.w3.org/1999/xlink" preserveAspectRatio="xMidYMid" width="86" height="76" viewBox="0 0 86 76">
  <defs>
    <style>
      .cls-1 {
        fill: #f7323f;
        fill-rule: evenodd;
      }
    </style>
  </defs>
  <path d="M74.394,57.046 L74.398,61.371 C74.398,67.439 69.495,72.376 63.465,72.390 L63.465,72.985 C63.465,74.643 62.123,75.992 60.473,75.992 L53.844,75.992 C52.195,75.992 50.853,74.643 50.853,72.985 L50.853,72.390 L35.137,72.390 L35.137,72.985 C35.137,74.643 33.796,75.992 32.146,75.992 L25.517,75.992 C23.867,75.992 22.524,74.643 22.524,72.985 L22.524,72.390 C16.492,72.379 11.589,67.441 11.589,61.371 L11.584,57.045 C5.074,56.327 -0.007,50.766 -0.007,44.034 C-0.007,37.727 4.451,32.450 10.364,31.216 C10.821,13.925 24.944,-0.002 42.250,-0.002 L43.741,-0.002 C61.047,-0.002 75.169,13.925 75.626,31.216 C81.539,32.449 85.997,37.727 85.997,44.034 C85.997,50.770 80.910,56.335 74.394,57.046 ZM43.741,4.011 L42.250,4.011 C27.212,4.011 14.920,16.029 14.360,31.013 C20.821,31.668 25.838,36.989 26.021,43.665 L26.025,50.353 L59.964,50.353 L59.968,43.719 C60.153,36.993 65.170,31.669 71.630,31.013 C71.070,16.029 58.779,4.011 43.741,4.011 ZM72.979,34.955 C68.057,34.955 64.095,38.829 63.958,43.776 L63.954,52.360 C63.953,53.468 63.060,54.365 61.959,54.365 L24.031,54.365 C22.930,54.365 22.036,53.468 22.036,52.360 L22.032,43.721 C21.897,38.829 17.934,34.955 13.011,34.955 C8.033,34.955 3.983,39.028 3.983,44.034 C3.983,49.038 8.033,53.111 13.011,53.111 C13.171,53.111 13.318,53.106 13.475,53.098 C14.026,53.067 14.554,53.268 14.950,53.646 C15.346,54.024 15.571,54.550 15.572,55.099 L15.579,61.371 C15.579,65.235 18.704,68.378 22.546,68.378 L24.520,68.378 C25.621,68.378 26.515,69.276 26.515,70.384 L26.515,71.980 L31.147,71.980 L31.147,70.384 C31.147,69.276 32.040,68.378 33.142,68.378 L52.848,68.378 C53.950,68.378 54.843,69.276 54.843,70.384 L54.843,71.980 L59.474,71.980 L59.474,70.384 C59.474,69.276 60.368,68.378 61.469,68.378 L63.438,68.378 C67.281,68.378 70.407,65.235 70.407,61.371 L70.404,61.236 L70.404,55.101 C70.404,54.551 70.628,54.025 71.024,53.647 C71.420,53.268 71.945,53.064 72.500,53.098 C72.659,53.106 72.818,53.111 72.979,53.111 C77.957,53.111 82.007,49.038 82.007,44.034 C82.007,39.028 77.957,34.955 72.979,34.955 ZM52.852,42.730 C50.163,42.730 47.976,40.531 47.976,37.827 C47.976,35.124 50.163,32.924 52.852,32.924 C55.541,32.924 57.729,35.124 57.729,37.827 C57.729,40.531 55.541,42.730 52.852,42.730 ZM52.852,36.936 C52.364,36.936 51.966,37.336 51.966,37.827 C51.966,38.318 52.364,38.718 52.852,38.718 C53.341,38.718 53.738,38.318 53.738,37.827 C53.738,37.336 53.341,36.936 52.852,36.936 ZM52.852,22.613 C50.163,22.613 47.976,20.414 47.976,17.710 C47.976,15.006 50.163,12.806 52.852,12.806 C55.541,12.806 57.729,15.006 57.729,17.710 C57.729,20.414 55.541,22.613 52.852,22.613 ZM52.852,16.818 C52.364,16.818 51.966,17.218 51.966,17.710 C51.966,18.201 52.364,18.600 52.852,18.600 C53.341,18.600 53.738,18.201 53.738,17.710 C53.738,17.218 53.341,16.818 52.852,16.818 ZM47.446,26.130 L45.817,27.769 L47.446,29.407 C48.226,30.191 48.226,31.460 47.446,32.244 C47.057,32.636 46.546,32.832 46.036,32.832 C45.525,32.832 45.015,32.636 44.625,32.244 L42.995,30.605 L41.366,32.244 C40.976,32.636 40.465,32.832 39.955,32.832 C39.444,32.832 38.933,32.636 38.544,32.244 C37.765,31.460 37.765,30.191 38.544,29.407 L40.174,27.769 L38.544,26.130 C37.765,25.347 37.765,24.077 38.544,23.293 C39.323,22.510 40.586,22.510 41.366,23.293 L42.995,24.932 L44.625,23.293 C45.404,22.510 46.668,22.510 47.446,23.293 C48.226,24.077 48.226,25.347 47.446,26.130 ZM33.138,22.613 C30.449,22.613 28.262,20.414 28.262,17.710 C28.262,15.006 30.449,12.806 33.138,12.806 C35.827,12.806 38.015,15.006 38.015,17.710 C38.015,20.414 35.827,22.613 33.138,22.613 ZM33.138,16.818 C32.650,16.818 32.252,17.218 32.252,17.710 C32.252,18.201 32.650,18.600 33.138,18.600 C33.627,18.600 34.024,18.201 34.024,17.710 C34.024,17.218 33.627,16.818 33.138,16.818 ZM33.138,32.924 C35.827,32.924 38.015,35.124 38.015,37.827 C38.015,40.531 35.827,42.730 33.138,42.730 C30.449,42.730 28.262,40.531 28.262,37.827 C28.262,35.124 30.449,32.924 33.138,32.924 ZM33.138,38.718 C33.627,38.718 34.024,38.318 34.024,37.827 C34.024,37.336 33.627,36.936 33.138,36.936 C32.650,36.936 32.252,37.336 32.252,37.827 C32.252,38.318 32.650,38.718 33.138,38.718 Z" class="cls-1"/>
</svg>
