<svg xmlns="http://www.w3.org/2000/svg" xmlns:xlink="http://www.w3.org/1999/xlink" preserveAspectRatio="xMidYMid" width="80.812" height="91.219" viewBox="0 0 80.812 91.219">
  <defs>
    <style>
      .cls-1 {
        fill: #f7323f;
        fill-rule: evenodd;
      }
    </style>
  </defs>
  <path d="M75.641,49.755 C75.606,49.755 69.123,49.642 68.185,49.642 C68.048,49.642 67.636,49.642 67.517,49.691 C67.519,49.694 67.480,49.739 67.424,49.852 C66.814,51.095 55.068,75.661 54.950,75.910 C54.023,77.708 52.282,78.791 50.381,78.791 L48.246,78.791 C49.672,80.091 50.578,82.001 50.578,84.132 C50.578,88.039 47.543,91.219 43.813,91.219 C40.084,91.219 37.049,88.039 37.049,84.132 C37.049,82.001 37.956,80.091 39.381,78.791 L25.384,78.791 C26.809,80.091 27.716,82.001 27.716,84.132 C27.716,88.039 24.681,91.219 20.951,91.219 C17.221,91.219 14.186,88.039 14.186,84.132 C14.186,82.001 15.092,80.091 16.518,78.791 L12.839,78.791 C12.381,78.791 11.918,78.700 11.462,78.520 C10.096,78.089 9.006,77.035 8.531,75.678 L0.276,52.133 C-0.212,50.739 0.003,49.186 0.854,47.979 C1.702,46.773 3.090,46.052 4.564,46.052 L27.131,46.052 L27.131,42.997 C27.131,39.104 30.284,35.938 34.158,35.938 L34.715,35.938 C38.589,35.938 41.742,39.104 41.742,42.997 L41.742,46.052 L57.782,46.052 C57.873,45.871 57.978,45.650 58.047,45.504 C58.707,44.105 59.782,41.879 59.782,41.879 C60.706,40.087 62.446,39.004 64.348,39.004 L75.641,39.004 C78.484,39.004 80.798,41.416 80.798,44.380 C80.798,47.344 78.484,49.755 75.641,49.755 ZM43.813,87.222 C45.348,87.222 46.598,85.836 46.598,84.132 C46.598,82.428 45.348,81.042 43.813,81.042 C42.279,81.042 41.030,82.428 41.030,84.132 C41.030,85.836 42.279,87.222 43.813,87.222 ZM20.951,87.222 C22.486,87.222 23.735,85.836 23.735,84.132 C23.735,82.428 22.486,81.042 20.951,81.042 C19.415,81.042 18.166,82.428 18.166,84.132 C18.166,85.836 19.415,87.222 20.951,87.222 ZM37.762,42.997 C37.762,41.309 36.395,39.936 34.715,39.936 L34.158,39.936 C32.478,39.936 31.111,41.309 31.111,42.997 L31.111,46.052 L37.762,46.052 L37.762,42.997 ZM75.641,43.002 L64.348,43.002 C63.939,43.002 63.553,43.258 63.340,43.670 C63.340,43.671 62.291,45.845 61.644,47.217 C60.956,48.674 60.306,50.049 57.893,50.049 L39.068,50.049 L29.805,50.049 L4.564,50.049 C4.380,50.049 4.208,50.138 4.103,50.287 C3.997,50.439 3.970,50.632 4.030,50.806 L12.286,74.352 C12.373,74.602 12.583,74.685 12.669,74.710 C12.751,74.734 12.832,74.762 12.910,74.796 L50.381,74.793 C50.790,74.793 51.177,74.537 51.389,74.124 C51.846,73.165 63.235,49.346 63.855,48.083 C65.054,45.645 67.248,45.645 68.185,45.645 C69.130,45.645 75.675,45.757 75.675,45.757 C76.290,45.757 76.817,45.139 76.817,44.380 C76.817,43.619 76.290,43.002 75.641,43.002 ZM69.392,18.011 C69.107,18.152 68.806,18.218 68.510,18.218 C67.777,18.218 67.072,17.811 66.724,17.108 C59.929,3.339 46.516,3.993 46.376,3.992 C45.288,4.065 44.337,3.219 44.272,2.117 C44.206,1.015 45.042,0.068 46.139,0.003 C46.795,-0.034 62.337,-0.782 70.291,15.331 C70.778,16.321 70.376,17.520 69.392,18.011 ZM46.443,14.096 C45.363,14.131 44.417,13.288 44.370,12.185 C44.322,11.082 45.174,10.149 46.272,10.102 C46.690,10.078 56.574,9.770 61.110,19.495 C61.576,20.494 61.147,21.685 60.152,22.154 C59.879,22.281 59.591,22.342 59.309,22.342 C58.560,22.343 57.844,21.916 57.505,21.191 C54.085,13.857 46.513,14.095 46.443,14.096 ZM58.694,35.671 L58.695,37.285 C58.696,39.496 57.730,40.695 56.918,41.313 C55.982,42.026 54.756,42.372 53.172,42.372 C53.171,42.372 53.171,42.372 53.171,42.372 C52.483,42.372 51.713,42.308 50.817,42.175 L48.967,41.912 C47.153,41.645 41.662,40.837 41.636,35.366 L41.642,33.480 C41.641,33.281 41.666,33.012 41.702,32.709 C41.793,31.946 41.782,31.647 41.545,31.378 C41.251,31.045 39.864,29.959 34.354,29.959 C28.718,29.968 27.327,31.067 27.033,31.404 C26.797,31.674 26.790,31.974 26.889,32.737 C26.927,33.029 26.954,33.287 26.957,33.498 L26.959,35.392 C26.959,40.868 21.471,41.696 19.668,41.968 L17.808,42.255 C16.897,42.390 16.126,42.453 15.439,42.453 C10.458,42.453 9.911,38.903 9.907,37.376 L9.904,35.771 C9.770,34.018 9.864,29.719 13.257,25.709 C17.300,20.914 24.370,18.475 34.269,18.461 L34.443,18.461 C44.243,18.461 51.264,20.873 55.310,25.632 C58.726,29.651 58.827,33.927 58.694,35.671 ZM52.282,28.228 C49.028,24.399 43.026,22.458 34.443,22.458 L34.277,22.458 C25.598,22.471 19.547,24.434 16.291,28.295 C13.808,31.231 13.776,34.324 13.877,35.518 C13.882,35.573 13.884,35.629 13.884,35.684 L13.887,37.367 C13.889,38.114 13.890,38.455 15.439,38.455 C15.931,38.455 16.513,38.406 17.217,38.302 L19.070,38.016 C22.979,37.426 22.979,36.252 22.979,35.395 L22.977,33.522 C22.973,33.465 22.957,33.365 22.943,33.253 C22.824,32.342 22.578,30.444 24.041,28.769 C25.704,26.863 28.957,25.971 34.276,25.962 C39.626,25.962 42.856,26.839 44.521,28.724 C45.987,30.382 45.762,32.274 45.653,33.182 C45.641,33.296 45.625,33.398 45.622,33.485 L45.617,35.362 C45.620,36.205 45.626,37.380 49.534,37.956 L51.385,38.218 C52.099,38.324 52.680,38.375 53.171,38.375 L53.172,38.375 C54.116,38.375 54.438,38.185 54.515,38.127 C54.701,37.985 54.715,37.448 54.715,37.288 L54.714,35.594 C54.714,35.537 54.715,35.480 54.720,35.422 C54.821,34.239 54.784,31.171 52.282,28.228 Z" class="cls-1"/>
</svg>
