<svg xmlns="http://www.w3.org/2000/svg" xmlns:xlink="http://www.w3.org/1999/xlink" preserveAspectRatio="xMidYMid" width="156" height="17.031" viewBox="0 0 156 17.031">
  <defs>
    <style>
      .cls-1 {
        fill: #262626;
        fill-rule: evenodd;
      }
    </style>
  </defs>
  <path d="M149.809,17.001 C145.674,17.001 143.620,14.736 143.620,11.388 L143.620,3.164 L146.343,3.164 L146.343,11.166 C146.343,13.259 147.581,14.638 149.809,14.638 C152.038,14.638 153.276,13.259 153.276,11.166 L153.276,3.164 L156.000,3.164 L156.000,11.388 C156.000,14.736 153.969,17.001 149.809,17.001 ZM135.713,16.706 L132.642,11.781 L130.290,11.781 L130.290,16.706 L127.566,16.706 L127.566,3.164 L134.004,3.164 C136.975,3.164 138.684,5.085 138.684,7.473 C138.684,9.886 137.124,11.289 135.316,11.535 L138.807,16.706 L135.713,16.706 ZM135.910,7.473 C135.910,6.315 135.118,5.503 133.707,5.503 L130.290,5.503 L130.290,9.443 L133.707,9.443 C135.143,9.443 135.910,8.630 135.910,7.473 ZM115.288,17.001 C111.153,17.001 109.098,14.736 109.098,11.388 L109.098,3.164 L111.822,3.164 L111.822,11.166 C111.822,13.259 113.060,14.638 115.288,14.638 C117.517,14.638 118.754,13.259 118.754,11.166 L118.754,3.164 L121.478,3.164 L121.478,11.388 C121.478,14.736 119.448,17.001 115.288,17.001 ZM96.371,17.026 C91.568,17.026 87.704,13.653 87.704,8.507 C87.704,3.336 91.568,0.012 96.371,0.012 C99.590,0.012 101.695,1.539 103.007,3.410 L100.654,4.765 C99.763,3.533 98.203,2.573 96.371,2.573 C93.103,2.573 90.676,5.036 90.676,8.507 C90.676,11.929 93.103,14.441 96.371,14.441 C98.055,14.441 99.541,13.677 100.283,12.964 L100.283,10.427 L95.331,10.427 L95.331,7.891 L103.155,7.891 L103.155,14.022 C101.546,15.819 99.219,17.026 96.371,17.026 ZM74.992,17.001 C72.491,17.001 70.461,16.090 69.297,14.933 L70.609,12.865 C71.525,13.800 73.234,14.687 75.091,14.687 C77.072,14.687 77.889,13.850 77.889,12.865 C77.889,10.108 69.742,11.929 69.742,6.907 C69.742,4.642 71.872,2.869 74.992,2.869 C77.270,2.869 79.053,3.607 80.340,4.814 L79.028,6.734 C77.988,5.700 76.379,5.159 74.967,5.159 C73.481,5.159 72.516,5.873 72.516,6.833 C72.516,9.245 80.662,7.596 80.662,12.767 C80.662,15.229 78.756,17.001 74.992,17.001 ZM60.985,16.706 L58.286,16.706 L58.286,5.503 L54.250,5.503 L54.250,3.164 L64.996,3.164 L64.996,5.503 L60.985,5.503 L60.985,16.706 ZM46.458,16.706 L43.388,11.781 L41.035,11.781 L41.035,16.706 L38.312,16.706 L38.312,3.164 L44.750,3.164 C47.721,3.164 49.429,5.085 49.429,7.473 C49.429,9.886 47.870,11.289 46.062,11.535 L49.553,16.706 L46.458,16.706 ZM46.656,7.473 C46.656,6.315 45.864,5.503 44.452,5.503 L41.035,5.503 L41.035,9.443 L44.452,9.443 C45.889,9.443 46.656,8.630 46.656,7.473 ZM29.430,14.145 L23.067,14.145 L22.027,16.706 L18.981,16.706 L24.627,3.164 L27.870,3.164 L33.491,16.706 L30.470,16.706 L29.430,14.145 ZM26.261,5.897 L23.859,11.806 L28.638,11.806 L26.261,5.897 ZM8.664,14.441 C10.422,14.441 12.031,13.406 12.824,12.052 L15.300,13.283 C14.037,15.253 11.982,17.001 8.664,17.001 C3.786,17.001 -0.003,13.554 -0.003,8.507 C-0.003,3.435 3.786,0.012 8.664,0.012 C11.982,0.012 14.062,1.712 15.275,3.681 L12.824,4.961 C12.031,3.583 10.422,2.573 8.664,2.573 C5.395,2.573 2.969,5.036 2.969,8.507 C2.969,11.929 5.395,14.441 8.664,14.441 Z" class="cls-1"/>
</svg>
