<?xml version="1.0" encoding="utf-8"?>
<!-- Generator: Adobe Illustrator 18.0.0, SVG Export Plug-In . SVG Version: 6.00 Build 0)  -->
<!DOCTYPE svg PUBLIC "-//W3C//DTD SVG 1.1//EN" "http://www.w3.org/Graphics/SVG/1.1/DTD/svg11.dtd">
<svg version="1.1" id="Layer_1" xmlns="http://www.w3.org/2000/svg" xmlns:xlink="http://www.w3.org/1999/xlink" x="0px" y="0px"
	 viewBox="0 0 115.3 75.6" width="115" height="76" enable-background="new 0 0 115.3 75.6" xml:space="preserve">
<g>
	<g>
		<path fill="#262626" d="M113.4,19.5c-0.9-1.5-2.5-2.3-4.4-2.3H66.9c-1.4,0-2.6,1.1-2.6,2.6c0,1.4,1.1,2.6,2.6,2.6h42
			c0,0.1-0.1,0.3-0.2,0.5L97.6,41.2c-0.9,1.6-3.1,3-4.5,3H81.3c-1.4,0-2.6,1.1-2.6,2.6s1.1,2.6,2.6,2.6h11.8c3.2,0,7.2-2.5,8.9-5.6
			l11.1-18.4C114.2,23.3,114.4,21.2,113.4,19.5z"/>
		<path fill="#262626" d="M50.1,2.2c-1.3-0.4-2.8,0.4-3.2,1.7c-0.2,0.7-0.1,1.3,0.2,1.9c0.3,0.6,0.9,1,1.5,1.2c4,1.2,6.8,3,7.6,4.8
			c0.4,1,0.3,2-0.3,3.2c-0.8,1.5-2.7,4.8-5.1,9.2l-2.7,4.8c-0.3,0.6-0.4,1.3-0.2,1.9c0.2,0.7,0.6,1.2,1.2,1.5
			c0.4,0.2,0.8,0.3,1.3,0.3c0.9,0,1.8-0.5,2.2-1.3l2.7-4.7c2.5-4.3,4.4-7.8,5.3-9.4c1.3-2.6,1.4-5.2,0.4-7.5
			C59.5,6.5,55.7,3.9,50.1,2.2z"/>
	</g>
	<g>
		
			<path fill="#FFFFFF" stroke="#484848" stroke-width="4" stroke-linecap="round" stroke-linejoin="round" stroke-miterlimit="10" d="
			M68.4,34.6"/>
	</g>
	<g>
		
			<path fill="#FFFFFF" stroke="#2C75A6" stroke-width="4" stroke-linecap="round" stroke-linejoin="round" stroke-miterlimit="10" d="
			M71.1,58"/>
	</g>
	<g>
		<path fill="#3D9B46" d="M66.2,40.5c-0.4-1.5-1-3-1.6-4.3c-0.5-2.1-2.9-2.1-4.6-2.1c-2.9,0-8.4,0.3-13.6,0.8
			c-2.6,0.2-4.8,0.5-6.4,0.7c-1.4,0.2-2.4,0.5-3.4,0.8C33,37.7,28,42,27.9,47.1c0.1,5,5.3,9.5,8.8,10.6c3.6,1.5,19,2.3,23.2,2.3
			c0.8,0,1.4,0,1.8-0.1c2-0.2,2.6-1.3,2.8-1.8c0.7-1.6,1.3-3.2,1.8-4.8c2.3-0.3,4.1-1.2,5-1.8c1.3-0.8,3.5-2.4,3.5-4.6
			C74.8,44.1,70.7,41.2,66.2,40.5z M69,46.9c-0.5,0.3-1.2,0.7-1.9,0.9c0-0.6,0-1.3,0-1.9C67.8,46.2,68.5,46.6,69,46.9z M59.9,54.8
			c-6.1,0-19.5-1.1-21.2-1.9c-0.1-0.1-0.3-0.1-0.4-0.2c-2-0.5-5.2-3.5-5.3-5.7c0-2.3,3.2-5.1,5.4-5.8c0,0,0.3-0.1,0.8-0.3
			c2-0.6,15-1.7,20.8-1.7c0.1,0,0.2,0,0.3,0c2.2,5.2,2.2,10.4,0,15.6C60.2,54.8,60.1,54.8,59.9,54.8z"/>
		<path fill="#3D9B46" d="M23.1,40.9H4.5c-1.4,0-2.6,1.1-2.6,2.6c0,1.4,1.1,2.6,2.6,2.6h18.6c1.4,0,2.6-1.1,2.6-2.6
			C25.7,42.1,24.5,40.9,23.1,40.9z"/>
		<path fill="#3D9B46" d="M19.9,48.2h-9.7c-1.4,0-2.6,1.1-2.6,2.6s1.1,2.6,2.6,2.6h9.7c1.4,0,2.6-1.1,2.6-2.6S21.3,48.2,19.9,48.2z"
			/>
	</g>
	<path fill="#262626" d="M60.7,65.1c-0.2,0-18.6,0-24.4,0.1c0.4-0.7,0.8-1.3,0.8-1.3c0.3-0.6,0.4-1.3,0.2-1.9
		c-0.2-0.7-0.6-1.2-1.2-1.5c-1.2-0.7-2.8-0.2-3.5,0.9c0,0-1.8,2.8-2.4,3.9c-2.2,0.3-3.9,2.1-3.9,4.4c0,2.4,2,4.4,4.4,4.4
		c2.1,0,3.9-1.5,4.3-3.6h21.3c0.4,2,2.2,3.6,4.3,3.6c2.4,0,4.4-2,4.4-4.4C65,67.1,63.1,65.1,60.7,65.1z"/>
</g>
</svg>
