<?xml version="1.0" encoding="utf-8"?>
<!-- Generator: Adobe Illustrator 18.0.0, SVG Export Plug-In . SVG Version: 6.00 Build 0)  -->
<!DOCTYPE svg PUBLIC "-//W3C//DTD SVG 1.1//EN" "http://www.w3.org/Graphics/SVG/1.1/DTD/svg11.dtd">
<svg version="1.1" id="Objects" xmlns="http://www.w3.org/2000/svg" xmlns:xlink="http://www.w3.org/1999/xlink" x="0px" y="0px"
	 viewBox="0 0 166 168" width="166" height="168" enable-background="new 0 0 166 168" xml:space="preserve">
<g>
	<circle opacity="0.1" fill="#F9F9F7" cx="82.9" cy="82.8" r="77.7"/>
	<circle fill="#E9E8E8" cx="82.9" cy="82.8" r="73.2"/>
	<path opacity="0.2" fill="#C6C4C4" d="M124.2,22.5c0,0,51.3,105-58.5,131.5c0,0,63.8,16.5,87.5-51
		C153.2,102.9,169.7,55.7,124.2,22.5z"/>
	<g>
		<g>
			<g opacity="0.25">
				<path d="M33,75.1c-3.9-9.2-1.3-23.7,7.9-27.6c9.2-3.9,21.8-0.5,25.8,8.7c3.9,9.2-2.4,20.7-11.6,24.6
					C45.9,84.7,36.9,84.3,33,75.1z"/>
			</g>
			<g>
				<path fill="#BCBEC0" d="M31.5,75.1c-3.9-9.2-1.3-23.7,7.9-27.6c9.2-3.9,21.8-0.5,25.8,8.7c3.9,9.2-2.4,20.7-11.6,24.6
					C44.4,84.7,35.4,84.3,31.5,75.1z"/>
			</g>
		</g>
		<g>
			<g opacity="0.25">
				<path d="M35.8,73.1c-3.2-7.6-1.1-19.5,6.5-22.7c7.6-3.2,18-0.4,21.2,7.1c3.2,7.6-2,17-9.5,20.2C46.4,81,39.1,80.7,35.8,73.1z"/>
			</g>
			<g>
				<path fill="#AAADAF" d="M34.3,73.1c-3.2-7.6-1.1-19.5,6.5-22.7c7.6-3.2,18-0.4,21.2,7.1c3.2,7.6-2,17-9.5,20.2
					C44.9,81,37.5,80.7,34.3,73.1z"/>
			</g>
		</g>
	</g>
	<g>
		<g opacity="0.25">
			<path d="M72.7,95.4c-0.8-1.9-0.3-4.8,1.6-5.6c1.9-0.8,4.4-0.1,5.2,1.8c0.8,1.9-0.5,4.2-2.3,5C75.3,97.3,73.5,97.3,72.7,95.4z"/>
		</g>
		<g>
			<path fill="#BCBEC0" d="M71.2,95.4c-0.8-1.9-0.3-4.8,1.6-5.6c1.9-0.8,4.4-0.1,5.2,1.8c0.8,1.9-0.5,4.2-2.3,5
				C73.8,97.3,72,97.3,71.2,95.4z"/>
		</g>
	</g>
	<g>
		<g opacity="0.25">
			<path d="M130.9,105.6c-1-2.3-0.3-5.9,2-6.9c2.3-1,5.5-0.1,6.4,2.2c1,2.3-0.6,5.2-2.9,6.1C134.1,108,131.8,107.9,130.9,105.6z"/>
		</g>
		<g>
			<path fill="#BCBEC0" d="M129.3,105.6c-1-2.3-0.3-5.9,2-6.9c2.3-1,5.5-0.1,6.4,2.2c1,2.3-0.6,5.2-2.9,6.1
				C132.6,108,130.3,107.9,129.3,105.6z"/>
		</g>
	</g>
	<g>
		<g opacity="0.25">
			<path d="M101.1,88.3c-4.8-11.2,0-23.7,11.5-28.6c11.4-4.9,25.7-6.1,30.4,5.1c4.8,11.2-5.7,21.4-17.1,26.3
				C114.4,95.9,105.9,99.5,101.1,88.3z"/>
			<path d="M104.2,86.2c-4-9.5,0-20.1,9.7-24.2c9.7-4.1,21.7-5.1,25.7,4.3c4,9.5-4.8,18.1-14.5,22.2
				C115.5,92.6,108.2,95.6,104.2,86.2z"/>
		</g>
		<g>
			<g>
				<path fill="#BCBEC0" d="M99.6,88.3c-4.8-11.2,0-23.7,11.5-28.6c11.4-4.9,25.7-6.1,30.4,5.1c4.8,11.2-5.7,21.4-17.1,26.3
					C112.9,95.9,104.3,99.5,99.6,88.3z"/>
				<path fill="#AAADAF" d="M102.7,86.2c-4-9.5,0-20.1,9.7-24.2c9.7-4.1,21.7-5.1,25.7,4.3c4,9.5-4.8,18.1-14.5,22.2
					C114,92.6,106.7,95.6,102.7,86.2z"/>
			</g>
		</g>
	</g>
	<g>
		<g>
			<g opacity="0.25">
				<path d="M118.1,133.7c-6.7,5-15.8,3.8-20.8-3.1c-5.1-6.8-8.1-16.1-1.5-21c6.7-5,15.1,0.4,20.2,7.2
					C121.1,123.6,124.8,128.8,118.1,133.7z"/>
			</g>
			<g>
				<path fill="#BCBEC0" d="M116.6,133.7c-6.7,5-15.8,3.8-20.8-3.1c-5.1-6.8-8.1-16.1-1.5-21c6.7-5,15.1,0.4,20.2,7.2
					C119.5,123.6,123.3,128.8,116.6,133.7z"/>
			</g>
		</g>
		<g>
			<g opacity="0.25">
				<path d="M116.2,132c-5.6,4.2-13.3,3.2-17.6-2.6c-4.3-5.8-6.9-13.6-1.2-17.8c5.6-4.2,12.8,0.3,17.1,6.1
					C118.7,123.5,121.9,127.8,116.2,132z"/>
			</g>
			<g>
				<path fill="#AAADAF" d="M114.7,132c-5.6,4.2-13.3,3.2-17.6-2.6c-4.3-5.8-6.9-13.6-1.2-17.8c5.6-4.2,12.8,0.3,17.1,6.1
					C117.2,123.5,120.3,127.8,114.7,132z"/>
			</g>
		</g>
	</g>
	<g>
		<g>
			<g opacity="0.25">
				<path d="M58.5,134c0.3-4.4,3.9-7.7,8.4-7.5c4.5,0.3,9.4,2.2,9.1,6.6c-0.3,4.4-5.3,6.1-9.9,5.8C61.6,138.7,58.2,138.4,58.5,134z"
					/>
			</g>
			<g>
				<path fill="#BCBEC0" d="M56.9,134c0.3-4.4,3.9-7.7,8.4-7.5c4.5,0.3,9.4,2.2,9.1,6.6c-0.3,4.4-5.3,6.1-9.9,5.8
					C60.1,138.7,56.7,138.4,56.9,134z"/>
			</g>
		</g>
		<path fill="#AAADAF" d="M58.3,133.8c0.2-3.7,3.3-6.5,7.1-6.3c3.8,0.2,7.9,1.8,7.7,5.6c-0.2,3.8-4.5,5.1-8.3,4.9
			C60.9,137.7,58.1,137.5,58.3,133.8z"/>
	</g>
	<g>
		<g>
			<g opacity="0.25">
				<path d="M91.1,42.1c0.3-5.9,5.1-10.2,11.1-9.9c6,0.3,12.4,2.9,12,8.7c-0.3,5.9-7,8-13,7.7C95.2,48.3,90.7,48,91.1,42.1z"/>
			</g>
			<g>
				<path fill="#BCBEC0" d="M89.6,42.1c0.3-5.9,5.1-10.2,11.1-9.9c6,0.3,12.4,2.9,12,8.7c-0.3,5.9-7,8-13,7.7
					C93.7,48.3,89.2,48,89.6,42.1z"/>
			</g>
		</g>
		<g>
			<g opacity="0.25">
				<path d="M92.9,41.8c0.3-5,4.3-8.6,9.4-8.4c5.1,0.3,10.5,2.4,10.2,7.4c-0.3,5-6,6.8-11,6.5C96.4,47.1,92.6,46.8,92.9,41.8z"/>
			</g>
			<g>
				<path fill="#AAADAF" d="M91.3,41.8c0.3-5,4.3-8.6,9.4-8.4c5.1,0.3,10.5,2.4,10.2,7.4c-0.3,5-6,6.8-11,6.5
					C94.8,47.1,91.1,46.8,91.3,41.8z"/>
			</g>
		</g>
	</g>
	<g>
		<g>
			<g opacity="0.25">
				<path d="M31.2,94.4c2.1-2.4,5.6-2.7,8.1-0.5c2.4,2.1,4.3,5.4,2.2,7.8c-2.1,2.4-5.7,1.1-8.1-1.1C30.9,98.4,29.1,96.8,31.2,94.4z"
					/>
			</g>
			<g>
				<path fill="#BCBEC0" d="M29.6,94.4c2.1-2.4,5.6-2.7,8.1-0.5c2.4,2.1,4.3,5.4,2.2,7.8c-2.1,2.4-5.7,1.1-8.1-1.1
					C29.3,98.4,27.5,96.8,29.6,94.4z"/>
			</g>
		</g>
		<path fill="#AAADAF" d="M30.5,94.9c1.8-2,4.7-2.3,6.8-0.4c2.1,1.8,3.7,4.5,1.9,6.6c-1.8,2-4.8,0.9-6.9-0.9
			C30.2,98.3,28.7,96.9,30.5,94.9z"/>
	</g>
	<g>
		<path fill="#BCBEC0" d="M68.7,31.1c1.5-1.7,4-1.9,5.8-0.4c1.7,1.5,3.1,3.8,1.6,5.5c-1.5,1.7-4.1,0.8-5.8-0.8
			C68.5,34,67.2,32.9,68.7,31.1z"/>
		<g>
			<g opacity="0.25">
				<path d="M70.9,31.5c1.3-1.4,3.4-1.6,4.9-0.3c1.5,1.3,2.6,3.2,1.4,4.7c-1.3,1.4-3.4,0.7-4.9-0.6C70.7,33.9,69.6,32.9,70.9,31.5z"
					/>
			</g>
			<g>
				<path fill="#AAADAF" d="M69.3,31.5c1.3-1.4,3.4-1.6,4.9-0.3c1.5,1.3,2.6,3.2,1.4,4.7c-1.3,1.4-3.4,0.7-4.9-0.6
					C69.2,33.9,68.1,32.9,69.3,31.5z"/>
			</g>
		</g>
	</g>
</g>
</svg>
