<svg xmlns="http://www.w3.org/2000/svg" xmlns:xlink="http://www.w3.org/1999/xlink" preserveAspectRatio="xMidYMid" width="17" height="17" viewBox="0 0 17 17">
  <defs>
    <style>
      .cls-1 {
        fill: #000;
        opacity: 0.5;
        fill-rule: evenodd;
      }
    </style>
  </defs>
  <path d="M16.617,13.449 L13.993,10.817 C13.469,10.295 12.604,10.311 12.063,10.854 L10.740,12.179 C10.657,12.134 10.570,12.085 10.479,12.034 C9.643,11.569 8.501,10.934 7.297,9.728 C6.091,8.518 5.456,7.371 4.992,6.533 C4.942,6.445 4.896,6.360 4.850,6.277 L5.737,5.389 L6.174,4.951 C6.715,4.408 6.732,3.541 6.209,3.018 L3.583,0.386 C3.063,-0.138 2.196,-0.121 1.653,0.422 L0.915,1.167 L0.933,1.188 C0.686,1.505 0.479,1.871 0.325,2.265 C0.183,2.641 0.093,3.000 0.054,3.359 C-0.294,6.239 1.020,8.871 4.583,12.444 C9.510,17.380 13.481,17.008 13.652,16.989 C14.025,16.945 14.383,16.855 14.746,16.714 C15.136,16.562 15.502,16.354 15.817,16.106 L15.833,16.121 L16.584,15.384 C17.123,14.840 17.139,13.974 16.617,13.449 L16.617,13.449 Z" class="cls-1"/>
</svg>
