<?xml version="1.0" encoding="utf-8"?>
<!-- Generator: Adobe Illustrator 18.0.0, SVG Export Plug-In . SVG Version: 6.00 Build 0)  -->
<!DOCTYPE svg PUBLIC "-//W3C//DTD SVG 1.1//EN" "http://www.w3.org/Graphics/SVG/1.1/DTD/svg11.dtd">
<svg version="1.1" id="Objects" xmlns="http://www.w3.org/2000/svg" xmlns:xlink="http://www.w3.org/1999/xlink" x="0px" y="0px"
	 viewBox="0 0 204 129.1" width="204" height="129" enable-background="new 0 0 204 129.1" xml:space="preserve">
<g>
	<circle opacity="0.1" fill="#F9F9F7" cx="101.8" cy="64.3" r="57.3"/>
	<g>
		<g>
			<g>
				<g>
					<path fill="#E15444" d="M109.9,40.7c-51.3-17.1-96.4-20.7-100.6-8C5,45.5,43.2,69.6,94.6,86.7c51.3,17.1,96.4,20.6,100.6,8
						C199.4,82,161.2,57.8,109.9,40.7z M96.5,80.9C58.3,68.1,29.8,50.1,32.9,40.7c3.2-9.5,36.7-6.8,75,5.9
						c38.3,12.7,66.7,30.7,63.6,40.2C168.4,96.3,134.8,93.6,96.5,80.9z"/>
					<path fill="#C6413E" d="M109.7,42.2c-50.1-16.5-94-20.2-98-8.3c-4,11.9,34.1,33.9,84.2,50.4c50.1,16.5,93.3,21.1,97.3,9.2
						C197.2,81.7,159.8,58.7,109.7,42.2z M96.3,83.2C49,67.7,12.9,46.9,16.7,35.6c3.8-11.3,45.3-7.8,92.6,7.8
						C156.7,59,192,80.7,188.2,92C184.4,103.2,143.7,98.8,96.3,83.2z"/>
				</g>
				<g>
					<g>
						<path fill="#F4C02F" d="M94.5,86.7c-16.4-5.5-31.5-11.7-44.3-18c0.2,2.1,0.5,4.1,0.9,6.2c5.9,28,33.4,45.8,61.3,39.9
							c11.2-2.4,20.7-8.2,27.8-16.1C126.4,96.2,110.8,92.1,94.5,86.7z"/>
						<g>
							<defs>
								<path id="XMLID_4_" d="M153.2,58.2c-0.1-1.6-0.4-3.1-0.8-4.7C146.5,25.6,119,7.7,91,13.7c-10.7,2.3-20.2,7.4-26.8,15
									c-1.4,1.6-4.1,5-5.4,6.8c-5.2,7.1-7.9,15.8-8.6,24.7c11.5,7.1,27.7,14.5,46.3,20.7c18.3,6.1,35.6,9.9,49,11.1
									c4.7-7.4,8-16.1,8-25.2C153.5,64.7,153.3,60.4,153.2,58.2z"/>
							</defs>
							<use xlink:href="#XMLID_4_"  overflow="visible" fill="#F2C549"/>
							<clipPath id="XMLID_2_">
								<use xlink:href="#XMLID_4_"  overflow="visible"/>
							</clipPath>
							<path opacity="0.8" clip-path="url(#XMLID_2_)" fill="#F4CF67" d="M63.6,22.2c0,0,45.8,33.4,97,35l-1.1,6.8
								c0,0-72.7-10.4-102.4-40.5"/>
							<path opacity="0.8" clip-path="url(#XMLID_2_)" fill="#F4CF67" d="M48.7,75.2c0,0,47,27.4,96.1,25.6l-0.4,6.2
								c0,0-70.6-4.8-101.8-30.3"/>
							<path opacity="0.8" clip-path="url(#XMLID_2_)" fill="#F4CF67" d="M63.8,14.5c0,0,48.2,33.7,99.4,35.3l-0.7,4.5
								c0,0-72.7-10.4-102.4-40.5"/>
							<path opacity="0.6" clip-path="url(#XMLID_2_)" fill="#F4CF67" d="M52,35.5c0,0,53.2,34.2,104.3,35.8l-2.6,11.7
								c0,0-75.2-8-104.9-38.2"/>
						</g>
					</g>
				</g>
			</g>
		</g>
		<path opacity="0.2" fill="#D35029" d="M137.1,26.5c0,0,19.8,82.5-59.2,83.4c0,0,30.3,17.9,57.9-6.7c4.3-3.8,7.8-8.9,11.8-15
			C147.7,88.2,166.8,57.2,137.1,26.5z"/>
	</g>
</g>
</svg>
