<svg xmlns="http://www.w3.org/2000/svg" xmlns:xlink="http://www.w3.org/1999/xlink" preserveAspectRatio="xMidYMid" width="123" height="100" viewBox="0 0 123 100">
  <defs>
    <style>
      .cls-1 {
        fill: #7eb5e9;
        fill-rule: evenodd;
      }
    </style>
  </defs>
  <path d="M116.528,88.719 L108.793,88.719 L111.637,94.118 C112.483,95.725 112.168,97.644 110.853,98.894 C110.085,99.624 109.109,99.999 108.120,99.999 C107.416,99.999 106.705,99.809 106.059,99.420 L88.282,88.719 L52.756,88.719 C49.190,88.719 46.289,85.807 46.289,82.229 L46.289,59.368 L34.703,59.368 L16.926,70.070 C16.294,70.450 15.582,70.651 14.870,70.651 C13.484,70.651 12.171,69.898 11.443,68.685 C10.723,67.486 10.687,66.021 11.348,64.768 L14.192,59.368 L7.736,59.368 C3.464,59.368 -0.010,55.881 -0.010,51.595 L-0.010,7.773 C-0.010,3.488 3.464,0.000 7.736,0.000 L68.950,0.000 C73.221,0.000 76.696,3.488 76.696,7.773 L76.696,29.351 L116.528,29.351 C120.094,29.351 122.995,32.262 122.995,35.841 L122.995,82.229 C122.995,85.807 120.094,88.719 116.528,88.719 ZM72.707,31.363 C72.707,31.359 72.706,31.356 72.706,31.353 C72.706,31.349 72.707,31.346 72.707,31.342 L72.707,7.773 C72.707,5.694 71.022,4.003 68.950,4.003 L7.736,4.003 C5.663,4.003 3.978,5.694 3.978,7.773 L3.978,51.595 C3.978,53.674 5.663,55.366 7.736,55.366 L14.192,55.366 C15.602,55.366 16.879,56.090 17.608,57.303 C18.336,58.516 18.376,59.987 17.717,61.239 L14.876,66.634 L32.651,55.936 C33.271,55.563 33.981,55.366 34.703,55.366 L68.950,55.366 C71.022,55.366 72.707,53.674 72.707,51.595 L72.707,31.363 ZM119.007,35.841 C119.007,34.470 117.895,33.354 116.528,33.354 L76.696,33.354 L76.696,41.945 L106.681,41.945 C107.782,41.945 108.675,42.841 108.675,43.946 C108.675,45.051 107.782,45.947 106.681,45.947 L76.696,45.947 L76.696,51.595 C76.696,52.064 76.647,52.522 76.567,52.969 L88.292,52.969 C89.393,52.969 90.286,53.865 90.286,54.970 C90.286,56.075 89.393,56.971 88.292,56.971 L74.531,56.971 C73.120,58.445 71.142,59.368 68.950,59.368 L50.277,59.368 L50.277,82.229 C50.277,83.601 51.389,84.717 52.756,84.717 L88.282,84.717 C89.005,84.717 89.715,84.914 90.334,85.287 L108.111,95.988 L105.268,90.589 C104.608,89.338 104.649,87.866 105.377,86.653 C106.105,85.441 107.382,84.717 108.793,84.717 L116.528,84.717 C117.895,84.717 119.007,83.601 119.007,82.229 L119.007,35.841 ZM101.474,79.751 C99.728,81.503 97.407,82.467 94.939,82.467 C92.470,82.467 90.148,81.503 88.403,79.751 C86.657,77.999 85.696,75.670 85.696,73.193 C85.696,70.715 86.657,68.387 88.403,66.635 L99.008,55.992 C100.754,54.240 103.075,53.276 105.544,53.276 C108.013,53.276 110.334,54.240 112.079,55.992 C113.825,57.744 114.787,60.072 114.787,62.551 C114.787,65.029 113.825,67.357 112.079,69.109 L101.474,79.751 ZM109.259,58.822 C108.267,57.826 106.947,57.278 105.544,57.278 C104.140,57.278 102.821,57.826 101.828,58.822 L91.223,69.465 C90.231,70.460 89.684,71.784 89.684,73.193 C89.684,74.602 90.231,75.926 91.223,76.921 C92.216,77.917 93.535,78.465 94.939,78.465 C96.342,78.465 97.661,77.917 98.654,76.921 L109.259,66.279 C110.252,65.284 110.798,63.959 110.798,62.551 C110.798,61.142 110.252,59.818 109.259,58.822 ZM105.339,67.165 C105.047,67.165 104.757,67.037 104.561,66.790 C104.216,66.359 104.285,65.729 104.714,65.383 C105.196,64.991 105.686,64.358 105.684,64.130 C105.568,64.111 105.007,64.271 104.741,64.349 C103.934,64.587 102.714,64.943 101.776,64.004 C101.185,63.411 101.119,62.789 101.167,62.371 C101.300,61.224 102.434,60.464 102.660,60.324 C103.130,60.034 103.743,60.177 104.033,60.647 C104.323,61.115 104.180,61.731 103.714,62.022 C103.462,62.184 103.176,62.478 103.147,62.606 C103.288,62.691 103.846,62.526 104.181,62.429 C104.979,62.195 106.184,61.839 107.107,62.766 C107.509,63.169 107.706,63.679 107.675,64.241 C107.604,65.558 106.236,66.724 105.962,66.945 C105.778,67.092 105.558,67.165 105.339,67.165 ZM104.233,68.688 C104.038,68.883 103.783,68.981 103.528,68.981 C103.273,68.981 103.018,68.883 102.823,68.688 L100.913,66.770 L100.913,67.545 C100.913,68.098 100.466,68.545 99.915,68.545 L99.144,68.545 L101.054,70.462 C101.444,70.853 101.444,71.486 101.054,71.877 C100.859,72.073 100.604,72.170 100.349,72.170 C100.094,72.170 99.839,72.073 99.644,71.877 L96.032,68.253 C95.940,68.161 95.867,68.050 95.816,67.927 C95.767,67.808 95.743,67.682 95.741,67.556 C95.741,67.552 95.739,67.549 95.739,67.545 C95.739,67.540 95.741,67.537 95.742,67.532 C95.743,67.406 95.767,67.281 95.816,67.163 C95.917,66.918 96.111,66.723 96.355,66.621 C96.475,66.572 96.601,66.547 96.728,66.546 C96.731,66.546 96.733,66.544 96.736,66.544 L98.918,66.544 L98.918,64.354 C98.918,64.349 98.921,64.345 98.921,64.340 C98.923,64.215 98.947,64.090 98.995,63.972 C99.096,63.727 99.291,63.532 99.535,63.431 C99.654,63.381 99.781,63.356 99.909,63.355 C99.911,63.355 99.913,63.354 99.915,63.354 C99.917,63.354 99.919,63.355 99.921,63.355 C100.049,63.356 100.176,63.381 100.296,63.431 C100.419,63.482 100.529,63.555 100.621,63.647 L104.233,67.273 C104.622,67.664 104.622,68.297 104.233,68.688 ZM95.356,71.285 C96.153,71.051 97.359,70.696 98.282,71.621 C98.685,72.025 98.881,72.535 98.850,73.097 C98.779,74.414 97.411,75.580 97.137,75.800 C96.953,75.948 96.733,76.020 96.514,76.020 C96.222,76.020 95.932,75.892 95.736,75.646 C95.391,75.215 95.460,74.585 95.889,74.239 C96.371,73.847 96.861,73.214 96.859,72.985 C96.746,72.973 96.182,73.127 95.916,73.205 C95.109,73.442 93.889,73.799 92.951,72.859 C92.360,72.267 92.294,71.645 92.342,71.226 C92.475,70.079 93.609,69.320 93.836,69.179 C94.304,68.889 94.918,69.033 95.208,69.502 C95.498,69.971 95.355,70.586 94.890,70.878 C94.637,71.039 94.351,71.334 94.322,71.462 C94.463,71.547 95.022,71.382 95.356,71.285 ZM79.455,79.018 L57.604,79.018 C56.503,79.018 55.610,78.122 55.610,77.017 C55.610,75.912 56.503,75.016 57.604,75.016 L79.455,75.016 C80.556,75.016 81.449,75.912 81.449,77.017 C81.449,78.122 80.556,79.018 79.455,79.018 ZM79.455,67.994 L57.604,67.994 C56.503,67.994 55.610,67.098 55.610,65.993 C55.610,64.888 56.503,63.992 57.604,63.992 L79.455,63.992 C80.556,63.992 81.449,64.888 81.449,65.993 C81.449,67.098 80.556,67.994 79.455,67.994 ZM53.615,37.327 C50.316,37.327 47.633,34.634 47.633,31.323 C47.633,28.013 50.316,25.320 53.615,25.320 C56.914,25.320 59.598,28.013 59.598,31.323 C59.598,34.634 56.914,37.327 53.615,37.327 ZM53.615,29.322 C52.516,29.322 51.621,30.220 51.621,31.323 C51.621,32.427 52.516,33.324 53.615,33.324 C54.715,33.324 55.610,32.427 55.610,31.323 C55.610,30.220 54.715,29.322 53.615,29.322 ZM37.051,37.327 C33.752,37.327 31.069,34.634 31.069,31.323 C31.069,28.013 33.752,25.320 37.051,25.320 C40.350,25.320 43.034,28.013 43.034,31.323 C43.034,34.634 40.350,37.327 37.051,37.327 ZM37.051,29.322 C35.951,29.322 35.057,30.220 35.057,31.323 C35.057,32.427 35.951,33.324 37.051,33.324 C38.151,33.324 39.045,32.427 39.045,31.323 C39.045,30.220 38.151,29.322 37.051,29.322 ZM20.487,37.327 C17.188,37.327 14.505,34.634 14.505,31.323 C14.505,28.013 17.188,25.320 20.487,25.320 C23.786,25.320 26.470,28.013 26.470,31.323 C26.470,34.634 23.786,37.327 20.487,37.327 ZM20.487,29.322 C19.387,29.322 18.493,30.220 18.493,31.323 C18.493,32.427 19.387,33.324 20.487,33.324 C21.587,33.324 22.481,32.427 22.481,31.323 C22.481,30.220 21.587,29.322 20.487,29.322 Z" class="cls-1"/>
</svg>
