<svg xmlns="http://www.w3.org/2000/svg" xmlns:xlink="http://www.w3.org/1999/xlink" preserveAspectRatio="xMidYMid" width="96.812" height="98" viewBox="0 0 96.812 98">
  <defs>
    <style>
      .cls-1 {
        fill: #e661d2;
        fill-rule: evenodd;
      }
    </style>
  </defs>
  <path d="M94.815,30.079 C93.712,30.079 92.818,29.181 92.818,28.073 C92.818,14.804 82.067,4.009 68.853,4.009 C55.639,4.009 44.889,14.804 44.889,28.073 C44.889,29.181 43.995,30.079 42.892,30.079 C41.789,30.079 40.895,29.181 40.895,28.073 C40.895,12.593 53.437,-0.001 68.853,-0.001 C84.270,-0.001 96.812,12.593 96.812,28.073 C96.812,29.181 95.918,30.079 94.815,30.079 ZM50.731,72.899 L53.723,69.895 C55.671,67.938 58.963,66.674 62.111,66.674 C63.035,66.674 63.910,66.785 64.708,67.004 L75.280,69.902 C78.766,70.852 82.402,74.303 83.553,77.758 L83.955,78.975 C85.129,82.515 83.992,87.356 81.365,89.994 L75.644,95.738 C74.111,97.270 70.507,97.991 70.130,97.991 L69.560,97.993 C50.962,97.993 33.491,90.733 20.365,77.549 C7.228,64.360 -0.191,46.081 0.011,27.400 C0.011,27.076 0.767,23.558 2.275,22.053 L7.990,16.310 C9.877,14.418 12.920,13.243 15.931,13.243 C17.021,13.243 18.042,13.399 18.967,13.709 L20.179,14.118 C23.612,15.266 27.052,18.916 28.005,22.425 L30.886,33.040 C31.859,36.620 30.594,41.462 28.006,44.061 L25.014,47.066 C28.729,59.409 38.439,69.162 50.731,72.899 ZM20.842,47.004 C20.656,46.312 20.853,45.571 21.358,45.064 L25.182,41.225 C26.767,39.633 27.632,36.301 27.033,34.096 L24.151,23.480 C23.546,21.250 21.097,18.653 18.911,17.921 L17.699,17.512 C17.195,17.344 16.582,17.254 15.931,17.254 C13.999,17.254 11.943,18.014 10.814,19.146 L5.096,24.893 C4.767,25.228 4.254,26.624 4.003,27.660 C3.877,45.207 10.863,62.338 23.189,74.713 C35.561,87.139 52.029,93.983 69.560,93.983 L69.944,93.981 C70.841,93.794 72.460,93.246 72.824,92.897 L78.541,87.157 C80.106,85.586 80.865,82.353 80.165,80.239 L79.764,79.024 C79.034,76.833 76.448,74.375 74.231,73.772 L63.658,70.873 C63.202,70.749 62.681,70.685 62.111,70.685 C60.034,70.685 57.747,71.526 56.547,72.730 L52.724,76.570 C52.218,77.078 51.482,77.276 50.791,77.088 C36.243,73.140 24.767,61.613 20.842,47.004 ZM72.167,28.798 C72.167,30.633 70.681,32.127 68.853,32.127 C67.026,32.127 65.539,30.633 65.539,28.798 C65.539,26.963 67.026,25.471 68.853,25.471 C70.681,25.471 72.167,26.963 72.167,28.798 ZM68.173,28.798 C68.173,29.175 68.478,29.481 68.853,29.481 C69.228,29.481 69.533,29.175 69.533,28.798 C69.533,28.422 69.228,28.116 68.853,28.116 C68.478,28.116 68.173,28.422 68.173,28.798 ZM58.259,28.073 C58.259,29.181 57.365,30.079 56.262,30.079 C55.159,30.079 54.265,29.181 54.265,28.073 C54.265,19.996 60.809,13.424 68.853,13.424 C76.897,13.424 83.441,19.996 83.441,28.073 C83.441,29.181 82.547,30.079 81.444,30.079 C80.341,30.079 79.447,29.181 79.447,28.073 C79.447,22.208 74.694,17.435 68.853,17.435 C63.011,17.435 58.259,22.208 58.259,28.073 ZM52.479,55.685 C47.375,55.685 43.223,51.515 43.223,46.390 C43.223,41.265 47.375,37.096 52.479,37.096 L82.144,37.096 C87.248,37.096 91.400,41.265 91.400,46.390 C91.400,51.515 87.248,55.685 82.144,55.685 L52.479,55.685 ZM87.406,46.390 C87.406,43.477 85.045,41.107 82.144,41.107 L52.479,41.107 C49.578,41.107 47.218,43.477 47.218,46.390 C47.218,49.304 49.578,51.675 52.479,51.675 L82.144,51.675 C85.045,51.675 87.406,49.304 87.406,46.390 ZM77.957,49.927 C76.016,49.927 74.436,48.340 74.436,46.390 C74.436,44.441 76.016,42.855 77.957,42.855 C79.898,42.855 81.478,44.441 81.478,46.390 C81.478,48.340 79.898,49.927 77.957,49.927 ZM77.957,44.860 C77.116,44.860 76.433,45.546 76.433,46.390 C76.433,47.235 77.116,47.921 77.957,47.921 C78.798,47.921 79.481,47.235 79.481,46.390 C79.481,45.546 78.798,44.860 77.957,44.860 ZM73.198,44.860 L71.992,44.860 L71.992,49.038 C71.992,49.591 71.546,50.040 70.994,50.040 C70.442,50.040 69.995,49.591 69.995,49.038 L69.995,44.860 L68.788,44.860 C68.236,44.860 67.790,44.411 67.790,43.857 C67.790,43.304 68.236,42.855 68.788,42.855 L73.198,42.855 C73.750,42.855 74.197,43.304 74.197,43.857 C74.197,44.411 73.750,44.860 73.198,44.860 ZM63.671,50.040 C61.905,50.040 60.467,48.598 60.467,46.824 L60.467,43.857 C60.467,43.304 60.914,42.855 61.466,42.855 C62.018,42.855 62.464,43.304 62.464,43.857 L62.464,46.824 C62.464,47.492 63.006,48.035 63.671,48.035 C64.337,48.035 64.878,47.492 64.878,46.824 L64.878,43.857 C64.878,43.304 65.324,42.855 65.876,42.855 C66.428,42.855 66.875,43.304 66.875,43.857 L66.875,46.824 C66.875,48.598 65.438,50.040 63.671,50.040 ZM58.554,50.040 C58.002,50.040 57.555,49.591 57.555,49.038 L57.555,48.328 L55.142,48.328 L55.142,49.038 C55.142,49.591 54.695,50.040 54.144,50.040 C53.592,50.040 53.145,49.591 53.145,49.038 L53.145,46.072 C53.145,44.298 54.582,42.855 56.349,42.855 C58.115,42.855 59.552,44.298 59.552,46.072 L59.552,49.038 C59.552,49.591 59.105,50.040 58.554,50.040 ZM57.555,46.072 C57.555,45.404 57.014,44.860 56.349,44.860 C55.684,44.860 55.142,45.404 55.142,46.072 L55.142,46.322 L57.555,46.322 L57.555,46.072 Z" class="cls-1"/>
</svg>
