<svg xmlns="http://www.w3.org/2000/svg" xmlns:xlink="http://www.w3.org/1999/xlink" preserveAspectRatio="xMidYMid" width="96" height="114" viewBox="0 0 96 114">
  <defs>
    <style>
      .cls-1 {
        fill: #8dc63f;
        fill-rule: evenodd;
      }
    </style>
  </defs>
  <path d="M89.985,83.652 L51.794,83.652 L70.371,110.854 C70.995,111.768 70.761,113.017 69.848,113.642 C69.501,113.879 69.108,113.992 68.719,113.992 C68.079,113.992 67.451,113.686 67.063,113.118 L50.000,88.134 L50.000,111.986 C50.000,113.094 49.103,113.992 47.997,113.992 C46.891,113.992 45.994,113.094 45.994,111.986 L45.994,88.134 L28.932,113.118 C28.544,113.686 27.915,113.992 27.276,113.992 C26.887,113.992 26.493,113.879 26.147,113.642 C25.234,113.017 25.000,111.769 25.624,110.854 L44.200,83.652 L6.008,83.652 C2.694,83.652 -0.001,80.953 -0.001,77.635 L-0.001,10.598 C-0.001,7.280 2.694,4.581 6.008,4.581 L27.854,4.581 L27.854,2.004 C27.854,0.896 28.751,-0.002 29.857,-0.002 L66.137,-0.002 C67.244,-0.002 68.141,0.896 68.141,2.004 L68.141,4.581 L89.985,4.581 C93.299,4.581 95.995,7.280 95.995,10.598 L95.995,77.635 C95.995,80.953 93.299,83.652 89.985,83.652 ZM64.134,4.009 L31.860,4.009 L31.860,4.562 L64.134,4.562 L64.134,4.009 ZM91.989,10.598 C91.989,9.492 91.090,8.592 89.985,8.592 L6.008,8.592 C4.904,8.592 4.005,9.492 4.005,10.598 L4.005,77.635 C4.005,78.741 4.904,79.641 6.008,79.641 L47.984,79.641 L47.986,79.641 L48.003,79.641 C48.007,79.641 48.011,79.641 48.014,79.641 L89.985,79.641 C91.090,79.641 91.989,78.741 91.989,77.635 L91.989,10.598 ZM82.816,71.165 L12.147,71.165 C11.323,71.165 10.585,70.661 10.283,69.894 C9.981,69.127 10.178,68.254 10.781,67.692 L23.505,55.814 C24.171,55.192 25.176,55.099 25.944,55.587 L34.550,61.053 L51.373,48.774 C51.974,48.335 52.769,48.267 53.436,48.594 L62.058,52.832 L82.012,44.081 C82.632,43.811 83.345,43.869 83.913,44.240 C84.478,44.610 84.820,45.241 84.820,45.919 L84.820,69.159 C84.820,70.267 83.923,71.165 82.816,71.165 ZM80.813,48.987 L62.814,56.880 C62.273,57.116 61.657,57.103 61.128,56.843 L52.756,52.729 L35.809,65.099 C35.144,65.585 34.250,65.614 33.556,65.172 L25.105,59.805 L17.233,67.154 L80.813,67.154 L80.813,48.987 ZM81.612,37.471 L55.305,37.471 C54.199,37.471 53.302,36.573 53.302,35.466 C53.302,34.358 54.199,33.460 55.305,33.460 L81.612,33.460 C82.718,33.460 83.615,34.358 83.615,35.466 C83.615,36.573 82.718,37.471 81.612,37.471 ZM81.612,26.115 L55.305,26.115 C54.199,26.115 53.302,25.217 53.302,24.109 C53.302,23.001 54.199,22.103 55.305,22.103 L81.612,22.103 C82.718,22.103 83.615,23.001 83.615,24.109 C83.615,25.217 82.718,26.115 81.612,26.115 ZM43.086,33.492 L32.932,33.492 C31.548,33.492 30.421,32.363 30.421,30.977 L30.421,20.811 C30.421,19.423 31.543,18.295 32.923,18.295 C32.954,18.295 33.007,18.296 33.038,18.297 C39.884,18.612 45.282,24.018 45.596,30.872 C45.629,31.546 45.378,32.218 44.909,32.710 C44.436,33.207 43.772,33.492 43.086,33.492 ZM34.428,22.511 L34.428,29.480 L41.387,29.480 C40.623,25.989 37.912,23.276 34.428,22.511 ZM39.000,36.178 C39.469,36.671 39.721,37.343 39.688,38.021 C39.363,45.075 33.578,50.604 26.517,50.604 C26.516,50.604 26.517,50.604 26.516,50.604 C23.310,50.603 20.083,49.445 17.181,47.254 C16.990,47.109 16.821,46.939 16.677,46.749 C13.105,42.009 12.339,36.559 14.575,31.793 C16.663,27.344 21.003,24.439 25.900,24.213 C27.337,24.137 28.519,25.309 28.519,26.728 L28.519,35.396 L37.176,35.396 C37.862,35.396 38.526,35.681 39.000,36.178 ZM27.024,39.407 C25.640,39.407 24.513,38.279 24.513,36.892 L24.513,28.420 C21.790,29.020 19.434,30.873 18.202,33.499 C16.643,36.821 17.211,40.700 19.755,44.171 C21.910,45.755 24.244,46.592 26.517,46.592 C26.517,46.592 26.517,46.592 26.517,46.592 C30.894,46.592 34.566,43.543 35.478,39.407 L27.024,39.407 Z" class="cls-1"/>
</svg>
