<svg xmlns="http://www.w3.org/2000/svg" xmlns:xlink="http://www.w3.org/1999/xlink" preserveAspectRatio="xMidYMid" width="82" height="105" viewBox="0 0 82 105">
  <defs>
    <style>
      .cls-1 {
        fill: #feba01;
        fill-rule: evenodd;
      }
    </style>
  </defs>
  <path d="M75.559,104.996 L18.440,104.996 C14.890,104.996 12.000,102.100 12.000,98.540 L12.000,94.205 L6.440,94.205 C2.890,94.205 -0.000,91.308 -0.000,87.748 L-0.000,6.459 C-0.000,2.898 2.890,0.001 6.440,0.001 L63.559,0.001 C67.110,0.001 70.000,2.898 70.000,6.459 L70.000,10.793 L75.559,10.793 C79.110,10.793 82.000,13.690 82.000,17.249 L82.000,98.540 C82.000,102.100 79.110,104.996 75.559,104.996 ZM66.000,6.459 C66.000,5.109 64.905,4.011 63.559,4.011 L6.440,4.011 C5.095,4.011 4.000,5.109 4.000,6.459 L4.000,87.748 C4.000,89.097 5.095,90.195 6.440,90.195 L63.559,90.195 C64.905,90.195 66.000,89.097 66.000,87.748 L66.000,6.459 ZM78.000,17.249 C78.000,15.900 76.904,14.803 75.559,14.803 L70.000,14.803 L70.000,87.748 C70.000,91.308 67.110,94.205 63.559,94.205 L16.000,94.205 L16.000,98.540 C16.000,99.889 17.095,100.986 18.440,100.986 L75.559,100.986 C76.904,100.986 78.000,99.889 78.000,98.540 L78.000,17.249 ZM57.264,80.751 L23.875,80.751 C22.770,80.751 21.875,79.853 21.875,78.746 C21.875,77.638 22.770,76.741 23.875,76.741 L57.264,76.741 C58.368,76.741 59.264,77.638 59.264,78.746 C59.264,79.853 58.368,80.751 57.264,80.751 ZM23.875,65.388 L51.465,65.388 C52.569,65.388 53.465,66.286 53.465,67.393 C53.465,68.500 52.569,69.398 51.465,69.398 L23.875,69.398 C22.770,69.398 21.875,68.500 21.875,67.393 C21.875,66.286 22.770,65.388 23.875,65.388 ZM57.264,56.788 L23.875,56.788 C22.770,56.788 21.875,55.890 21.875,54.783 C21.875,53.675 22.770,52.778 23.875,52.778 L57.264,52.778 C58.368,52.778 59.264,53.675 59.264,54.783 C59.264,55.890 58.368,56.788 57.264,56.788 ZM54.402,37.513 C53.820,37.856 52.758,38.402 51.376,38.766 C51.104,39.599 50.775,40.430 50.395,41.248 C49.986,42.382 48.831,43.590 46.721,43.767 C46.366,43.796 45.888,43.813 45.257,43.813 C43.068,43.813 31.280,43.335 27.924,42.064 C26.357,41.597 24.636,40.497 23.247,39.097 L19.979,39.097 C19.847,39.097 19.718,39.083 19.592,39.058 L16.306,39.058 C15.201,39.058 14.306,38.160 14.306,37.053 C14.306,35.946 15.201,35.048 16.306,35.048 L18.075,35.048 C18.133,34.391 18.213,33.774 18.322,33.211 L12.764,33.211 C11.659,33.211 10.764,32.313 10.764,31.206 C10.764,30.098 11.659,29.201 12.764,29.201 L19.810,29.201 C20.821,27.592 22.028,26.846 22.812,26.509 C24.222,24.944 26.058,23.697 27.818,23.126 C28.552,22.887 29.435,22.617 30.583,22.448 C31.764,22.276 33.395,22.091 35.309,21.912 C39.154,21.556 43.168,21.317 45.298,21.317 C46.624,21.317 49.681,21.317 50.488,24.145 C50.789,24.786 51.065,25.479 51.307,26.194 C54.694,27.076 57.931,29.504 57.931,32.485 C57.932,34.378 56.679,36.163 54.402,37.513 ZM49.464,29.907 C48.673,29.795 48.023,29.222 47.812,28.449 C47.549,27.479 47.199,26.532 46.802,25.712 C46.757,25.618 46.719,25.521 46.688,25.420 C46.360,25.327 45.658,25.327 45.298,25.327 C43.278,25.327 39.412,25.559 35.679,25.904 C33.834,26.078 32.270,26.255 31.160,26.416 C30.323,26.539 29.686,26.735 29.052,26.941 C28.217,27.211 26.914,27.974 25.806,29.201 L26.348,29.201 C27.452,29.201 28.348,30.098 28.348,31.206 C28.348,32.313 27.452,33.211 26.348,33.211 L22.428,33.211 C22.285,33.733 22.165,34.338 22.086,35.048 L24.121,35.048 C24.804,35.048 25.405,35.392 25.766,35.916 C26.880,37.170 28.231,37.986 29.106,38.232 C29.180,38.252 29.251,38.277 29.320,38.305 C31.363,39.139 41.800,39.803 45.257,39.803 C45.743,39.803 46.112,39.794 46.387,39.771 C46.542,39.758 46.640,39.733 46.697,39.714 C46.706,39.692 46.717,39.669 46.727,39.648 C47.210,38.618 47.593,37.571 47.864,36.535 C48.069,35.757 48.718,35.175 49.514,35.061 C50.848,34.868 51.877,34.350 52.371,34.058 C53.507,33.386 53.931,32.737 53.931,32.486 C53.919,31.921 52.127,30.281 49.464,29.907 ZM32.014,17.760 L14.000,17.760 C12.895,17.760 12.000,16.862 12.000,15.755 C12.000,14.648 12.895,13.750 14.000,13.750 L32.014,13.750 C33.118,13.750 34.014,14.648 34.014,15.755 C34.014,16.862 33.118,17.760 32.014,17.760 ZM14.000,51.720 C15.685,51.720 17.056,53.094 17.056,54.783 C17.056,56.473 15.685,57.847 14.000,57.847 C12.314,57.847 10.943,56.473 10.943,54.783 C10.943,53.094 12.314,51.720 14.000,51.720 ZM14.000,55.729 C14.520,55.729 14.943,55.304 14.943,54.783 C14.943,54.261 14.520,53.837 14.000,53.837 C13.479,53.837 13.056,54.261 13.056,54.783 C13.056,55.304 13.479,55.729 14.000,55.729 ZM14.000,64.330 C15.685,64.330 17.056,65.704 17.056,67.393 C17.056,69.083 15.685,70.457 14.000,70.457 C12.314,70.457 10.943,69.083 10.943,67.393 C10.943,65.704 12.314,64.330 14.000,64.330 ZM14.000,68.340 C14.520,68.340 14.943,67.915 14.943,67.393 C14.943,66.871 14.520,66.447 14.000,66.447 C13.479,66.447 13.056,66.871 13.056,67.393 C13.056,67.915 13.479,68.340 14.000,68.340 ZM14.000,75.682 C15.685,75.682 17.056,77.057 17.056,78.746 C17.056,80.434 15.685,81.809 14.000,81.809 C12.314,81.809 10.943,80.434 10.943,78.746 C10.943,77.057 12.314,75.682 14.000,75.682 ZM14.000,79.692 C14.520,79.692 14.943,79.267 14.943,78.746 C14.943,78.224 14.520,77.799 14.000,77.799 C13.479,77.799 13.056,78.224 13.056,78.746 C13.056,79.267 13.479,79.692 14.000,79.692 Z" class="cls-1"/>
</svg>
