<?xml version="1.0" encoding="utf-8"?>
<!-- Generator: Adobe Illustrator 18.0.0, SVG Export Plug-In . SVG Version: 6.00 Build 0)  -->
<!DOCTYPE svg PUBLIC "-//W3C//DTD SVG 1.1//EN" "http://www.w3.org/Graphics/SVG/1.1/DTD/svg11.dtd">
<svg version="1.1" id="Objects" xmlns="http://www.w3.org/2000/svg" xmlns:xlink="http://www.w3.org/1999/xlink" x="0px" y="0px"
	 viewBox="0 0 211.5 196.5" width="211" height="196" enable-background="new 0 0 211.5 196.5" xml:space="preserve">
<g>
	<path fill="#EF6541" d="M57.7,159.9l-10-10.9l-10-10.9c0,0-11.9,6.6-18.9,18.6c0,0,3.9-1.4,6.3-1.5c0.4,0,0.8,0,1.2,0.2
		c2.7,1.2-12.3,11-17.8,29.4c18.8-3.8,30-17.9,30.9-15.1c0.1,0.4,0.2,0.8,0.1,1.2c-0.4,2.4-2.1,6.1-2.1,6.1
		C50.1,171.2,57.7,159.9,57.7,159.9z"/>
	
		<rect x="36.5" y="136.9" transform="matrix(0.6748 0.738 -0.738 0.6748 122.6346 5.9169)" fill="#004057" width="36.2" height="10.5"/>
	<g>
		<path fill="#004057" d="M76.6,77.2c0,0-11-29-63.8,27.1c0,0,29.7-14.8,37.1,6.4L76.6,77.2z"/>
		<path fill="#004057" d="M121.3,126c0,0,27.9,13.6-32.7,61.1c0,0,17.4-28.3-3-37.5L121.3,126z"/>
	</g>
	<g>
		<path fill="#BB2B1D" d="M197.2,11.7L197.2,11.7c-13.5-14.7-62.8,8.4-110.2,51.7c-21.2,19.4-38.4,39.5-49.7,57.1L56,140.9
			L197.2,11.7z"/>
		<path fill="#BB2B1D" d="M197.2,11.7L197.2,11.7c13.5,14.7-14,61.8-61.3,105.1c-21.2,19.4-42.7,34.7-61.3,44.4L56,140.9L197.2,11.7
			z"/>
	</g>
	<circle fill="#004057" cx="88.1" cy="111.5" r="14"/>
	<path fill="#4AD0E4" d="M96.3,113.1c0.5-2.5-0.1-5.3-2-7.3c-3.1-3.4-8.4-3.6-11.8-0.5c-1.7,1.6-2.7,3.8-2.7,6
		C83.2,110.5,89.6,109.7,96.3,113.1z"/>
	<path fill="#F0F0F0" d="M79.8,111.3c0,2.1,0.7,4.2,2.2,5.8c3.1,3.4,8.4,3.6,11.8,0.5c1.3-1.2,2.2-2.8,2.5-4.5
		C89.6,109.7,83.2,110.5,79.8,111.3z"/>
	<g>
		<path fill="#FFFFFF" d="M140.3,112.7c3-2.9,6-5.7,8.8-8.6c-8.1-23.5-25.6-42.6-48.2-52.7c-3.1,2.6-6.2,5.2-9.3,8
			C115.5,68.2,133.6,88.1,140.3,112.7z"/>
		<path fill="#FFFFFF" d="M190.3,51.9c1.9-3.4,3.6-6.6,5-9.7c-5.8-13.3-15.9-24.3-28.7-31.3c-3.2,1.1-6.6,2.5-10.1,4.1
			C172.8,21.5,185.3,35.1,190.3,51.9z"/>
		<path fill="#FFFFFF" d="M124.1,127.2c3-2.5,6-5.1,9-7.8C125,95.5,107.3,76.2,84.3,66c-3,2.8-5.8,5.5-8.6,8.3
			C99.3,83.2,117.3,102.8,124.1,127.2z"/>
	</g>
	<defs>
		<filter id="Adobe_OpacityMaskFilter" filterUnits="userSpaceOnUse" x="69" y="71.4" width="102.8" height="84.1">
			<feFlood  style="flood-color:white;flood-opacity:1" result="back"/>
			<feBlend  in="SourceGraphic" in2="back" mode="normal"/>
		</filter>
	</defs>
	<mask maskUnits="userSpaceOnUse" x="69" y="71.4" width="102.8" height="84.1" id="SVGID_1_">
		<g filter="url(#Adobe_OpacityMaskFilter)">
			<defs>
				<filter id="Adobe_OpacityMaskFilter_1_" filterUnits="userSpaceOnUse" x="69" y="71.4" width="102.8" height="84.1">
					<feFlood  style="flood-color:white;flood-opacity:1" result="back"/>
					<feBlend  in="SourceGraphic" in2="back" mode="normal"/>
				</filter>
			</defs>
			<mask maskUnits="userSpaceOnUse" x="69" y="71.4" width="102.8" height="84.1" id="SVGID_1_">
				<g filter="url(#Adobe_OpacityMaskFilter_1_)">
				</g>
			</mask>
			
				<linearGradient id="SVGID_2_" gradientUnits="userSpaceOnUse" x1="310.1941" y1="127.52" x2="307.1789" y2="266.2263" gradientTransform="matrix(-0.6529 -0.7575 -0.7575 0.6529 462.4657 224.5232)">
				<stop  offset="0.129" style="stop-color:#808080"/>
				<stop  offset="0.2557" style="stop-color:#7A7A7A"/>
				<stop  offset="0.4232" style="stop-color:#696969"/>
				<stop  offset="0.6134" style="stop-color:#4E4E4E"/>
				<stop  offset="0.819" style="stop-color:#282828"/>
				<stop  offset="1" style="stop-color:#000000"/>
			</linearGradient>
			<path mask="url(#SVGID_1_)" fill="url(#SVGID_2_)" d="M171.8,71.4c0,0-1.3,1.5-3.8,4c-1.2,1.3-2.7,2.8-4.5,4.5
				c-1.7,1.7-3.7,3.6-5.9,5.7c-2.2,2.1-4.6,4.2-7.2,6.5c-2.6,2.2-5.3,4.6-8.3,7c-2.9,2.4-5.9,4.8-9,7.2c-1.6,1.2-3.1,2.4-4.7,3.6
				c-1.6,1.2-3.2,2.3-4.8,3.5c-3.2,2.4-6.5,4.6-9.8,6.8c-0.8,0.5-1.6,1.1-2.4,1.6c-0.8,0.5-1.6,1-2.4,1.5c-1.6,1-3.2,2-4.8,3
				c-1.6,1-3.1,2-4.7,2.8c-1.5,0.9-3.1,1.8-4.5,2.6c-1.5,0.8-2.9,1.7-4.3,2.4c-1.4,0.7-2.8,1.5-4.1,2.1c-2.6,1.4-5,2.7-7.1,3.7
				c-2.2,1-4,1.9-5.6,2.6c-3.1,1.5-4.9,2.3-4.9,2.3l4.5,10.4c0,0,1.8-1,4.9-2.8c1.5-0.9,3.4-2,5.6-3.3c2.1-1.3,4.5-2.9,7.1-4.5
				c1.3-0.8,2.6-1.7,4-2.6c1.4-0.9,2.8-1.9,4.2-2.9c1.4-1,2.9-2,4.4-3.1c1.5-1,3-2.2,4.6-3.3c1.5-1.2,3.1-2.3,4.6-3.5
				c0.8-0.6,1.6-1.2,2.4-1.8c0.8-0.6,1.6-1.3,2.3-1.9c3.1-2.5,6.3-5.1,9.4-7.8c1.5-1.3,3.1-2.7,4.6-4c1.5-1.3,3-2.7,4.5-4.1
				c3-2.7,5.8-5.4,8.5-8.1c2.7-2.6,5.3-5.3,7.7-7.8c2.4-2.6,4.6-4.9,6.6-7.2C167,77.9,171.8,71.4,171.8,71.4z"/>
		</g>
	</mask>
	
		<linearGradient id="SVGID_3_" gradientUnits="userSpaceOnUse" x1="310.1941" y1="127.52" x2="307.1789" y2="266.2263" gradientTransform="matrix(-0.6529 -0.7575 -0.7575 0.6529 462.4657 224.5232)">
		<stop  offset="0.129" style="stop-color:#E8EEED"/>
		<stop  offset="0.4991" style="stop-color:#EEF2F2"/>
		<stop  offset="0.9872" style="stop-color:#FEFFFF"/>
		<stop  offset="1" style="stop-color:#FFFFFF"/>
	</linearGradient>
	<path fill="url(#SVGID_3_)" d="M171.8,71.4c0,0-1.3,1.5-3.8,4c-1.2,1.3-2.7,2.8-4.5,4.5c-1.7,1.7-3.7,3.6-5.9,5.7
		c-2.2,2.1-4.6,4.2-7.2,6.5c-2.6,2.2-5.3,4.6-8.3,7c-2.9,2.4-5.9,4.8-9,7.2c-1.6,1.2-3.1,2.4-4.7,3.6c-1.6,1.2-3.2,2.3-4.8,3.5
		c-3.2,2.4-6.5,4.6-9.8,6.8c-0.8,0.5-1.6,1.1-2.4,1.6c-0.8,0.5-1.6,1-2.4,1.5c-1.6,1-3.2,2-4.8,3c-1.6,1-3.1,2-4.7,2.8
		c-1.5,0.9-3.1,1.8-4.5,2.6c-1.5,0.8-2.9,1.7-4.3,2.4c-1.4,0.7-2.8,1.5-4.1,2.1c-2.6,1.4-5,2.7-7.1,3.7c-2.2,1-4,1.9-5.6,2.6
		c-3.1,1.5-4.9,2.3-4.9,2.3l4.5,10.4c0,0,1.8-1,4.9-2.8c1.5-0.9,3.4-2,5.6-3.3c2.1-1.3,4.5-2.9,7.1-4.5c1.3-0.8,2.6-1.7,4-2.6
		c1.4-0.9,2.8-1.9,4.2-2.9c1.4-1,2.9-2,4.4-3.1c1.5-1,3-2.2,4.6-3.3c1.5-1.2,3.1-2.3,4.6-3.5c0.8-0.6,1.6-1.2,2.4-1.8
		c0.8-0.6,1.6-1.3,2.3-1.9c3.1-2.5,6.3-5.1,9.4-7.8c1.5-1.3,3.1-2.7,4.6-4c1.5-1.3,3-2.7,4.5-4.1c3-2.7,5.8-5.4,8.5-8.1
		c2.7-2.6,5.3-5.3,7.7-7.8c2.4-2.6,4.6-4.9,6.6-7.2C167,77.9,171.8,71.4,171.8,71.4z"/>
	<defs>
		<filter id="Adobe_OpacityMaskFilter_2_" filterUnits="userSpaceOnUse" x="47.9" y="11.7" width="143.1" height="119.6">
			<feFlood  style="flood-color:white;flood-opacity:1" result="back"/>
			<feBlend  in="SourceGraphic" in2="back" mode="normal"/>
		</filter>
	</defs>
	<mask maskUnits="userSpaceOnUse" x="47.9" y="11.7" width="143.1" height="119.6" id="SVGID_4_">
		<g filter="url(#Adobe_OpacityMaskFilter_2_)">
			<defs>
				<filter id="Adobe_OpacityMaskFilter_3_" filterUnits="userSpaceOnUse" x="47.9" y="11.7" width="143.1" height="119.6">
					<feFlood  style="flood-color:white;flood-opacity:1" result="back"/>
					<feBlend  in="SourceGraphic" in2="back" mode="normal"/>
				</filter>
			</defs>
			<mask maskUnits="userSpaceOnUse" x="47.9" y="11.7" width="143.1" height="119.6" id="SVGID_4_">
				<g filter="url(#Adobe_OpacityMaskFilter_3_)">
				</g>
			</mask>
			
				<linearGradient id="SVGID_5_" gradientUnits="userSpaceOnUse" x1="138.5853" y1="54.7876" x2="138.8799" y2="243.6077" gradientTransform="matrix(0.6748 0.738 -0.738 0.6748 131.2884 -138.9943)">
				<stop  offset="0.4731" style="stop-color:#808080"/>
				<stop  offset="0.5216" style="stop-color:#7A7A7A"/>
				<stop  offset="0.5857" style="stop-color:#696969"/>
				<stop  offset="0.6585" style="stop-color:#4E4E4E"/>
				<stop  offset="0.7372" style="stop-color:#282828"/>
				<stop  offset="0.8065" style="stop-color:#000000"/>
			</linearGradient>
			<path mask="url(#SVGID_4_)" fill="url(#SVGID_5_)" d="M151.6,34.2c17.4-13.7,39.5-22.4,39.5-22.4c-24.7,1.9-46,15.8-46,15.8
				c-57.5,28.6-97.2,97.6-97.2,97.6l7.7,6.1C110.2,61.4,151.6,34.2,151.6,34.2z"/>
		</g>
	</mask>
	
		<linearGradient id="SVGID_6_" gradientUnits="userSpaceOnUse" x1="138.5853" y1="54.7876" x2="138.8799" y2="243.6077" gradientTransform="matrix(0.6748 0.738 -0.738 0.6748 131.2884 -138.9943)">
		<stop  offset="0.4731" style="stop-color:#E8EEED"/>
		<stop  offset="0.6148" style="stop-color:#EEF2F2"/>
		<stop  offset="0.8016" style="stop-color:#FEFFFF"/>
		<stop  offset="0.8065" style="stop-color:#FFFFFF"/>
	</linearGradient>
	<path fill="url(#SVGID_6_)" d="M151.6,34.2c17.4-13.7,39.5-22.4,39.5-22.4c-24.7,1.9-46,15.8-46,15.8
		c-57.5,28.6-97.2,97.6-97.2,97.6l7.7,6.1C110.2,61.4,151.6,34.2,151.6,34.2z"/>
	<circle fill="#004057" cx="156.2" cy="49.2" r="18.1"/>
	<path fill="#4AD0E4" d="M166.7,51.4c0.7-3.3-0.2-6.8-2.6-9.5c-4-4.4-10.8-4.7-15.2-0.7c-2.3,2.1-3.4,4.9-3.5,7.7
		C149.8,48,158.1,47,166.7,51.4z"/>
	<path fill="#F0F0F0" d="M145.4,49c-0.1,2.7,0.9,5.4,2.8,7.5c4,4.4,10.8,4.7,15.2,0.7c1.7-1.6,2.8-3.6,3.3-5.8
		C158.1,47,149.8,48,145.4,49z"/>
</g>
</svg>
