<svg xmlns="http://www.w3.org/2000/svg" xmlns:xlink="http://www.w3.org/1999/xlink" preserveAspectRatio="xMidYMid" width="1920" height="724" viewBox="0 0 1920 724">
  <defs>
    <style>
      .cls-1 {
        fill: #fff;
        opacity: 0.5;
        fill-rule: evenodd;
      }
    </style>
  </defs>
  <path d="M2238.998,172.870 L2234.430,172.870 L2233.017,177.221 L2231.603,172.870 L2227.036,172.870 L2230.739,170.180 L2229.326,165.831 L2233.017,168.519 L2236.720,165.831 L2235.306,170.180 L2238.998,172.870 ZM2160.618,450.531 L2158.165,458.078 L2155.712,450.531 L2147.793,450.531 L2154.205,445.864 L2151.752,438.316 L2158.165,442.980 L2164.578,438.316 L2162.125,445.864 L2168.538,450.531 L2160.618,450.531 ZM2080.358,25.461 L2078.513,24.116 L2076.661,25.461 L2077.368,23.286 L2075.522,21.940 L2077.800,21.940 L2078.513,19.765 L2079.213,21.940 L2081.503,21.940 L2079.651,23.286 L2080.358,25.461 ZM1949.128,312.199 L1946.681,319.746 L1944.227,312.199 L1936.302,312.199 L1942.715,307.532 L1940.268,299.984 L1946.681,304.649 L1953.094,299.984 L1950.640,307.532 L1957.053,312.199 L1949.128,312.199 ZM1859.418,460.932 L1858.004,465.283 L1856.591,460.932 L1852.023,460.932 L1855.721,458.242 L1854.307,453.893 L1858.004,456.581 L1861.701,453.893 L1860.288,458.242 L1863.985,460.932 L1859.418,460.932 ZM1823.271,7.044 L1821.858,11.396 L1820.444,7.044 L1815.877,7.044 L1819.568,4.354 L1818.155,0.006 L1821.858,2.693 L1825.549,0.006 L1824.136,4.354 L1827.838,7.044 L1823.271,7.044 ZM1804.552,715.292 L1801.731,723.995 L1798.904,715.292 L1789.770,715.292 L1797.164,709.911 L1794.337,701.209 L1801.731,706.589 L1809.125,701.209 L1806.298,709.911 L1813.693,715.292 L1804.552,715.292 ZM1752.286,155.503 L1749.832,163.050 L1747.380,155.503 L1739.460,155.503 L1745.873,150.836 L1743.420,143.288 L1749.832,147.952 L1756.245,143.288 L1753.792,150.836 L1760.205,155.503 L1752.286,155.503 ZM1647.086,350.615 L1644.260,359.314 L1641.439,350.615 L1632.298,350.615 L1639.692,345.234 L1636.866,336.531 L1644.260,341.909 L1651.654,336.531 L1648.827,345.234 L1656.221,350.615 L1647.086,350.615 ZM1546.268,28.824 L1542.734,39.699 L1539.201,28.824 L1527.783,28.824 L1537.028,22.099 L1533.489,11.220 L1542.734,17.943 L1551.980,11.220 L1548.440,22.099 L1557.686,28.824 L1546.268,28.824 ZM1497.570,594.096 L1496.156,598.448 L1494.743,594.096 L1490.176,594.096 L1493.879,591.406 L1492.465,587.058 L1496.156,589.745 L1499.859,587.058 L1498.446,591.406 L1502.137,594.096 L1497.570,594.096 ZM1430.322,202.186 L1422.928,196.808 L1415.534,202.186 L1418.361,193.483 L1410.967,188.102 L1420.101,188.102 L1422.928,179.403 L1425.755,188.102 L1434.890,188.102 L1427.496,193.483 L1430.322,202.186 ZM1323.418,518.183 L1314.178,511.460 L1304.939,518.183 L1308.466,507.305 L1299.227,500.579 L1310.650,500.579 L1314.178,489.704 L1317.706,500.579 L1329.130,500.579 L1319.890,507.305 L1323.418,518.183 ZM1298.245,336.681 L1294.543,333.993 L1290.851,336.681 L1292.264,332.332 L1288.562,329.642 L1293.129,329.642 L1294.543,325.291 L1295.956,329.642 L1300.523,329.642 L1296.832,332.332 L1298.245,336.681 ZM1143.180,330.984 L1136.767,326.320 L1130.355,330.984 L1132.807,323.437 L1126.394,318.770 L1134.320,318.770 L1136.767,311.222 L1139.220,318.770 L1147.146,318.770 L1140.733,323.437 L1143.180,330.984 ZM1107.798,64.143 L1100.404,58.765 L1093.010,64.143 L1095.837,55.441 L1088.443,50.060 L1097.584,50.060 L1100.404,41.361 L1103.231,50.060 L1112.365,50.060 L1104.971,55.441 L1107.798,64.143 ZM1056.197,598.448 L1052.501,595.761 L1048.803,598.448 L1050.217,594.099 L1046.520,591.409 L1051.087,591.409 L1052.501,587.058 L1053.914,591.409 L1058.481,591.409 L1054.784,594.099 L1056.197,598.448 ZM934.091,298.469 L927.678,293.805 L921.264,298.469 L923.718,290.922 L917.305,286.255 L925.224,286.255 L927.678,278.707 L930.130,286.255 L938.050,286.255 L931.637,290.922 L934.091,298.469 ZM722.606,160.138 L716.193,155.474 L709.780,160.138 L712.228,152.590 L705.814,147.923 L713.740,147.923 L716.193,140.376 L718.640,147.923 L726.566,147.923 L720.153,152.590 L722.606,160.138 ZM701.557,373.734 L697.860,371.046 L694.163,373.734 L695.576,369.385 L691.879,366.695 L696.446,366.695 L697.860,362.344 L699.273,366.695 L703.840,366.695 L700.144,369.385 L701.557,373.734 ZM633.941,25.461 L627.529,20.797 L621.116,25.461 L623.563,17.914 L617.150,13.246 L625.081,13.246 L627.529,5.699 L629.975,13.246 L637.907,13.246 L631.494,17.914 L633.941,25.461 ZM307.446,11.396 L303.749,8.708 L300.052,11.396 L301.465,7.047 L297.768,4.357 L302.335,4.357 L303.749,0.006 L305.162,4.357 L309.730,4.357 L306.033,7.047 L307.446,11.396 ZM297.336,129.807 L299.789,137.355 L293.376,132.691 L286.963,137.355 L289.410,129.807 L282.997,125.140 L290.923,125.140 L293.376,117.593 L295.823,125.140 L303.749,125.140 L297.336,129.807 ZM185.059,404.950 L181.361,402.263 L177.664,404.950 L179.078,400.602 L175.381,397.911 L179.948,397.911 L181.361,393.560 L182.775,397.911 L187.342,397.911 L183.645,400.602 L185.059,404.950 ZM141.687,143.049 L137.989,140.361 L134.293,143.049 L135.706,138.700 L132.009,136.010 L136.576,136.010 L137.989,131.658 L139.403,136.010 L143.970,136.010 L140.273,138.700 L141.687,143.049 ZM32.493,288.588 L26.080,283.924 L19.667,288.588 L22.120,281.041 L15.707,276.374 L23.627,276.374 L26.080,268.826 L28.533,276.374 L36.453,276.374 L30.040,281.041 L32.493,288.588 ZM-72.122,65.489 L-73.535,69.840 L-74.949,65.489 L-79.516,65.489 L-75.819,62.798 L-77.233,58.450 L-73.535,61.137 L-69.839,58.450 L-71.252,62.798 L-67.555,65.489 L-72.122,65.489 ZM-78.103,632.629 L-73.535,632.629 L-77.239,635.320 L-75.825,639.671 L-79.516,636.981 L-83.219,639.671 L-81.805,635.320 L-85.497,632.629 L-80.929,632.629 L-79.516,628.278 L-78.103,632.629 ZM-150.800,234.428 L-152.648,233.083 L-154.496,234.428 L-153.790,232.253 L-155.638,230.908 L-153.354,230.908 L-152.648,228.732 L-151.941,230.908 L-149.657,230.908 L-151.506,232.253 L-150.800,234.428 ZM-315.163,420.820 L-317.008,419.475 L-318.854,420.820 L-318.153,418.644 L-319.999,417.299 L-317.715,417.299 L-317.008,415.124 L-316.301,417.299 L-314.018,417.299 L-315.864,418.644 L-315.163,420.820 Z" class="cls-1"/>
</svg>
