<svg xmlns="http://www.w3.org/2000/svg" xmlns:xlink="http://www.w3.org/1999/xlink" preserveAspectRatio="xMidYMid" width="1920" height="836.719" viewBox="0 0 1920 836.719">
  <defs>
    <style>
      .cls-1 {
        fill: #fff;
        opacity: 0.5;
        fill-rule: evenodd;
      }
    </style>
  </defs>
  <path d="M2424.998,285.589 L2420.430,285.589 L2419.017,289.940 L2417.603,285.589 L2413.036,285.589 L2416.739,282.899 L2415.326,278.550 L2419.017,281.237 L2422.720,278.550 L2421.306,282.899 L2424.998,285.589 ZM2346.618,563.249 L2344.165,570.797 L2341.712,563.249 L2333.792,563.249 L2340.205,558.582 L2337.752,551.034 L2344.165,555.699 L2350.578,551.034 L2348.125,558.582 L2354.538,563.249 L2346.618,563.249 ZM2266.358,138.180 L2264.512,136.835 L2262.661,138.180 L2263.368,136.004 L2261.522,134.659 L2263.799,134.659 L2264.512,132.483 L2265.213,134.659 L2267.503,134.659 L2265.651,136.004 L2266.358,138.180 ZM2168.128,239.917 L2165.681,247.465 L2163.227,239.917 L2155.302,239.917 L2161.715,235.250 L2159.267,227.703 L2165.681,232.367 L2172.094,227.703 L2169.640,235.250 L2176.053,239.917 L2168.128,239.917 ZM2104.271,50.763 L2102.857,55.115 L2101.444,50.763 L2096.877,50.763 L2100.568,48.073 L2099.155,43.724 L2102.857,46.412 L2106.549,43.724 L2105.135,48.073 L2108.838,50.763 L2104.271,50.763 ZM2045.418,573.651 L2044.004,578.002 L2042.591,573.651 L2038.023,573.651 L2041.720,570.961 L2040.307,566.612 L2044.004,569.299 L2047.701,566.612 L2046.288,570.961 L2049.985,573.651 L2045.418,573.651 ZM1990.552,828.011 L1987.731,836.714 L1984.904,828.011 L1975.770,828.011 L1983.164,822.630 L1980.337,813.928 L1987.731,819.308 L1995.125,813.928 L1992.298,822.630 L1999.693,828.011 L1990.552,828.011 ZM1938.285,268.222 L1935.832,275.769 L1933.379,268.222 L1925.460,268.222 L1931.872,263.555 L1929.420,256.007 L1935.832,260.671 L1942.245,256.007 L1939.792,263.555 L1946.205,268.222 L1938.285,268.222 ZM1833.086,463.334 L1830.260,472.033 L1827.438,463.334 L1818.298,463.334 L1825.692,457.953 L1822.866,449.250 L1830.260,454.628 L1837.653,449.250 L1834.827,457.953 L1842.221,463.334 L1833.086,463.334 ZM1732.267,141.543 L1728.734,152.418 L1725.201,141.543 L1713.782,141.543 L1723.028,134.817 L1719.489,123.939 L1728.734,130.662 L1737.980,123.939 L1734.440,134.817 L1743.686,141.543 L1732.267,141.543 ZM1683.569,706.815 L1682.156,711.167 L1680.743,706.815 L1676.175,706.815 L1679.879,704.125 L1678.465,699.776 L1682.156,702.464 L1685.859,699.776 L1684.445,704.125 L1688.137,706.815 L1683.569,706.815 ZM1616.322,314.904 L1608.928,309.526 L1601.534,314.904 L1604.361,306.202 L1596.967,300.821 L1606.101,300.821 L1608.928,292.121 L1611.755,300.821 L1620.889,300.821 L1613.496,306.202 L1616.322,314.904 ZM1509.418,630.901 L1500.178,624.179 L1490.939,630.901 L1494.466,620.023 L1485.226,613.298 L1496.650,613.298 L1500.178,602.423 L1503.705,613.298 L1515.130,613.298 L1505.890,620.023 L1509.418,630.901 ZM1293.798,176.862 L1286.404,171.484 L1279.010,176.862 L1281.837,168.160 L1274.442,162.779 L1283.583,162.779 L1286.404,154.079 L1289.231,162.779 L1298.365,162.779 L1290.971,168.160 L1293.798,176.862 ZM1242.197,711.167 L1238.500,708.479 L1234.803,711.167 L1236.216,706.818 L1232.520,704.128 L1237.087,704.128 L1238.500,699.776 L1239.914,704.128 L1244.481,704.128 L1240.784,706.818 L1242.197,711.167 ZM1187.245,11.399 L1183.542,8.712 L1179.851,11.399 L1181.264,7.051 L1177.562,4.360 L1182.129,4.360 L1183.542,0.010 L1184.956,4.360 L1189.523,4.360 L1185.832,7.051 L1187.245,11.399 ZM931.090,616.188 L924.677,611.524 L918.264,616.188 L920.718,608.641 L914.304,603.974 L922.224,603.974 L924.677,596.426 L927.130,603.974 L935.050,603.974 L928.637,608.641 L931.090,616.188 ZM908.606,272.856 L902.193,268.192 L895.780,272.856 L898.227,265.309 L891.814,260.642 L899.740,260.642 L902.193,253.094 L904.640,260.642 L912.565,260.642 L906.153,265.309 L908.606,272.856 ZM887.557,486.452 L883.859,483.765 L880.163,486.452 L881.576,482.104 L877.879,479.414 L882.446,479.414 L883.859,475.063 L885.273,479.414 L889.840,479.414 L886.143,482.104 L887.557,486.452 ZM728.941,437.180 L722.528,432.516 L716.115,437.180 L718.563,429.632 L712.150,424.965 L720.081,424.965 L722.528,417.418 L724.975,424.965 L732.907,424.965 L726.494,429.632 L728.941,437.180 ZM708.180,818.703 L701.767,814.038 L695.354,818.703 L697.807,811.155 L691.394,806.488 L699.320,806.488 L701.767,798.941 L704.220,806.488 L712.146,806.488 L705.733,811.155 L708.180,818.703 ZM493.446,124.115 L489.749,121.427 L486.052,124.115 L487.465,119.766 L483.768,117.076 L488.335,117.076 L489.749,112.724 L491.162,117.076 L495.730,117.076 L492.032,119.766 L493.446,124.115 ZM483.336,242.526 L485.789,250.074 L479.376,245.409 L472.963,250.074 L475.410,242.526 L468.997,237.859 L476.923,237.859 L479.376,230.312 L481.823,237.859 L489.749,237.859 L483.336,242.526 ZM371.058,517.669 L367.361,514.981 L363.664,517.669 L365.078,513.320 L361.380,510.630 L365.948,510.630 L367.361,506.279 L368.774,510.630 L373.342,510.630 L369.645,513.320 L371.058,517.669 ZM327.687,255.767 L323.989,253.079 L320.293,255.767 L321.706,251.419 L318.009,248.729 L322.576,248.729 L323.989,244.377 L325.403,248.729 L329.970,248.729 L326.273,251.419 L327.687,255.767 ZM218.493,401.307 L212.080,396.643 L205.667,401.307 L208.120,393.760 L201.707,389.093 L209.627,389.093 L212.080,381.545 L214.533,389.093 L222.453,389.093 L216.040,393.760 L218.493,401.307 ZM113.878,178.207 L112.465,182.559 L111.051,178.207 L106.484,178.207 L110.181,175.517 L108.767,171.168 L112.465,173.856 L116.161,171.168 L114.748,175.517 L118.445,178.207 L113.878,178.207 ZM107.897,745.348 L112.465,745.348 L108.761,748.038 L110.175,752.390 L106.484,749.699 L102.781,752.390 L104.194,748.038 L100.503,745.348 L105.071,745.348 L106.484,740.997 L107.897,745.348 ZM35.200,347.147 L33.352,345.802 L31.504,347.147 L32.210,344.971 L30.362,343.626 L32.645,343.626 L33.352,341.450 L34.059,343.626 L36.343,343.626 L34.494,344.971 L35.200,347.147 ZM-129.163,533.539 L-131.008,532.193 L-132.854,533.539 L-132.153,531.363 L-133.999,530.018 L-131.715,530.018 L-131.008,527.843 L-130.301,530.018 L-128.018,530.018 L-129.864,531.363 L-129.163,533.539 Z" class="cls-1"/>
</svg>
