<svg xmlns="http://www.w3.org/2000/svg" xmlns:xlink="http://www.w3.org/1999/xlink" preserveAspectRatio="xMidYMid" width="12.72" height="22.97" viewBox="0 0 12.72 22.97">
  <defs>
    <style>
      .cls-1 {
        fill: #4d70a8;
        fill-rule: evenodd;
      }
    </style>
  </defs>
  <path d="M12.232,-0.009 L9.182,-0.014 C5.755,-0.014 3.541,2.207 3.541,5.643 L3.541,8.251 L0.473,8.251 C0.209,8.251 -0.006,8.460 -0.006,8.719 L-0.006,12.499 C-0.006,12.757 0.209,12.967 0.473,12.967 L3.541,12.967 L3.541,22.503 C3.541,22.761 3.755,22.971 4.021,22.971 L8.021,22.971 C8.286,22.971 8.501,22.761 8.501,22.503 L8.501,12.967 L12.086,12.967 C12.351,12.967 12.566,12.757 12.566,12.499 L12.568,8.719 C12.568,8.596 12.516,8.477 12.427,8.388 C12.337,8.300 12.215,8.251 12.088,8.251 L8.501,8.251 L8.501,6.040 C8.501,4.977 8.760,4.438 10.176,4.438 L12.231,4.437 C12.496,4.437 12.710,4.227 12.710,3.969 L12.710,0.460 C12.710,0.201 12.496,-0.008 12.232,-0.009 L12.232,-0.009 Z" class="cls-1"/>
</svg>
