<?xml version="1.0" encoding="utf-8"?>
<!-- Generator: Adobe Illustrator 18.0.0, SVG Export Plug-In . SVG Version: 6.00 Build 0)  -->
<!DOCTYPE svg PUBLIC "-//W3C//DTD SVG 1.1//EN" "http://www.w3.org/Graphics/SVG/1.1/DTD/svg11.dtd">
<svg version="1.1" id="Layer_1" xmlns="http://www.w3.org/2000/svg" xmlns:xlink="http://www.w3.org/1999/xlink" x="0px" y="0px"
	 viewBox="0 0 22.4 14.2" width="30" height="24" enable-background="new 0 0 22.4 14.2" xml:space="preserve">
<g>
	<path fill="#F1B500" d="M3,5.7L0.7,4C0.3,4.9,0,5.8,0,6.8C-0.1,8,0.2,9.3,0.8,10.4L3,8.6C2.7,7.7,2.7,6.7,3,5.7z"/>
	<path fill="#E33E2B" d="M4.5,3.5c1.6-1.3,3.9-1,5.5,0.1c0.6-0.6,1.2-1.2,1.8-1.9c-1.3-1.1-3-1.8-4.8-1.8C4.4-0.1,1.9,1.6,0.7,4
		L3,5.7C3.2,4.8,3.7,4,4.5,3.5z"/>
	<path fill="#2BA14B" d="M4.3,10.6c-0.7-0.5-1.1-1.2-1.4-2l-2.2,1.8c0.8,1.5,2.1,2.8,3.8,3.4c2.4,0.9,5.4,0.5,7.3-1.2l-2.1-1.7
		C8.1,11.9,5.8,11.9,4.3,10.6z"/>
	<path fill="#3A7CEC" d="M12.6,11.6c1.2-1.6,1.4-3.6,1.3-5.5c-2.3,0-4.5,0-6.8,0c0,0.8,0,1.6,0,2.4c1.4,0,2.7,0,4.1,0
		c-0.2,1-0.8,1.7-1.5,2.3l2.1,1.7C12.1,12.3,12.4,12,12.6,11.6z"/>
	<path fill="#E33E2B" d="M20.4,6.1c0-0.7,0-1.4,0-2c-0.7,0-1.4,0-2,0c0,0.7,0,1.4,0,2c-0.7,0-1.4,0-2,0c0,0.7,0,1.4,0,2
		c0.7,0,1.4,0,2,0c0,0.7,0,1.4,0,2c0.7,0,1.4,0,2,0c0-0.7,0-1.4,0-2c0.7,0,1.4,0,2,0c0-0.7,0-1.4,0-2C21.8,6.1,21.1,6.1,20.4,6.1z"
		/>
</g>
</svg>
