<svg xmlns="http://www.w3.org/2000/svg" xmlns:xlink="http://www.w3.org/1999/xlink" preserveAspectRatio="xMidYMid" width="22.12" height="21.9" viewBox="0 0 22.12 21.9">
  <defs>
    <style>
      .cls-1 {
        fill: #0177b5;
        fill-rule: evenodd;
      }
    </style>
  </defs>
  <path d="M21.727,21.896 L17.305,21.896 C17.094,21.896 16.924,21.727 16.924,21.518 L16.924,14.655 C16.924,12.624 16.787,11.292 14.958,11.290 C13.103,11.290 12.731,12.532 12.731,14.535 L12.731,21.518 C12.731,21.727 12.561,21.896 12.350,21.896 L7.930,21.896 C7.720,21.896 7.549,21.727 7.549,21.518 L7.549,7.404 C7.549,7.195 7.720,7.026 7.930,7.026 L12.174,7.026 C12.385,7.026 12.556,7.195 12.556,7.404 L12.556,8.146 C13.423,7.349 14.846,6.860 16.465,6.860 C21.466,6.860 22.108,10.556 22.108,13.776 L22.108,21.518 C22.108,21.727 21.937,21.896 21.727,21.896 ZM2.944,5.852 C1.319,5.852 -0.003,4.542 -0.003,2.932 C-0.002,1.321 1.320,0.010 2.944,0.010 C4.568,0.010 5.889,1.321 5.889,2.932 C5.889,4.542 4.568,5.852 2.944,5.852 ZM0.731,7.026 L5.155,7.026 C5.366,7.026 5.537,7.195 5.537,7.404 L5.537,21.518 C5.537,21.727 5.366,21.896 5.155,21.896 L0.731,21.896 C0.521,21.896 0.350,21.727 0.350,21.518 L0.350,7.404 C0.350,7.195 0.521,7.026 0.731,7.026 Z" class="cls-1"/>
</svg>
