<svg xmlns="http://www.w3.org/2000/svg" xmlns:xlink="http://www.w3.org/1999/xlink" preserveAspectRatio="xMidYMid" width="19.78" height="16.09" viewBox="0 0 19.78 16.09">
  <defs>
    <style>
      .cls-1 {
        fill: #55acee;
        fill-rule: evenodd;
      }
    </style>
  </defs>
  <path d="M19.770,1.889 C19.044,2.211 18.260,2.434 17.439,2.532 C18.278,2.028 18.918,1.231 19.225,0.280 C18.440,0.746 17.572,1.085 16.641,1.266 C15.906,0.480 14.849,-0.016 13.683,-0.016 C11.444,-0.016 9.626,1.805 9.626,4.049 C9.626,4.370 9.663,4.678 9.730,4.975 C6.355,4.805 3.367,3.190 1.363,0.727 C1.012,1.327 0.812,2.028 0.812,2.773 C0.812,4.182 1.531,5.429 2.618,6.154 C1.953,6.137 1.332,5.949 0.783,5.646 L0.783,5.695 C0.783,7.666 2.183,9.311 4.036,9.687 C3.698,9.777 3.336,9.825 2.968,9.825 C2.709,9.825 2.455,9.802 2.202,9.754 C2.721,11.369 4.217,12.541 5.993,12.578 C4.604,13.667 2.853,14.314 0.952,14.314 C0.626,14.314 0.306,14.296 -0.014,14.260 C1.785,15.415 3.916,16.086 6.209,16.086 C13.671,16.086 17.753,9.892 17.753,4.521 L17.740,3.995 C18.538,3.420 19.225,2.706 19.770,1.889 L19.770,1.889 Z" class="cls-1"/>
</svg>
