<?xml version="1.0" encoding="utf-8"?>
<!-- Generator: Adobe Illustrator 18.0.0, SVG Export Plug-In . SVG Version: 6.00 Build 0)  -->
<!DOCTYPE svg PUBLIC "-//W3C//DTD SVG 1.1//EN" "http://www.w3.org/Graphics/SVG/1.1/DTD/svg11.dtd">
<svg version="1.1" id="Objects" xmlns="http://www.w3.org/2000/svg" xmlns:xlink="http://www.w3.org/1999/xlink" x="0px" y="0px"
	 viewBox="0 0 405.9 512.7" enable-background="new 0 0 405.9 512.7" xml:space="preserve">
<g>
	<g id="mobile_x2B_hand_2_">
		<path fill="#FDCF9D" d="M285.7,179.9c0,0,50.1-2.7,58.5-26.1c8.4-23.4-5.4-57.4-5.4-57.4l-51.5,8"/>
		<g>
			<path fill="#808184" d="M371.6,159.2h-66.2c-4.3,0-7.8-3.5-7.8-7.8V7.8c0-4.3,3.5-7.8,7.8-7.8h66.2c4.3,0,7.8,3.5,7.8,7.8v143.6
				C379.5,155.7,375.9,159.2,371.6,159.2z"/>
			<path d="M378.2,151.4c0,3.6-2.9,6.5-6.5,6.5h-66.2c-3.6,0-6.5-2.9-6.5-6.5V7.8c0-3.6,2.9-6.5,6.5-6.5h66.2c3.6,0,6.5,2.9,6.5,6.5
				V151.4z"/>
			<path fill="#FFFFFF" d="M359.9,17.3c-0.9,7.4-3,14.7-5.4,21.5c-4.2,11.8-9.6,23.3-15.5,34.4c-10.9,20.6-21.7,41.5-35.2,60.6v1.2
				h69.5V17.3H359.9z"/>
		</g>
	</g>
	<g>
		<path fill="#54585B" d="M330.1,12c-1,0-1.7-0.5-1.7-1.1s0.8-1.1,1.7-1.1H347c1,0,1.7,0.5,1.7,1.1S347.9,12,347,12H330.1z"/>
		<path fill="#BBBDBF" d="M345.9,146.1c0,4.1-3.3,7.4-7.4,7.4l0,0c-4.1,0-7.4-3.3-7.4-7.4v0c0-4.1,3.3-7.4,7.4-7.4h0
			C342.6,138.7,345.9,142,345.9,146.1L345.9,146.1z"/>
		<path d="M338.5,140c-3.3,0-6,2.7-6,6v0c0,3.3,2.7,6,6,6l0,0c3.3,0,6-2.7,6-6v0C344.6,142.8,341.8,140,338.5,140L338.5,140z"/>
		<circle fill="#BBBDBF" cx="338.5" cy="6.1" r="1.4"/>
	</g>
	<rect x="303.8" y="17.3" fill="#396172" width="69.5" height="117.7"/>
	<circle fill="#758E96" cx="338.5" cy="71.1" r="22.3"/>
	<g>
		<path fill-rule="evenodd" clip-rule="evenodd" fill="#FDCF9D" d="M294.3,100l3.1-9.2l5.9-7.6c12.1-5.5,9.7-24.4,7-32.3
			c-0.4-1.2-1.4-1.5-2.4-1.1l-29,29.1c-5.3,4.3-7.5,6.5-8,11.1c0,0,0,0,0,0l-2.4,16.7c-2.2,13.1-5.8,31.8-9.3,40.9
			c-4.9,12.5-15.1,26.6-28.1,45.3l3.9,12.2h30.6c6-4.9,11-9.7,14.7-14.8c12-16.2,6.2-2.8,16.1-20.3C316.5,134.3,294.3,100,294.3,100
			z"/>
		<path opacity="5.000000e-002" fill-rule="evenodd" clip-rule="evenodd" d="M235.1,194.9c12.9-18.6,23.2-32.8,28.1-45.3
			c3.5-9.1,7.1-27.8,9.3-40.9l2.4-16.7c0,0,0,0,0,0c0.5-4.6,3.4-9,8-11.1l28.1-28.6c-0.1-0.5-0.3-1-0.5-1.4
			c-0.4-1.2-1.4-1.5-2.4-1.1L278.8,79c-5.8,5-7.5,6.5-8,11.1c0,0,0,0,0,0l-2.4,16.7c-2.2,13.1-5.8,31.8-9.3,40.9
			c-4.9,12.5-15.1,26.6-28.1,45.3l3.9,12.2h3.4L235.1,194.9z"/>
		<path fill-rule="evenodd" clip-rule="evenodd" fill="#FEE4C2" d="M309.7,49.1c-0.9-1-1.7-0.4-2.1,0l-11.5,11.7
			c4.5,3.9,11.2-1.7,14.5-7.6C311,52.4,310.8,50.4,309.7,49.1z"/>
	</g>
	<text transform="matrix(1 0 0 1 318.0822 35.1404)" fill="#FFFFFF" font-family="'ProximaNova-Bold'" font-size="6.751">800-555-44-33</text>
	<circle fill="#FF0000" cx="352.8" cy="119.2" r="7.9"/>
	<circle fill="#00FF00" cx="324.9" cy="119.2" r="7.9"/>
	<circle fill="#FFFFFF" cx="338.5" cy="66.6" r="5.3"/>
	<path fill="#FFFFFF" d="M347.7,83.9h-18.3v-0.3c0-5.1,4.1-9.2,9.2-9.2h0c5.1,0,9.2,4.1,9.2,9.2V83.9z"/>
	<g>
		<path fill-rule="evenodd" clip-rule="evenodd" fill="#FDCF9D" d="M397.2,101.2L397.2,101.2c2.4,3.4,1.6,8.1-1.8,10.5l-20,16.2
			c-3.4,2.4-8.1,1.6-10.5-1.8l0,0c-2.4-3.4-1.6-8.1,1.8-10.5l20-16.2C390.1,97,394.8,97.8,397.2,101.2z"/>
		<path opacity="0.23" fill-rule="evenodd" clip-rule="evenodd" fill="#D2D2D2" d="M397.2,101.2c-2.1-2.9-5.9-3.9-9.1-2.5
			c1.7,0.4,3.2,1.4,4.3,2.9c2.4,3.4,1.6,8.1-1.8,10.5l-20,16.2c-0.4,0.3-0.9,0.6-1.4,0.8c2.1,0.5,4.3,0.2,6.2-1.1l20-16.2
			C398.8,109.2,399.6,104.5,397.2,101.2z"/>
		<path fill-rule="evenodd" clip-rule="evenodd" fill="#FEE4C2" d="M377.7,116.6L377.7,116.6c2,2.9,1.3,6.8-1.5,8.9l-1.1,0.8
			c-2.8,2-6.8,1.3-8.9-1.5l0,0c-2-2.9-1.3-6.8,1.5-8.9l1.1-0.8C371.7,113.1,375.7,113.8,377.7,116.6z"/>
	</g>
	<g>
		<path fill-rule="evenodd" clip-rule="evenodd" fill="#FDCF9D" d="M399.5,44.4L399.5,44.4c2.6,3.7,1.7,8.9-2,11.5l-22,17.8
			c-3.7,2.6-8.9,1.7-11.5-2l0,0c-2.6-3.7-1.7-8.9,2-11.5l22-17.8C391.7,39.8,396.8,40.7,399.5,44.4z"/>
		<path opacity="0.23" fill-rule="evenodd" clip-rule="evenodd" fill="#D2D2D2" d="M399.5,44.4c-2.3-3.2-6.5-4.3-10-2.8
			c1.8,0.5,3.5,1.6,4.7,3.2c2.6,3.7,1.7,8.9-2,11.5l-22,17.8c-0.5,0.3-1,0.6-1.5,0.8c2.3,0.6,4.8,0.2,6.8-1.3l22-17.8
			C401.2,53.3,402.1,48.1,399.5,44.4z"/>
		<path fill-rule="evenodd" clip-rule="evenodd" fill="#FEE4C2" d="M378,61.4L378,61.4c2.2,3.1,1.5,7.5-1.7,9.7l-1.2,0.8
			c-3.1,2.2-7.5,1.5-9.7-1.7l0,0c-2.2-3.1-1.5-7.5,1.7-9.7l1.2-0.8C371.4,57.5,375.8,58.3,378,61.4z"/>
	</g>
	<g>
		<path fill-rule="evenodd" clip-rule="evenodd" fill="#FDCF9D" d="M398.8,82.8L398.8,82.8c2.6,3.7,1.7,8.9-2,11.5l-22,17.8
			c-3.7,2.6-8.9,1.7-11.5-2l0,0c-2.6-3.7-1.7-8.9,2-11.5l22-17.8C391,78.2,396.2,79.1,398.8,82.8z"/>
		<path opacity="0.23" fill-rule="evenodd" clip-rule="evenodd" fill="#D2D2D2" d="M398.8,82.8c-2.3-3.2-6.5-4.3-10-2.8
			c1.8,0.5,3.5,1.6,4.7,3.2c2.6,3.7,1.7,8.9-2,11.5l-22,17.8c-0.5,0.3-1,0.6-1.5,0.8c2.3,0.6,4.8,0.2,6.8-1.3l22-17.8
			C400.5,91.7,401.4,86.5,398.8,82.8z"/>
		<path fill-rule="evenodd" clip-rule="evenodd" fill="#FEE4C2" d="M377.4,99.8L377.4,99.8c2.2,3.1,1.5,7.5-1.7,9.7l-1.2,0.8
			c-3.1,2.2-7.5,1.5-9.7-1.7l0,0c-2.2-3.1-1.5-7.5,1.7-9.7l1.2-0.8C370.8,95.9,375.1,96.7,377.4,99.8z"/>
	</g>
	<g>
		<path fill-rule="evenodd" clip-rule="evenodd" fill="#FDCF9D" d="M404.4,60.5L404.4,60.5c2.6,3.7,1.7,8.9-2,11.5l-27,21.8
			c-3.7,2.6-8.9,1.7-11.5-2l0,0c-2.6-3.7-1.7-8.9,2-11.5l27-21.8C396.6,55.9,401.7,56.8,404.4,60.5z"/>
		<path opacity="0.23" fill-rule="evenodd" clip-rule="evenodd" fill="#D2D2D2" d="M404.4,60.5c-2.3-3.2-6.5-4.3-10-2.8
			c1.8,0.5,3.5,1.6,4.7,3.2c2.6,3.7,1.7,8.9-2,11.5l-27,21.8c-0.5,0.3-1,0.6-1.5,0.8c2.3,0.6,4.8,0.2,6.8-1.3l27-21.8
			C406.1,69.4,407,64.2,404.4,60.5z"/>
		<path fill-rule="evenodd" clip-rule="evenodd" fill="#FEE4C2" d="M378,81.5L378,81.5c2.2,3.1,1.5,7.5-1.7,9.7l-1.2,0.8
			c-3.1,2.2-7.5,1.5-9.7-1.7l0,0c-2.2-3.1-1.5-7.5,1.7-9.7l1.2-0.8C371.4,77.6,375.8,78.4,378,81.5z"/>
	</g>
	<g>
		<polygon fill="#F28E41" points="66,512.7 296.1,185.7 250.4,157.7 0,512.7 		"/>
		<polygon fill="#F6A143" points="66,512.7 296.1,185.7 283.4,178 48.9,512.7 		"/>
	</g>
	<path fill="#FFFFFF" d="M280.6,187.4c-1.1,1.8-0.5,4.2,1.3,5.3c1.8,1.1,4.2,0.5,5.3-1.3c1.1-1.8,0.5-4.2-1.3-5.3
		C284.1,185,281.8,185.6,280.6,187.4z"/>
	<path fill="#FFFFFF" d="M272.9,198.3c-1.1,1.8-0.5,4.2,1.3,5.3c1.8,1.1,4.2,0.5,5.3-1.3c1.1-1.8,0.5-4.2-1.3-5.3
		C276.4,195.9,274,196.4,272.9,198.3z"/>
</g>
</svg>
