<?xml version="1.0" encoding="utf-8"?>
<!-- Generator: Adobe Illustrator 18.0.0, SVG Export Plug-In . SVG Version: 6.00 Build 0)  -->
<!DOCTYPE svg PUBLIC "-//W3C//DTD SVG 1.1//EN" "http://www.w3.org/Graphics/SVG/1.1/DTD/svg11.dtd">
<svg version="1.1" id="Objects" xmlns="http://www.w3.org/2000/svg" xmlns:xlink="http://www.w3.org/1999/xlink" x="0px" y="0px"
	 viewBox="0 0 262.3 409" enable-background="new 0 0 262.3 409" xml:space="preserve">
<g>
	<path fill="#FDCF9D" d="M142.1,189.2c0,0,50.1-2.7,58.5-26.1c8.4-23.4-5.4-57.4-5.4-57.4l-51.5,8"/>
	<path fill="#808184" d="M228,168.5h-66.2c-4.3,0-7.8-3.5-7.8-7.8V17.1c0-4.3,3.5-7.8,7.8-7.8H228c4.3,0,7.8,3.5,7.8,7.8v143.6
		C235.9,165,232.3,168.5,228,168.5z"/>
	<path d="M234.5,160.7c0,3.6-2.9,6.5-6.5,6.5h-66.2c-3.6,0-6.5-2.9-6.5-6.5V17.1c0-3.6,2.9-6.5,6.5-6.5H228c3.6,0,6.5,2.9,6.5,6.5
		V160.7z"/>
	<path fill="#54585B" d="M186.4,21.2c-1,0-1.7-0.5-1.7-1.1s0.8-1.1,1.7-1.1h16.9c1,0,1.7,0.5,1.7,1.1s-0.8,1.1-1.7,1.1H186.4z"/>
	<path fill="#BBBDBF" d="M202.3,155.4c0,4.1-3.3,7.4-7.4,7.4l0,0c-4.1,0-7.4-3.3-7.4-7.4v0c0-4.1,3.3-7.4,7.4-7.4h0
		C199,148,202.3,151.3,202.3,155.4L202.3,155.4z"/>
	<path d="M194.9,149.3c-3.3,0-6,2.7-6,6v0c0,3.3,2.7,6,6,6l0,0c3.3,0,6-2.7,6-6v0C200.9,152,198.2,149.3,194.9,149.3L194.9,149.3z"
		/>
	<circle fill="#BBBDBF" cx="194.9" cy="15.3" r="1.4"/>
	<rect x="160.2" y="26.6" fill="#396172" width="69.5" height="117.7"/>
	<circle fill="#758E96" cx="194.9" cy="80.4" r="22.3"/>
	<text transform="matrix(1 0 0 1 174.4717 44.4086)" fill="#FFFFFF" font-family="'ProximaNova-Bold'" font-size="6.751">800-555-44-33</text>
	<circle fill="#FF0000" cx="209.2" cy="128.5" r="7.9"/>
	<circle fill="#00FF00" cx="181.3" cy="128.5" r="7.9"/>
	<circle fill="#FFFFFF" cx="194.9" cy="75.9" r="5.3"/>
	<path fill="#FFFFFF" d="M204.1,93.2h-18.3v-0.3c0-5.1,4.1-9.2,9.2-9.2h0c5.1,0,9.2,4.1,9.2,9.2V93.2z"/>
	<path fill-rule="evenodd" clip-rule="evenodd" fill="#FDCF9D" d="M253.6,110.4L253.6,110.4c2.4,3.4,1.6,8.1-1.8,10.5l-20,16.2
		c-3.4,2.4-8.1,1.6-10.5-1.8l0,0c-2.4-3.4-1.6-8.1,1.8-10.5l20-16.2C246.5,106.3,251.2,107.1,253.6,110.4z"/>
	<path opacity="0.23" fill-rule="evenodd" clip-rule="evenodd" fill="#D2D2D2" d="M253.6,110.4c-2.1-2.9-5.9-3.9-9.1-2.5
		c1.7,0.4,3.2,1.4,4.3,2.9c2.4,3.4,1.6,8.1-1.8,10.5l-20,16.2c-0.4,0.3-0.9,0.6-1.4,0.8c2.1,0.5,4.3,0.2,6.2-1.1l20-16.2
		C255.2,118.5,256,113.8,253.6,110.4z"/>
	<path fill-rule="evenodd" clip-rule="evenodd" fill="#FEE4C2" d="M234.1,125.9L234.1,125.9c2,2.9,1.3,6.8-1.5,8.9l-1.1,0.8
		c-2.8,2-6.8,1.3-8.9-1.5l0,0c-2-2.9-1.3-6.8,1.5-8.9l1.1-0.8C228.1,122.4,232.1,123.1,234.1,125.9z"/>
	<path fill-rule="evenodd" clip-rule="evenodd" fill="#FDCF9D" d="M255.9,53.7L255.9,53.7c2.6,3.7,1.7,8.9-2,11.5l-22,17.8
		c-3.7,2.6-8.9,1.7-11.5-2l0,0c-2.6-3.7-1.7-8.9,2-11.5l22-17.8C248.1,49.1,253.2,50,255.9,53.7z"/>
	<path opacity="0.23" fill-rule="evenodd" clip-rule="evenodd" fill="#D2D2D2" d="M255.9,53.7c-2.3-3.2-6.5-4.3-10-2.8
		c1.8,0.5,3.5,1.6,4.7,3.2c2.6,3.7,1.7,8.9-2,11.5l-22,17.8c-0.5,0.3-1,0.6-1.5,0.8c2.3,0.6,4.8,0.2,6.8-1.3l22-17.8
		C257.6,62.5,258.5,57.4,255.9,53.7z"/>
	<path fill-rule="evenodd" clip-rule="evenodd" fill="#FEE4C2" d="M234.4,70.7L234.4,70.7c2.2,3.1,1.5,7.5-1.7,9.7l-1.2,0.8
		c-3.1,2.2-7.5,1.5-9.7-1.7l0,0c-2.2-3.1-1.5-7.5,1.7-9.7l1.2-0.8C227.8,66.8,232.2,67.5,234.4,70.7z"/>
	<path fill-rule="evenodd" clip-rule="evenodd" fill="#FDCF9D" d="M255.2,92.1L255.2,92.1c2.6,3.7,1.7,8.9-2,11.5l-22,17.8
		c-3.7,2.6-8.9,1.7-11.5-2l0,0c-2.6-3.7-1.7-8.9,2-11.5l22-17.8C247.4,87.5,252.6,88.4,255.2,92.1z"/>
	<path opacity="0.23" fill-rule="evenodd" clip-rule="evenodd" fill="#D2D2D2" d="M255.2,92.1c-2.3-3.2-6.5-4.3-10-2.8
		c1.8,0.5,3.5,1.6,4.7,3.2c2.6,3.7,1.7,8.9-2,11.5l-22,17.8c-0.5,0.3-1,0.6-1.5,0.8c2.3,0.6,4.8,0.2,6.8-1.3l22-17.8
		C256.9,100.9,257.8,95.8,255.2,92.1z"/>
	<path fill-rule="evenodd" clip-rule="evenodd" fill="#FEE4C2" d="M233.8,109.1L233.8,109.1c2.2,3.1,1.5,7.5-1.7,9.7l-1.2,0.8
		c-3.1,2.2-7.5,1.5-9.7-1.7l0,0c-2.2-3.1-1.5-7.5,1.7-9.7l1.2-0.8C227.1,105.2,231.5,106,233.8,109.1z"/>
	<path fill-rule="evenodd" clip-rule="evenodd" fill="#FDCF9D" d="M260.8,69.8L260.8,69.8c2.6,3.7,1.7,8.9-2,11.5l-27,21.8
		c-3.7,2.6-8.9,1.7-11.5-2l0,0c-2.6-3.7-1.7-8.9,2-11.5l27-21.8C253,65.2,258.1,66.1,260.8,69.8z"/>
	<path opacity="0.23" fill-rule="evenodd" clip-rule="evenodd" fill="#D2D2D2" d="M260.8,69.8c-2.3-3.2-6.5-4.3-10-2.8
		c1.8,0.5,3.5,1.6,4.7,3.2c2.6,3.7,1.7,8.9-2,11.5l-27,21.8c-0.5,0.3-1,0.6-1.5,0.8c2.3,0.6,4.8,0.2,6.8-1.3l27-21.8
		C262.5,78.6,263.4,73.5,260.8,69.8z"/>
	<path fill-rule="evenodd" clip-rule="evenodd" fill="#FEE4C2" d="M234.4,90.8L234.4,90.8c2.2,3.1,1.5,7.5-1.7,9.7l-1.2,0.8
		c-3.1,2.2-7.5,1.5-9.7-1.7l0,0c-2.2-3.1-1.5-7.5,1.7-9.7l1.2-0.8C227.8,86.9,232.2,87.6,234.4,90.8z"/>
	<path fill-rule="evenodd" clip-rule="evenodd" fill="#FDCF9D" d="M150.7,109.3l3.1-9.2l5.9-7.6c12.1-5.5,9.7-24.4,7-32.3
		c-0.4-1.2-1.4-1.5-2.4-1.1l-29,29.1c-5.3,4.3-7.5,6.5-8,11.1c0,0,0,0,0,0l-2.4,16.7c-2.2,13.1-5.8,31.8-9.3,40.9
		c-4.9,12.5-15.1,26.6-28.1,45.3l3.9,12.2H122c6-4.9,11-9.7,14.7-14.8c12-16.2,6.2-2.8,16.1-20.3
		C172.9,143.6,150.7,109.3,150.7,109.3z"/>
	<path opacity="5.000000e-002" fill-rule="evenodd" clip-rule="evenodd" d="M91.5,204.2c12.9-18.6,23.2-32.8,28.1-45.3
		c3.5-9.1,7.1-27.8,9.3-40.9l2.4-16.7c0,0,0,0,0,0c0.5-4.6,3.4-9,8-11.1l28.1-28.6c-0.1-0.5-0.3-1-0.5-1.4c-0.4-1.2-1.4-1.5-2.4-1.1
		l-29.2,29.1c-5.8,5-7.5,6.5-8,11.1c0,0,0,0,0,0l-2.4,16.7c-2.2,13.1-5.8,31.8-9.3,40.9c-4.9,12.5-15.1,26.6-28.1,45.3l3.9,12.2h3.4
		L91.5,204.2z"/>
	<path fill-rule="evenodd" clip-rule="evenodd" fill="#FEE4C2" d="M166.1,58.3c-0.9-1-1.7-0.4-2.1,0l-11.5,11.7
		c4.5,3.9,11.2-1.7,14.5-7.6C167.4,61.7,167.2,59.6,166.1,58.3z"/>
	<polygon fill="#183457" points="0,409 144,209 98.3,181 0,317.4 	"/>
	<polygon fill="#004469" points="0,409 144,209 131.3,201.2 0,384.8 	"/>
	<polygon fill="#8DD7F7" points="90.1,190.7 143,214.4 153.9,196.4 105,166.5 	"/>
	<polygon fill="#A9E0F9" points="142.1,189.2 153.9,196.4 143,214.4 130.2,208.7 	"/>
	<path fill="#FFFFFF" d="M138.6,200.5c-1.1,1.8-0.5,4.2,1.3,5.3c1.8,1.1,4.2,0.5,5.3-1.3c1.1-1.8,0.5-4.2-1.3-5.3
		C142.1,198.1,139.7,198.7,138.6,200.5z"/>
</g>
</svg>
