<?xml version="1.0" encoding="utf-8"?>
<!-- Generator: Adobe Illustrator 18.0.0, SVG Export Plug-In . SVG Version: 6.00 Build 0)  -->
<!DOCTYPE svg PUBLIC "-//W3C//DTD SVG 1.1//EN" "http://www.w3.org/Graphics/SVG/1.1/DTD/svg11.dtd">
<svg version="1.1" id="Objects" xmlns="http://www.w3.org/2000/svg" xmlns:xlink="http://www.w3.org/1999/xlink" x="0px" y="0px"
	 viewBox="0 0 377.7 466.7" enable-background="new 0 0 377.7 466.7" xml:space="preserve">
<g>
	<g id="mobile_x2B_hand">
		<path fill="#FDCF9D" d="M257.6,183.3c0,0,50.1-2.7,58.5-26.1c8.4-23.4-5.4-57.4-5.4-57.4l-51.5,8"/>
		<g>
			<path fill="#808184" d="M343.5,162.6h-66.2c-4.3,0-7.8-3.5-7.8-7.8V11.2c0-4.3,3.5-7.8,7.8-7.8h66.2c4.3,0,7.8,3.5,7.8,7.8v143.6
				C351.3,159.1,347.8,162.6,343.5,162.6z"/>
			<path d="M350,154.8c0,3.6-2.9,6.5-6.5,6.5h-66.2c-3.6,0-6.5-2.9-6.5-6.5V11.2c0-3.6,2.9-6.5,6.5-6.5h66.2c3.6,0,6.5,2.9,6.5,6.5
				V154.8z"/>
		</g>
	</g>
	<rect x="275.6" y="20.7" fill="#396172" width="69.5" height="117.7"/>
	<g>
		<path fill="#54585B" d="M301.9,15.9c-1,0-1.7-0.5-1.7-1.1c0-0.6,0.8-1.1,1.7-1.1h16.9c1,0,1.7,0.5,1.7,1.1c0,0.6-0.8,1.1-1.7,1.1
			H301.9z"/>
		<path fill="#BBBDBF" d="M317.7,150c0,4.1-3.3,7.4-7.4,7.4l0,0c-4.1,0-7.4-3.3-7.4-7.4v0c0-4.1,3.3-7.4,7.4-7.4h0
			C314.4,142.7,317.7,146,317.7,150L317.7,150z"/>
		<path d="M310.4,144c-3.3,0-6,2.7-6,6v0c0,3.3,2.7,6,6,6l0,0c3.3,0,6-2.7,6-6v0C316.4,146.7,313.7,144,310.4,144L310.4,144z"/>
		<circle fill="#BBBDBF" cx="310.4" cy="10" r="1.4"/>
	</g>
	<g>
		<path fill-rule="evenodd" clip-rule="evenodd" fill="#FDCF9D" d="M369.1,104.5L369.1,104.5c2.4,3.4,1.6,8.1-1.8,10.5l-20,16.2
			c-3.4,2.4-8.1,1.6-10.5-1.8l0,0c-2.4-3.4-1.6-8.1,1.8-10.5l20-16.2C362,100.4,366.7,101.2,369.1,104.5z"/>
		<path opacity="0.23" fill-rule="evenodd" clip-rule="evenodd" fill="#D2D2D2" d="M369.1,104.5c-2.1-2.9-5.9-3.9-9.1-2.5
			c1.7,0.4,3.2,1.4,4.3,2.9c2.4,3.4,1.6,8.1-1.8,10.5l-20,16.2c-0.4,0.3-0.9,0.6-1.4,0.8c2.1,0.5,4.3,0.2,6.2-1.1l20-16.2
			C370.6,112.6,371.4,107.9,369.1,104.5z"/>
		<path fill-rule="evenodd" clip-rule="evenodd" fill="#FEE4C2" d="M349.6,120L349.6,120c2,2.9,1.3,6.8-1.5,8.9l-1.1,0.8
			c-2.8,2-6.8,1.3-8.9-1.5l0,0c-2-2.9-1.3-6.8,1.5-8.9l1.1-0.8C343.6,116.5,347.5,117.2,349.6,120z"/>
	</g>
	<g>
		<path fill-rule="evenodd" clip-rule="evenodd" fill="#FDCF9D" d="M371.3,47.8L371.3,47.8c2.6,3.7,1.7,8.9-2,11.5l-22,17.8
			c-3.7,2.6-8.9,1.7-11.5-2l0,0c-2.6-3.7-1.7-8.9,2-11.5l22-17.8C363.5,43.2,368.7,44.1,371.3,47.8z"/>
		<path opacity="0.23" fill-rule="evenodd" clip-rule="evenodd" fill="#D2D2D2" d="M371.3,47.8c-2.3-3.2-6.5-4.3-10-2.8
			c1.8,0.5,3.5,1.6,4.7,3.2c2.6,3.7,1.7,8.9-2,11.5l-22,17.8c-0.5,0.3-1,0.6-1.5,0.8c2.3,0.6,4.8,0.2,6.8-1.3l22-17.8
			C373.1,56.6,374,51.5,371.3,47.8z"/>
		<path fill-rule="evenodd" clip-rule="evenodd" fill="#FEE4C2" d="M349.9,64.8L349.9,64.8c2.2,3.1,1.5,7.5-1.7,9.7l-1.2,0.8
			c-3.1,2.2-7.5,1.5-9.7-1.7l0,0c-2.2-3.1-1.5-7.5,1.7-9.7l1.2-0.8C343.3,60.9,347.7,61.6,349.9,64.8z"/>
	</g>
	<g>
		<path fill-rule="evenodd" clip-rule="evenodd" fill="#FDCF9D" d="M370.7,86.2L370.7,86.2c2.6,3.7,1.7,8.9-2,11.5l-22,17.8
			c-3.7,2.6-8.9,1.7-11.5-2l0,0c-2.6-3.7-1.7-8.9,2-11.5l22-17.8C362.9,81.6,368,82.5,370.7,86.2z"/>
		<path opacity="0.23" fill-rule="evenodd" clip-rule="evenodd" fill="#D2D2D2" d="M370.7,86.2c-2.3-3.2-6.5-4.3-10-2.8
			c1.8,0.5,3.5,1.6,4.7,3.2c2.6,3.7,1.7,8.9-2,11.5l-22,17.8c-0.5,0.3-1,0.6-1.5,0.8c2.3,0.6,4.8,0.2,6.8-1.3l22-17.8
			C372.4,95.1,373.3,89.9,370.7,86.2z"/>
		<path fill-rule="evenodd" clip-rule="evenodd" fill="#FEE4C2" d="M349.2,103.2L349.2,103.2c2.2,3.1,1.5,7.5-1.7,9.7l-1.2,0.8
			c-3.1,2.2-7.5,1.5-9.7-1.7l0,0c-2.2-3.1-1.5-7.5,1.7-9.7l1.2-0.8C342.6,99.3,347,100.1,349.2,103.2z"/>
	</g>
	<g>
		<path fill-rule="evenodd" clip-rule="evenodd" fill="#FDCF9D" d="M376.2,63.9L376.2,63.9c2.6,3.7,1.7,8.9-2,11.5l-27,21.8
			c-3.7,2.6-8.9,1.7-11.5-2l0,0c-2.6-3.7-1.7-8.9,2-11.5l27-21.8C368.4,59.3,373.6,60.2,376.2,63.9z"/>
		<path opacity="0.23" fill-rule="evenodd" clip-rule="evenodd" fill="#D2D2D2" d="M376.2,63.9c-2.3-3.2-6.5-4.3-10-2.8
			c1.8,0.5,3.5,1.6,4.7,3.2c2.6,3.7,1.7,8.9-2,11.5l-27,21.8c-0.5,0.3-1,0.6-1.5,0.8c2.3,0.6,4.8,0.2,6.8-1.3l27-21.8
			C378,72.7,378.9,67.6,376.2,63.9z"/>
		<path fill-rule="evenodd" clip-rule="evenodd" fill="#FEE4C2" d="M349.9,84.9L349.9,84.9c2.2,3.1,1.5,7.5-1.7,9.7l-1.2,0.8
			c-3.1,2.2-7.5,1.5-9.7-1.7l0,0c-2.2-3.1-1.5-7.5,1.7-9.7l1.2-0.8C343.2,81,347.6,81.8,349.9,84.9z"/>
	</g>
	<g>
		<path fill-rule="evenodd" clip-rule="evenodd" fill="#FDCF9D" d="M266.1,103.4l3.1-9.2l5.9-7.6c12.1-5.5,9.7-24.4,7-32.3
			c-0.4-1.2-1.4-1.5-2.4-1.1l-29,29.1c-5.3,4.3-7.5,6.5-8,11.1c0,0,0,0,0,0l-2.4,16.7c-2.2,13.1-5.8,31.8-9.3,40.9
			c-4.9,12.5-15.1,26.6-28.1,45.3l3.9,12.2h30.6c6-4.9,11-9.7,14.7-14.8c12-16.2,6.2-2.8,16.1-20.3
			C288.4,137.7,266.1,103.4,266.1,103.4z"/>
		<path opacity="5.000000e-002" fill-rule="evenodd" clip-rule="evenodd" d="M206.9,198.3c12.9-18.6,23.2-32.8,28.1-45.3
			c3.5-9.1,7.1-27.8,9.3-40.9l2.4-16.7c0,0,0,0,0,0c0.5-4.6,3.4-9,8-11.1l28.1-28.6c-0.1-0.5-0.3-1-0.5-1.4
			c-0.4-1.2-1.4-1.5-2.4-1.1l-29.2,29.1c-5.8,5-7.5,6.5-8,11.1c0,0,0,0,0,0l-2.4,16.7c-2.2,13.1-5.8,31.8-9.3,40.9
			c-4.9,12.5-15.1,26.6-28.1,45.3l3.9,12.2h3.4L206.9,198.3z"/>
		<path fill-rule="evenodd" clip-rule="evenodd" fill="#FEE4C2" d="M281.5,52.4c-0.9-1-1.7-0.4-2.1,0l-11.5,11.7
			c4.5,3.9,11.2-1.7,14.5-7.6C282.9,55.8,282.6,53.7,281.5,52.4z"/>
	</g>
	<g>
		<polygon fill="#593010" points="66,466.7 255.8,203.1 210.1,175.1 0,466.7 		"/>
		<polygon fill="#6C3C1C" points="69.7,466.7 259.5,203.1 246.8,195.3 52.7,466.7 		"/>
		<polygon fill="#BEB5B4" points="200.3,182.4 257.5,209.9 269.4,190.6 215.1,158.2 		"/>
		<polygon fill="#E4E4EB" points="257.6,183.3 269.4,190.6 257.5,209.9 244.7,203.7 		"/>
		<path fill="#FFFFFF" d="M254.1,194.7c-1.1,1.8-0.5,4.2,1.3,5.3c1.8,1.1,4.2,0.5,5.3-1.3c1.1-1.8,0.5-4.2-1.3-5.3
			C257.6,192.2,255.2,192.8,254.1,194.7z"/>
	</g>
	<circle fill="#758E96" cx="310.4" cy="74.5" r="22.3"/>
	<text transform="matrix(1 0 0 1 289.9497 38.5143)" fill="#FFFFFF" font-family="'ProximaNova-Bold'" font-size="6.751">800-555-44-33</text>
	<circle fill="#FF0000" cx="324.6" cy="122.6" r="7.9"/>
	<circle fill="#00FF00" cx="296.8" cy="122.6" r="7.9"/>
	<circle fill="#FFFFFF" cx="310.4" cy="70" r="5.3"/>
	<path fill="#FFFFFF" d="M319.5,87.3h-18.3v-0.3c0-5.1,4.1-9.2,9.2-9.2h0c5.1,0,9.2,4.1,9.2,9.2V87.3z"/>
</g>
</svg>
