<?xml version="1.0" encoding="utf-8"?>
<!-- Generator: Adobe Illustrator 18.0.0, SVG Export Plug-In . SVG Version: 6.00 Build 0)  -->
<!DOCTYPE svg PUBLIC "-//W3C//DTD SVG 1.1//EN" "http://www.w3.org/Graphics/SVG/1.1/DTD/svg11.dtd">
<svg version="1.1" id="Objects" xmlns="http://www.w3.org/2000/svg" xmlns:xlink="http://www.w3.org/1999/xlink" x="0px" y="0px"
	 viewBox="0 0 267.6 315.5" enable-background="new 0 0 267.6 315.5" xml:space="preserve">
<path opacity="0.65" fill="#E7EDF2" d="M1591.1,431.2c0,0,52.5,103.3,53.6,105.9v11.8h-69.5V431.2H1591.1z"/>
<g>
	<path fill="#FDCF9D" d="M120.2,179.9c0,0-50.1-2.7-58.5-26.1c-8.4-23.4,5.4-57.4,5.4-57.4l51.5,8"/>
	<path fill="#808184" d="M26.4,151.4V7.8c0-4.3,3.5-7.8,7.8-7.8l66.2,0c4.3,0,7.8,3.5,7.8,7.8v143.6c0,4.3-3.5,7.8-7.8,7.8H34.3
		C29.9,159.2,26.4,155.7,26.4,151.4z"/>
	<path d="M27.7,151.4c0,3.6,2.9,6.5,6.5,6.5h66.2c3.6,0,6.5-2.9,6.5-6.5V7.8c0-3.6-2.9-6.5-6.5-6.5H34.3c-3.6,0-6.5,2.9-6.5,6.5
		V151.4z"/>
	<rect x="32.6" y="17.3" fill="#396172" width="69.5" height="117.7"/>
	<g>
		<path fill="#FFFFFF" d="M89.4,86h-44c-4.3,0-7.9-3.5-7.9-7.9V32.5c0-4.3,3.5-7.9,7.9-7.9h44c4.3,0,7.9,3.5,7.9,7.9v45.6
			C97.2,82.5,93.7,86,89.4,86z"/>
		<polygon fill="#FFFFFF" points="54.6,83 68.9,83 48.3,97.6 		"/>
	</g>
	<g>
		<path fill-rule="evenodd" clip-rule="evenodd" fill="#FDCF9D" d="M111.6,100l-3.1-9.2l-5.9-7.6c-12.1-5.5-9.7-24.4-7-32.3
			c0.4-1.2,1.4-1.5,2.4-1.1l29,29.1c5.3,4.3,7.5,6.5,8,11.1c0,0,0,0,0,0l2.4,16.7c2.2,13.1,5.8,31.8,9.3,40.9
			c4.9,12.5,15.1,26.6,28.1,45.3l-3.9,12.2h-30.6c-6-4.9-11-9.7-14.7-14.8c-12-16.2-6.2-2.8-16.1-20.3
			C89.3,134.3,111.6,100,111.6,100z"/>
		<path opacity="5.000000e-002" fill-rule="evenodd" clip-rule="evenodd" d="M170.8,194.9c-12.9-18.6-23.2-32.8-28.1-45.3
			c-3.5-9.1-7.1-27.8-9.3-40.9L131,92c0,0,0,0,0,0c-0.5-4.6-3.4-9-8-11.1L95,52.3c0.1-0.5,0.3-1,0.5-1.4c0.4-1.2,1.4-1.5,2.4-1.1
			L127.1,79c5.8,5,7.5,6.5,8,11.1c0,0,0,0,0,0l2.4,16.7c2.2,13.1,5.8,31.8,9.3,40.9c4.9,12.5,15.1,26.6,28.1,45.3l-3.9,12.2h-3.4
			L170.8,194.9z"/>
		<path fill-rule="evenodd" clip-rule="evenodd" fill="#FEE4C2" d="M96.2,49.1c0.9-1,1.7-0.4,2.1,0l11.5,11.7
			c-4.5,3.9-11.2-1.7-14.5-7.6C94.8,52.4,95.1,50.4,96.2,49.1z"/>
	</g>
	<path fill="#B6B681" d="M126.1,196.9l34.3-20.2c2.2-1.3,2.9-4.1,1.6-6.3l-7.5-12.7c-1.3-2.2-4.1-2.9-6.3-1.6l-34.3,20.2
		c-2.2,1.3-2.9,4.1-1.6,6.3l7.5,12.7C121.1,197.5,123.9,198.2,126.1,196.9z"/>
	<g>
		<path fill="#83A14A" d="M123.8,196.3l38.1-23.3c1.2-0.7,2.8-0.4,3.6,0.7l102.1,141.7h-65.9L122,205
			C120,202.2,120.8,198.2,123.8,196.3z"/>
		<path fill="#94A648" d="M124.1,196.1l6.8-4.2l88.4,123.5h-17.7l-79.4-110.2C120.1,202.3,120.9,198.1,124.1,196.1z"/>
	</g>
	<g>
		<path fill="#94A648" d="M151.6,158.9c0,0,0.4,0.8,1.1,1.9c0.7,1.1,1.6,2.6,2.7,4c1,1.4,2.1,2.8,3,3.8c0.9,1,1.5,1.6,1.5,1.6
			s-0.4-0.8-1.1-1.9c-0.7-1.1-1.6-2.6-2.7-4c-1-1.4-2.1-2.8-3-3.8C152.3,159.5,151.6,158.9,151.6,158.9z"/>
		<path fill="#94A648" d="M148.7,160.7c0,0,0.4,0.8,1.1,1.9c0.7,1.1,1.6,2.6,2.7,4c1,1.4,2.1,2.8,3,3.8c0.9,1,1.5,1.6,1.5,1.6
			s-0.4-0.8-1.1-1.9c-0.7-1.1-1.6-2.6-2.7-4c-1-1.4-2.1-2.8-3-3.8C149.4,161.3,148.7,160.7,148.7,160.7z"/>
		<path fill="#94A648" d="M145.9,162.4c0,0,0.4,0.8,1.1,1.9c0.7,1.1,1.6,2.6,2.7,4c1,1.4,2.1,2.8,3,3.8c0.9,1,1.5,1.6,1.5,1.6
			s-0.4-0.8-1.1-1.9c-0.7-1.1-1.6-2.6-2.7-4c-1-1.4-2.1-2.8-3-3.8C146.5,163,145.9,162.4,145.9,162.4z"/>
		<path fill="#94A648" d="M143,164.2c0,0,0.4,0.8,1.1,1.9c0.7,1.1,1.6,2.6,2.7,4c1,1.4,2.1,2.8,3,3.8c0.9,1,1.5,1.6,1.5,1.6
			s-0.4-0.8-1.1-1.9c-0.7-1.1-1.6-2.6-2.7-4c-1-1.4-2.1-2.8-3-3.8C143.6,164.8,143,164.2,143,164.2z"/>
		<path fill="#94A648" d="M140.1,165.9c0,0,0.4,0.8,1.1,1.9c0.7,1.1,1.6,2.6,2.7,4c1,1.4,2.1,2.8,3,3.8c0.9,1,1.5,1.6,1.5,1.6
			s-0.4-0.8-1.1-1.9c-0.7-1.1-1.6-2.6-2.7-4c-1-1.4-2.1-2.8-3-3.8C140.8,166.6,140.1,165.9,140.1,165.9z"/>
		<path fill="#94A648" d="M137.2,167.7c0,0,0.4,0.8,1.1,1.9c0.7,1.1,1.6,2.6,2.7,4c1,1.4,2.1,2.8,3,3.8c0.9,1,1.5,1.6,1.5,1.6
			s-0.4-0.8-1.1-1.9c-0.7-1.1-1.6-2.6-2.7-4c-1-1.4-2.1-2.8-3-3.8C137.9,168.3,137.2,167.7,137.2,167.7z"/>
		<path fill="#94A648" d="M134.4,169.5c0,0,0.4,0.8,1.1,1.9c0.7,1.1,1.6,2.6,2.7,4c1,1.4,2.1,2.8,3,3.8c0.9,1,1.5,1.6,1.5,1.6
			s-0.4-0.8-1.1-1.9c-0.7-1.1-1.6-2.6-2.7-4c-1-1.4-2.1-2.8-3-3.8C135,170.1,134.4,169.5,134.4,169.5z"/>
		<path fill="#94A648" d="M131.5,171.2c0,0,0.4,0.8,1.1,1.9c0.7,1.1,1.6,2.6,2.7,4c1,1.4,2.1,2.8,3,3.8c0.9,1,1.5,1.6,1.5,1.6
			s-0.4-0.8-1.1-1.9c-0.7-1.1-1.6-2.6-2.7-4c-1-1.4-2.1-2.8-3-3.8C132.1,171.8,131.5,171.2,131.5,171.2z"/>
		<path fill="#94A648" d="M128.6,173c0,0,0.4,0.8,1.1,1.9c0.7,1.1,1.6,2.6,2.7,4c1,1.4,2.1,2.8,3,3.8c0.9,1,1.5,1.6,1.5,1.6
			s-0.4-0.8-1.1-1.9c-0.7-1.1-1.6-2.6-2.7-4c-1-1.4-2.1-2.8-3-3.8C129.3,173.6,128.6,173,128.6,173z"/>
		<path fill="#94A648" d="M125.7,174.7c0,0,0.4,0.8,1.1,1.9c0.7,1.1,1.6,2.6,2.7,4c1,1.4,2.1,2.8,3,3.8c0.9,1,1.5,1.6,1.5,1.6
			s-0.4-0.8-1.1-1.9c-0.7-1.1-1.6-2.6-2.7-4c-1-1.4-2.1-2.8-3-3.8C126.4,175.3,125.7,174.7,125.7,174.7z"/>
		<path fill="#94A648" d="M122.9,176.5c0,0,0.4,0.8,1.1,1.9c0.7,1.1,1.6,2.6,2.7,4c1,1.4,2.1,2.8,3,3.8c0.9,1,1.5,1.6,1.5,1.6
			s-0.4-0.8-1.1-1.9c-0.7-1.1-1.6-2.6-2.7-4c-1-1.4-2.1-2.8-3-3.8C123.5,177.1,122.9,176.5,122.9,176.5z"/>
		<path fill="#94A648" d="M120,178.2c0,0,0.4,0.8,1.1,1.9c0.7,1.1,1.6,2.6,2.7,4c1,1.4,2.1,2.8,3,3.8c0.9,1,1.5,1.6,1.5,1.6
			s-0.4-0.8-1.1-1.9c-0.7-1.1-1.6-2.6-2.7-4c-1-1.4-2.1-2.8-3-3.8C120.6,178.9,120,178.2,120,178.2z"/>
		<path fill="#94A648" d="M117.1,180c0,0,0.4,0.8,1.1,1.9c0.7,1.1,1.6,2.6,2.7,4c1,1.4,2.1,2.8,3,3.8c0.9,1,1.5,1.6,1.5,1.6
			s-0.4-0.8-1.1-1.9c-0.7-1.1-1.6-2.6-2.7-4c-1-1.4-2.1-2.8-3-3.8C117.8,180.6,117.1,180,117.1,180z"/>
		<path fill="#94A648" d="M114.2,181.8c0,0,0.4,0.8,1.1,1.9c0.7,1.1,1.6,2.6,2.7,4c1,1.4,2.1,2.8,3,3.8c0.9,1,1.5,1.6,1.5,1.6
			s-0.4-0.8-1.1-1.9c-0.7-1.1-1.6-2.6-2.7-4c-1-1.4-2.1-2.8-3-3.8C114.9,182.4,114.2,181.8,114.2,181.8z"/>
	</g>
	<rect x="42" y="31.9" fill="none" width="51.4" height="54.1"/>
	<text transform="matrix(1 0 0 1 42.0361 36.1297)"><tspan x="0" y="0" font-family="'ProximaNova-Bold'" font-size="6">Hi! Thank you for </tspan><tspan x="0" y="7.2" font-family="'ProximaNova-Bold'" font-size="6">you visiting our </tspan><tspan x="0" y="14.4" font-family="'ProximaNova-Bold'" font-size="6">store mystore.com </tspan><tspan x="0" y="21.6" font-family="'ProximaNova-Bold'" font-size="6">Need help? Just </tspan><tspan x="0" y="28.8" font-family="'ProximaNova-Bold'" font-size="6">answer «1» and we </tspan><tspan x="0" y="36" font-family="'ProximaNova-Bold'" font-size="6">call you now for </tspan><tspan x="0" y="43.2" font-family="'ProximaNova-Bold'" font-size="6">free!</tspan></text>
	<g>
		<path fill="#54585B" d="M76,12.2c1,0,1.7-0.5,1.7-1.1c0-0.6-0.8-1.1-1.7-1.1H59.1c-1,0-1.7,0.5-1.7,1.1c0,0.6,0.8,1.1,1.7,1.1H76z
			"/>
		<path fill="#BBBDBF" d="M60.2,146.4c0,4.1,3.3,7.4,7.4,7.4l0,0c4.1,0,7.4-3.3,7.4-7.4v0c0-4.1-3.3-7.4-7.4-7.4h0
			C63.5,139,60.2,142.3,60.2,146.4L60.2,146.4z"/>
		<path d="M67.5,140.3c-3.3,0-6,2.7-6,6v0c0,3.3,2.7,6,6,6l0,0c3.3,0,6-2.7,6-6v0C73.6,143,70.9,140.3,67.5,140.3L67.5,140.3z"/>
		<circle fill="#BBBDBF" cx="67.5" cy="6.4" r="1.4"/>
	</g>
	<g>
		<path fill-rule="evenodd" clip-rule="evenodd" fill="#FDCF9D" d="M8.7,101.2L8.7,101.2c-2.4,3.4-1.6,8.1,1.8,10.5l20,16.2
			c3.4,2.4,8.1,1.6,10.5-1.8l0,0c2.4-3.4,1.6-8.1-1.8-10.5l-20-16.2C15.8,97,11.1,97.8,8.7,101.2z"/>
		<path opacity="0.23" fill-rule="evenodd" clip-rule="evenodd" fill="#D2D2D2" d="M8.7,101.2c2.1-2.9,5.9-3.9,9.1-2.5
			c-1.7,0.4-3.2,1.4-4.3,2.9c-2.4,3.4-1.6,8.1,1.8,10.5l20,16.2c0.4,0.3,0.9,0.6,1.4,0.8c-2.1,0.5-4.3,0.2-6.2-1.1l-20-16.2
			C7.1,109.2,6.3,104.5,8.7,101.2z"/>
		<path fill-rule="evenodd" clip-rule="evenodd" fill="#FEE4C2" d="M28.2,116.6L28.2,116.6c-2,2.9-1.3,6.8,1.5,8.9l1.1,0.8
			c2.8,2,6.8,1.3,8.9-1.5l0,0c2-2.9,1.3-6.8-1.5-8.9l-1.1-0.8C34.2,113.1,30.2,113.8,28.2,116.6z"/>
	</g>
	<g>
		<path fill-rule="evenodd" clip-rule="evenodd" fill="#FDCF9D" d="M6.4,44.4L6.4,44.4c-2.6,3.7-1.7,8.9,2,11.5l22,17.8
			c3.7,2.6,8.9,1.7,11.5-2l0,0c2.6-3.7,1.7-8.9-2-11.5l-22-17.8C14.2,39.8,9,40.7,6.4,44.4z"/>
		<path opacity="0.23" fill-rule="evenodd" clip-rule="evenodd" fill="#D2D2D2" d="M6.4,44.4c2.3-3.2,6.5-4.3,10-2.8
			c-1.8,0.5-3.5,1.6-4.7,3.2c-2.6,3.7-1.7,8.9,2,11.5l22,17.8c0.5,0.3,1,0.6,1.5,0.8c-2.3,0.6-4.8,0.2-6.8-1.3l-22-17.8
			C4.7,53.3,3.8,48.1,6.4,44.4z"/>
		<path fill-rule="evenodd" clip-rule="evenodd" fill="#FEE4C2" d="M27.8,61.4L27.8,61.4c-2.2,3.1-1.5,7.5,1.7,9.7l1.2,0.8
			c3.1,2.2,7.5,1.5,9.7-1.7l0,0c2.2-3.1,1.5-7.5-1.7-9.7l-1.2-0.8C34.4,57.5,30.1,58.3,27.8,61.4z"/>
	</g>
	<g>
		<path fill-rule="evenodd" clip-rule="evenodd" fill="#FDCF9D" d="M7.1,82.8L7.1,82.8c-2.6,3.7-1.7,8.9,2,11.5l22,17.8
			c3.7,2.6,8.9,1.7,11.5-2l0,0c2.6-3.7,1.7-8.9-2-11.5l-22-17.8C14.9,78.2,9.7,79.1,7.1,82.8z"/>
		<path opacity="0.23" fill-rule="evenodd" clip-rule="evenodd" fill="#D2D2D2" d="M7.1,82.8c2.3-3.2,6.5-4.3,10-2.8
			c-1.8,0.5-3.5,1.6-4.7,3.2c-2.6,3.7-1.7,8.9,2,11.5l22,17.8c0.5,0.3,1,0.6,1.5,0.8c-2.3,0.6-4.8,0.2-6.8-1.3L9,94.3
			C5.4,91.7,4.5,86.5,7.1,82.8z"/>
		<path fill-rule="evenodd" clip-rule="evenodd" fill="#FEE4C2" d="M28.5,99.8L28.5,99.8c-2.2,3.1-1.5,7.5,1.7,9.7l1.2,0.8
			c3.1,2.2,7.5,1.5,9.7-1.7l0,0c2.2-3.1,1.5-7.5-1.7-9.7l-1.2-0.8C35.1,95.9,30.7,96.7,28.5,99.8z"/>
	</g>
	<g>
		<path fill-rule="evenodd" clip-rule="evenodd" fill="#FDCF9D" d="M1.5,60.5L1.5,60.5c-2.6,3.7-1.7,8.9,2,11.5l27,21.8
			c3.7,2.6,8.9,1.7,11.5-2l0,0c2.6-3.7,1.7-8.9-2-11.5L13,58.5C9.3,55.9,4.1,56.8,1.5,60.5z"/>
		<path opacity="0.23" fill-rule="evenodd" clip-rule="evenodd" fill="#D2D2D2" d="M1.5,60.5c2.3-3.2,6.5-4.3,10-2.8
			c-1.8,0.5-3.5,1.6-4.7,3.2c-2.6,3.7-1.7,8.9,2,11.5l27,21.8c0.5,0.3,1,0.6,1.5,0.8c-2.3,0.6-4.8,0.2-6.8-1.3L3.5,72
			C-0.2,69.4-1.1,64.2,1.5,60.5z"/>
		<path fill-rule="evenodd" clip-rule="evenodd" fill="#FEE4C2" d="M27.9,81.5L27.9,81.5c-2.2,3.1-1.5,7.5,1.7,9.7l1.2,0.8
			c3.1,2.2,7.5,1.5,9.7-1.7l0,0c2.2-3.1,1.5-7.5-1.7-9.7l-1.2-0.8C34.5,77.6,30.1,78.4,27.9,81.5z"/>
	</g>
	<rect x="57.8" y="51.2" width="34.2" height="0.6"/>
</g>
</svg>
