<?xml version="1.0" encoding="utf-8"?>
<!-- Generator: Adobe Illustrator 18.0.0, SVG Export Plug-In . SVG Version: 6.00 Build 0)  -->
<!DOCTYPE svg PUBLIC "-//W3C//DTD SVG 1.1//EN" "http://www.w3.org/Graphics/SVG/1.1/DTD/svg11.dtd">
<svg version="1.1" id="Objects" xmlns="http://www.w3.org/2000/svg" xmlns:xlink="http://www.w3.org/1999/xlink" x="0px" y="0px"
	 viewBox="0 0 251.7 615.4" enable-background="new 0 0 251.7 615.4" xml:space="preserve">
<g>
	<g opacity="0.2">
		<g>
			<path fill="none" stroke="#FFFFFF" stroke-miterlimit="10" d="M0.4,613.5c0,0,0.9,0.1,2.5,0.3"/>
			<path fill="none" stroke="#FFFFFF" stroke-miterlimit="10" stroke-dasharray="4.9958,4.9958" d="M7.9,614.3
				c33.2,2.9,168.5,7.6,220.1-104.3c59-128-1-239-82-298C66,153.7,67,24.1,203.1,0.8"/>
			<path fill="none" stroke="#FFFFFF" stroke-miterlimit="10" d="M205.5,0.4c0.8-0.1,1.6-0.3,2.5-0.4"/>
		</g>
	</g>
	<g>
		<polygon fill="#CFE7DC" points="108.2,608 110.1,592.9 191.1,564.1 		"/>
		<polygon fill="#A1CFCB" points="189.8,564.8 108.2,608 120.2,605.1 		"/>
		<polygon fill="#FFFFFF" points="191.1,564.1 120.2,605.1 139.1,620.2 		"/>
		<polygon fill="#FFFFFF" points="110.1,592.9 91.3,583.7 191.1,564.1 		"/>
	</g>
</g>
</svg>
