<?xml version="1.0" encoding="utf-8"?>
<!-- Generator: Adobe Illustrator 18.0.0, SVG Export Plug-In . SVG Version: 6.00 Build 0)  -->
<!DOCTYPE svg PUBLIC "-//W3C//DTD SVG 1.1//EN" "http://www.w3.org/Graphics/SVG/1.1/DTD/svg11.dtd">
<svg version="1.1" id="Objects" xmlns="http://www.w3.org/2000/svg" xmlns:xlink="http://www.w3.org/1999/xlink" x="0px" y="0px"
	 viewBox="0 0 318.3 626" enable-background="new 0 0 318.3 626" xml:space="preserve">
<g>
	<g opacity="0.2">
		<g>
			<path fill="none" stroke="#FFFFFF" stroke-miterlimit="10" d="M189.3,626c0,0-0.1-0.8-0.3-2.5"/>
			<path fill="none" stroke="#FFFFFF" stroke-miterlimit="10" stroke-dasharray="4.9992,4.9992" d="M188.6,618.5
				c-0.8-22.3,4.5-92.3,87.4-178.5c101-105,9.8-304-156.6-262s-48.4,228.6,60.2,151C283.2,254.9,171.9,103.6,4.3,2.6"/>
			<path fill="none" stroke="#FFFFFF" stroke-miterlimit="10" d="M2.1,1.3C1.4,0.9,0.7,0.4,0,0"/>
		</g>
	</g>
	<g>
		<polygon fill="#FFFFFF" points="228.7,556.8 209,542.7 251.2,460.3 		"/>
		<polygon fill="#FFFFFF" points="196.1,535.9 177.4,528 251.5,460.2 		"/>
		<polygon fill="#CFE7DC" points="251.2,460.3 196.1,535.9 203.1,539.6 		"/>
		<polygon fill="#A1CFCB" points="203.1,539.6 209,542.7 251.2,460.3 		"/>
	</g>
</g>
</svg>
