<svg xmlns="http://www.w3.org/2000/svg" xmlns:xlink="http://www.w3.org/1999/xlink" preserveAspectRatio="xMidYMid" width="113" height="136" viewBox="0 0 113 136">
  <defs>
    <style>

      .cls-2 {
        fill: #9ee63c;
      }
    </style>
  </defs>
  <path d="M105.204,100.729 C105.204,100.729 60.552,100.729 60.552,100.729 C60.552,100.729 82.270,132.346 82.270,132.346 C83.000,133.409 82.726,134.860 81.659,135.587 C81.254,135.862 80.794,135.993 80.339,135.993 C79.592,135.993 78.857,135.638 78.403,134.978 C78.403,134.978 58.455,105.938 58.455,105.938 C58.455,105.938 58.455,133.662 58.455,133.662 C58.455,134.950 57.406,135.993 56.113,135.993 C54.819,135.993 53.771,134.950 53.771,133.662 C53.771,133.662 53.771,105.938 53.771,105.938 C53.771,105.938 33.822,134.978 33.822,134.978 C33.369,135.638 32.634,135.993 31.886,135.993 C31.431,135.993 30.971,135.862 30.567,135.587 C29.499,134.860 29.225,133.409 29.956,132.346 C29.956,132.346 51.674,100.729 51.674,100.729 C51.674,100.729 7.022,100.729 7.022,100.729 C3.147,100.729 -0.005,97.592 -0.005,93.735 C-0.005,93.735 -0.005,15.817 -0.005,15.817 C-0.005,11.961 3.147,8.824 7.022,8.824 C7.022,8.824 32.563,8.824 32.563,8.824 C32.563,8.824 32.563,2.332 32.563,2.332 C32.563,1.044 33.611,-0.000 34.905,-0.000 C34.905,-0.000 77.322,-0.000 77.322,-0.000 C78.615,-0.000 79.664,1.044 79.664,2.332 C79.664,2.332 79.664,8.824 79.664,8.824 C79.664,8.824 105.204,8.824 105.204,8.824 C109.078,8.824 112.230,11.961 112.230,15.817 C112.230,15.817 112.230,93.735 112.230,93.735 C112.230,97.592 109.078,100.729 105.204,100.729 ZM74.979,4.662 C74.979,4.662 37.247,4.662 37.247,4.662 C37.247,4.662 37.247,8.802 37.247,8.802 C37.247,8.802 74.979,8.802 74.979,8.802 C74.979,8.802 74.979,4.662 74.979,4.662 ZM107.546,15.817 C107.546,14.532 106.495,13.487 105.204,13.487 C105.204,13.487 7.022,13.487 7.022,13.487 C5.730,13.487 4.680,14.532 4.680,15.817 C4.680,15.817 4.680,93.735 4.680,93.735 C4.680,95.021 5.730,96.067 7.022,96.067 C7.022,96.067 56.093,96.067 56.093,96.067 C56.096,96.067 56.100,96.067 56.103,96.067 C56.103,96.067 56.122,96.067 56.122,96.067 C56.126,96.067 56.129,96.067 56.133,96.067 C56.133,96.067 105.204,96.067 105.204,96.067 C106.495,96.067 107.546,95.021 107.546,93.735 C107.546,93.735 107.546,15.817 107.546,15.817 ZM96.821,86.215 C96.821,86.215 14.198,86.215 14.198,86.215 C13.236,86.215 12.372,85.630 12.019,84.738 C11.666,83.847 11.897,82.832 12.601,82.179 C12.601,82.179 27.477,68.373 27.477,68.373 C28.257,67.650 29.430,67.542 30.329,68.109 C30.329,68.109 40.391,74.463 40.391,74.463 C40.391,74.463 60.060,60.189 60.060,60.189 C60.763,59.679 61.691,59.599 62.472,59.980 C62.472,59.980 72.553,64.907 72.553,64.907 C72.553,64.907 95.882,54.735 95.882,54.735 C96.606,54.422 97.441,54.488 98.103,54.920 C98.764,55.350 99.163,56.084 99.163,56.871 C99.163,56.871 99.163,83.884 99.163,83.884 C99.163,85.171 98.115,86.215 96.821,86.215 ZM94.479,60.438 C94.479,60.438 73.436,69.612 73.436,69.612 C72.805,69.887 72.082,69.871 71.464,69.569 C71.464,69.569 61.677,64.787 61.677,64.787 C61.677,64.787 41.862,79.165 41.862,79.165 C41.086,79.730 40.040,79.763 39.228,79.250 C39.228,79.250 29.348,73.011 29.348,73.011 C29.348,73.011 20.145,81.553 20.145,81.553 C20.145,81.553 94.479,81.553 94.479,81.553 C94.479,81.553 94.479,60.438 94.479,60.438 ZM95.414,47.054 C95.414,47.054 64.656,47.054 64.656,47.054 C63.363,47.054 62.314,46.010 62.314,44.722 C62.314,43.435 63.363,42.391 64.656,42.391 C64.656,42.391 95.414,42.391 95.414,42.391 C96.707,42.391 97.756,43.435 97.756,44.722 C97.756,46.010 96.707,47.054 95.414,47.054 ZM95.414,33.854 C95.414,33.854 64.656,33.854 64.656,33.854 C63.363,33.854 62.314,32.810 62.314,31.522 C62.314,30.235 63.363,29.191 64.656,29.191 C64.656,29.191 95.414,29.191 95.414,29.191 C96.707,29.191 97.756,30.235 97.756,31.522 C97.756,32.810 96.707,33.854 95.414,33.854 ZM50.371,42.427 C50.371,42.427 38.500,42.427 38.500,42.427 C36.881,42.427 35.563,41.116 35.563,39.505 C35.563,39.505 35.563,27.689 35.563,27.689 C35.563,26.075 36.876,24.764 38.489,24.764 C38.525,24.764 38.588,24.764 38.624,24.766 C46.627,25.132 52.939,31.416 53.306,39.382 C53.343,40.168 53.049,40.949 52.500,41.520 C51.948,42.097 51.172,42.427 50.371,42.427 ZM40.248,29.664 C40.248,29.664 40.248,37.764 40.248,37.764 C40.248,37.764 48.386,37.764 48.386,37.764 C47.493,33.707 44.323,30.552 40.248,29.664 ZM45.592,45.548 C46.141,46.120 46.436,46.901 46.399,47.689 C46.019,55.891 39.254,62.317 31.000,62.317 C30.998,62.317 30.999,62.317 30.998,62.317 C27.250,62.316 23.477,60.970 20.085,58.423 C19.855,58.250 19.654,58.048 19.485,57.822 C15.319,52.327 14.424,45.992 17.037,40.453 C19.479,35.281 24.552,31.905 30.278,31.642 C31.934,31.566 33.340,32.917 33.340,34.566 C33.340,34.566 33.340,44.640 33.340,44.640 C33.340,44.640 43.461,44.640 43.461,44.640 C44.262,44.640 45.038,44.971 45.592,45.548 ZM31.593,49.303 C29.974,49.303 28.656,47.991 28.656,46.379 C28.656,46.379 28.656,36.533 28.656,36.533 C25.474,37.230 22.718,39.383 21.277,42.435 C19.455,46.297 20.118,50.806 23.094,54.840 C25.614,56.681 28.342,57.654 30.999,57.654 C30.999,57.654 30.999,57.654 31.000,57.654 C36.116,57.654 40.410,54.110 41.477,49.303 C41.477,49.303 31.593,49.303 31.593,49.303 Z" id="path-1" class="cls-2" fill-rule="evenodd"/>
</svg>
