<svg xmlns="http://www.w3.org/2000/svg" xmlns:xlink="http://www.w3.org/1999/xlink" preserveAspectRatio="xMidYMid" width="116" height="117" viewBox="0 0 116 117">
  <defs>
    <style>

      .cls-2 {
        fill: #e661d2;
      }
    </style>
  </defs>
  <path d="M113.596,35.905 C112.275,35.905 111.204,34.832 111.204,33.510 C111.204,17.666 98.322,4.777 82.489,4.777 C66.655,4.777 53.773,17.666 53.773,33.510 C53.773,34.832 52.702,35.905 51.380,35.905 C50.059,35.905 48.987,34.832 48.987,33.510 C48.987,15.026 64.016,-0.012 82.489,-0.012 C100.961,-0.012 115.989,15.026 115.989,33.510 C115.989,34.832 114.918,35.905 113.596,35.905 ZM60.773,87.034 C60.773,87.034 64.359,83.446 64.359,83.446 C66.694,81.110 70.638,79.601 74.409,79.601 C75.517,79.601 76.565,79.733 77.522,79.994 C77.522,79.994 90.189,83.455 90.189,83.455 C94.367,84.589 98.723,88.710 100.103,92.834 C100.103,92.834 100.585,94.288 100.585,94.288 C101.990,98.514 100.628,104.294 97.481,107.445 C97.481,107.445 90.626,114.303 90.626,114.303 C88.790,116.132 84.472,116.994 84.018,116.994 C84.018,116.994 83.336,116.996 83.336,116.996 C61.050,116.996 40.115,108.327 24.387,92.586 C8.644,76.837 -0.246,55.011 -0.002,32.705 C-0.002,32.318 0.903,28.118 2.712,26.321 C2.712,26.321 9.558,19.464 9.558,19.464 C11.820,17.205 15.464,15.803 19.074,15.803 C20.379,15.803 21.603,15.989 22.711,16.359 C22.711,16.359 24.162,16.846 24.162,16.846 C28.276,18.218 32.399,22.575 33.541,26.766 C33.541,26.766 36.993,39.440 36.993,39.440 C38.159,43.717 36.644,49.497 33.543,52.600 C33.543,52.600 29.957,56.187 29.957,56.187 C34.410,70.925 46.045,82.571 60.773,87.034 ZM24.959,56.114 C24.736,55.287 24.972,54.403 25.577,53.797 C25.577,53.797 30.159,49.213 30.159,49.213 C32.059,47.313 33.094,43.335 32.375,40.701 C32.375,40.701 28.924,28.026 28.924,28.026 C28.198,25.363 25.264,22.261 22.644,21.388 C22.644,21.388 21.193,20.901 21.193,20.901 C20.588,20.699 19.853,20.591 19.074,20.591 C16.759,20.591 14.295,21.499 12.942,22.850 C12.942,22.850 6.091,29.713 6.091,29.713 C5.696,30.114 5.082,31.779 4.781,33.016 C4.631,53.967 13.000,74.423 27.770,89.199 C42.596,104.036 62.329,112.208 83.336,112.208 C83.336,112.208 83.796,112.206 83.796,112.206 C84.870,111.982 86.811,111.329 87.247,110.912 C87.247,110.912 94.097,104.058 94.097,104.058 C95.973,102.181 96.882,98.321 96.043,95.798 C96.043,95.798 95.563,94.347 95.563,94.347 C94.687,91.731 91.587,88.796 88.933,88.075 C88.933,88.075 76.263,84.614 76.263,84.614 C75.716,84.466 75.092,84.390 74.409,84.390 C71.921,84.390 69.180,85.394 67.743,86.832 C67.743,86.832 63.162,91.416 63.162,91.416 C62.556,92.022 61.671,92.258 60.846,92.035 C43.414,87.320 29.662,73.557 24.959,56.114 ZM86.459,34.375 C86.459,36.566 84.679,38.349 82.489,38.349 C80.299,38.349 78.517,36.566 78.517,34.375 C78.517,32.185 80.299,30.402 82.489,30.402 C84.679,30.402 86.459,32.185 86.459,34.375 ZM81.673,34.375 C81.673,34.825 82.039,35.191 82.489,35.191 C82.937,35.191 83.303,34.825 83.303,34.375 C83.303,33.926 82.937,33.560 82.489,33.560 C82.039,33.560 81.673,33.926 81.673,34.375 ZM69.794,33.510 C69.794,34.832 68.722,35.905 67.401,35.905 C66.079,35.905 65.008,34.832 65.008,33.510 C65.008,23.866 72.849,16.019 82.489,16.019 C92.127,16.019 99.969,23.866 99.969,33.510 C99.969,34.832 98.897,35.905 97.576,35.905 C96.254,35.905 95.183,34.832 95.183,33.510 C95.183,26.506 89.488,20.807 82.489,20.807 C75.489,20.807 69.794,26.506 69.794,33.510 ZM62.868,66.479 C56.753,66.479 51.777,61.501 51.777,55.381 C51.777,49.262 56.753,44.284 62.868,44.284 C62.868,44.284 98.415,44.284 98.415,44.284 C104.530,44.284 109.506,49.262 109.506,55.381 C109.506,61.501 104.530,66.479 98.415,66.479 C98.415,66.479 62.868,66.479 62.868,66.479 ZM104.720,55.381 C104.720,51.902 101.891,49.073 98.415,49.073 C98.415,49.073 62.868,49.073 62.868,49.073 C59.392,49.073 56.563,51.902 56.563,55.381 C56.563,58.860 59.392,61.690 62.868,61.690 C62.868,61.690 98.415,61.690 98.415,61.690 C101.891,61.690 104.720,58.860 104.720,55.381 ZM93.397,59.603 C91.071,59.603 89.178,57.709 89.178,55.381 C89.178,53.053 91.071,51.160 93.397,51.160 C95.724,51.160 97.617,53.053 97.617,55.381 C97.617,57.709 95.724,59.603 93.397,59.603 ZM93.397,53.554 C92.390,53.554 91.571,54.374 91.571,55.381 C91.571,56.389 92.390,57.209 93.397,57.209 C94.405,57.209 95.224,56.389 95.224,55.381 C95.224,54.374 94.405,53.554 93.397,53.554 ZM87.695,53.554 C87.695,53.554 86.250,53.554 86.250,53.554 C86.250,53.554 86.250,58.542 86.250,58.542 C86.250,59.203 85.715,59.739 85.054,59.739 C84.392,59.739 83.857,59.203 83.857,58.542 C83.857,58.542 83.857,53.554 83.857,53.554 C83.857,53.554 82.411,53.554 82.411,53.554 C81.749,53.554 81.214,53.018 81.214,52.356 C81.214,51.695 81.749,51.160 82.411,51.160 C82.411,51.160 87.695,51.160 87.695,51.160 C88.357,51.160 88.892,51.695 88.892,52.356 C88.892,53.018 88.357,53.554 87.695,53.554 ZM76.279,59.739 C74.162,59.739 72.440,58.017 72.440,55.898 C72.440,55.898 72.440,52.356 72.440,52.356 C72.440,51.695 72.975,51.160 73.637,51.160 C74.298,51.160 74.833,51.695 74.833,52.356 C74.833,52.356 74.833,55.898 74.833,55.898 C74.833,56.696 75.482,57.345 76.279,57.345 C77.076,57.345 77.725,56.696 77.725,55.898 C77.725,55.898 77.725,52.356 77.725,52.356 C77.725,51.695 78.260,51.160 78.921,51.160 C79.583,51.160 80.118,51.695 80.118,52.356 C80.118,52.356 80.118,55.898 80.118,55.898 C80.118,58.017 78.396,59.739 76.279,59.739 ZM70.146,59.739 C69.485,59.739 68.950,59.203 68.950,58.542 C68.950,58.542 68.950,57.694 68.950,57.694 C68.950,57.694 66.059,57.694 66.059,57.694 C66.059,57.694 66.059,58.542 66.059,58.542 C66.059,59.203 65.524,59.739 64.863,59.739 C64.201,59.739 63.666,59.203 63.666,58.542 C63.666,58.542 63.666,55.001 63.666,55.001 C63.666,52.883 65.389,51.160 67.505,51.160 C69.621,51.160 71.343,52.883 71.343,55.001 C71.343,55.001 71.343,58.542 71.343,58.542 C71.343,59.203 70.808,59.739 70.146,59.739 ZM68.950,55.001 C68.950,54.202 68.302,53.554 67.505,53.554 C66.708,53.554 66.059,54.202 66.059,55.001 C66.059,55.001 66.059,55.300 66.059,55.300 C66.059,55.300 68.950,55.300 68.950,55.300 C68.950,55.300 68.950,55.001 68.950,55.001 Z" id="path-1" class="cls-2" fill-rule="evenodd"/>
</svg>
