<svg xmlns="http://www.w3.org/2000/svg" xmlns:xlink="http://www.w3.org/1999/xlink" preserveAspectRatio="xMidYMid" width="145" height="118" viewBox="0 0 145 118">
  <defs>
    <style>

      .cls-2 {
        fill: #7eb5e9;
      }
    </style>
  </defs>
  <path d="M137.392,104.685 C137.392,104.685 128.274,104.685 128.274,104.685 C128.274,104.685 131.626,111.056 131.626,111.056 C132.623,112.952 132.253,115.217 130.702,116.692 C129.797,117.553 128.646,117.997 127.480,117.997 C126.650,117.997 125.812,117.772 125.051,117.313 C125.051,117.313 104.094,104.686 104.094,104.686 C104.094,104.686 62.215,104.685 62.215,104.685 C58.011,104.685 54.592,101.250 54.592,97.028 C54.592,97.028 54.592,70.051 54.592,70.051 C54.592,70.051 40.934,70.051 40.934,70.051 C40.934,70.051 19.978,82.679 19.978,82.679 C19.232,83.128 18.394,83.365 17.554,83.365 C15.920,83.365 14.373,82.476 13.514,81.046 C12.666,79.631 12.623,77.902 13.401,76.422 C13.401,76.422 16.754,70.051 16.754,70.051 C16.754,70.051 9.144,70.051 9.144,70.051 C4.109,70.051 0.013,65.937 0.013,60.879 C0.013,60.879 0.013,9.168 0.013,9.168 C0.013,4.110 4.109,-0.004 9.144,-0.004 C9.144,-0.004 81.305,-0.004 81.305,-0.004 C86.340,-0.004 90.436,4.110 90.436,9.168 C90.436,9.168 90.436,34.630 90.436,34.630 C90.436,34.630 137.392,34.630 137.392,34.630 C141.596,34.630 145.016,38.065 145.016,42.287 C145.016,42.287 145.016,97.028 145.016,97.028 C145.016,101.250 141.596,104.685 137.392,104.685 ZM85.735,37.003 C85.735,36.999 85.733,36.995 85.733,36.992 C85.733,36.988 85.735,36.984 85.735,36.980 C85.735,36.980 85.735,9.168 85.735,9.168 C85.735,6.715 83.748,4.718 81.305,4.718 C81.305,4.718 9.144,4.718 9.144,4.718 C6.701,4.718 4.714,6.715 4.714,9.168 C4.714,9.168 4.714,60.879 4.714,60.879 C4.714,63.332 6.701,65.329 9.144,65.329 C9.144,65.329 16.754,65.329 16.754,65.329 C18.418,65.329 19.923,66.183 20.781,67.614 C21.640,69.046 21.688,70.781 20.911,72.258 C20.911,72.258 17.561,78.625 17.561,78.625 C17.561,78.625 38.515,66.001 38.515,66.001 C39.246,65.561 40.082,65.329 40.934,65.329 C40.934,65.329 81.305,65.329 81.305,65.329 C83.748,65.329 85.735,63.332 85.735,60.879 C85.735,60.879 85.735,37.003 85.735,37.003 ZM140.314,42.287 C140.314,40.669 139.003,39.353 137.392,39.353 C137.392,39.353 90.436,39.353 90.436,39.353 C90.436,39.353 90.436,49.492 90.436,49.492 C90.436,49.492 125.784,49.492 125.784,49.492 C127.082,49.492 128.135,50.549 128.135,51.853 C128.135,53.157 127.082,54.215 125.784,54.215 C125.784,54.215 90.436,54.215 90.436,54.215 C90.436,54.215 90.436,60.879 90.436,60.879 C90.436,61.432 90.379,61.972 90.285,62.500 C90.285,62.500 104.106,62.500 104.106,62.500 C105.404,62.500 106.456,63.557 106.456,64.861 C106.456,66.165 105.404,67.223 104.106,67.223 C104.106,67.223 87.885,67.223 87.885,67.223 C86.222,68.962 83.890,70.051 81.305,70.051 C81.305,70.051 59.294,70.051 59.294,70.051 C59.294,70.051 59.294,97.028 59.294,97.028 C59.294,98.646 60.604,99.962 62.215,99.962 C62.215,99.962 104.094,99.962 104.094,99.962 C104.946,99.962 105.783,100.195 106.514,100.636 C106.514,100.636 127.469,113.263 127.469,113.263 C127.469,113.263 124.118,106.892 124.118,106.892 C123.340,105.415 123.389,103.680 124.247,102.248 C125.105,100.817 126.611,99.962 128.274,99.962 C128.274,99.962 137.392,99.962 137.392,99.962 C139.003,99.962 140.314,98.646 140.314,97.028 C140.314,97.028 140.314,42.287 140.314,42.287 ZM119.646,94.103 C117.588,96.170 114.852,97.309 111.942,97.309 C109.031,97.309 106.295,96.170 104.236,94.103 C99.989,89.836 99.989,82.893 104.236,78.626 C104.236,78.626 116.739,66.067 116.739,66.067 C118.797,64.000 121.533,62.862 124.443,62.862 C127.354,62.862 130.090,64.000 132.147,66.067 C134.206,68.134 135.339,70.882 135.339,73.806 C135.339,76.730 134.206,79.478 132.147,81.545 C132.147,81.545 119.646,94.103 119.646,94.103 ZM128.823,69.407 C127.653,68.231 126.098,67.585 124.443,67.585 C122.789,67.585 121.234,68.231 120.063,69.407 C120.063,69.407 107.561,81.965 107.561,81.965 C105.147,84.390 105.147,88.338 107.561,90.764 C108.732,91.939 110.287,92.586 111.942,92.586 C113.596,92.586 115.151,91.939 116.321,90.764 C116.321,90.764 128.823,78.206 128.823,78.206 C129.993,77.030 130.637,75.468 130.637,73.806 C130.637,72.144 129.993,70.582 128.823,69.407 ZM124.201,79.250 C123.858,79.250 123.516,79.099 123.284,78.809 C122.878,78.301 122.959,77.557 123.465,77.149 C124.033,76.686 124.611,75.939 124.608,75.669 C124.466,75.650 123.811,75.837 123.498,75.929 C122.545,76.208 121.107,76.632 120.001,75.521 C119.306,74.822 119.227,74.088 119.284,73.596 C119.439,72.241 120.777,71.344 121.044,71.178 C121.596,70.833 122.320,71.006 122.662,71.558 C123.003,72.111 122.836,72.836 122.288,73.181 C121.990,73.372 121.652,73.721 121.618,73.872 C121.787,73.972 122.443,73.779 122.837,73.663 C123.778,73.387 125.198,72.968 126.286,74.060 C126.760,74.535 126.992,75.137 126.956,75.800 C126.871,77.355 125.259,78.730 124.937,78.990 C124.720,79.166 124.460,79.250 124.201,79.250 ZM122.898,81.048 C122.668,81.278 122.368,81.394 122.067,81.394 C121.766,81.394 121.466,81.278 121.236,81.048 C121.236,81.048 118.984,78.786 118.984,78.786 C118.984,78.786 118.984,79.699 118.984,79.699 C118.984,80.351 118.457,80.880 117.808,80.880 C117.808,80.880 116.898,80.880 116.898,80.880 C116.898,80.880 119.151,83.143 119.151,83.143 C119.610,83.603 119.610,84.351 119.151,84.812 C118.921,85.043 118.620,85.158 118.320,85.158 C118.019,85.158 117.718,85.043 117.489,84.812 C117.489,84.812 113.230,80.535 113.230,80.535 C113.122,80.426 113.036,80.295 112.976,80.151 C112.916,80.007 112.885,79.854 112.885,79.699 C112.885,79.698 112.886,79.696 112.886,79.694 C112.887,79.542 112.917,79.391 112.976,79.248 C113.095,78.960 113.324,78.730 113.611,78.610 C113.755,78.550 113.907,78.518 114.060,78.518 C114.060,78.518 116.633,78.518 116.633,78.518 C116.633,78.518 116.633,75.935 116.633,75.935 C116.633,75.935 116.633,75.935 116.633,75.935 C116.633,75.781 116.664,75.627 116.724,75.483 C116.843,75.195 117.072,74.965 117.359,74.845 C117.646,74.726 117.970,74.726 118.257,74.845 C118.401,74.905 118.531,74.991 118.640,75.100 C118.640,75.100 122.898,79.379 122.898,79.379 C123.357,79.840 123.357,80.587 122.898,81.048 ZM112.434,84.113 C113.374,83.837 114.795,83.417 115.883,84.510 C116.357,84.985 116.589,85.587 116.553,86.250 C116.468,87.805 114.856,89.180 114.533,89.440 C114.316,89.616 114.056,89.700 113.798,89.700 C113.454,89.700 113.113,89.549 112.881,89.259 C112.475,88.750 112.556,88.007 113.062,87.599 C113.629,87.136 114.208,86.389 114.205,86.119 C114.071,86.102 113.407,86.288 113.095,86.379 C112.142,86.659 110.704,87.082 109.598,85.971 C108.903,85.272 108.824,84.538 108.881,84.045 C109.036,82.691 110.374,81.794 110.641,81.628 C111.194,81.284 111.919,81.455 112.259,82.008 C112.601,82.561 112.433,83.286 111.885,83.631 C111.587,83.822 111.249,84.170 111.215,84.322 C111.383,84.423 112.041,84.229 112.434,84.113 ZM93.689,93.238 C93.689,93.238 67.930,93.238 67.930,93.238 C66.632,93.238 65.579,92.180 65.579,90.876 C65.579,89.572 66.632,88.515 67.930,88.515 C67.930,88.515 93.689,88.515 93.689,88.515 C94.987,88.515 96.040,89.572 96.040,90.876 C96.040,92.180 94.987,93.238 93.689,93.238 ZM93.689,80.230 C93.689,80.230 67.930,80.230 67.930,80.230 C66.632,80.230 65.579,79.173 65.579,77.869 C65.579,76.564 66.632,75.507 67.930,75.507 C67.930,75.507 93.689,75.507 93.689,75.507 C94.987,75.507 96.040,76.564 96.040,77.869 C96.040,79.173 94.987,80.230 93.689,80.230 ZM63.228,44.042 C59.340,44.042 56.176,40.864 56.176,36.957 C56.176,33.051 59.340,29.874 63.228,29.874 C67.117,29.874 70.281,33.051 70.281,36.957 C70.281,40.864 67.117,44.042 63.228,44.042 ZM63.228,34.596 C61.932,34.596 60.878,35.655 60.878,36.957 C60.878,38.260 61.932,39.319 63.228,39.319 C64.525,39.319 65.579,38.260 65.579,36.957 C65.579,35.655 64.525,34.596 63.228,34.596 ZM43.702,44.042 C39.813,44.042 36.650,40.864 36.650,36.957 C36.650,33.051 39.813,29.874 43.702,29.874 C47.591,29.874 50.755,33.051 50.755,36.957 C50.755,40.864 47.591,44.042 43.702,44.042 ZM43.702,34.596 C42.405,34.596 41.351,35.655 41.351,36.957 C41.351,38.260 42.405,39.319 43.702,39.319 C44.999,39.319 46.053,38.260 46.053,36.957 C46.053,35.655 44.999,34.596 43.702,34.596 ZM24.176,44.042 C20.287,44.042 17.123,40.864 17.123,36.957 C17.123,33.051 20.287,29.874 24.176,29.874 C28.065,29.874 31.228,33.051 31.228,36.957 C31.228,40.864 28.065,44.042 24.176,44.042 ZM24.176,34.596 C22.879,34.596 21.825,35.655 21.825,36.957 C21.825,38.260 22.879,39.319 24.176,39.319 C25.472,39.319 26.526,38.260 26.526,36.957 C26.526,35.655 25.472,34.596 24.176,34.596 Z" id="path-1" class="cls-2" fill-rule="evenodd"/>
</svg>
