<svg xmlns="http://www.w3.org/2000/svg" xmlns:xlink="http://www.w3.org/1999/xlink" preserveAspectRatio="xMidYMid" width="20" height="20" viewBox="0 0 20 20">
  <defs>
    <style>

      .cls-2 {
        fill: #000000;
      }
    </style>
  </defs>
  <path d="M12.516,19.285 C11.875,19.925 10.842,19.925 10.203,19.285 C10.203,19.285 1.195,10.785 1.195,10.785 C0.691,10.308 0.091,9.408 0.048,8.714 C-0.068,6.839 0.014,3.247 0.070,1.343 C0.091,0.648 0.671,0.067 1.360,0.050 C3.779,-0.005 8.901,-0.067 9.379,0.414 C9.379,0.414 19.298,9.444 19.298,9.444 C19.937,10.085 19.359,11.708 18.716,12.353 C18.716,12.353 12.516,19.285 12.516,19.285 ZM4.623,2.809 C4.082,2.267 3.207,2.267 2.668,2.809 C2.129,3.353 2.129,4.231 2.668,4.774 C3.210,5.318 4.082,5.318 4.623,4.774 C5.162,4.231 5.162,3.353 4.623,2.809 C4.623,2.809 4.623,2.809 4.623,2.809 Z" id="path-1" class="cls-2" fill-rule="evenodd"/>
</svg>
