<svg xmlns="http://www.w3.org/2000/svg" xmlns:xlink="http://www.w3.org/1999/xlink" preserveAspectRatio="xMidYMid" width="24" height="16" viewBox="0 0 24 16">
  <defs>
    <style>

      .cls-2 {
        fill: #000000;
      }
    </style>
  </defs>
  <path d="M21.137,15.989 C21.137,15.989 2.873,15.989 2.873,15.989 C1.291,15.989 0.004,14.708 0.004,13.134 C0.004,13.134 0.004,6.316 0.004,6.316 C0.004,6.316 24.006,6.316 24.006,6.316 C24.006,6.316 24.006,13.134 24.006,13.134 C24.006,14.708 22.719,15.989 21.137,15.989 ZM8.189,11.737 C8.189,11.582 8.063,11.457 7.908,11.457 C7.908,11.457 3.562,11.457 3.562,11.457 C3.406,11.457 3.280,11.582 3.280,11.737 C3.280,11.737 3.280,12.590 3.280,12.590 C3.280,12.745 3.406,12.871 3.562,12.871 C3.562,12.871 7.908,12.871 7.908,12.871 C8.063,12.871 8.189,12.745 8.189,12.590 C8.189,12.590 8.189,11.737 8.189,11.737 ZM18.717,8.924 C18.265,8.924 17.849,9.075 17.516,9.327 C17.182,9.075 16.766,8.924 16.314,8.924 C15.219,8.924 14.331,9.807 14.331,10.898 C14.331,11.987 15.219,12.871 16.314,12.871 C16.766,12.871 17.182,12.720 17.516,12.467 C17.849,12.720 18.265,12.871 18.717,12.871 C19.812,12.871 20.700,11.987 20.700,10.898 C20.700,9.807 19.812,8.924 18.717,8.924 ZM2.873,0.010 C2.873,0.010 21.137,0.010 21.137,0.010 C22.694,0.010 23.963,1.252 24.002,2.793 C24.002,2.793 0.008,2.793 0.008,2.793 C0.047,1.252 1.316,0.010 2.873,0.010 Z" id="path-1" class="cls-2" fill-rule="evenodd"/>
</svg>
