<svg xmlns="http://www.w3.org/2000/svg" xmlns:xlink="http://www.w3.org/1999/xlink" preserveAspectRatio="xMidYMid" width="26" height="21" viewBox="0 0 26 21">
  <defs>
    <style>

      .cls-2 {
        fill: #000000;
      }
    </style>
  </defs>
  <path d="M22.771,13.683 C22.771,13.683 25.834,4.521 25.834,4.521 C25.987,4.082 25.871,3.816 25.747,3.643 C25.432,3.195 24.777,3.191 24.653,3.191 C24.653,3.191 7.350,3.186 7.350,3.186 C7.350,3.186 6.885,0.999 6.885,0.999 C6.761,0.480 6.393,-0.013 5.651,-0.013 C5.651,-0.013 0.789,-0.013 0.789,-0.013 C0.284,-0.013 0.011,0.224 0.011,0.696 C0.011,0.696 0.011,1.960 0.011,1.960 C0.011,2.415 0.284,2.532 0.806,2.532 C0.806,2.532 4.913,2.532 4.913,2.532 C4.913,2.532 8.055,15.870 8.055,15.870 C7.553,16.401 7.283,17.172 7.283,17.888 C7.283,19.472 8.544,20.930 10.152,20.930 C11.672,20.930 12.812,19.505 12.994,18.659 C12.994,18.659 19.116,18.659 19.116,18.659 C19.298,19.505 20.223,20.963 21.959,20.963 C23.538,20.963 24.827,19.592 24.827,18.013 C24.827,16.442 23.869,15.050 21.975,15.050 C21.184,15.050 20.251,15.477 19.816,16.111 C19.816,16.111 12.294,16.111 12.294,16.111 C11.751,15.261 11.005,15.001 10.251,14.971 C10.251,14.971 10.148,14.416 10.148,14.416 C10.148,14.416 21.586,14.416 21.586,14.416 C22.452,14.416 22.618,14.101 22.771,13.683 C22.771,13.683 22.771,13.683 22.771,13.683 ZM21.979,16.902 C22.572,16.902 23.057,17.383 23.057,17.979 C23.057,18.576 22.572,19.057 21.979,19.057 C21.383,19.057 20.901,18.576 20.901,17.979 C20.901,17.383 21.383,16.902 21.979,16.902 C21.979,16.902 21.979,16.902 21.979,16.902 ZM11.216,17.979 C11.216,18.581 10.728,19.070 10.131,19.070 C9.526,19.070 9.037,18.581 9.037,17.979 C9.037,17.379 9.526,16.890 10.131,16.890 C10.728,16.890 11.216,17.379 11.216,17.979 C11.216,17.979 11.216,17.979 11.216,17.979 Z" id="path-1" class="cls-2" fill-rule="evenodd"/>
</svg>
