<svg xmlns="http://www.w3.org/2000/svg" xmlns:xlink="http://www.w3.org/1999/xlink" preserveAspectRatio="xMidYMid" width="20" height="20" viewBox="0 0 20 20">
  <defs>
    <style>

      .cls-2 {
        fill: #000000;
      }
    </style>
  </defs>
  <path d="M9.992,19.972 C4.474,19.972 0.001,15.498 0.001,9.981 C0.001,4.463 4.474,-0.010 9.992,-0.010 C15.510,-0.010 19.983,4.463 19.983,9.981 C19.983,15.498 15.510,19.972 9.992,19.972 ZM14.135,11.457 C14.135,11.457 11.393,9.875 11.393,9.875 C11.356,9.459 11.140,9.094 10.815,8.867 C10.815,8.867 10.815,4.092 10.815,4.092 C10.815,3.658 10.463,3.304 10.027,3.304 C9.593,3.304 9.241,3.656 9.241,4.092 C9.241,4.092 9.241,8.867 9.241,8.867 C8.885,9.116 8.651,9.529 8.651,9.993 C8.651,10.754 9.268,11.371 10.029,11.371 C10.237,11.371 10.432,11.322 10.609,11.239 C10.609,11.239 13.347,12.819 13.347,12.819 C13.471,12.891 13.605,12.926 13.740,12.926 C14.012,12.926 14.277,12.784 14.422,12.531 C14.639,12.155 14.510,11.675 14.135,11.457 ZM10.027,10.585 C9.702,10.585 9.437,10.320 9.437,9.993 C9.437,9.669 9.702,9.404 10.027,9.404 C10.354,9.404 10.618,9.669 10.618,9.993 C10.618,10.320 10.354,10.585 10.027,10.585 Z" id="path-1" class="cls-2" fill-rule="evenodd"/>
</svg>
