<svg xmlns="http://www.w3.org/2000/svg" xmlns:xlink="http://www.w3.org/1999/xlink" preserveAspectRatio="xMidYMid" width="16" height="20" viewBox="0 0 16 20">
  <defs>
    <style>

      .cls-2 {
        fill: #000000;
      }
    </style>
  </defs>
  <path d="M14.697,19.967 C14.697,19.967 1.338,19.967 1.338,19.967 C0.599,19.967 0.002,19.350 0.002,18.587 C0.002,18.587 0.002,16.565 0.002,16.565 C0.002,14.277 1.797,12.424 4.010,12.424 C4.010,12.424 4.678,12.424 4.678,12.424 C4.678,14.330 6.173,15.874 8.017,15.874 C9.862,15.874 11.357,14.330 11.357,12.424 C11.357,12.424 12.025,12.424 12.025,12.424 C14.241,12.424 16.033,14.277 16.033,16.565 C16.033,16.565 16.033,18.587 16.033,18.587 C16.033,19.349 15.435,19.967 14.697,19.967 ZM8.826,10.959 C10.653,10.573 12.025,8.904 12.025,6.903 C12.025,6.697 11.996,6.500 11.968,6.302 C11.018,6.694 9.554,6.492 8.174,5.669 C7.121,5.040 6.356,4.188 5.982,3.354 C4.807,4.076 4.010,5.387 4.010,6.903 C4.010,8.904 5.385,10.573 7.210,10.959 C4.646,10.554 2.674,8.286 2.674,5.522 C2.674,2.474 5.068,0.001 8.017,0.001 C10.968,0.001 13.361,2.474 13.361,5.522 C13.361,8.286 11.391,10.554 8.826,10.959 Z" id="path-1" class="cls-2" fill-rule="evenodd"/>
</svg>
