<svg xmlns="http://www.w3.org/2000/svg" xmlns:xlink="http://www.w3.org/1999/xlink" preserveAspectRatio="xMidYMid" width="132" height="109" viewBox="0 0 132 109">
  <defs>
    <style>

      .cls-2 {
        fill: #6f6f96;
      }
    </style>
  </defs>
  <path d="M121.962,64.515 C119.250,64.515 116.703,63.442 114.825,61.538 C114.825,61.538 105.141,61.538 105.141,61.538 C103.950,61.538 102.985,60.574 102.985,59.386 C102.985,59.386 102.985,49.625 102.985,49.625 C102.985,48.436 103.950,47.473 105.141,47.473 C105.141,47.473 114.825,47.473 114.825,47.473 C116.703,45.568 119.250,44.495 121.962,44.495 C127.493,44.495 131.993,48.986 131.993,54.506 C131.993,60.025 127.493,64.515 121.962,64.515 ZM121.962,48.799 C120.208,48.799 118.575,49.587 117.481,50.963 C117.072,51.476 116.451,51.776 115.793,51.776 C115.793,51.776 107.297,51.776 107.297,51.776 C107.297,51.776 107.297,57.234 107.297,57.234 C107.297,57.234 115.793,57.234 115.793,57.234 C116.451,57.234 117.072,57.534 117.481,58.048 C118.575,59.423 120.208,60.212 121.962,60.212 C125.115,60.212 127.680,57.652 127.680,54.506 C127.680,51.358 125.115,48.799 121.962,48.799 ZM121.962,38.484 C119.250,38.484 116.704,37.410 114.825,35.507 C114.825,35.507 105.141,35.507 105.141,35.507 C103.950,35.507 102.985,34.543 102.985,33.355 C102.985,33.355 102.985,23.592 102.985,23.592 C102.985,22.404 103.950,21.441 105.141,21.441 C105.141,21.441 114.825,21.441 114.825,21.441 C116.703,19.537 119.250,18.463 121.962,18.463 C127.493,18.463 131.993,22.954 131.993,28.474 C131.993,33.993 127.493,38.484 121.962,38.484 ZM121.962,22.767 C120.208,22.767 118.575,23.555 117.481,24.931 C117.072,25.445 116.451,25.744 115.793,25.744 C115.793,25.744 107.297,25.744 107.297,25.744 C107.297,25.744 107.297,31.203 107.297,31.203 C107.297,31.203 115.793,31.203 115.793,31.203 C116.451,31.203 117.072,31.503 117.481,32.017 C118.575,33.392 120.208,34.180 121.962,34.180 C125.115,34.180 127.680,31.620 127.680,28.474 C127.680,25.327 125.115,22.767 121.962,22.767 ZM91.679,109.008 C91.679,109.008 40.298,109.008 40.298,109.008 C36.413,109.008 33.251,105.853 33.251,101.975 C33.251,101.975 33.251,7.034 33.251,7.034 C33.251,3.156 36.413,0.001 40.298,0.001 C40.298,0.001 91.679,0.001 91.679,0.001 C95.565,0.001 98.725,3.156 98.725,7.034 C98.725,7.034 98.725,101.975 98.725,101.975 C98.725,105.853 95.565,109.008 91.679,109.008 ZM94.413,7.034 C94.413,5.528 93.187,4.305 91.679,4.305 C91.679,4.305 40.298,4.305 40.298,4.305 C38.790,4.305 37.563,5.528 37.563,7.034 C37.563,7.034 37.563,101.975 37.563,101.975 C37.563,103.480 38.790,104.704 40.298,104.704 C40.298,104.704 91.679,104.704 91.679,104.704 C93.187,104.704 94.413,103.480 94.413,101.975 C94.413,101.975 94.413,7.034 94.413,7.034 ZM83.269,20.823 C80.013,20.823 77.363,18.180 77.363,14.931 C77.363,11.680 80.013,9.035 83.269,9.035 C86.525,9.035 89.174,11.680 89.174,14.931 C89.174,18.180 86.525,20.823 83.269,20.823 ZM83.269,13.339 C82.390,13.339 81.675,14.052 81.675,14.931 C81.675,15.807 82.390,16.520 83.269,16.520 C84.147,16.520 84.861,15.807 84.861,14.931 C84.861,14.052 84.147,13.339 83.269,13.339 ZM26.835,87.570 C26.835,87.570 17.150,87.570 17.150,87.570 C15.271,89.474 12.724,90.547 10.015,90.547 C4.484,90.547 -0.015,86.057 -0.015,80.537 C-0.015,75.017 4.484,70.527 10.015,70.527 C12.724,70.527 15.271,71.600 17.150,73.504 C17.150,73.504 26.835,73.504 26.835,73.504 C28.026,73.504 28.991,74.468 28.991,75.656 C28.991,75.656 28.991,85.418 28.991,85.418 C28.991,86.606 28.026,87.570 26.835,87.570 ZM24.679,77.808 C24.679,77.808 16.184,77.808 16.184,77.808 C15.527,77.808 14.906,77.509 14.496,76.996 C13.400,75.619 11.766,74.830 10.015,74.830 C6.862,74.830 4.297,77.390 4.297,80.537 C4.297,83.684 6.862,86.244 10.015,86.244 C11.766,86.244 13.400,85.455 14.496,84.079 C14.906,83.565 15.527,83.266 16.184,83.266 C16.184,83.266 24.679,83.266 24.679,83.266 C24.679,83.266 24.679,77.808 24.679,77.808 ZM26.835,61.538 C26.835,61.538 17.150,61.538 17.150,61.538 C15.271,63.442 12.724,64.515 10.015,64.515 C4.484,64.515 -0.015,60.025 -0.015,54.506 C-0.015,48.986 4.484,44.495 10.015,44.495 C12.724,44.495 15.271,45.568 17.150,47.473 C17.150,47.473 26.835,47.473 26.835,47.473 C28.026,47.473 28.991,48.436 28.991,49.625 C28.991,49.625 28.991,59.386 28.991,59.386 C28.991,60.574 28.026,61.538 26.835,61.538 ZM24.679,51.776 C24.679,51.776 16.184,51.776 16.184,51.776 C15.527,51.776 14.906,51.477 14.496,50.963 C13.400,49.587 11.766,48.799 10.015,48.799 C6.862,48.799 4.297,51.358 4.297,54.506 C4.297,57.652 6.862,60.212 10.015,60.212 C11.766,60.212 13.400,59.423 14.496,58.047 C14.906,57.533 15.527,57.234 16.184,57.234 C16.184,57.234 24.679,57.234 24.679,57.234 C24.679,57.234 24.679,51.776 24.679,51.776 ZM26.835,35.507 C26.835,35.507 17.150,35.507 17.150,35.507 C15.270,37.410 12.724,38.484 10.015,38.484 C4.484,38.484 -0.015,33.993 -0.015,28.474 C-0.015,22.954 4.484,18.463 10.015,18.463 C12.724,18.463 15.271,19.537 17.150,21.441 C17.150,21.441 26.835,21.441 26.835,21.441 C28.026,21.441 28.991,22.404 28.991,23.592 C28.991,23.592 28.991,33.355 28.991,33.355 C28.991,34.543 28.026,35.507 26.835,35.507 ZM24.679,25.744 C24.679,25.744 16.184,25.744 16.184,25.744 C15.527,25.744 14.906,25.446 14.496,24.932 C13.400,23.556 11.766,22.767 10.015,22.767 C6.862,22.767 4.297,25.327 4.297,28.474 C4.297,31.620 6.862,34.180 10.015,34.180 C11.766,34.180 13.400,33.391 14.496,32.015 C14.906,31.502 15.527,31.203 16.184,31.203 C16.184,31.203 24.679,31.203 24.679,31.203 C24.679,31.203 24.679,25.744 24.679,25.744 ZM105.141,73.504 C105.141,73.504 114.825,73.504 114.825,73.504 C116.703,71.600 119.250,70.527 121.962,70.527 C127.493,70.527 131.993,75.017 131.993,80.537 C131.993,86.057 127.493,90.547 121.962,90.547 C119.250,90.547 116.703,89.474 114.825,87.570 C114.825,87.570 105.141,87.570 105.141,87.570 C103.950,87.570 102.985,86.606 102.985,85.418 C102.985,85.418 102.985,75.656 102.985,75.656 C102.985,74.468 103.950,73.504 105.141,73.504 ZM107.297,83.266 C107.297,83.266 115.793,83.266 115.793,83.266 C116.451,83.266 117.072,83.566 117.481,84.080 C118.575,85.455 120.208,86.244 121.962,86.244 C125.115,86.244 127.680,83.684 127.680,80.537 C127.680,77.390 125.115,74.830 121.962,74.830 C120.208,74.830 118.575,75.619 117.481,76.994 C117.072,77.508 116.451,77.808 115.793,77.808 C115.793,77.808 107.297,77.808 107.297,77.808 C107.297,77.808 107.297,83.266 107.297,83.266 Z" id="path-1" class="cls-2" fill-rule="evenodd"/>
</svg>
