<svg xmlns="http://www.w3.org/2000/svg" xmlns:xlink="http://www.w3.org/1999/xlink" preserveAspectRatio="xMidYMid" width="106" height="106" viewBox="0 0 106 106">
  <defs>
    <style>

      .cls-2 {
        fill: #fe7201;
      }
    </style>
  </defs>
  <path d="M95.045,88.751 C95.045,88.751 52.553,88.751 52.553,88.751 C52.370,88.751 52.191,88.800 52.035,88.894 C52.035,88.894 24.609,105.253 24.609,105.253 C23.792,105.741 22.874,105.999 21.956,105.999 C20.171,105.999 18.477,105.033 17.534,103.479 C16.607,101.949 16.562,100.078 17.414,98.475 C17.414,98.475 21.801,90.222 21.801,90.222 C22.042,89.770 21.862,89.381 21.773,89.236 C21.685,89.090 21.424,88.751 20.910,88.751 C20.910,88.751 10.951,88.751 10.951,88.751 C4.918,88.751 0.009,83.870 0.009,77.870 C0.009,77.870 0.009,10.878 0.009,10.878 C0.009,4.878 4.918,-0.003 10.951,-0.003 C10.951,-0.003 95.045,-0.003 95.045,-0.003 C101.078,-0.003 105.987,4.878 105.987,10.878 C105.987,10.878 105.987,77.870 105.987,77.870 C105.987,83.870 101.078,88.751 95.045,88.751 ZM101.851,10.878 C101.851,7.146 98.798,4.110 95.045,4.110 C95.045,4.110 10.951,4.110 10.951,4.110 C7.199,4.110 4.145,7.146 4.145,10.878 C4.145,10.878 4.145,77.870 4.145,77.870 C4.145,81.602 7.199,84.638 10.951,84.638 C10.951,84.638 20.910,84.638 20.910,84.638 C22.729,84.638 24.376,85.563 25.316,87.113 C26.255,88.663 26.309,90.544 25.459,92.144 C25.459,92.144 21.072,100.397 21.072,100.397 C20.890,100.738 20.892,101.051 21.076,101.356 C21.367,101.837 21.953,102.041 22.481,101.726 C22.481,101.726 49.907,85.366 49.907,85.366 C50.705,84.890 51.620,84.638 52.553,84.638 C52.553,84.638 95.045,84.638 95.045,84.638 C98.798,84.638 101.851,81.602 101.851,77.870 C101.851,77.870 101.851,10.878 101.851,10.878 ZM65.189,70.095 C61.962,70.095 58.796,69.524 55.779,68.398 C54.710,67.999 54.168,66.814 54.569,65.750 C54.970,64.687 56.162,64.149 57.231,64.548 C59.783,65.500 62.459,65.982 65.189,65.982 C77.707,65.982 87.893,55.854 87.893,43.405 C87.893,30.957 77.707,20.829 65.189,20.829 C60.552,20.829 56.081,22.226 52.260,24.868 C51.324,25.517 50.035,25.286 49.382,24.354 C48.730,23.421 48.961,22.140 49.899,21.491 C54.417,18.368 59.704,16.716 65.189,16.716 C79.988,16.716 92.028,28.689 92.028,43.405 C92.028,58.122 79.988,70.095 65.189,70.095 ZM64.128,31.375 C62.432,31.375 60.789,31.721 59.243,32.402 C58.197,32.862 56.977,32.392 56.515,31.355 C56.052,30.316 56.523,29.102 57.567,28.641 C59.644,27.726 61.852,27.263 64.128,27.263 C73.080,27.263 80.362,34.504 80.362,43.405 C80.362,52.307 73.080,59.549 64.128,59.549 C62.687,59.549 61.236,59.351 59.815,58.961 C58.713,58.660 58.067,57.527 58.371,56.432 C58.674,55.338 59.813,54.695 60.913,54.997 C61.977,55.288 63.058,55.436 64.128,55.436 C70.799,55.436 76.226,50.039 76.226,43.405 C76.226,36.772 70.799,31.375 64.128,31.375 ZM54.564,37.812 C56.296,37.812 57.856,38.368 59.052,39.292 C60.209,37.973 61.907,37.134 63.801,37.134 C67.279,37.134 70.108,39.947 70.108,43.405 C70.108,46.863 67.279,49.677 63.801,49.677 C62.242,49.677 60.816,49.108 59.714,48.172 C58.464,49.447 56.638,50.243 54.564,50.243 C54.564,50.243 45.908,50.243 45.908,50.243 C45.908,50.243 45.898,56.991 45.898,56.991 C45.898,62.677 41.248,67.307 35.533,67.307 C35.533,67.307 35.256,67.312 35.256,67.312 C35.237,67.312 35.194,67.311 35.152,67.310 C34.914,67.309 34.704,67.269 34.526,67.214 C34.526,67.214 20.015,67.214 20.015,67.214 C14.679,67.214 11.493,63.872 11.493,58.275 C11.493,58.275 11.493,46.519 11.493,46.519 C11.493,43.596 13.022,40.917 15.686,39.169 C15.928,39.008 16.398,38.696 32.148,30.830 C33.167,30.343 34.269,30.092 35.365,30.092 C37.786,30.092 40.053,31.302 41.281,33.250 C41.896,34.233 42.219,35.344 42.219,36.471 C42.219,36.931 42.168,37.378 42.063,37.812 C42.063,37.812 54.564,37.812 54.564,37.812 ZM63.801,45.564 C64.999,45.564 65.972,44.596 65.972,43.405 C65.972,42.215 64.999,41.247 63.801,41.247 C62.604,41.247 61.630,42.215 61.630,43.405 C61.630,44.596 62.604,45.564 63.801,45.564 ZM38.329,41.924 C37.468,41.924 36.698,41.395 36.394,40.595 C36.090,39.795 36.317,38.891 36.962,38.325 C37.950,37.459 38.083,36.902 38.083,36.471 C38.083,36.114 37.976,35.753 37.773,35.429 C37.299,34.677 36.374,34.205 35.365,34.205 C34.886,34.205 34.404,34.314 33.973,34.521 C20.830,41.085 18.279,42.415 17.931,42.623 C16.480,43.575 15.629,45.003 15.629,46.519 C15.629,46.519 15.629,58.275 15.629,58.275 C15.629,62.600 18.132,63.101 20.015,63.101 C20.015,63.101 34.946,63.101 34.946,63.101 C35.186,63.101 35.396,63.140 35.575,63.193 C38.990,63.171 41.762,60.396 41.762,56.988 C41.762,56.988 41.775,48.184 41.775,48.184 C41.777,47.049 42.702,46.131 43.843,46.131 C43.843,46.131 54.564,46.131 54.564,46.131 C56.096,46.131 57.297,45.207 57.297,44.028 C57.297,42.848 56.096,41.924 54.564,41.924 C54.564,41.924 38.329,41.924 38.329,41.924 Z" id="path-1" class="cls-2" fill-rule="evenodd"/>
</svg>
