<svg xmlns="http://www.w3.org/2000/svg" xmlns:xlink="http://www.w3.org/1999/xlink" preserveAspectRatio="xMidYMid" width="91" height="118" viewBox="0 0 91 118">
  <defs>
    <style>

      .cls-2 {
        fill: #fe7201;
      }
    </style>
  </defs>
  <path d="M83.851,117.995 C83.851,117.995 20.472,117.995 20.472,117.995 C16.532,117.995 13.325,114.739 13.325,110.738 C13.325,110.738 13.325,105.867 13.325,105.867 C13.325,105.867 7.157,105.867 7.157,105.867 C3.217,105.867 0.010,102.612 0.010,98.611 C0.010,98.611 0.010,7.256 0.010,7.256 C0.010,3.254 3.217,-0.001 7.157,-0.001 C7.157,-0.001 70.536,-0.001 70.536,-0.001 C74.477,-0.001 77.683,3.254 77.683,7.256 C77.683,7.256 77.683,12.126 77.683,12.126 C77.683,12.126 83.851,12.126 83.851,12.126 C87.792,12.126 90.998,15.382 90.998,19.383 C90.998,19.383 90.998,110.738 90.998,110.738 C90.998,114.739 87.792,117.995 83.851,117.995 ZM73.244,7.256 C73.244,5.740 72.030,4.506 70.536,4.506 C70.536,4.506 7.157,4.506 7.157,4.506 C5.663,4.506 4.449,5.740 4.449,7.256 C4.449,7.256 4.449,98.611 4.449,98.611 C4.449,100.127 5.663,101.361 7.157,101.361 C7.157,101.361 70.536,101.361 70.536,101.361 C72.030,101.361 73.244,100.127 73.244,98.611 C73.244,98.611 73.244,7.256 73.244,7.256 ZM86.560,19.383 C86.560,17.867 85.344,16.633 83.851,16.633 C83.851,16.633 77.683,16.633 77.683,16.633 C77.683,16.633 77.683,98.611 77.683,98.611 C77.683,102.612 74.477,105.867 70.536,105.867 C70.536,105.867 17.764,105.867 17.764,105.867 C17.764,105.867 17.764,110.738 17.764,110.738 C17.764,112.254 18.979,113.488 20.472,113.488 C20.472,113.488 83.851,113.488 83.851,113.488 C85.344,113.488 86.560,112.254 86.560,110.738 C86.560,110.738 86.560,19.383 86.560,19.383 ZM63.551,90.746 C63.551,90.746 26.502,90.746 26.502,90.746 C25.277,90.746 24.283,89.738 24.283,88.493 C24.283,87.249 25.277,86.240 26.502,86.240 C26.502,86.240 63.551,86.240 63.551,86.240 C64.776,86.240 65.770,87.249 65.770,88.493 C65.770,89.738 64.776,90.746 63.551,90.746 ZM26.502,73.483 C26.502,73.483 57.116,73.483 57.116,73.483 C58.342,73.483 59.335,74.491 59.335,75.736 C59.335,76.980 58.342,77.989 57.116,77.989 C57.116,77.989 26.502,77.989 26.502,77.989 C25.277,77.989 24.283,76.980 24.283,75.736 C24.283,74.491 25.277,73.483 26.502,73.483 ZM63.551,63.817 C63.551,63.817 26.502,63.817 26.502,63.817 C25.277,63.817 24.283,62.808 24.283,61.564 C24.283,60.320 25.277,59.311 26.502,59.311 C26.502,59.311 63.551,59.311 63.551,59.311 C64.776,59.311 65.770,60.320 65.770,61.564 C65.770,62.808 64.776,63.817 63.551,63.817 ZM60.376,42.156 C59.731,42.541 58.553,43.155 57.018,43.564 C56.715,44.499 56.351,45.432 55.930,46.353 C55.476,47.628 54.192,48.986 51.851,49.184 C51.459,49.218 50.928,49.236 50.228,49.236 C47.799,49.236 34.720,48.699 30.995,47.269 C29.257,46.745 27.346,45.508 25.805,43.936 C25.805,43.936 22.180,43.936 22.180,43.936 C22.034,43.936 21.893,43.920 21.755,43.892 C21.755,43.892 18.103,43.892 18.103,43.892 C16.878,43.892 15.884,42.884 15.884,41.639 C15.884,40.395 16.878,39.386 18.103,39.386 C18.103,39.386 20.066,39.386 20.066,39.386 C20.130,38.647 20.220,37.953 20.340,37.321 C20.340,37.321 14.173,37.321 14.173,37.321 C12.947,37.321 11.954,36.311 11.954,35.067 C11.954,33.822 12.947,32.814 14.173,32.814 C14.173,32.814 21.992,32.814 21.992,32.814 C23.114,31.006 24.452,30.168 25.323,29.789 C26.886,28.031 28.923,26.630 30.877,25.988 C31.694,25.718 32.674,25.414 33.945,25.225 C35.254,25.032 37.066,24.825 39.190,24.623 C43.454,24.223 47.907,23.954 50.273,23.954 C51.745,23.954 55.136,23.954 56.034,27.133 C56.367,27.853 56.673,28.632 56.941,29.435 C60.700,30.426 64.291,33.155 64.291,36.505 C64.292,38.633 62.902,40.640 60.376,42.156 ZM54.896,33.607 C54.018,33.482 53.298,32.837 53.063,31.969 C52.771,30.879 52.383,29.816 51.942,28.892 C51.892,28.787 51.850,28.678 51.816,28.565 C51.453,28.460 50.673,28.460 50.273,28.460 C48.029,28.460 43.740,28.722 39.601,29.110 C37.553,29.305 35.818,29.503 34.587,29.684 C33.659,29.822 32.951,30.042 32.245,30.275 C31.320,30.579 29.874,31.436 28.645,32.814 C28.645,32.814 29.246,32.814 29.246,32.814 C30.471,32.814 31.465,33.822 31.465,35.067 C31.465,36.311 30.471,37.321 29.246,37.321 C29.246,37.321 24.896,37.321 24.896,37.321 C24.738,37.907 24.605,38.587 24.517,39.386 C24.517,39.386 26.775,39.386 26.775,39.386 C27.531,39.386 28.197,39.771 28.598,40.358 C29.834,41.769 31.336,42.686 32.307,42.963 C32.388,42.986 32.467,43.014 32.544,43.046 C34.812,43.983 46.392,44.729 50.228,44.729 C50.767,44.729 51.177,44.719 51.481,44.693 C51.653,44.679 51.762,44.651 51.825,44.629 C51.836,44.603 51.847,44.578 51.859,44.553 C52.395,43.396 52.821,42.219 53.121,41.056 C53.349,40.181 54.068,39.529 54.951,39.400 C56.434,39.182 57.573,38.601 58.121,38.274 C59.244,37.600 59.852,36.860 59.852,36.507 C59.839,35.871 57.850,34.028 54.896,33.607 ZM35.533,19.957 C35.533,19.957 15.545,19.957 15.545,19.957 C14.319,19.957 13.325,18.948 13.325,17.704 C13.325,16.460 14.319,15.451 15.545,15.451 C15.545,15.451 35.533,15.451 35.533,15.451 C36.759,15.451 37.752,16.460 37.752,17.704 C37.752,18.948 36.759,19.957 35.533,19.957 ZM15.545,58.121 C17.414,58.121 18.935,59.665 18.935,61.564 C18.935,63.462 17.414,65.007 15.545,65.007 C13.674,65.007 12.153,63.462 12.153,61.564 C12.153,59.665 13.674,58.121 15.545,58.121 ZM15.545,62.627 C16.122,62.627 16.592,62.150 16.592,61.564 C16.592,60.978 16.122,60.500 15.545,60.500 C14.967,60.500 14.497,60.978 14.497,61.564 C14.497,62.150 14.967,62.627 15.545,62.627 ZM15.545,72.293 C17.414,72.293 18.935,73.837 18.935,75.736 C18.935,77.634 17.414,79.179 15.545,79.179 C13.674,79.179 12.153,77.634 12.153,75.736 C12.153,73.837 13.674,72.293 15.545,72.293 ZM15.545,76.799 C16.122,76.799 16.592,76.322 16.592,75.736 C16.592,75.149 16.122,74.672 15.545,74.672 C14.967,74.672 14.497,75.149 14.497,75.736 C14.497,76.322 14.967,76.799 15.545,76.799 ZM15.545,85.050 C17.414,85.050 18.935,86.595 18.935,88.493 C18.935,90.392 17.414,91.936 15.545,91.936 C13.674,91.936 12.153,90.392 12.153,88.493 C12.153,86.595 13.674,85.050 15.545,85.050 ZM15.545,89.557 C16.122,89.557 16.592,89.080 16.592,88.493 C16.592,87.907 16.122,87.429 15.545,87.429 C14.967,87.429 14.497,87.907 14.497,88.493 C14.497,89.080 14.967,89.557 15.545,89.557 Z" id="path-1" class="cls-2" fill-rule="evenodd"/>
</svg>
