<?xml version="1.0" encoding="utf-8"?>
<!-- Generator: Adobe Illustrator 18.0.0, SVG Export Plug-In . SVG Version: 6.00 Build 0)  -->
<!DOCTYPE svg PUBLIC "-//W3C//DTD SVG 1.1//EN" "http://www.w3.org/Graphics/SVG/1.1/DTD/svg11.dtd">
<svg version="1.1" id="objects" xmlns="http://www.w3.org/2000/svg" xmlns:xlink="http://www.w3.org/1999/xlink" x="0px" y="0px"
	 viewBox="0 0 83.3 105.3" width="83" height="105" enable-background="new 0 0 83.3 105.3" xml:space="preserve">
<g>
	<g>
		<g>
			<path fill="#424242" d="M21.5,51c-0.4,0.2-0.8,0.4-1.2,0.6c-3.3,1.2-7-0.6-8.2-3.9c-1-2.9,0.1-6.1,2.7-7.7
				c0.4-0.2,0.8-0.4,1.2-0.6c1.6-0.6,3.4-0.5,4.9,0.2c1.6,0.7,2.7,2,3.3,3.7C25.2,46.2,24.1,49.4,21.5,51z M16.2,42.3
				c-1.5,0.9-2.2,2.8-1.6,4.5c0.7,2,2.9,3,4.8,2.3c0.2-0.1,0.5-0.2,0.7-0.3c1.5-0.9,2.2-2.8,1.6-4.5c-0.3-0.9-1-1.7-1.9-2.1
				c-0.9-0.4-1.9-0.5-2.9-0.1C16.6,42.1,16.4,42.2,16.2,42.3z"/>
		</g>
		<g>
			<path fill="#424242" d="M47,41.9c-0.4,0.2-0.8,0.4-1.2,0.6c-1.6,0.6-3.4,0.5-4.9-0.2c-1.6-0.7-2.7-2-3.3-3.7
				c-1-2.9,0.1-6.1,2.7-7.7c0.4-0.2,0.8-0.4,1.2-0.6c3.3-1.2,7,0.6,8.2,3.9C50.7,37.1,49.6,40.3,47,41.9z M41.7,33.2
				c-1.5,0.9-2.2,2.8-1.6,4.5c0.3,0.9,1,1.7,1.9,2.1c0.9,0.4,1.9,0.5,2.9,0.1c0.2-0.1,0.5-0.2,0.7-0.3c1.5-0.9,2.2-2.8,1.6-4.5
				c-0.3-0.9-1-1.7-1.9-2.1c-0.9-0.4-1.9-0.5-2.9-0.1C42.1,32.9,41.9,33.1,41.7,33.2z"/>
		</g>
	</g>
	<g>
		<path fill="#5AC3D4" d="M75.3,83.7l-51.6,18.4c-4.1,1.5-8.6-1.2-9.2-5.6L3.6,57.1l59.2-19.9l16.1,36.3
			C81.2,77.3,79.4,82.2,75.3,83.7z"/>
	</g>
	<g opacity="0.66">
		<path fill="#479BA8" d="M77.8,71.7c-0.2,2.7-1.9,5.1-4.6,6.1L21.5,96.3c-2.7,1-5.6,0.1-7.4-1.8l0.3,2.1c0.6,4.4,5.1,7.1,9.2,5.6
			l51.6-18.4c4.1-1.5,5.9-6.4,3.6-10.2L77.8,71.7z"/>
	</g>
	<g opacity="0.66">
		<path fill="#479BA8" d="M4.5,56.9c0.8,3,1.6,5.9,2.4,8.9l59.2-21.1c-1.6-2.7-3.2-5.3-4.2-8.2L4.5,56.9z"/>
	</g>
	<g>
		<path fill="#4CA7B5" d="M57,34.5l-50.4,18c-2.4,0.8-3.6,3.4-2.7,5.8l0,0c0.8,2.4,3.4,3.6,5.8,2.7l50.4-18c2.4-0.8,3.6-3.4,2.7-5.8
			l0,0C62,34.9,59.4,33.6,57,34.5z"/>
	</g>
	<g>
		<path fill="#4394A0" d="M44.2,35.5c-0.3,0.2-0.7,0.3-1.1,0.3c-1.2,0-2.2-1-2.3-2.2c0-4.9-0.6-10.5-1.6-15.4
			c-0.9-4.7-2.8-7.8-5.6-9.5c-4.2-2.4-10-1.2-14.1,0.3c-4.1,1.5-9.3,4.1-11.1,8.6c-1.2,3.1-0.7,6.7,1.6,11c2.4,4.5,5.4,9.1,8.4,12.9
			c0.8,1,0.6,2.4-0.4,3.1c-1,0.8-2.4,0.6-3.1-0.4c-3.2-4-6.4-8.9-8.9-13.6c-2.9-5.4-3.5-10.4-1.8-14.7C6.1,11.2,10.8,7.4,18,4.9
			c7.2-2.6,13.4-2.6,17.9,0c4,2.3,6.6,6.5,7.8,12.5c1,5.2,1.6,11.1,1.6,16.2C45.3,34.4,44.9,35.1,44.2,35.5z"/>
	</g>
	<g>
		<path fill="none" stroke="#F4511E" stroke-width="4.5751" stroke-miterlimit="10" d="M43.7,35.3"/>
	</g>
	<g>
		<path fill="none" stroke="#F4511E" stroke-width="4.5751" stroke-miterlimit="10" d="M17.3,44.7"/>
	</g>
</g>
</svg>
