<?xml version="1.0" encoding="utf-8"?>
<!-- Generator: Adobe Illustrator 18.0.0, SVG Export Plug-In . SVG Version: 6.00 Build 0)  -->
<!DOCTYPE svg PUBLIC "-//W3C//DTD SVG 1.1//EN" "http://www.w3.org/Graphics/SVG/1.1/DTD/svg11.dtd">
<svg version="1.1" id="Layer_1" xmlns="http://www.w3.org/2000/svg" xmlns:xlink="http://www.w3.org/1999/xlink" x="0px" y="0px"
	 viewBox="0 0 70.8 70.5" enable-background="new 0 0 70.8 70.5" xml:space="preserve">
<g>
	<g>
		<circle fill="#FFFFFF" cx="35.4" cy="36.2" r="34.3"/>
	</g>
	<g>
		<path fill="#4A4A4A" d="M69.3,45.6l0-0.1c2-6.7,2-14-0.3-21.2C62.9,5.8,42.8-4.3,24.3,1.8C5.8,7.9-4.3,28,1.8,46.5
			c0,0,0,0.1,0,0.1C1.9,47,2,47.2,2.1,47.5c0.1,0.3,0.2,0.5,0.3,0.8l0.2,0.5l0.1,0c3.5,8.6,10.1,15.1,18,18.7l0,0.1l0.6,0.2
			c0.2,0.1,0.4,0.2,0.7,0.3c3.5,1.5,7.3,2.3,11.2,2.6c2,0.2,3.2,0.1,3.3,0.1l0.3,0c3.2-0.1,6.5-0.7,9.7-1.8
			c5.8-1.9,10.7-5.2,14.6-9.3l0,0l0.5-0.5c0,0,0.2-0.2,0.4-0.4c1.7-1.9,3.2-4,4.4-6.3C67.7,50.3,68.8,47.9,69.3,45.6z M47.7,11.6
			c0,0.2,0,0.5,0.1,0.7l2.7,8.3l-6.7,6.1L31,24.5l-3-7.8l6.4-7.3L47.7,11.6z M54.6,44.5L48,40.7l-1.8-12.4l5.9-5.4
			c0.1,0.1,0.2,0.1,0.3,0.2l9,3.1l1.2,12.5L54.6,44.5z M25.5,17.8l3,7.9l-5.3,9.9l-10,0.5l-4.1-6.7l6.3-11.7L25.5,17.8z M15,39.2
			l-0.2-0.2l6.8-0.4l-0.3,0.6l9.5,9.9l-1.2,7.1l-9.3,2.5l-8.9-9.8L15,39.2z M32.5,56.5l0.9-5.2l14.8-7.2l5.1,2.9l-0.4,9.6l-12.2,5.9
			L32.5,56.5z M67.4,41.8c-0.5-0.8-1.2-1.6-1.9-2.7l-1.3-13.3c0.3-0.3,0.5-0.6,0.7-1l0.7-1.8c0.3,0.7,0.6,1.4,0.8,2.1
			C68.2,30.7,68.4,36.4,67.4,41.8z M53.3,8.2L49.7,9c0,0-0.1,0-0.1,0L34.3,6.6l-4.7-3.2C38,1.8,46.4,3.7,53.3,8.2z M13.3,11.4l0,4.3
			L6.2,28.8l-3,1.6C4.3,23.2,7.9,16.4,13.3,11.4z M6.5,50.5l3.8,1.6l0.1-0.2l8,8.8l1.1,3.2C14,60.8,9.5,56.2,6.5,50.5z M45.6,66.4
			c-2.1,0.7-4.1,1.1-6.2,1.4l2-2.6l12.2-5.9l3.8,0.2C54.1,62.5,50.1,64.9,45.6,66.4z"/>
	</g>
</g>
</svg>
