<?xml version="1.0" encoding="utf-8"?>
<!-- Generator: Adobe Illustrator 18.0.0, SVG Export Plug-In . SVG Version: 6.00 Build 0)  -->
<!DOCTYPE svg PUBLIC "-//W3C//DTD SVG 1.1//EN" "http://www.w3.org/Graphics/SVG/1.1/DTD/svg11.dtd">
<svg version="1.1" id="objects" xmlns="http://www.w3.org/2000/svg" xmlns:xlink="http://www.w3.org/1999/xlink" x="0px" y="0px"
	 viewBox="0 0 63.5 53.2" width="64" height="53" enable-background="new 0 0 63.5 53.2" xml:space="preserve">
<g>
	<g>
		<path fill="#DB4747" d="M22,45.2L7.9,44.9c-2.2,0-3.9-1.8-3.8-4l0.5-27.4c0-2.2,1.8-3.9,4-3.8l47,0.9c2.2,0,3.9,1.8,3.8,4L58.9,42
			c0,2.2-1.8,3.9-4,3.8l-5.6-0.1"/>
	</g>
	<g>
		<path fill="#B83C3C" d="M4.2,36l-0.1,4.9c0,2.2,1.7,3.9,3.8,4L22,45.2l27.2,0.5l5.6,0.1c2.2,0,3.9-1.7,4-3.8L59,37L4.2,36z"/>
	</g>
	<g>
		<path fill="#424242" d="M55.5,30.4c0.5,11.8-9.4,21.4-21.2,20.4c-9.7-0.8-17.5-8.9-17.9-18.6c-0.5-11.8,9.4-21.4,21.2-20.4
			C47.3,12.6,55,20.7,55.5,30.4z"/>
	</g>
	<g>
		<path fill="#424242" d="M36.3,11.8c3.4,0.1,6.6,1,9.3,2.5l-3.1-8.2c-0.3-0.8-1-1.3-1.8-1.3l-8.5-0.2c-0.8,0-1.6,0.5-1.9,1.2
			L26.9,14C29.7,12.5,32.9,11.7,36.3,11.8z"/>
	</g>
	<g>
		<path fill="#DB4747" d="M36.2,14.9c-9.1-0.2-16.6,7.1-16.8,16.2c-0.2,9.1,7.1,16.6,16.2,16.8c9.1,0.2,16.6-7.1,16.8-16.2
			C52.6,22.6,45.3,15,36.2,14.9z M35.7,44.4c-7.2-0.1-13-6.1-12.8-13.3c0.1-7.2,6.1-13,13.3-12.8c7.2,0.1,13,6.1,12.8,13.3
			C48.8,38.8,42.9,44.5,35.7,44.4z"/>
	</g>
	<g>
		<path fill="#424242" d="M55.5,10.6l-47-0.9c-2.2,0-3.9,1.7-4,3.8l-0.1,5.1l16.3,0.3c3.7-4.5,9.3-7.3,15.5-7.2
			c6.2,0.1,11.7,3.1,15.2,7.8l7.8,0.1l0.1-5.1C59.4,12.4,57.7,10.6,55.5,10.6z M12.9,15.5c0,0.4-0.3,0.6-0.6,0.6l-2.5,0
			c-0.4,0-0.6-0.3-0.6-0.6l0-2.5c0-0.4,0.3-0.6,0.6-0.6l2.5,0c0.4,0,0.6,0.3,0.6,0.6L12.9,15.5z"/>
	</g>
	<g>
		
			<rect x="4.4" y="21.2" transform="matrix(0.9998 1.878281e-002 -1.878281e-002 0.9998 0.4213 -0.1312)" fill="#424242" width="5.5" height="2.3"/>
	</g>
	<g>
		
			<rect x="4.3" y="26.3" transform="matrix(0.9998 1.878281e-002 -1.878281e-002 0.9998 0.517 -0.1285)" fill="#424242" width="5.5" height="2.3"/>
	</g>
	<g>
		
			<rect x="4.2" y="31.4" transform="matrix(0.9998 1.878281e-002 -1.878281e-002 0.9998 0.6126 -0.1258)" fill="#424242" width="5.5" height="2.3"/>
	</g>
	<g>
		<path fill="#CCE6FF" d="M36.1,22.3c-5-0.1-9.1,3.9-9.2,8.9c-0.1,5,3.9,9.1,8.9,9.2c5,0.1,9.1-3.9,9.2-8.9
			C45,26.5,41,22.4,36.1,22.3z"/>
	</g>
</g>
</svg>
