<?xml version="1.0" encoding="utf-8"?>
<!-- Generator: Adobe Illustrator 18.0.0, SVG Export Plug-In . SVG Version: 6.00 Build 0)  -->
<!DOCTYPE svg PUBLIC "-//W3C//DTD SVG 1.1//EN" "http://www.w3.org/Graphics/SVG/1.1/DTD/svg11.dtd">
<svg version="1.1" id="objects" xmlns="http://www.w3.org/2000/svg" xmlns:xlink="http://www.w3.org/1999/xlink" x="0px" y="0px"
	 viewBox="0 0 115 118" width="115" height="118" enable-background="new 0 0 115 118" xml:space="preserve">
<g>
	<g>
		<path fill="#535353" d="M91,36.7L41.8,94.4c-0.7,0.9-2.1,1-2.9,0.2L3.8,64.8c-0.9-0.7-1-2.1-0.2-2.9L52.7,4.1
			c0.7-0.9,2.1-1,2.9-0.2l35.1,29.9C91.6,34.5,91.7,35.8,91,36.7z"/>
		
			<rect x="-1.7" y="35.7" transform="matrix(0.6484 -0.7613 0.7613 0.6484 -18.2136 43.807)" fill="#404040" width="80" height="11.9"/>
		
			<rect x="14.1" y="47.9" transform="matrix(0.6484 -0.7613 0.7613 0.6484 -22.8908 60.5243)" fill="#E9E9EA" width="80" height="14.3"/>
		
			<rect x="55" y="45" transform="matrix(0.6484 -0.7613 0.7613 0.6484 -13.6815 63.1017)" fill="#2C2E3A" width="12.9" height="2.7"/>
		
			<rect x="67.1" y="32.9" transform="matrix(0.6484 -0.7613 0.7613 0.6484 -0.823 66.6974)" fill="#2C2E3A" width="9.4" height="2.7"/>
		
			<rect x="-5.3" y="36.9" transform="matrix(0.6484 -0.7613 0.7613 0.6484 -18.3106 34.7671)" fill="#404040" width="67.6" height="0.7"/>
		
			<rect x="27.8" y="65.3" transform="matrix(0.6484 -0.7613 0.7613 0.6484 -28.8309 69.3387)" fill="#404040" width="65.6" height="1.2"/>
	</g>
	<g>
		<g>
			<path fill="#F4F4F4" d="M109,102.8l-77.8,12.4c-1.1,0.2-2.2-0.6-2.4-1.7l-7.6-47.3C21.1,65,21.8,64,23,63.8l77.8-12.4
				c1.1-0.2,2.2,0.6,2.4,1.7l7.6,47.3C110.9,101.6,110.1,102.6,109,102.8z"/>
		</g>
		<g>
			<circle fill="#FFB048" cx="90.8" cy="96.7" r="6.3"/>
			<circle fill="#FF934A" cx="99.5" cy="95.4" r="6.3"/>
		</g>
		
			<rect x="27.4" y="99.8" transform="matrix(0.9874 -0.1583 0.1583 0.9874 -15.5442 9.9266)" fill="#2C2E3A" width="54.3" height="5.4"/>
		
			<rect x="22.2" y="59.7" transform="matrix(0.9874 -0.1583 0.1583 0.9874 -10.1159 10.9517)" fill="#F3F3F3" width="83" height="18.5"/>
		<g>
			<path fill="#2C2E3A" d="M51.3,71.3l-1.8,0.3l0.3,1.7l1.6-0.2l0.1-0.7l0.8-0.1l0.3,1.8L48,74.6l-0.1-0.7l0.6-0.4l-0.7-4.1
				l-0.7-0.2L47,68.5l2-0.4l2.4-0.4l0.3,1.7l-0.8,0.1L50.6,69l-1.4,0.2l0.2,1.4l1.8-0.3L51.3,71.3z"/>
			<path fill="#2C2E3A" d="M55.7,71.5l-2.5,0.4L53,70.8l2.5-0.4L55.7,71.5z"/>
			<path fill="#2C2E3A" d="M60,67.6c0,0-0.4-0.1-1,0c-0.9,0.1-1.3,0.9-1.1,2.4c0.2,1.4,0.9,1.9,1.8,1.8c0.9-0.1,1.6-0.9,1.6-0.9
				l0.6,0.7c0,0-0.8,1.1-2.1,1.3c-1.8,0.3-3-0.6-3.3-2.6c-0.3-2,0.6-3.4,2.4-3.7c1.1-0.2,2.1,0.1,2.1,0.1l0.2,1.7l-0.9,0.1L60,67.6z
				"/>
			<path fill="#2C2E3A" d="M68.5,71.3l-2.8,0.4L65.6,71l0.6-0.3l-0.3-0.6L64,70.4l-0.1,0.7l0.7,0.1l0.1,0.7l-2.6,0.4L62,71.6
				l0.6-0.3l1.1-5.4l1.4-0.2l2.7,4.9l0.6,0.1L68.5,71.3z M64.5,67.3l-0.4,2.2l1.3-0.2L64.5,67.3z"/>
			<path fill="#2C2E3A" d="M68.7,70.5l0.6-0.4l-0.7-4.1L68,65.9l-0.1-0.7l2-0.4l0.7-0.1c1.4-0.2,2.4,0.2,2.5,1.4
				c0.1,0.8-0.2,1.4-0.7,1.8c0.1,0.1,0.3,0.2,0.5,0.5l0.8,1.1l0.6,0.1l0.1,0.7l-1.6,0.3l-1-1.5c-0.4-0.6-0.5-0.7-1-0.7l-0.3,0
				l0.2,1.4l0.7,0.2l0.1,0.7l-2.6,0.4L68.7,70.5z M70.8,67.6c0.7-0.1,1-0.5,0.9-1.1c-0.1-0.5-0.5-0.8-1-0.7L70,65.9l0.3,1.8
				L70.8,67.6z"/>
			<path fill="#2C2E3A" d="M74.6,65.1L73.9,65l-0.1-0.7l2-0.4l0.8-0.1c1.7-0.3,2.9,0.6,3.2,2.5c0.3,2-0.6,3.3-2.4,3.6l-2.7,0.4
				l-0.1-0.7l0.6-0.4L74.6,65.1z M77.3,68.9c0.8-0.1,1.3-0.7,1.1-2.3c-0.2-1.5-0.8-1.9-1.7-1.8L76,64.9l0.6,4L77.3,68.9z"/>
		</g>
		
			<rect x="26.7" y="86" transform="matrix(0.9874 -0.1583 0.1583 0.9874 -12.9674 11.6293)" fill="#D3D2D2" width="79.5" height="2.4"/>
	</g>
</g>
</svg>
