<?xml version="1.0" encoding="utf-8"?>
<!-- Generator: Adobe Illustrator 18.0.0, SVG Export Plug-In . SVG Version: 6.00 Build 0)  -->
<!DOCTYPE svg PUBLIC "-//W3C//DTD SVG 1.1//EN" "http://www.w3.org/Graphics/SVG/1.1/DTD/svg11.dtd">
<svg version="1.1" id="Layer_1" xmlns="http://www.w3.org/2000/svg" xmlns:xlink="http://www.w3.org/1999/xlink" x="0px" y="0px"
	 viewBox="0 0 73.9 107" enable-background="new 0 0 73.9 107" xml:space="preserve">
<g>
	<g>
		<g>
			<g>
				<g>
					<path fill="#424242" d="M73.6,33.5l-17-20.2l0.9-2.4c0.9,0.1,1.8-0.1,2.7-0.5c1.3-0.6,2.3-1.7,2.8-3.1c0.5-1.4,0.5-2.9-0.2-4.2
						c-0.6-1.3-1.7-2.3-3.1-2.8c-1.4-0.5-2.9-0.5-4.2,0.2C55.3,0.6,55,0.8,54.8,1c0.2,0.2,0.5,0.4,0.6,0.7c0.4,0.1,0.7,0.3,1,0.5
						c0.4,0.2,0.6,0.6,0.7,1c0.5-0.2,1-0.1,1.5,0c0.6,0.2,1.1,0.7,1.4,1.3c0.3,0.6,0.3,1.2,0.1,1.9c-0.2,0.6-0.7,1.1-1.3,1.4
						C58.3,7.9,57.6,8,57,7.7c-0.4-0.1-0.8-0.1-1.2,0c-0.4,0.2-0.7,0.5-0.8,0.9l-1.3,3.6l-26,4.3c-0.7,0.1-1.2,0.7-1.3,1.4
						c-0.1,0.5,0.2,1,0.6,1.4c0.1,0.1,0.2,0.2,0.4,0.2l44.5,16.5c0.6,0.2,1.4,0,1.8-0.5C74,34.8,74,34,73.6,33.5z M33.9,18.6
						l20.4-3.4L67.6,31L33.9,18.6z"/>
				</g>
			</g>
			<g>
				<g>
					<g>
						<path fill="#FF4949" d="M55.7,105.2C60.6,82.7,45,41.8,45,41.8S8.9,66.7,0.2,87.9c-0.5,1.3,0.2,2.7,1.5,3.1l51,15.9
							C54,107.3,55.4,106.5,55.7,105.2z"/>
					</g>
				</g>
				<g>
					<g>
						<polygon fill="#FF4949" points="51.4,62.9 27.7,55.6 26.7,34 64.4,45.7 						"/>
					</g>
				</g>
				<g>
					<g>
						<path fill="#424242" d="M52.7,67.2c-0.4-1.5-0.8-3.1-1.1-4.5l2.2-3l-26.3-8.2l0.1,3.7c-1.2,1-2.3,2-3.5,3.1L52.7,67.2z"/>
					</g>
				</g>
				<g>
					<g>
						<g>
							<path fill="#424242" d="M31.3,30.3c-0.6-0.5-0.6-1.5-0.1-2.1L44,14.1c0.5-0.6,1.5-0.7,2.1-0.1c0,0,0,0,0,0
								c0.6,0.5,0.6,1.5,0.1,2.1L33.4,30.2C32.8,30.9,31.9,30.9,31.3,30.3C31.3,30.4,31.3,30.4,31.3,30.3z"/>
						</g>
					</g>
					<g>
						<g>
							<path fill="#424242" d="M61.5,39.7c-0.3-0.2-0.4-0.6-0.5-0.9l-1.8-17.4c-0.1-0.8,0.5-1.5,1.3-1.6c0.8-0.1,1.5,0.5,1.6,1.3
								L64,38.5c0.1,0.8-0.5,1.5-1.3,1.6C62.2,40.2,61.8,40,61.5,39.7z"/>
						</g>
					</g>
				</g>
				<g>
					<g>
						<path fill="#FF4949" d="M64.4,45.7c1.7-5.5,0.2-10.8-6.2-12.8c-4-1.2-8.1-0.6-11,1.4c-1.3-3.3-4.2-6.1-8.2-7.4
							c-6.4-2-10.6,1.6-12.3,7.1"/>
					</g>
				</g>
			</g>
		</g>
	</g>
	<g>
		<g>
			<g>
				<defs>
					<path id="SVGID_1_" d="M55.6,105.2c2.6-11.9-0.6-29-4.1-42.4c0,0,0,0,0,0l2.2-3l10.6-14c1.7-5.5,0.2-10.8-6.2-12.8
						c-4-1.2-8.1-0.6-11,1.4C46,31,43,28.2,39,27c-6.4-2-10.6,1.6-12.3,7.1l0.8,17.6l0.1,3.7c0,0,0,0,0,0C17.1,64.4,4.8,76.7,0.2,88
						c-0.5,1.3,0.2,2.7,1.5,3.1l51,15.9C54,107.4,55.4,106.6,55.6,105.2z"/>
				</defs>
				<clipPath id="SVGID_2_">
					<use xlink:href="#SVGID_1_"  overflow="visible"/>
				</clipPath>
				<g clip-path="url(#SVGID_2_)">
					<g>
						<defs>
							
								<rect id="SVGID_3_" x="86" y="57.5" transform="matrix(-0.7367 -0.6762 0.6762 -0.7367 122.5071 175.0695)" width="18.7" height="12.4"/>
						</defs>
						<clipPath id="SVGID_4_">
							<use xlink:href="#SVGID_3_"  overflow="visible"/>
						</clipPath>
						<g clip-path="url(#SVGID_4_)">
							<circle fill="#FFFFFF" cx="98" cy="74.6" r="1.6"/>
						</g>
						<g clip-path="url(#SVGID_4_)">
							<circle fill="#FFFFFF" cx="84.3" cy="62" r="1.6"/>
						</g>
						<g clip-path="url(#SVGID_4_)">
							<circle fill="#FFFFFF" cx="106.4" cy="65.4" r="1.6"/>
						</g>
						<g clip-path="url(#SVGID_4_)">
							<circle fill="#FFFFFF" cx="95.3" cy="63.7" r="1.6"/>
						</g>
						<g clip-path="url(#SVGID_4_)">
							<circle fill="#FFFFFF" cx="92.7" cy="52.8" r="1.6"/>
						</g>
					</g>
				</g>
				<g clip-path="url(#SVGID_2_)">
					<g>
						<defs>
							
								<rect id="SVGID_5_" x="77.6" y="66.6" transform="matrix(-0.7367 -0.6762 0.6762 -0.7367 101.702 185.2983)" width="18.7" height="12.4"/>
						</defs>
						<clipPath id="SVGID_6_">
							<use xlink:href="#SVGID_5_"  overflow="visible"/>
						</clipPath>
						<g clip-path="url(#SVGID_6_)">
							<circle fill="#FFFFFF" cx="89.6" cy="83.7" r="1.6"/>
						</g>
						<g clip-path="url(#SVGID_6_)">
							<circle fill="#FFFFFF" cx="75.8" cy="71.1" r="1.6"/>
						</g>
						<g clip-path="url(#SVGID_6_)">
							<circle fill="#FFFFFF" cx="98" cy="74.6" r="1.6"/>
						</g>
						<g clip-path="url(#SVGID_6_)">
							<circle fill="#FFFFFF" cx="86.9" cy="72.9" r="1.6"/>
						</g>
						<g clip-path="url(#SVGID_6_)">
							<circle fill="#FFFFFF" cx="84.3" cy="62" r="1.6"/>
						</g>
					</g>
				</g>
				<g clip-path="url(#SVGID_2_)">
					<g>
						<defs>
							
								<rect id="SVGID_7_" x="69.2" y="75.8" transform="matrix(-0.7367 -0.6762 0.6762 -0.7367 80.8969 195.5271)" width="18.7" height="12.4"/>
						</defs>
						<clipPath id="SVGID_8_">
							<use xlink:href="#SVGID_7_"  overflow="visible"/>
						</clipPath>
						<g clip-path="url(#SVGID_8_)">
							<circle fill="#FFFFFF" cx="81.2" cy="92.9" r="1.6"/>
						</g>
						<g clip-path="url(#SVGID_8_)">
							<circle fill="#FFFFFF" cx="67.4" cy="80.3" r="1.6"/>
						</g>
						<g clip-path="url(#SVGID_8_)">
							<circle fill="#FFFFFF" cx="89.6" cy="83.7" r="1.6"/>
						</g>
						<g clip-path="url(#SVGID_8_)">
							<circle fill="#FFFFFF" cx="78.5" cy="82" r="1.6"/>
						</g>
						<g clip-path="url(#SVGID_8_)">
							<circle fill="#FFFFFF" cx="75.8" cy="71.1" r="1.6"/>
						</g>
					</g>
				</g>
				<g clip-path="url(#SVGID_2_)">
					<g>
						<defs>
							
								<rect id="SVGID_9_" x="60.8" y="85" transform="matrix(-0.7367 -0.6762 0.6762 -0.7367 60.0918 205.7559)" width="18.7" height="12.4"/>
						</defs>
						<clipPath id="SVGID_10_">
							<use xlink:href="#SVGID_9_"  overflow="visible"/>
						</clipPath>
						<g clip-path="url(#SVGID_10_)">
							<circle fill="#FFFFFF" cx="72.8" cy="102.1" r="1.6"/>
						</g>
						<g clip-path="url(#SVGID_10_)">
							<circle fill="#FFFFFF" cx="59" cy="89.5" r="1.6"/>
						</g>
						<g clip-path="url(#SVGID_10_)">
							<circle fill="#FFFFFF" cx="81.2" cy="92.9" r="1.6"/>
						</g>
						<g clip-path="url(#SVGID_10_)">
							<circle fill="#FFFFFF" cx="70.1" cy="91.2" r="1.6"/>
						</g>
						<g clip-path="url(#SVGID_10_)">
							<circle fill="#FFFFFF" cx="67.4" cy="80.3" r="1.6"/>
						</g>
					</g>
				</g>
				<g clip-path="url(#SVGID_2_)">
					<g>
						<defs>
							
								<rect id="SVGID_11_" x="52.4" y="94.1" transform="matrix(-0.7367 -0.6762 0.6762 -0.7367 39.2867 215.9847)" width="18.7" height="12.4"/>
						</defs>
						<clipPath id="SVGID_12_">
							<use xlink:href="#SVGID_11_"  overflow="visible"/>
						</clipPath>
						<g clip-path="url(#SVGID_12_)">
							<circle fill="#FFFFFF" cx="64.4" cy="111.2" r="1.6"/>
						</g>
						<g clip-path="url(#SVGID_12_)">
							<circle fill="#FFFFFF" cx="50.6" cy="98.6" r="1.6"/>
						</g>
						<g clip-path="url(#SVGID_12_)">
							<circle fill="#FFFFFF" cx="72.8" cy="102.1" r="1.6"/>
						</g>
						<g clip-path="url(#SVGID_12_)">
							<circle fill="#FFFFFF" cx="61.7" cy="100.3" r="1.6"/>
						</g>
						<g clip-path="url(#SVGID_12_)">
							<circle fill="#FFFFFF" cx="59" cy="89.5" r="1.6"/>
						</g>
					</g>
				</g>
				<g clip-path="url(#SVGID_2_)">
					<g>
						<defs>
							
								<rect id="SVGID_13_" x="43.9" y="103.3" transform="matrix(-0.7367 -0.6762 0.6762 -0.7367 18.4815 226.2135)" width="18.7" height="12.4"/>
						</defs>
						<clipPath id="SVGID_14_">
							<use xlink:href="#SVGID_13_"  overflow="visible"/>
						</clipPath>
						<g clip-path="url(#SVGID_14_)">
							<circle fill="#FFFFFF" cx="55.9" cy="120.4" r="1.6"/>
						</g>
						<g clip-path="url(#SVGID_14_)">
							<circle fill="#FFFFFF" cx="42.2" cy="107.8" r="1.6"/>
						</g>
						<g clip-path="url(#SVGID_14_)">
							<circle fill="#FFFFFF" cx="64.4" cy="111.2" r="1.6"/>
						</g>
						<g clip-path="url(#SVGID_14_)">
							<circle fill="#FFFFFF" cx="53.3" cy="109.5" r="1.6"/>
						</g>
						<g clip-path="url(#SVGID_14_)">
							<circle fill="#FFFFFF" cx="50.6" cy="98.6" r="1.6"/>
						</g>
					</g>
				</g>
				<g clip-path="url(#SVGID_2_)">
					<g>
						<defs>
							
								<rect id="SVGID_15_" x="35.5" y="112.5" transform="matrix(-0.7367 -0.6762 0.6762 -0.7367 -2.3236 236.4423)" width="18.7" height="12.4"/>
						</defs>
						<clipPath id="SVGID_16_">
							<use xlink:href="#SVGID_15_"  overflow="visible"/>
						</clipPath>
						<g clip-path="url(#SVGID_16_)">
							<circle fill="#FFFFFF" cx="47.5" cy="129.6" r="1.6"/>
						</g>
						<g clip-path="url(#SVGID_16_)">
							<circle fill="#FFFFFF" cx="33.8" cy="116.9" r="1.6"/>
						</g>
						<g clip-path="url(#SVGID_16_)">
							<circle fill="#FFFFFF" cx="55.9" cy="120.4" r="1.6"/>
						</g>
						<g clip-path="url(#SVGID_16_)">
							<circle fill="#FFFFFF" cx="44.9" cy="118.7" r="1.6"/>
						</g>
						<g clip-path="url(#SVGID_16_)">
							<circle fill="#FFFFFF" cx="42.2" cy="107.8" r="1.6"/>
						</g>
					</g>
				</g>
				<g clip-path="url(#SVGID_2_)">
					<g>
						<defs>
							
								<rect id="SVGID_17_" x="27.1" y="121.6" transform="matrix(-0.7367 -0.6762 0.6762 -0.7367 -23.1287 246.6711)" width="18.7" height="12.4"/>
						</defs>
						<clipPath id="SVGID_18_">
							<use xlink:href="#SVGID_17_"  overflow="visible"/>
						</clipPath>
						<g clip-path="url(#SVGID_18_)">
							<circle fill="#FFFFFF" cx="39.1" cy="138.7" r="1.6"/>
						</g>
						<g clip-path="url(#SVGID_18_)">
							<circle fill="#FFFFFF" cx="25.4" cy="126.1" r="1.6"/>
						</g>
						<g clip-path="url(#SVGID_18_)">
							<circle fill="#FFFFFF" cx="47.5" cy="129.6" r="1.6"/>
						</g>
						<g clip-path="url(#SVGID_18_)">
							<circle fill="#FFFFFF" cx="36.5" cy="127.8" r="1.6"/>
						</g>
						<g clip-path="url(#SVGID_18_)">
							<circle fill="#FFFFFF" cx="33.8" cy="116.9" r="1.6"/>
						</g>
					</g>
				</g>
				<g clip-path="url(#SVGID_2_)">
					<g>
						<defs>
							
								<rect id="SVGID_19_" x="72.3" y="44.8" transform="matrix(-0.7367 -0.6762 0.6762 -0.7367 107.1639 143.8619)" width="18.7" height="12.4"/>
						</defs>
						<clipPath id="SVGID_20_">
							<use xlink:href="#SVGID_19_"  overflow="visible"/>
						</clipPath>
						<g clip-path="url(#SVGID_20_)">
							<circle fill="#FFFFFF" cx="84.3" cy="62" r="1.6"/>
						</g>
						<g clip-path="url(#SVGID_20_)">
							<circle fill="#FFFFFF" cx="70.5" cy="49.3" r="1.6"/>
						</g>
						<g clip-path="url(#SVGID_20_)">
							<circle fill="#FFFFFF" cx="92.7" cy="52.8" r="1.6"/>
						</g>
						<g clip-path="url(#SVGID_20_)">
							<circle fill="#FFFFFF" cx="81.6" cy="51.1" r="1.6"/>
						</g>
						<g clip-path="url(#SVGID_20_)">
							<circle fill="#FFFFFF" cx="78.9" cy="40.2" r="1.6"/>
						</g>
					</g>
				</g>
				<g clip-path="url(#SVGID_2_)">
					<g>
						<defs>
							
								<rect id="SVGID_21_" x="63.8" y="54" transform="matrix(-0.7367 -0.6762 0.6762 -0.7367 86.3588 154.0906)" width="18.7" height="12.4"/>
						</defs>
						<clipPath id="SVGID_22_">
							<use xlink:href="#SVGID_21_"  overflow="visible"/>
						</clipPath>
						<g clip-path="url(#SVGID_22_)">
							<circle fill="#FFFFFF" cx="75.8" cy="71.1" r="1.6"/>
						</g>
						<g clip-path="url(#SVGID_22_)">
							<circle fill="#FFFFFF" cx="62.1" cy="58.5" r="1.6"/>
						</g>
						<g clip-path="url(#SVGID_22_)">
							<circle fill="#FFFFFF" cx="84.3" cy="62" r="1.6"/>
						</g>
						<g clip-path="url(#SVGID_22_)">
							<circle fill="#FFFFFF" cx="73.2" cy="60.2" r="1.6"/>
						</g>
						<g clip-path="url(#SVGID_22_)">
							<circle fill="#FFFFFF" cx="70.5" cy="49.3" r="1.6"/>
						</g>
					</g>
				</g>
				<g clip-path="url(#SVGID_2_)">
					<g>
						<defs>
							
								<rect id="SVGID_23_" x="55.4" y="63.2" transform="matrix(-0.7367 -0.6762 0.6762 -0.7367 65.5537 164.3194)" width="18.7" height="12.4"/>
						</defs>
						<clipPath id="SVGID_24_">
							<use xlink:href="#SVGID_23_"  overflow="visible"/>
						</clipPath>
						<g clip-path="url(#SVGID_24_)">
							<circle fill="#FFFFFF" cx="67.4" cy="80.3" r="1.6"/>
						</g>
						<g clip-path="url(#SVGID_24_)">
							<circle fill="#FFFFFF" cx="53.7" cy="67.7" r="1.6"/>
						</g>
						<g clip-path="url(#SVGID_24_)">
							<circle fill="#FFFFFF" cx="75.8" cy="71.1" r="1.6"/>
						</g>
						<g clip-path="url(#SVGID_24_)">
							<circle fill="#FFFFFF" cx="64.8" cy="69.4" r="1.6"/>
						</g>
						<g clip-path="url(#SVGID_24_)">
							<circle fill="#FFFFFF" cx="62.1" cy="58.5" r="1.6"/>
						</g>
					</g>
				</g>
				<g clip-path="url(#SVGID_2_)">
					<g>
						<defs>
							
								<rect id="SVGID_25_" x="47" y="72.3" transform="matrix(-0.7367 -0.6762 0.6762 -0.7367 44.7486 174.5482)" width="18.7" height="12.4"/>
						</defs>
						<clipPath id="SVGID_26_">
							<use xlink:href="#SVGID_25_"  overflow="visible"/>
						</clipPath>
						<g clip-path="url(#SVGID_26_)">
							<circle fill="#FFFFFF" cx="59" cy="89.5" r="1.6"/>
						</g>
						<g clip-path="url(#SVGID_26_)">
							<circle fill="#FFFFFF" cx="45.3" cy="76.8" r="1.6"/>
						</g>
						<g clip-path="url(#SVGID_26_)">
							<circle fill="#FFFFFF" cx="67.4" cy="80.3" r="1.6"/>
						</g>
						<g clip-path="url(#SVGID_26_)">
							<circle fill="#FFFFFF" cx="56.4" cy="78.6" r="1.6"/>
						</g>
						<g clip-path="url(#SVGID_26_)">
							<circle fill="#FFFFFF" cx="53.7" cy="67.7" r="1.6"/>
						</g>
					</g>
				</g>
				<g clip-path="url(#SVGID_2_)">
					<g>
						<defs>
							
								<rect id="SVGID_27_" x="38.6" y="81.5" transform="matrix(-0.7367 -0.6762 0.6762 -0.7367 23.9435 184.777)" width="18.7" height="12.4"/>
						</defs>
						<clipPath id="SVGID_28_">
							<use xlink:href="#SVGID_27_"  overflow="visible"/>
						</clipPath>
						<g clip-path="url(#SVGID_28_)">
							<circle fill="#FFFFFF" cx="50.6" cy="98.6" r="1.6"/>
						</g>
						<g clip-path="url(#SVGID_28_)">
							<circle fill="#FFFFFF" cx="36.9" cy="86" r="1.6"/>
						</g>
						<g clip-path="url(#SVGID_28_)">
							<circle fill="#FFFFFF" cx="59" cy="89.5" r="1.6"/>
						</g>
						<g clip-path="url(#SVGID_28_)">
							<circle fill="#FFFFFF" cx="47.9" cy="87.7" r="1.6"/>
						</g>
						<g clip-path="url(#SVGID_28_)">
							<circle fill="#FFFFFF" cx="45.3" cy="76.8" r="1.6"/>
						</g>
					</g>
				</g>
				<g clip-path="url(#SVGID_2_)">
					<g>
						<defs>
							
								<rect id="SVGID_29_" x="30.2" y="90.7" transform="matrix(-0.7367 -0.6762 0.6762 -0.7367 3.1384 195.0058)" width="18.7" height="12.4"/>
						</defs>
						<clipPath id="SVGID_30_">
							<use xlink:href="#SVGID_29_"  overflow="visible"/>
						</clipPath>
						<g clip-path="url(#SVGID_30_)">
							<circle fill="#FFFFFF" cx="42.2" cy="107.8" r="1.6"/>
						</g>
						<g clip-path="url(#SVGID_30_)">
							<circle fill="#FFFFFF" cx="28.5" cy="95.2" r="1.6"/>
						</g>
						<g clip-path="url(#SVGID_30_)">
							<circle fill="#FFFFFF" cx="50.6" cy="98.6" r="1.6"/>
						</g>
						<g clip-path="url(#SVGID_30_)">
							<circle fill="#FFFFFF" cx="39.5" cy="96.9" r="1.6"/>
						</g>
						<g clip-path="url(#SVGID_30_)">
							<circle fill="#FFFFFF" cx="36.9" cy="86" r="1.6"/>
						</g>
					</g>
				</g>
				<g clip-path="url(#SVGID_2_)">
					<g>
						<defs>
							
								<rect id="SVGID_31_" x="21.8" y="99.8" transform="matrix(-0.7367 -0.6762 0.6762 -0.7367 -17.6668 205.2346)" width="18.7" height="12.4"/>
						</defs>
						<clipPath id="SVGID_32_">
							<use xlink:href="#SVGID_31_"  overflow="visible"/>
						</clipPath>
						<g clip-path="url(#SVGID_32_)">
							<circle fill="#FFFFFF" cx="33.8" cy="116.9" r="1.6"/>
						</g>
						<g clip-path="url(#SVGID_32_)">
							<circle fill="#FFFFFF" cx="20" cy="104.3" r="1.6"/>
						</g>
						<g clip-path="url(#SVGID_32_)">
							<circle fill="#FFFFFF" cx="42.2" cy="107.8" r="1.6"/>
						</g>
						<g clip-path="url(#SVGID_32_)">
							<circle fill="#FFFFFF" cx="31.1" cy="106.1" r="1.6"/>
						</g>
						<g clip-path="url(#SVGID_32_)">
							<circle fill="#FFFFFF" cx="28.5" cy="95.2" r="1.6"/>
						</g>
					</g>
				</g>
				<g clip-path="url(#SVGID_2_)">
					<g>
						<defs>
							
								<rect id="SVGID_33_" x="13.4" y="109" transform="matrix(-0.7367 -0.6762 0.6762 -0.7367 -38.4719 215.4634)" width="18.7" height="12.4"/>
						</defs>
						<clipPath id="SVGID_34_">
							<use xlink:href="#SVGID_33_"  overflow="visible"/>
						</clipPath>
						<g clip-path="url(#SVGID_34_)">
							<circle fill="#FFFFFF" cx="25.4" cy="126.1" r="1.6"/>
						</g>
						<g clip-path="url(#SVGID_34_)">
							<circle fill="#FFFFFF" cx="11.6" cy="113.5" r="1.6"/>
						</g>
						<g clip-path="url(#SVGID_34_)">
							<circle fill="#FFFFFF" cx="33.8" cy="116.9" r="1.6"/>
						</g>
						<g clip-path="url(#SVGID_34_)">
							<circle fill="#FFFFFF" cx="22.7" cy="115.2" r="1.6"/>
						</g>
						<g clip-path="url(#SVGID_34_)">
							<circle fill="#FFFFFF" cx="20" cy="104.3" r="1.6"/>
						</g>
					</g>
				</g>
				<g clip-path="url(#SVGID_2_)">
					<g>
						<defs>
							
								<rect id="SVGID_35_" x="58.5" y="32.2" transform="matrix(-0.7367 -0.6762 0.6762 -0.7367 91.8207 112.6542)" width="18.7" height="12.4"/>
						</defs>
						<clipPath id="SVGID_36_">
							<use xlink:href="#SVGID_35_"  overflow="visible"/>
						</clipPath>
						<g clip-path="url(#SVGID_36_)">
							<circle fill="#FFFFFF" cx="70.5" cy="49.3" r="1.6"/>
						</g>
						<g clip-path="url(#SVGID_36_)">
							<circle fill="#FFFFFF" cx="56.8" cy="36.7" r="1.6"/>
						</g>
						<g clip-path="url(#SVGID_36_)">
							<circle fill="#FFFFFF" cx="78.9" cy="40.2" r="1.6"/>
						</g>
						<g clip-path="url(#SVGID_36_)">
							<circle fill="#FFFFFF" cx="67.8" cy="38.5" r="1.6"/>
						</g>
						<g clip-path="url(#SVGID_36_)">
							<circle fill="#FFFFFF" cx="65.2" cy="27.6" r="1.6"/>
						</g>
					</g>
				</g>
				<g clip-path="url(#SVGID_2_)">
					<g>
						<defs>
							
								<rect id="SVGID_37_" x="50.1" y="41.4" transform="matrix(-0.7367 -0.6762 0.6762 -0.7367 71.0156 122.883)" width="18.7" height="12.4"/>
						</defs>
						<clipPath id="SVGID_38_">
							<use xlink:href="#SVGID_37_"  overflow="visible"/>
						</clipPath>
						<g clip-path="url(#SVGID_38_)">
							<circle fill="#FFFFFF" cx="62.1" cy="58.5" r="1.6"/>
						</g>
						<g clip-path="url(#SVGID_38_)">
							<circle fill="#FFFFFF" cx="48.4" cy="45.9" r="1.6"/>
						</g>
						<g clip-path="url(#SVGID_38_)">
							<circle fill="#FFFFFF" cx="70.5" cy="49.3" r="1.6"/>
						</g>
						<g clip-path="url(#SVGID_38_)">
							<circle fill="#FFFFFF" cx="59.4" cy="47.6" r="1.6"/>
						</g>
						<g clip-path="url(#SVGID_38_)">
							<circle fill="#FFFFFF" cx="56.8" cy="36.7" r="1.6"/>
						</g>
					</g>
				</g>
				<g clip-path="url(#SVGID_2_)">
					<g>
						<defs>
							
								<rect id="SVGID_39_" x="41.7" y="50.6" transform="matrix(-0.7367 -0.6762 0.6762 -0.7367 50.2105 133.1118)" width="18.7" height="12.4"/>
						</defs>
						<clipPath id="SVGID_40_">
							<use xlink:href="#SVGID_39_"  overflow="visible"/>
						</clipPath>
						<g clip-path="url(#SVGID_40_)">
							<circle fill="#FFFFFF" cx="53.7" cy="67.7" r="1.6"/>
						</g>
						<g clip-path="url(#SVGID_40_)">
							<circle fill="#FFFFFF" cx="39.9" cy="55.1" r="1.6"/>
						</g>
						<g clip-path="url(#SVGID_40_)">
							<circle fill="#FFFFFF" cx="62.1" cy="58.5" r="1.6"/>
						</g>
						<g clip-path="url(#SVGID_40_)">
							<circle fill="#FFFFFF" cx="51" cy="56.8" r="1.6"/>
						</g>
						<g clip-path="url(#SVGID_40_)">
							<circle fill="#FFFFFF" cx="48.4" cy="45.9" r="1.6"/>
						</g>
					</g>
				</g>
				<g clip-path="url(#SVGID_2_)">
					<g>
						<defs>
							
								<rect id="SVGID_41_" x="33.3" y="59.7" transform="matrix(-0.7367 -0.6762 0.6762 -0.7367 29.4054 143.3406)" width="18.7" height="12.4"/>
						</defs>
						<clipPath id="SVGID_42_">
							<use xlink:href="#SVGID_41_"  overflow="visible"/>
						</clipPath>
						<g clip-path="url(#SVGID_42_)">
							<circle fill="#FFFFFF" cx="45.3" cy="76.8" r="1.6"/>
						</g>
						<g clip-path="url(#SVGID_42_)">
							<circle fill="#FFFFFF" cx="31.5" cy="64.2" r="1.6"/>
						</g>
						<g clip-path="url(#SVGID_42_)">
							<circle fill="#FFFFFF" cx="53.7" cy="67.7" r="1.6"/>
						</g>
						<g clip-path="url(#SVGID_42_)">
							<circle fill="#FFFFFF" cx="42.6" cy="65.9" r="1.6"/>
						</g>
						<g clip-path="url(#SVGID_42_)">
							<circle fill="#FFFFFF" cx="39.9" cy="55.1" r="1.6"/>
						</g>
					</g>
				</g>
				<g clip-path="url(#SVGID_2_)">
					<g>
						<defs>
							
								<rect id="SVGID_43_" x="24.9" y="68.9" transform="matrix(-0.7367 -0.6762 0.6762 -0.7367 8.6003 153.5694)" width="18.7" height="12.4"/>
						</defs>
						<clipPath id="SVGID_44_">
							<use xlink:href="#SVGID_43_"  overflow="visible"/>
						</clipPath>
						<g clip-path="url(#SVGID_44_)">
							<circle fill="#FFFFFF" cx="36.9" cy="86" r="1.6"/>
						</g>
						<g clip-path="url(#SVGID_44_)">
							<circle fill="#FFFFFF" cx="23.1" cy="73.4" r="1.6"/>
						</g>
						<g clip-path="url(#SVGID_44_)">
							<circle fill="#FFFFFF" cx="45.3" cy="76.8" r="1.6"/>
						</g>
						<g clip-path="url(#SVGID_44_)">
							<circle fill="#FFFFFF" cx="34.2" cy="75.1" r="1.6"/>
						</g>
						<g clip-path="url(#SVGID_44_)">
							<circle fill="#FFFFFF" cx="31.5" cy="64.2" r="1.6"/>
						</g>
					</g>
				</g>
				<g clip-path="url(#SVGID_2_)">
					<g>
						<defs>
							
								<rect id="SVGID_45_" x="16.5" y="78.1" transform="matrix(-0.7367 -0.6762 0.6762 -0.7367 -12.2048 163.7981)" width="18.7" height="12.4"/>
						</defs>
						<clipPath id="SVGID_46_">
							<use xlink:href="#SVGID_45_"  overflow="visible"/>
						</clipPath>
						<g clip-path="url(#SVGID_46_)">
							<circle fill="#FFFFFF" cx="28.5" cy="95.2" r="1.6"/>
						</g>
						<g clip-path="url(#SVGID_46_)">
							<circle fill="#FFFFFF" cx="14.7" cy="82.5" r="1.6"/>
						</g>
						<g clip-path="url(#SVGID_46_)">
							<circle fill="#FFFFFF" cx="36.9" cy="86" r="1.6"/>
						</g>
						<g clip-path="url(#SVGID_46_)">
							<circle fill="#FFFFFF" cx="25.8" cy="84.3" r="1.6"/>
						</g>
						<g clip-path="url(#SVGID_46_)">
							<circle fill="#FFFFFF" cx="23.1" cy="73.4" r="1.6"/>
						</g>
					</g>
				</g>
				<g clip-path="url(#SVGID_2_)">
					<g>
						<defs>
							
								<rect id="SVGID_47_" x="8" y="87.2" transform="matrix(-0.7367 -0.6762 0.6762 -0.7367 -33.0099 174.0269)" width="18.7" height="12.4"/>
						</defs>
						<clipPath id="SVGID_48_">
							<use xlink:href="#SVGID_47_"  overflow="visible"/>
						</clipPath>
						<g clip-path="url(#SVGID_48_)">
							<circle fill="#FFFFFF" cx="20" cy="104.3" r="1.6"/>
						</g>
						<g clip-path="url(#SVGID_48_)">
							<circle fill="#FFFFFF" cx="6.3" cy="91.7" r="1.6"/>
						</g>
						<g clip-path="url(#SVGID_48_)">
							<circle fill="#FFFFFF" cx="28.5" cy="95.2" r="1.6"/>
						</g>
						<g clip-path="url(#SVGID_48_)">
							<circle fill="#FFFFFF" cx="17.4" cy="93.4" r="1.6"/>
						</g>
						<g clip-path="url(#SVGID_48_)">
							<circle fill="#FFFFFF" cx="14.7" cy="82.5" r="1.6"/>
						</g>
					</g>
				</g>
				<g clip-path="url(#SVGID_2_)">
					<g>
						<defs>
							
								<rect id="SVGID_49_" x="-0.4" y="96.4" transform="matrix(-0.7367 -0.6762 0.6762 -0.7367 -53.8151 184.2557)" width="18.7" height="12.4"/>
						</defs>
						<clipPath id="SVGID_50_">
							<use xlink:href="#SVGID_49_"  overflow="visible"/>
						</clipPath>
						<g clip-path="url(#SVGID_50_)">
							<circle fill="#FFFFFF" cx="11.6" cy="113.5" r="1.6"/>
						</g>
						<g clip-path="url(#SVGID_50_)">
							<circle fill="#FFFFFF" cx="-2.1" cy="100.9" r="1.6"/>
						</g>
						<g clip-path="url(#SVGID_50_)">
							<circle fill="#FFFFFF" cx="20" cy="104.3" r="1.6"/>
						</g>
						<g clip-path="url(#SVGID_50_)">
							<circle fill="#FFFFFF" cx="9" cy="102.6" r="1.6"/>
						</g>
						<g clip-path="url(#SVGID_50_)">
							<circle fill="#FFFFFF" cx="6.3" cy="91.7" r="1.6"/>
						</g>
					</g>
				</g>
				<g clip-path="url(#SVGID_2_)">
					<g>
						<defs>
							
								<rect id="SVGID_51_" x="44.8" y="19.6" transform="matrix(-0.7367 -0.6762 0.6762 -0.7367 76.4775 81.4465)" width="18.7" height="12.4"/>
						</defs>
						<clipPath id="SVGID_52_">
							<use xlink:href="#SVGID_51_"  overflow="visible"/>
						</clipPath>
						<g clip-path="url(#SVGID_52_)">
							<circle fill="#FFFFFF" cx="56.8" cy="36.7" r="1.6"/>
						</g>
						<g clip-path="url(#SVGID_52_)">
							<circle fill="#FFFFFF" cx="43" cy="24.1" r="1.6"/>
						</g>
						<g clip-path="url(#SVGID_52_)">
							<circle fill="#FFFFFF" cx="65.2" cy="27.6" r="1.6"/>
						</g>
						<g clip-path="url(#SVGID_52_)">
							<circle fill="#FFFFFF" cx="54.1" cy="25.8" r="1.6"/>
						</g>
						<g clip-path="url(#SVGID_52_)">
							<circle fill="#FFFFFF" cx="51.4" cy="14.9" r="1.6"/>
						</g>
					</g>
				</g>
				<g clip-path="url(#SVGID_2_)">
					<g>
						<defs>
							
								<rect id="SVGID_53_" x="36.4" y="28.8" transform="matrix(-0.7367 -0.6762 0.6762 -0.7367 55.6724 91.6753)" width="18.7" height="12.4"/>
						</defs>
						<clipPath id="SVGID_54_">
							<use xlink:href="#SVGID_53_"  overflow="visible"/>
						</clipPath>
						<g clip-path="url(#SVGID_54_)">
							<circle fill="#FFFFFF" cx="48.4" cy="45.9" r="1.6"/>
						</g>
						<g clip-path="url(#SVGID_54_)">
							<circle fill="#FFFFFF" cx="34.6" cy="33.3" r="1.6"/>
						</g>
						<g clip-path="url(#SVGID_54_)">
							<circle fill="#FFFFFF" cx="56.8" cy="36.7" r="1.6"/>
						</g>
						<g clip-path="url(#SVGID_54_)">
							<circle fill="#FFFFFF" cx="45.7" cy="35" r="1.6"/>
						</g>
						<g clip-path="url(#SVGID_54_)">
							<circle fill="#FFFFFF" cx="43" cy="24.1" r="1.6"/>
						</g>
					</g>
				</g>
				<g clip-path="url(#SVGID_2_)">
					<g>
						<defs>
							
								<rect id="SVGID_55_" x="27.9" y="37.9" transform="matrix(-0.7367 -0.6762 0.6762 -0.7367 34.8673 101.9041)" width="18.7" height="12.4"/>
						</defs>
						<clipPath id="SVGID_56_">
							<use xlink:href="#SVGID_55_"  overflow="visible"/>
						</clipPath>
						<g clip-path="url(#SVGID_56_)">
							<circle fill="#FFFFFF" cx="39.9" cy="55.1" r="1.6"/>
						</g>
						<g clip-path="url(#SVGID_56_)">
							<circle fill="#FFFFFF" cx="26.2" cy="42.4" r="1.6"/>
						</g>
						<g clip-path="url(#SVGID_56_)">
							<circle fill="#FFFFFF" cx="48.4" cy="45.9" r="1.6"/>
						</g>
						<g clip-path="url(#SVGID_56_)">
							<circle fill="#FFFFFF" cx="37.3" cy="44.2" r="1.6"/>
						</g>
						<g clip-path="url(#SVGID_56_)">
							<circle fill="#FFFFFF" cx="34.6" cy="33.3" r="1.6"/>
						</g>
					</g>
				</g>
				<g clip-path="url(#SVGID_2_)">
					<g>
						<defs>
							
								<rect id="SVGID_57_" x="19.5" y="47.1" transform="matrix(-0.7367 -0.6762 0.6762 -0.7367 14.0622 112.1329)" width="18.7" height="12.4"/>
						</defs>
						<clipPath id="SVGID_58_">
							<use xlink:href="#SVGID_57_"  overflow="visible"/>
						</clipPath>
						<g clip-path="url(#SVGID_58_)">
							<circle fill="#FFFFFF" cx="31.5" cy="64.2" r="1.6"/>
						</g>
						<g clip-path="url(#SVGID_58_)">
							<circle fill="#FFFFFF" cx="17.8" cy="51.6" r="1.6"/>
						</g>
						<g clip-path="url(#SVGID_58_)">
							<circle fill="#FFFFFF" cx="39.9" cy="55.1" r="1.6"/>
						</g>
						<g clip-path="url(#SVGID_58_)">
							<circle fill="#FFFFFF" cx="28.9" cy="53.3" r="1.6"/>
						</g>
						<g clip-path="url(#SVGID_58_)">
							<circle fill="#FFFFFF" cx="26.2" cy="42.4" r="1.6"/>
						</g>
					</g>
				</g>
				<g clip-path="url(#SVGID_2_)">
					<g>
						<defs>
							
								<rect id="SVGID_59_" x="11.1" y="56.3" transform="matrix(-0.7367 -0.6762 0.6762 -0.7367 -6.7429 122.3617)" width="18.7" height="12.4"/>
						</defs>
						<clipPath id="SVGID_60_">
							<use xlink:href="#SVGID_59_"  overflow="visible"/>
						</clipPath>
						<g clip-path="url(#SVGID_60_)">
							<circle fill="#FFFFFF" cx="23.1" cy="73.4" r="1.6"/>
						</g>
						<g clip-path="url(#SVGID_60_)">
							<circle fill="#FFFFFF" cx="9.4" cy="60.8" r="1.6"/>
						</g>
						<g clip-path="url(#SVGID_60_)">
							<circle fill="#FFFFFF" cx="31.5" cy="64.2" r="1.6"/>
						</g>
						<g clip-path="url(#SVGID_60_)">
							<circle fill="#FFFFFF" cx="20.4" cy="62.5" r="1.6"/>
						</g>
						<g clip-path="url(#SVGID_60_)">
							<circle fill="#FFFFFF" cx="17.8" cy="51.6" r="1.6"/>
						</g>
					</g>
				</g>
				<g clip-path="url(#SVGID_2_)">
					<g>
						<defs>
							
								<rect id="SVGID_61_" x="2.7" y="65.4" transform="matrix(-0.7367 -0.6762 0.6762 -0.7367 -27.548 132.5905)" width="18.7" height="12.4"/>
						</defs>
						<clipPath id="SVGID_62_">
							<use xlink:href="#SVGID_61_"  overflow="visible"/>
						</clipPath>
						<g clip-path="url(#SVGID_62_)">
							<circle fill="#FFFFFF" cx="14.7" cy="82.5" r="1.6"/>
						</g>
						<g clip-path="url(#SVGID_62_)">
							<circle fill="#FFFFFF" cx="1" cy="69.9" r="1.6"/>
						</g>
						<g clip-path="url(#SVGID_62_)">
							<circle fill="#FFFFFF" cx="23.1" cy="73.4" r="1.6"/>
						</g>
						<g clip-path="url(#SVGID_62_)">
							<circle fill="#FFFFFF" cx="12" cy="71.7" r="1.6"/>
						</g>
						<g clip-path="url(#SVGID_62_)">
							<circle fill="#FFFFFF" cx="9.4" cy="60.8" r="1.6"/>
						</g>
					</g>
				</g>
				<g clip-path="url(#SVGID_2_)">
					<g>
						<defs>
							
								<rect id="SVGID_63_" x="-5.7" y="74.6" transform="matrix(-0.7367 -0.6762 0.6762 -0.7367 -48.3531 142.8193)" width="18.7" height="12.4"/>
						</defs>
						<clipPath id="SVGID_64_">
							<use xlink:href="#SVGID_63_"  overflow="visible"/>
						</clipPath>
						<g clip-path="url(#SVGID_64_)">
							<circle fill="#FFFFFF" cx="6.3" cy="91.7" r="1.6"/>
						</g>
						<g clip-path="url(#SVGID_64_)">
							<circle fill="#FFFFFF" cx="-7.5" cy="79.1" r="1.6"/>
						</g>
						<g clip-path="url(#SVGID_64_)">
							<circle fill="#FFFFFF" cx="14.7" cy="82.5" r="1.6"/>
						</g>
						<g clip-path="url(#SVGID_64_)">
							<circle fill="#FFFFFF" cx="3.6" cy="80.8" r="1.6"/>
						</g>
						<g clip-path="url(#SVGID_64_)">
							<circle fill="#FFFFFF" cx="1" cy="69.9" r="1.6"/>
						</g>
					</g>
				</g>
				<g clip-path="url(#SVGID_2_)">
					<g>
						<defs>
							
								<rect id="SVGID_65_" x="-14.1" y="83.8" transform="matrix(-0.7367 -0.6762 0.6762 -0.7367 -69.1582 153.048)" width="18.7" height="12.4"/>
						</defs>
						<clipPath id="SVGID_66_">
							<use xlink:href="#SVGID_65_"  overflow="visible"/>
						</clipPath>
						<g clip-path="url(#SVGID_66_)">
							<circle fill="#FFFFFF" cx="-2.1" cy="100.9" r="1.6"/>
						</g>
						<g clip-path="url(#SVGID_66_)">
							<circle fill="#FFFFFF" cx="-15.9" cy="88.3" r="1.6"/>
						</g>
						<g clip-path="url(#SVGID_66_)">
							<circle fill="#FFFFFF" cx="6.3" cy="91.7" r="1.6"/>
						</g>
						<g clip-path="url(#SVGID_66_)">
							<circle fill="#FFFFFF" cx="-4.8" cy="90" r="1.6"/>
						</g>
						<g clip-path="url(#SVGID_66_)">
							<circle fill="#FFFFFF" cx="-7.5" cy="79.1" r="1.6"/>
						</g>
					</g>
				</g>
				<g clip-path="url(#SVGID_2_)">
					<g>
						<defs>
							
								<rect id="SVGID_67_" x="31" y="7" transform="matrix(-0.7367 -0.6762 0.6762 -0.7367 61.1344 50.2389)" width="18.7" height="12.4"/>
						</defs>
						<clipPath id="SVGID_68_">
							<use xlink:href="#SVGID_67_"  overflow="visible"/>
						</clipPath>
						<g clip-path="url(#SVGID_68_)">
							<circle fill="#FFFFFF" cx="43" cy="24.1" r="1.6"/>
						</g>
						<g clip-path="url(#SVGID_68_)">
							<circle fill="#FFFFFF" cx="29.3" cy="11.5" r="1.6"/>
						</g>
						<g clip-path="url(#SVGID_68_)">
							<circle fill="#FFFFFF" cx="51.4" cy="14.9" r="1.6"/>
						</g>
						<g clip-path="url(#SVGID_68_)">
							<circle fill="#FFFFFF" cx="40.3" cy="13.2" r="1.6"/>
						</g>
						<g clip-path="url(#SVGID_68_)">
							<circle fill="#FFFFFF" cx="37.7" cy="2.3" r="1.6"/>
						</g>
					</g>
				</g>
				<g clip-path="url(#SVGID_2_)">
					<g>
						<defs>
							
								<rect id="SVGID_69_" x="22.6" y="16.2" transform="matrix(-0.7367 -0.6762 0.6762 -0.7367 40.3292 60.4676)" width="18.7" height="12.4"/>
						</defs>
						<clipPath id="SVGID_70_">
							<use xlink:href="#SVGID_69_"  overflow="visible"/>
						</clipPath>
						<g clip-path="url(#SVGID_70_)">
							<circle fill="#FFFFFF" cx="34.6" cy="33.3" r="1.6"/>
						</g>
						<g clip-path="url(#SVGID_70_)">
							<circle fill="#FFFFFF" cx="20.9" cy="20.7" r="1.6"/>
						</g>
						<g clip-path="url(#SVGID_70_)">
							<circle fill="#FFFFFF" cx="43" cy="24.1" r="1.6"/>
						</g>
						<g clip-path="url(#SVGID_70_)">
							<circle fill="#FFFFFF" cx="31.9" cy="22.4" r="1.6"/>
						</g>
						<g clip-path="url(#SVGID_70_)">
							<circle fill="#FFFFFF" cx="29.3" cy="11.5" r="1.6"/>
						</g>
					</g>
				</g>
				<g clip-path="url(#SVGID_2_)">
					<g>
						<defs>
							
								<rect id="SVGID_71_" x="14.2" y="25.3" transform="matrix(-0.7367 -0.6762 0.6762 -0.7367 19.5241 70.6964)" width="18.7" height="12.4"/>
						</defs>
						<clipPath id="SVGID_72_">
							<use xlink:href="#SVGID_71_"  overflow="visible"/>
						</clipPath>
						<g clip-path="url(#SVGID_72_)">
							<circle fill="#FFFFFF" cx="26.2" cy="42.4" r="1.6"/>
						</g>
						<g clip-path="url(#SVGID_72_)">
							<circle fill="#FFFFFF" cx="12.4" cy="29.8" r="1.6"/>
						</g>
						<g clip-path="url(#SVGID_72_)">
							<circle fill="#FFFFFF" cx="34.6" cy="33.3" r="1.6"/>
						</g>
						<g clip-path="url(#SVGID_72_)">
							<circle fill="#FFFFFF" cx="23.5" cy="31.5" r="1.6"/>
						</g>
						<g clip-path="url(#SVGID_72_)">
							<circle fill="#FFFFFF" cx="20.9" cy="20.7" r="1.6"/>
						</g>
					</g>
				</g>
				<g clip-path="url(#SVGID_2_)">
					<g>
						<defs>
							
								<rect id="SVGID_73_" x="5.8" y="34.5" transform="matrix(-0.7367 -0.6762 0.6762 -0.7367 -1.281 80.9252)" width="18.7" height="12.4"/>
						</defs>
						<clipPath id="SVGID_74_">
							<use xlink:href="#SVGID_73_"  overflow="visible"/>
						</clipPath>
						<g clip-path="url(#SVGID_74_)">
							<circle fill="#FFFFFF" cx="17.8" cy="51.6" r="1.6"/>
						</g>
						<g clip-path="url(#SVGID_74_)">
							<circle fill="#FFFFFF" cx="4" cy="39" r="1.6"/>
						</g>
						<g clip-path="url(#SVGID_74_)">
							<circle fill="#FFFFFF" cx="26.2" cy="42.4" r="1.6"/>
						</g>
						<g clip-path="url(#SVGID_74_)">
							<circle fill="#FFFFFF" cx="15.1" cy="40.7" r="1.6"/>
						</g>
						<g clip-path="url(#SVGID_74_)">
							<circle fill="#FFFFFF" cx="12.4" cy="29.8" r="1.6"/>
						</g>
					</g>
				</g>
				<g clip-path="url(#SVGID_2_)">
					<g>
						<defs>
							
								<rect id="SVGID_75_" x="-2.6" y="43.7" transform="matrix(-0.7367 -0.6762 0.6762 -0.7367 -22.0861 91.154)" width="18.7" height="12.4"/>
						</defs>
						<clipPath id="SVGID_76_">
							<use xlink:href="#SVGID_75_"  overflow="visible"/>
						</clipPath>
						<g clip-path="url(#SVGID_76_)">
							<circle fill="#FFFFFF" cx="9.4" cy="60.8" r="1.6"/>
						</g>
						<g clip-path="url(#SVGID_76_)">
							<circle fill="#FFFFFF" cx="-4.4" cy="48.2" r="1.6"/>
						</g>
						<g clip-path="url(#SVGID_76_)">
							<circle fill="#FFFFFF" cx="17.8" cy="51.6" r="1.6"/>
						</g>
						<g clip-path="url(#SVGID_76_)">
							<circle fill="#FFFFFF" cx="6.7" cy="49.9" r="1.6"/>
						</g>
						<g clip-path="url(#SVGID_76_)">
							<circle fill="#FFFFFF" cx="4" cy="39" r="1.6"/>
						</g>
					</g>
				</g>
				<g clip-path="url(#SVGID_2_)">
					<g>
						<defs>
							
								<rect id="SVGID_77_" x="-11" y="52.8" transform="matrix(-0.7367 -0.6762 0.6762 -0.7367 -42.8912 101.3828)" width="18.7" height="12.4"/>
						</defs>
						<clipPath id="SVGID_78_">
							<use xlink:href="#SVGID_77_"  overflow="visible"/>
						</clipPath>
						<g clip-path="url(#SVGID_78_)">
							<circle fill="#FFFFFF" cx="1" cy="69.9" r="1.6"/>
						</g>
						<g clip-path="url(#SVGID_78_)">
							<circle fill="#FFFFFF" cx="-12.8" cy="57.3" r="1.6"/>
						</g>
						<g clip-path="url(#SVGID_78_)">
							<circle fill="#FFFFFF" cx="9.4" cy="60.8" r="1.6"/>
						</g>
						<g clip-path="url(#SVGID_78_)">
							<circle fill="#FFFFFF" cx="-1.7" cy="59" r="1.6"/>
						</g>
						<g clip-path="url(#SVGID_78_)">
							<circle fill="#FFFFFF" cx="-4.4" cy="48.2" r="1.6"/>
						</g>
					</g>
				</g>
				<g clip-path="url(#SVGID_2_)">
					<g>
						<defs>
							
								<rect id="SVGID_79_" x="-19.5" y="62" transform="matrix(-0.7367 -0.6762 0.6762 -0.7367 -63.6963 111.6116)" width="18.7" height="12.4"/>
						</defs>
						<clipPath id="SVGID_80_">
							<use xlink:href="#SVGID_79_"  overflow="visible"/>
						</clipPath>
						<g clip-path="url(#SVGID_80_)">
							<circle fill="#FFFFFF" cx="-7.5" cy="79.1" r="1.6"/>
						</g>
						<g clip-path="url(#SVGID_80_)">
							<circle fill="#FFFFFF" cx="-21.2" cy="66.5" r="1.6"/>
						</g>
						<g clip-path="url(#SVGID_80_)">
							<circle fill="#FFFFFF" cx="1" cy="69.9" r="1.6"/>
						</g>
						<g clip-path="url(#SVGID_80_)">
							<circle fill="#FFFFFF" cx="-10.1" cy="68.2" r="1.6"/>
						</g>
						<g clip-path="url(#SVGID_80_)">
							<circle fill="#FFFFFF" cx="-12.8" cy="57.3" r="1.6"/>
						</g>
					</g>
				</g>
				<g clip-path="url(#SVGID_2_)">
					<g>
						<defs>
							
								<rect id="SVGID_81_" x="-27.9" y="71.2" transform="matrix(-0.7367 -0.6762 0.6762 -0.7367 -84.5014 121.8404)" width="18.7" height="12.4"/>
						</defs>
						<clipPath id="SVGID_82_">
							<use xlink:href="#SVGID_81_"  overflow="visible"/>
						</clipPath>
						<g clip-path="url(#SVGID_82_)">
							<circle fill="#FFFFFF" cx="-15.9" cy="88.3" r="1.6"/>
						</g>
						<g clip-path="url(#SVGID_82_)">
							<circle fill="#FFFFFF" cx="-29.6" cy="75.6" r="1.6"/>
						</g>
						<g clip-path="url(#SVGID_82_)">
							<circle fill="#FFFFFF" cx="-7.5" cy="79.1" r="1.6"/>
						</g>
						<g clip-path="url(#SVGID_82_)">
							<circle fill="#FFFFFF" cx="-18.5" cy="77.4" r="1.6"/>
						</g>
						<g clip-path="url(#SVGID_82_)">
							<circle fill="#FFFFFF" cx="-21.2" cy="66.5" r="1.6"/>
						</g>
					</g>
				</g>
			</g>
		</g>
	</g>
</g>
</svg>
