<?xml version="1.0" encoding="utf-8"?>
<!-- Generator: Adobe Illustrator 18.0.0, SVG Export Plug-In . SVG Version: 6.00 Build 0)  -->
<!DOCTYPE svg PUBLIC "-//W3C//DTD SVG 1.1//EN" "http://www.w3.org/Graphics/SVG/1.1/DTD/svg11.dtd">
<svg version="1.1" id="objects" xmlns="http://www.w3.org/2000/svg" xmlns:xlink="http://www.w3.org/1999/xlink" x="0px" y="0px"
	 viewBox="0 0 90 130.7" width="90" height="131" enable-background="new 0 0 90 130.7" xml:space="preserve">
<g>
	<g>
		<polygon fill="#4CAF50" points="78.8,54.9 81.1,57.5 78.8,57.5 77.7,59.1 76,58.6 74.2,60.1 74.1,56.6 		"/>
		
			<ellipse transform="matrix(-0.9463 0.3234 -0.3234 -0.9463 165.1862 60.2732)" fill="#FFAB91" cx="77.6" cy="43.9" rx="6.1" ry="9.5"/>
		<path fill="#4CAF50" d="M69.2,33.6c0,0-0.1-0.1-0.1-0.4c0-0.1,0-0.1-0.1-0.2c0-0.1-0.1-0.2-0.1-0.3c-0.1-0.2-0.2-0.4-0.3-0.6
			c-0.1-0.1-0.1-0.2-0.2-0.3c-0.1-0.1-0.2-0.2-0.3-0.3c-0.2-0.2-0.4-0.4-0.6-0.6c-0.2-0.2-0.5-0.4-0.7-0.6c-0.3-0.2-0.5-0.3-0.8-0.5
			c-0.3-0.1-0.6-0.3-0.9-0.4c-0.3-0.1-0.6-0.2-0.9-0.2c-0.3,0-0.6-0.1-0.9-0.1c-0.1,0-0.3,0-0.4,0c-0.1,0-0.3,0-0.4,0
			c-0.2,0-0.5,0.1-0.7,0.1c-0.1,0-0.2,0-0.3,0.1c-0.1,0-0.2,0-0.2,0.1c-0.3,0.1-0.4,0.1-0.4,0.1c-0.5,0.1-0.7,0.6-0.6,1.1
			c0.1,0.5,0.6,0.7,1.1,0.6c0,0,0,0,0,0l0.1,0c0,0,0.1,0,0.3-0.1c0.1,0,0.1,0,0.2-0.1c0.1,0,0.1,0,0.2-0.1c0.1,0,0.3-0.1,0.5-0.1
			c0.1,0,0.2,0,0.3,0c0.1,0,0.2,0,0.3,0c0.2,0,0.4,0,0.7,0c0.2,0,0.5,0.1,0.7,0.1c0.2,0,0.5,0.1,0.7,0.2c0.2,0.1,0.5,0.2,0.7,0.3
			c0.2,0.1,0.4,0.3,0.6,0.4c0.2,0.2,0.4,0.3,0.5,0.5c0.1,0.1,0.1,0.2,0.2,0.2c0.1,0.1,0.1,0.2,0.2,0.2c0.1,0.2,0.2,0.3,0.3,0.4
			c0,0.1,0.1,0.1,0.1,0.2c0,0.1,0.1,0.1,0.1,0.2c0.1,0.2,0.2,0.4,0.2,0.4c0.1,0.3,0.5,0.4,0.8,0.3C69.2,34.2,69.3,33.9,69.2,33.6z"
			/>
		<path fill="#4CAF50" d="M67.6,29c0.1,1.7,1.4,2.8,2,3.1c0.1,0,0.2,0,0.3,0c0.6-0.3,2.4-1.5,2.3-3.3c-0.1-1.6-1.9-3.9-2.6-4.8
			c-0.2-0.2-0.4-0.2-0.6,0C68.4,24.9,67.5,27.3,67.6,29z"/>
		<path fill="#F4D122" d="M59.4,49.6c0.7,1.8,1.7,3.4,3,4.7c1.3,1.3,2.8,2.4,4.4,3.1c1.6,0.7,3.4,1.2,5.2,1.2c1.8,0.1,3-2.1,4.8-2.8
			c1.8-0.7,4.1,0.2,5.4-1.1c1.3-1.3,2.4-2.8,3.1-4.4c0.7-1.6,1.2-3.4,1.2-5.2c0.1-1.8-0.2-3.7-0.9-5.5s-1.7-3.4-3-4.7
			c-1.3-1.3-2.8-2.4-4.4-3.1C76.7,31,74.5,31.2,73,32c-1.5,0.8-2.3,2.3-4.1,3s-3.4,0.1-5,0.5c-1.7,0.4-3.4,1.8-4.1,3.4
			c-0.7,1.6-1.2,3.4-1.2,5.2C58.4,45.9,58.7,47.7,59.4,49.6z M76.2,35.5c-0.1-0.1,0-0.3,0.2-0.2c2.7,0.9,8.2,3.7,5.5,14
			c0,0.2-0.3,0.2-0.3,0C80.9,41.7,78.4,39.5,76.2,35.5z"/>
		<path opacity="0.36" fill="#FF7043" d="M64.8,55.3c1.8,0.8,3.8,1.3,5.9,1.4c2,0.1,3.3-2.3,5.4-3.1c2-0.8,4.6,0.2,6.1-1.2
			c1.5-1.4,2.7-3.1,3.5-4.9c0.4-0.9,0.7-1.8,1-2.8c0,0.2,0,0.3,0,0.5c-0.1,1.8-0.5,3.6-1.2,5.2c-0.7,1.6-1.8,3.1-3.1,4.4
			c-1.3,1.3-3.6,0.4-5.4,1.1c-1.8,0.7-3,2.9-4.8,2.8c-1.8-0.1-3.6-0.5-5.2-1.2c-1.6-0.7-3.1-1.8-4.4-3.1c-0.3-0.3-0.6-0.7-0.9-1.1
			C62.5,54,63.6,54.8,64.8,55.3z"/>
	</g>
	<g>
		<polygon fill="#4CAF50" points="49.6,119.9 52.8,123.6 49.7,123.5 48.1,125.7 45.7,125 43.2,127.1 43,122.3 		"/>
		
			<ellipse transform="matrix(-0.9463 0.3234 -0.3234 -0.9463 127.1503 188.1164)" fill="#FFAB91" cx="47.9" cy="104.6" rx="8.5" ry="13.1"/>
		<path fill="#4CAF50" d="M36.3,90.4c0,0-0.1-0.2-0.2-0.5c0-0.1-0.1-0.2-0.1-0.3c-0.1-0.1-0.1-0.2-0.2-0.3c-0.1-0.3-0.3-0.5-0.5-0.8
			c-0.1-0.1-0.2-0.3-0.3-0.4c-0.1-0.1-0.2-0.3-0.3-0.4c-0.2-0.3-0.5-0.6-0.8-0.9c-0.3-0.3-0.6-0.6-1-0.8c-0.4-0.3-0.8-0.5-1.1-0.7
			c-0.4-0.2-0.8-0.4-1.2-0.5c-0.4-0.2-0.9-0.2-1.3-0.3c-0.4,0-0.8-0.1-1.2-0.1c-0.2,0-0.4,0-0.6,0c-0.2,0-0.4,0-0.5,0
			c-0.3,0-0.7,0.1-0.9,0.1c-0.1,0-0.3,0.1-0.4,0.1c-0.1,0-0.2,0.1-0.3,0.1c-0.4,0.1-0.6,0.2-0.6,0.2c-0.6,0.2-1,0.9-0.8,1.5
			c0.2,0.6,0.9,1,1.5,0.8c0,0,0,0,0.1,0l0.1,0c0,0,0.2-0.1,0.4-0.2c0.1,0,0.1-0.1,0.2-0.1c0.1,0,0.2,0,0.3-0.1
			c0.2-0.1,0.4-0.1,0.7-0.1c0.1,0,0.3,0,0.4-0.1c0.1,0,0.3,0,0.4,0c0.3,0,0.6,0,0.9,0c0.3,0.1,0.7,0.1,1,0.2c0.3,0.1,0.7,0.2,1,0.3
			c0.3,0.2,0.6,0.3,0.9,0.5c0.3,0.2,0.6,0.4,0.8,0.6c0.2,0.2,0.5,0.4,0.7,0.7c0.1,0.1,0.2,0.2,0.3,0.3c0.1,0.1,0.2,0.2,0.3,0.3
			c0.2,0.2,0.3,0.4,0.4,0.6c0.1,0.1,0.1,0.2,0.2,0.2c0,0.1,0.1,0.2,0.1,0.3c0.2,0.3,0.2,0.5,0.2,0.5c0.2,0.4,0.7,0.6,1.1,0.4
			C36.3,91.3,36.4,90.8,36.3,90.4z"/>
		<path fill="#4CAF50" d="M34,84c0.1,2.4,1.9,3.9,2.8,4.3c0.1,0.1,0.3,0.1,0.4,0c0.8-0.4,3.3-2.1,3.2-4.6c-0.1-2.3-2.6-5.5-3.6-6.7
			c-0.2-0.3-0.6-0.2-0.8,0C35.2,78.3,33.9,81.7,34,84z"/>
		<path fill="#F47922" d="M22.7,112.5c1,2.5,2.4,4.7,4.1,6.6c1.7,1.8,3.8,3.3,6.1,4.3c2.3,1,4.7,1.6,7.3,1.7
			c2.5,0.1,4.1-2.9,6.7-3.9c2.5-1,5.7,0.2,7.5-1.5c1.8-1.7,3.3-3.8,4.3-6.1c1-2.3,1.6-4.7,1.7-7.3c0.1-2.5-0.3-5.1-1.3-7.6
			c-1-2.5-2.4-4.7-4.1-6.6c-1.7-1.8-3.8-3.3-6.1-4.3c-2.3-1-5.3-0.9-7.4,0.3c-2.1,1.1-3.2,3.2-5.7,4.1c-2.5,1-4.7,0.1-7,0.7
			c-2.3,0.5-4.7,2.4-5.7,4.7c-1,2.3-1.6,4.7-1.7,7.3C21.4,107.4,21.8,110,22.7,112.5z M46,93c-0.1-0.2,0.1-0.4,0.3-0.3
			c3.8,1.2,11.3,5.2,7.6,19.4c-0.1,0.3-0.4,0.2-0.5,0C52.6,101.7,49.1,98.6,46,93z"/>
		<path opacity="0.36" fill="#FF7043" d="M30.3,120.5c2.5,1.1,5.3,1.8,8.1,1.9s4.6-3.3,7.4-4.3c2.8-1.1,6.4,0.3,8.4-1.7
			c2-2,3.7-4.3,4.8-6.8c0.6-1.2,1-2.6,1.3-3.9c0,0.2,0,0.4,0,0.7c-0.1,2.5-0.7,5-1.7,7.3c-1,2.3-2.5,4.4-4.3,6.1
			c-1.8,1.7-5,0.6-7.5,1.5c-2.5,1-4.1,4-6.7,3.9c-2.5-0.1-5-0.7-7.3-1.7s-4.4-2.5-6.1-4.3c-0.5-0.5-0.9-1-1.3-1.5
			C27,118.7,28.6,119.7,30.3,120.5z"/>
	</g>
	<g>
		<polygon fill="#4CAF50" points="19.1,50.7 18.7,56.2 16.3,53.7 13.2,54.2 11.9,51.6 8.2,51.2 11.9,47.3 		"/>
		
			<ellipse transform="matrix(-0.892 -0.4521 0.4521 -0.892 40.4735 84.1163)" fill="#FFAB91" cx="30.3" cy="37.2" rx="9.7" ry="15"/>
		<path fill="#4CAF50" d="M32.6,16.4c0,0,0.1-0.2,0.3-0.6c0-0.1,0.1-0.2,0.1-0.3c0-0.1,0.1-0.3,0.1-0.4c0.1-0.3,0.2-0.7,0.3-1
			c0-0.2,0.1-0.4,0.1-0.6c0-0.2,0-0.4,0.1-0.6c0.1-0.4,0-0.9,0.1-1.4c0-0.5,0-1-0.2-1.5c-0.1-0.5-0.2-1-0.4-1.5
			c-0.2-0.5-0.3-1-0.6-1.4c-0.2-0.5-0.5-0.9-0.7-1.3c-0.3-0.4-0.6-0.8-0.9-1.1c-0.2-0.2-0.3-0.3-0.4-0.5c-0.2-0.1-0.3-0.3-0.5-0.4
			c-0.3-0.3-0.6-0.5-0.8-0.7C29.1,3.2,29,3.1,28.8,3c-0.1-0.1-0.2-0.1-0.3-0.2c-0.4-0.2-0.6-0.4-0.6-0.4C27.2,2.1,26.4,2.3,26,3
			c-0.4,0.7-0.1,1.5,0.5,1.9c0,0,0,0,0.1,0l0.1,0.1c0,0,0.2,0.1,0.5,0.2c0.1,0,0.2,0.1,0.3,0.1c0.1,0.1,0.2,0.1,0.3,0.2
			c0.2,0.1,0.4,0.3,0.7,0.4c0.1,0.1,0.2,0.2,0.4,0.3c0.1,0.1,0.2,0.2,0.4,0.3c0.3,0.2,0.5,0.5,0.7,0.8c0.2,0.3,0.5,0.6,0.6,1
			C30.7,8.6,30.9,9,31,9.4c0.1,0.4,0.3,0.8,0.4,1.1c0.1,0.4,0.1,0.8,0.2,1.1c0,0.4,0.1,0.7,0,1.1c0,0.2,0,0.3,0,0.5
			c0,0.2,0,0.3-0.1,0.5c0,0.3-0.1,0.6-0.2,0.8c0,0.1-0.1,0.2-0.1,0.3c0,0.1-0.1,0.2-0.1,0.3c-0.1,0.4-0.2,0.6-0.2,0.6
			c-0.2,0.5,0.1,1,0.5,1.2C31.9,17.1,32.4,16.9,32.6,16.4z"/>
		<path fill="#4CAF50" d="M36.1,9.4c-1.9,2-1.6,4.7-1.3,5.6c0.1,0.2,0.2,0.3,0.4,0.3c1,0.3,4.4,1,6.3-1c1.8-1.9,2.4-6.5,2.6-8.2
			c0-0.4-0.3-0.7-0.6-0.6C41.6,5.9,37.8,7.5,36.1,9.4z"/>
		<path fill="#FF5252" d="M3.8,22.9c-1.3,2.8-2,5.7-2.1,8.6C1.6,34.4,2,37.2,3,39.9c1,2.7,2.5,5.2,4.4,7.3c1.9,2.1,5.7,1.1,8.4,2.4
			c2.8,1.3,4.3,4.9,7.2,5c2.9,0.1,5.7-0.4,8.4-1.3c2.7-1,5.2-2.5,7.3-4.4c2.1-1.9,3.9-4.3,5.2-7.1s2-5.7,2.1-8.6
			c0.1-2.9-0.4-5.7-1.3-8.4c-1-2.7-3.5-5-6.1-5.8c-2.6-0.8-5.1-0.1-7.9-1.3c-2.8-1.3-3.9-3.7-6.1-5.2s-5.7-1.9-8.4-0.9
			c-2.7,1-5.2,2.5-7.3,4.4C6.9,17.8,5.1,20.1,3.8,22.9z M38.2,26.4c0.1-0.2,0.4-0.2,0.5,0c2,4,4.8,13.4-9.8,21.6
			c-0.3,0.1-0.5-0.2-0.3-0.4C36.4,38.7,36.1,33.4,38.2,26.4z"/>
		<path opacity="0.36" fill="#FF7043" d="M3.3,35.4c1.1,3,2.7,5.8,4.9,8.2s6.3,1.2,9.4,2.6c3.1,1.5,4.9,5.4,8.1,5.5s6.4-0.4,9.4-1.5
			c1.5-0.5,2.9-1.2,4.2-2c-0.2,0.2-0.4,0.4-0.6,0.5c-2.1,1.9-4.6,3.4-7.3,4.4c-2.7,1-5.5,1.4-8.4,1.3c-2.9-0.1-4.4-3.7-7.2-5
			c-2.8-1.3-6.5-0.2-8.4-2.4C5.5,45.1,4,42.6,3,39.9c-1-2.7-1.4-5.5-1.3-8.4c0-0.8,0.1-1.5,0.2-2.3C2.1,31.3,2.5,33.4,3.3,35.4z"/>
	</g>
</g>
</svg>
