<?xml version="1.0" encoding="utf-8"?>
<!-- Generator: Adobe Illustrator 18.0.0, SVG Export Plug-In . SVG Version: 6.00 Build 0)  -->
<!DOCTYPE svg PUBLIC "-//W3C//DTD SVG 1.1//EN" "http://www.w3.org/Graphics/SVG/1.1/DTD/svg11.dtd">
<svg version="1.1" id="objects" xmlns="http://www.w3.org/2000/svg" xmlns:xlink="http://www.w3.org/1999/xlink" x="0px" y="0px"
	 viewBox="0 0 139.3 140.7" width="139" height="140" enable-background="new 0 0 139.3 140.7" xml:space="preserve">
<g>
	<g>
		<g>
			<path fill="#81C784" d="M124.3,14.4c0-1-0.6-1.9-1.6-2.1L98.9,6.4c-3.8-0.9-7.7-0.7-11.3,0.6l0-0.1l-1.8,0.9h0l-1,0.5l-12.5,6.1
				c1.6,8.3-2.4,16.9-10.4,20.8c-7.9,3.9-17.3,1.8-22.8-4.6l-15.3,7.5l0,0.1c-3.3,2-5.9,5-7.5,8.6L6.4,69.3c-0.4,0.9-0.1,2,0.7,2.6
				l21.8,15.9c0.9,0.7,2.3,0.5,3-0.5l9.6-13.1l29.5,60.1c0.8,1.6,2.8,2.3,4.4,1.5l57.9-28.4c1.6-0.8,2.3-2.8,1.5-4.4L105.2,43
				l16.2,0.4c1.2,0,2.1-0.9,2.2-2.1L124.3,14.4z"/>
		</g>
		<g>
			<g>
				<path fill="none" stroke="#FFFFFF" stroke-miterlimit="10" d="M113.6,43.4"/>
			</g>
		</g>
		<g>
			<g>
				<path fill="none" stroke="#FFFFFF" stroke-miterlimit="10" d="M50,74.6"/>
			</g>
		</g>
		<g>
			<path fill="none" stroke="#FFFFFF" stroke-width="2.4483" stroke-linecap="round" stroke-miterlimit="10" d="M89.2,56.3"/>
		</g>
		<g>
			<path fill="none" stroke="#FFFFFF" stroke-width="2.4483" stroke-linecap="round" stroke-miterlimit="10" d="M70.5,65.5"/>
		</g>
		<g>
			<path fill="none" stroke="#FFFFFF" stroke-width="2.4483" stroke-linecap="round" stroke-miterlimit="10" d="M88.3,65.4"/>
		</g>
		<g>
			<path fill="none" stroke="#FFFFFF" stroke-width="2.4483" stroke-linecap="round" stroke-miterlimit="10" d="M69.6,74.7"/>
		</g>
		<g>
			<path fill="none" stroke="#FFFFFF" stroke-width="2.4483" stroke-linecap="round" stroke-miterlimit="10" d="M91.8,72.5"/>
		</g>
		<g>
			<path fill="none" stroke="#FFFFFF" stroke-width="2.4483" stroke-linecap="round" stroke-miterlimit="10" d="M73,81.7"/>
		</g>
		<g>
			<path fill="none" stroke="#FFFFFF" stroke-width="2.4483" stroke-linecap="round" stroke-miterlimit="10" d="M115.3,51.4"/>
		</g>
		<g>
			<path fill="none" stroke="#FFFFFF" stroke-width="2.4483" stroke-linecap="round" stroke-miterlimit="10" d="M96.6,60.6"/>
		</g>
		<g>
			<path fill="none" stroke="#FFFFFF" stroke-width="3.6724" stroke-linecap="round" stroke-miterlimit="10" d="M33,33.7"/>
		</g>
		<g>
			<path fill="none" stroke="#FFFFFF" stroke-width="3.6724" stroke-linecap="round" stroke-miterlimit="10" d="M78.2,11.4"/>
		</g>
		<g>
			<path fill="#FFFFFF" d="M53.4,45.6c-8.4,0-16.6-3.8-21.9-10.8l2.9-2.2c6.9,9,19.3,11.9,29.5,6.9c10.2-5,15.5-16.6,12.5-27.6
				l3.5-1c3.4,12.7-2.7,26.1-14.5,31.9C61.7,44.7,57.5,45.6,53.4,45.6z"/>
		</g>
	</g>
	<path fill="#619663" d="M75.3,52.9c-1.3,2.2-13,23.4-9.5,28.8c3.5,5.3,10.9-1.4,12.5-2.3c1.5-0.9-6,19.4-2.5,23s18.6-3.3,20.8-8.1
		c2.2-4.8,0-26.5,0-30.1c0-3.6-8.2,1.2-8.2,1.2s-8.4-2.7-7-10.3C82.8,47.5,78,48,75.3,52.9z"/>
</g>
</svg>
