<svg xmlns="http://www.w3.org/2000/svg" xmlns:xlink="http://www.w3.org/1999/xlink" preserveAspectRatio="xMidYMid" width="1920" height="257" viewBox="0 0 1920 257">
  <defs>
    <style>
      .cls-1 {
        fill: #b2c3d1;
        fill-rule: evenodd;
      }
    </style>
  </defs>
  <path d="M1903.397,223.899 L1903.397,228.300 L1891.879,228.300 L1891.879,216.352 L1880.361,216.352 L1880.361,201.258 L1837.480,201.258 L1837.480,210.692 L1829.802,210.692 L1829.802,218.869 L1822.126,218.869 L1822.126,178.615 L1804.207,178.615 L1804.207,184.906 L1776.048,184.906 L1776.048,193.711 L1767.083,193.711 L1767.083,180.502 L1723.569,180.502 L1723.569,201.887 L1701.811,201.887 L1701.811,167.295 L1700.074,167.295 L1700.074,161.667 L1692.221,161.667 L1692.221,94.793 L1622.866,94.793 L1622.866,159.748 L1613.494,159.748 L1613.494,168.553 L1608.377,168.553 L1608.377,192.453 L1603.899,192.453 L1603.899,207.967 L1597.498,207.967 L1597.498,206.288 L1589.816,206.288 L1589.816,87.422 L1583.419,87.422 L1583.419,74.213 L1527.100,74.213 L1527.100,88.048 L1522.622,88.048 L1522.622,40.249 L1500.225,40.249 L1500.225,32.702 L1484.865,32.702 L1484.865,42.136 L1477.822,42.136 L1477.822,137.735 L1464.387,137.735 L1464.387,99.999 L1459.264,99.999 L1459.264,73.584 L1456.066,70.441 L1456.066,22.640 L1448.388,22.640 L1448.388,-0.001 L1422.787,-0.001 L1422.787,19.495 L1416.384,19.495 L1416.384,28.301 L1410.627,28.301 L1410.627,79.872 L1402.310,79.872 L1402.310,56.603 L1339.594,56.603 L1339.594,86.791 L1323.594,86.791 L1323.594,81.129 L1312.715,81.129 L1312.715,89.937 L1291.599,89.937 L1291.599,75.471 L1274.319,75.471 L1274.319,64.779 L1262.156,64.779 L1262.156,72.956 L1226.321,72.956 L1226.321,169.810 L1207.758,169.810 L1207.758,179.873 L1198.165,179.873 L1198.165,188.993 L1180.545,188.993 L1180.545,94.793 L1172.692,94.793 L1172.692,79.359 L1147.827,79.359 L1147.827,125.156 L1114.968,125.156 L1114.968,140.880 L1100.718,140.880 L1100.718,79.359 L1081.091,79.359 L1081.091,89.647 L1070.619,89.647 L1070.619,170.669 L1053.606,170.669 L1053.606,188.993 L1050.330,188.993 L1050.330,179.244 L1045.753,179.244 L1045.753,170.669 L1013.040,170.669 L1013.040,156.524 L998.644,156.524 L998.644,139.804 L985.560,139.804 L985.560,102.507 L964.623,102.507 L964.623,116.653 L912.276,116.653 L912.276,170.669 L899.939,170.669 L899.939,169.810 L884.795,169.810 L884.795,152.664 L852.081,152.664 L852.081,116.653 L770.942,116.653 L770.942,159.094 L758.320,159.094 L758.320,170.669 L750.004,170.669 L750.004,97.363 L740.849,97.363 L740.849,79.359 L725.144,79.359 L725.144,94.793 L708.130,94.793 L708.130,156.524 L700.278,156.524 L700.278,170.669 L691.121,170.669 L691.121,126.944 L626.995,126.944 L626.995,162.954 L606.057,162.954 L606.057,178.386 L594.276,178.386 L594.276,187.389 L582.500,187.389 L582.500,177.101 L575.308,170.028 L575.308,153.951 L543.243,153.951 L543.243,191.248 L531.466,191.248 L531.466,182.245 L518.377,182.245 L518.377,79.359 L507.909,79.359 L507.909,51.065 L496.132,51.065 L496.132,36.917 L480.423,36.917 L480.423,25.209 L456.875,25.209 L456.875,45.919 L443.785,45.919 L443.785,67.784 L435.934,67.784 L435.934,143.594 L421.541,143.594 L421.541,129.516 L403.215,129.516 L403.215,150.092 L382.279,150.092 L382.279,90.934 L374.430,83.215 L374.430,56.208 L331.241,56.208 L331.241,75.500 L308.996,75.500 L308.996,114.082 L298.528,114.082 L298.528,106.368 L285.443,106.368 L277.585,114.082 L274.186,117.424 L274.186,206.679 L259.269,206.679 L259.269,117.941 L246.181,117.941 L246.181,108.937 L226.552,108.937 L226.552,123.085 L208.230,123.085 L208.230,146.034 L197.973,146.034 L197.973,135.945 L192.324,135.945 L192.324,146.034 L167.665,146.034 L167.665,151.580 L192.324,151.580 L192.324,180.960 L189.909,180.960 L189.909,205.392 L146.724,205.392 L146.724,180.960 L132.330,180.960 L132.330,152.664 L126.442,146.879 L126.442,132.088 L102.230,132.088 L102.230,171.955 L69.516,171.955 L69.516,197.677 L25.022,197.677 L19.786,192.535 L-8.999,192.535 L-8.999,261.984 L1928.998,259.749 L1928.998,223.899 L1903.397,223.899 ZM208.230,159.094 L199.070,159.094 L199.070,180.960 L197.973,180.960 L197.973,151.580 L208.230,151.580 L208.230,159.094 ZM306.352,230.364 L282.395,230.364 L282.395,223.892 L306.352,223.892 L306.352,230.364 ZM306.352,208.169 L282.395,208.169 L282.395,201.698 L306.352,201.698 L306.352,208.169 ZM306.352,197.073 L282.395,197.073 L282.395,190.601 L306.352,190.601 L306.352,197.073 ZM306.352,185.976 L282.395,185.976 L282.395,179.504 L306.352,179.504 L306.352,185.976 ZM306.352,174.878 L282.395,174.878 L282.395,168.407 L306.352,168.407 L306.352,174.878 ZM306.352,163.782 L282.395,163.782 L282.395,157.310 L306.352,157.310 L306.352,163.782 ZM306.352,141.588 L282.395,141.588 L282.395,135.116 L306.352,135.116 L306.352,141.588 ZM306.352,130.491 L282.395,130.491 L282.395,124.019 L306.352,124.019 L306.352,130.491 ZM355.750,194.488 L342.371,194.488 L342.371,188.016 L355.750,188.016 L355.750,194.488 ZM355.750,183.391 L342.371,183.391 L342.371,176.919 L355.750,176.919 L355.750,183.391 ZM355.750,161.197 L342.371,161.197 L342.371,154.725 L355.750,154.725 L355.750,161.197 ZM355.750,150.100 L342.371,150.100 L342.371,143.628 L355.750,143.628 L355.750,150.100 ZM355.750,139.003 L342.371,139.003 L342.371,132.531 L355.750,132.531 L355.750,139.003 ZM355.750,127.906 L342.371,127.906 L342.371,121.434 L355.750,121.434 L355.750,127.906 ZM355.750,116.809 L342.371,116.809 L342.371,110.337 L355.750,110.337 L355.750,116.809 ZM355.750,94.615 L342.371,94.615 L342.371,88.143 L355.750,88.143 L355.750,94.615 ZM455.408,216.661 L448.844,216.661 L448.844,210.074 L455.408,210.074 L455.408,216.661 ZM455.408,206.116 L448.844,206.116 L448.844,199.529 L455.408,199.529 L455.408,206.116 ZM455.408,195.571 L448.844,195.571 L448.844,188.985 L455.408,188.985 L455.408,195.571 ZM455.408,185.025 L448.844,185.025 L448.844,178.439 L455.408,178.439 L455.408,185.025 ZM455.408,174.481 L448.844,174.481 L448.844,167.894 L455.408,167.894 L455.408,174.481 ZM455.408,163.935 L448.844,163.935 L448.844,157.349 L455.408,157.349 L455.408,163.935 ZM455.408,153.390 L448.844,153.390 L448.844,146.803 L455.408,146.803 L455.408,153.390 ZM455.408,142.845 L448.844,142.845 L448.844,136.259 L455.408,136.259 L455.408,142.845 ZM455.408,132.301 L448.844,132.301 L448.844,125.714 L455.408,125.714 L455.408,132.301 ZM455.408,121.754 L448.844,121.754 L448.844,115.168 L455.408,115.168 L455.408,121.754 ZM455.408,111.210 L448.844,111.210 L448.844,104.623 L455.408,104.623 L455.408,111.210 ZM455.408,100.665 L448.844,100.665 L448.844,94.079 L455.408,94.079 L455.408,100.665 ZM467.667,216.661 L461.105,216.661 L461.105,210.074 L467.667,210.074 L467.667,216.661 ZM467.667,206.116 L461.105,206.116 L461.105,199.529 L467.667,199.529 L467.667,206.116 ZM467.667,195.571 L461.105,195.571 L461.105,188.985 L467.667,188.985 L467.667,195.571 ZM467.667,185.025 L461.105,185.025 L461.105,178.439 L467.667,178.439 L467.667,185.025 ZM467.667,174.481 L461.105,174.481 L461.105,167.894 L467.667,167.894 L467.667,174.481 ZM467.667,163.935 L461.105,163.935 L461.105,157.349 L467.667,157.349 L467.667,163.935 ZM467.667,153.390 L461.105,153.390 L461.105,146.803 L467.667,146.803 L467.667,153.390 ZM467.667,142.845 L461.105,142.845 L461.105,136.259 L467.667,136.259 L467.667,142.845 ZM467.667,132.301 L461.105,132.301 L461.105,125.714 L467.667,125.714 L467.667,132.301 ZM467.667,121.754 L461.105,121.754 L461.105,115.168 L467.667,115.168 L467.667,121.754 ZM467.667,111.210 L461.105,111.210 L461.105,104.623 L467.667,104.623 L467.667,111.210 ZM467.667,100.665 L461.105,100.665 L461.105,94.079 L467.667,94.079 L467.667,100.665 ZM479.927,216.661 L473.363,216.661 L473.363,210.074 L479.927,210.074 L479.927,216.661 ZM479.927,206.116 L473.363,206.116 L473.363,199.529 L479.927,199.529 L479.927,206.116 ZM479.927,195.571 L473.363,195.571 L473.363,188.985 L479.927,188.985 L479.927,195.571 ZM479.927,185.025 L473.363,185.025 L473.363,178.439 L479.927,178.439 L479.927,185.025 ZM479.927,174.481 L473.363,174.481 L473.363,167.894 L479.927,167.894 L479.927,174.481 ZM479.927,163.935 L473.363,163.935 L473.363,157.349 L479.927,157.349 L479.927,163.935 ZM479.927,153.390 L473.363,153.390 L473.363,146.803 L479.927,146.803 L479.927,153.390 ZM479.927,142.845 L473.363,142.845 L473.363,136.259 L479.927,136.259 L479.927,142.845 ZM479.927,132.301 L473.363,132.301 L473.363,125.714 L479.927,125.714 L479.927,132.301 ZM479.927,121.754 L473.363,121.754 L473.363,115.168 L479.927,115.168 L479.927,121.754 ZM479.927,111.210 L473.363,111.210 L473.363,104.623 L479.927,104.623 L479.927,111.210 ZM479.927,100.665 L473.363,100.665 L473.363,94.079 L479.927,94.079 L479.927,100.665 ZM492.185,216.661 L485.622,216.661 L485.622,210.074 L492.185,210.074 L492.185,216.661 ZM492.185,206.116 L485.622,206.116 L485.622,199.529 L492.185,199.529 L492.185,206.116 ZM492.185,195.571 L485.622,195.571 L485.622,188.985 L492.185,188.985 L492.185,195.571 ZM492.185,185.025 L485.622,185.025 L485.622,178.439 L492.185,178.439 L492.185,185.025 ZM492.185,174.481 L485.622,174.481 L485.622,167.894 L492.185,167.894 L492.185,174.481 ZM492.185,163.935 L485.622,163.935 L485.622,157.349 L492.185,157.349 L492.185,163.935 ZM492.185,153.390 L485.622,153.390 L485.622,146.803 L492.185,146.803 L492.185,153.390 ZM492.185,142.845 L485.622,142.845 L485.622,136.259 L492.185,136.259 L492.185,142.845 ZM492.185,132.301 L485.622,132.301 L485.622,125.714 L492.185,125.714 L492.185,132.301 ZM492.185,121.754 L485.622,121.754 L485.622,115.168 L492.185,115.168 L492.185,121.754 ZM492.185,111.210 L485.622,111.210 L485.622,104.623 L492.185,104.623 L492.185,111.210 ZM492.185,100.665 L485.622,100.665 L485.622,94.079 L492.185,94.079 L492.185,100.665 ZM651.549,213.150 L644.266,213.150 L644.266,196.287 L651.549,196.287 L651.549,213.150 ZM651.549,186.730 L644.266,186.730 L644.266,169.867 L651.549,169.867 L651.549,186.730 ZM651.549,160.312 L644.266,160.312 L644.266,143.449 L651.549,143.449 L651.549,160.312 ZM664.711,239.572 L657.430,239.572 L657.430,222.708 L664.711,222.708 L664.711,239.572 ZM664.711,213.150 L657.430,213.150 L657.430,196.287 L664.711,196.287 L664.711,213.150 ZM664.711,160.312 L657.430,160.312 L657.430,143.449 L664.711,143.449 L664.711,160.312 ZM677.874,239.572 L670.592,239.572 L670.592,222.708 L677.874,222.708 L677.874,239.572 ZM677.874,213.150 L670.592,213.150 L670.592,196.287 L677.874,196.287 L677.874,213.150 ZM677.874,186.730 L670.592,186.730 L670.592,169.867 L677.874,169.867 L677.874,186.730 ZM677.874,160.312 L670.592,160.312 L670.592,143.449 L677.874,143.449 L677.874,160.312 ZM810.893,244.199 L784.349,244.199 L784.349,238.652 L810.893,238.652 L810.893,244.199 ZM810.893,234.493 L784.349,234.493 L784.349,228.947 L810.893,228.947 L810.893,234.493 ZM810.893,224.788 L784.349,224.788 L784.349,219.243 L810.893,219.243 L810.893,224.788 ZM810.893,215.084 L784.349,215.084 L784.349,209.538 L810.893,209.538 L810.893,215.084 ZM810.893,205.379 L784.349,205.379 L784.349,199.833 L810.893,199.833 L810.893,205.379 ZM810.893,195.674 L784.349,195.674 L784.349,190.127 L810.893,190.127 L810.893,195.674 ZM810.893,185.968 L784.349,185.968 L784.349,180.422 L810.893,180.422 L810.893,185.968 ZM810.893,176.263 L784.349,176.263 L784.349,170.717 L810.893,170.717 L810.893,176.263 ZM810.893,166.558 L784.349,166.558 L784.349,161.013 L810.893,161.013 L810.893,166.558 ZM810.893,156.852 L784.349,156.852 L784.349,151.308 L810.893,151.308 L810.893,156.852 ZM810.893,147.149 L784.349,147.149 L784.349,141.602 L810.893,141.602 L810.893,147.149 ZM810.893,137.443 L784.349,137.443 L784.349,131.897 L810.893,131.897 L810.893,137.443 ZM843.911,244.199 L817.367,244.199 L817.367,238.652 L843.911,238.652 L843.911,244.199 ZM843.911,234.493 L817.367,234.493 L817.367,228.947 L843.911,228.947 L843.911,234.493 ZM843.911,224.788 L817.367,224.788 L817.367,219.243 L843.911,219.243 L843.911,224.788 ZM843.911,215.084 L817.367,215.084 L817.367,209.538 L843.911,209.538 L843.911,215.084 ZM843.911,205.379 L817.367,205.379 L817.367,199.833 L843.911,199.833 L843.911,205.379 ZM843.911,195.674 L817.367,195.674 L817.367,190.127 L843.911,190.127 L843.911,195.674 ZM843.911,185.968 L817.367,185.968 L817.367,180.422 L843.911,180.422 L843.911,185.968 ZM843.911,176.263 L817.367,176.263 L817.367,170.717 L843.911,170.717 L843.911,176.263 ZM843.911,166.558 L817.367,166.558 L817.367,161.013 L843.911,161.013 L843.911,166.558 ZM843.911,156.852 L817.367,156.852 L817.367,151.308 L843.911,151.308 L843.911,156.852 ZM843.911,147.149 L817.367,147.149 L817.367,141.602 L843.911,141.602 L843.911,147.149 ZM843.911,137.443 L817.367,137.443 L817.367,131.897 L843.911,131.897 L843.911,137.443 ZM934.354,169.178 L927.790,169.178 L927.790,162.591 L934.354,162.591 L934.354,169.178 ZM934.354,158.632 L927.790,158.632 L927.790,152.045 L934.354,152.045 L934.354,158.632 ZM934.354,148.087 L927.790,148.087 L927.790,141.501 L934.354,141.501 L934.354,148.087 ZM934.354,137.543 L927.790,137.543 L927.790,130.956 L934.354,130.956 L934.354,137.543 ZM946.612,169.178 L940.050,169.178 L940.050,162.591 L946.612,162.591 L946.612,169.178 ZM946.612,158.632 L940.050,158.632 L940.050,152.045 L946.612,152.045 L946.612,158.632 ZM946.612,148.087 L940.050,148.087 L940.050,141.501 L946.612,141.501 L946.612,148.087 ZM946.612,137.543 L940.050,137.543 L940.050,130.956 L946.612,130.956 L946.612,137.543 ZM958.872,169.178 L952.309,169.178 L952.309,162.591 L958.872,162.591 L958.872,169.178 ZM958.872,158.632 L952.309,158.632 L952.309,152.045 L958.872,152.045 L958.872,158.632 ZM958.872,148.087 L952.309,148.087 L952.309,141.501 L958.872,141.501 L958.872,148.087 ZM958.872,137.543 L952.309,137.543 L952.309,130.956 L958.872,130.956 L958.872,137.543 ZM1127.296,235.094 L1124.714,235.094 L1124.714,150.247 L1127.296,150.247 L1127.296,235.094 ZM1134.173,235.094 L1131.591,235.094 L1131.591,150.247 L1134.173,150.247 L1134.173,235.094 ZM1141.050,235.094 L1138.471,235.094 L1138.471,150.247 L1141.050,150.247 L1141.050,235.094 ZM1147.933,235.094 L1145.354,235.094 L1145.354,150.247 L1147.933,150.247 L1147.933,235.094 ZM1154.813,235.094 L1152.231,235.094 L1152.231,150.247 L1154.813,150.247 L1154.813,235.094 ZM1161.690,235.094 L1159.109,235.094 L1159.109,150.247 L1161.690,150.247 L1161.690,235.094 ZM1249.792,207.877 L1245.084,207.877 L1245.084,201.290 L1249.792,201.290 L1249.792,207.877 ZM1249.792,197.332 L1245.084,197.332 L1245.084,190.745 L1249.792,190.745 L1249.792,197.332 ZM1249.792,186.787 L1245.084,186.787 L1245.084,180.201 L1249.792,180.201 L1249.792,186.787 ZM1249.792,165.698 L1245.084,165.698 L1245.084,159.111 L1249.792,159.111 L1249.792,165.698 ZM1249.792,155.153 L1245.084,155.153 L1245.084,148.567 L1249.792,148.567 L1249.792,155.153 ZM1249.792,144.609 L1245.084,144.609 L1245.084,138.022 L1249.792,138.022 L1249.792,144.609 ZM1249.792,134.064 L1245.084,134.064 L1245.084,127.477 L1249.792,127.477 L1249.792,134.064 ZM1249.792,123.517 L1245.084,123.517 L1245.084,116.930 L1249.792,116.930 L1249.792,123.517 ZM1249.792,112.972 L1245.084,112.972 L1245.084,106.385 L1249.792,106.385 L1249.792,112.972 ZM1249.792,102.427 L1245.084,102.427 L1245.084,95.841 L1249.792,95.841 L1249.792,102.427 ZM1258.580,218.421 L1253.875,218.421 L1253.875,211.835 L1258.580,211.835 L1258.580,218.421 ZM1258.580,207.877 L1253.875,207.877 L1253.875,201.290 L1258.580,201.290 L1258.580,207.877 ZM1258.580,197.332 L1253.875,197.332 L1253.875,190.745 L1258.580,190.745 L1258.580,197.332 ZM1258.580,186.787 L1253.875,186.787 L1253.875,180.201 L1258.580,180.201 L1258.580,186.787 ZM1258.580,176.243 L1253.875,176.243 L1253.875,169.656 L1258.580,169.656 L1258.580,176.243 ZM1258.580,165.698 L1253.875,165.698 L1253.875,159.111 L1258.580,159.111 L1258.580,165.698 ZM1258.580,155.153 L1253.875,155.153 L1253.875,148.567 L1258.580,148.567 L1258.580,155.153 ZM1258.580,134.064 L1253.875,134.064 L1253.875,127.477 L1258.580,127.477 L1258.580,134.064 ZM1258.580,123.517 L1253.875,123.517 L1253.875,116.930 L1258.580,116.930 L1258.580,123.517 ZM1258.580,112.972 L1253.875,112.972 L1253.875,106.385 L1258.580,106.385 L1258.580,112.972 ZM1258.580,102.427 L1253.875,102.427 L1253.875,95.841 L1258.580,95.841 L1258.580,102.427 ZM1267.374,218.421 L1262.666,218.421 L1262.666,211.835 L1267.374,211.835 L1267.374,218.421 ZM1267.374,207.877 L1262.666,207.877 L1262.666,201.290 L1267.374,201.290 L1267.374,207.877 ZM1267.374,197.332 L1262.666,197.332 L1262.666,190.745 L1267.374,190.745 L1267.374,197.332 ZM1267.374,186.787 L1262.666,186.787 L1262.666,180.201 L1267.374,180.201 L1267.374,186.787 ZM1267.374,165.698 L1262.666,165.698 L1262.666,159.111 L1267.374,159.111 L1267.374,165.698 ZM1267.374,155.153 L1262.666,155.153 L1262.666,148.567 L1267.374,148.567 L1267.374,155.153 ZM1267.374,144.609 L1262.666,144.609 L1262.666,138.022 L1267.374,138.022 L1267.374,144.609 ZM1267.374,134.064 L1262.666,134.064 L1262.666,127.477 L1267.374,127.477 L1267.374,134.064 ZM1267.374,123.517 L1262.666,123.517 L1262.666,116.930 L1267.374,116.930 L1267.374,123.517 ZM1267.374,112.972 L1262.666,112.972 L1262.666,106.385 L1267.374,106.385 L1267.374,112.972 ZM1267.374,102.427 L1262.666,102.427 L1262.666,95.841 L1267.374,95.841 L1267.374,102.427 ZM1276.165,218.421 L1271.457,218.421 L1271.457,211.835 L1276.165,211.835 L1276.165,218.421 ZM1276.165,197.332 L1271.457,197.332 L1271.457,190.745 L1276.165,190.745 L1276.165,197.332 ZM1276.165,186.787 L1271.457,186.787 L1271.457,180.201 L1276.165,180.201 L1276.165,186.787 ZM1276.165,176.243 L1271.457,176.243 L1271.457,169.656 L1276.165,169.656 L1276.165,176.243 ZM1276.165,165.698 L1271.457,165.698 L1271.457,159.111 L1276.165,159.111 L1276.165,165.698 ZM1276.165,155.153 L1271.457,155.153 L1271.457,148.567 L1276.165,148.567 L1276.165,155.153 ZM1276.165,144.609 L1271.457,144.609 L1271.457,138.022 L1276.165,138.022 L1276.165,144.609 ZM1276.165,134.064 L1271.457,134.064 L1271.457,127.477 L1276.165,127.477 L1276.165,134.064 ZM1276.165,112.972 L1271.457,112.972 L1271.457,106.385 L1276.165,106.385 L1276.165,112.972 ZM1276.165,102.427 L1271.457,102.427 L1271.457,95.841 L1276.165,95.841 L1276.165,102.427 ZM1356.461,200.576 L1350.892,200.576 L1350.892,194.987 L1356.461,194.987 L1356.461,200.576 ZM1356.461,191.628 L1350.892,191.628 L1350.892,186.039 L1356.461,186.039 L1356.461,191.628 ZM1356.461,182.680 L1350.892,182.680 L1350.892,177.091 L1356.461,177.091 L1356.461,182.680 ZM1356.461,173.731 L1350.892,173.731 L1350.892,168.142 L1356.461,168.142 L1356.461,173.731 ZM1356.461,164.784 L1350.892,164.784 L1350.892,159.194 L1356.461,159.194 L1356.461,164.784 ZM1356.461,155.834 L1350.892,155.834 L1350.892,150.247 L1356.461,150.247 L1356.461,155.834 ZM1356.461,146.887 L1350.892,146.887 L1350.892,141.298 L1356.461,141.298 L1356.461,146.887 ZM1356.461,137.939 L1350.892,137.939 L1350.892,132.350 L1356.461,132.350 L1356.461,137.939 ZM1356.461,128.991 L1350.892,128.991 L1350.892,123.402 L1356.461,123.402 L1356.461,128.991 ZM1356.461,120.042 L1350.892,120.042 L1350.892,114.453 L1356.461,114.453 L1356.461,120.042 ZM1356.461,111.094 L1350.892,111.094 L1350.892,105.505 L1356.461,105.505 L1356.461,111.094 ZM1356.461,102.147 L1350.892,102.147 L1350.892,96.557 L1356.461,96.557 L1356.461,102.147 ZM1366.863,200.576 L1361.295,200.576 L1361.295,194.987 L1366.863,194.987 L1366.863,200.576 ZM1366.863,191.628 L1361.295,191.628 L1361.295,186.039 L1366.863,186.039 L1366.863,191.628 ZM1366.863,182.680 L1361.295,182.680 L1361.295,177.091 L1366.863,177.091 L1366.863,182.680 ZM1366.863,173.731 L1361.295,173.731 L1361.295,168.142 L1366.863,168.142 L1366.863,173.731 ZM1366.863,164.784 L1361.295,164.784 L1361.295,159.194 L1366.863,159.194 L1366.863,164.784 ZM1366.863,155.834 L1361.295,155.834 L1361.295,150.247 L1366.863,150.247 L1366.863,155.834 ZM1366.863,146.887 L1361.295,146.887 L1361.295,141.298 L1366.863,141.298 L1366.863,146.887 ZM1366.863,137.939 L1361.295,137.939 L1361.295,132.350 L1366.863,132.350 L1366.863,137.939 ZM1366.863,128.991 L1361.295,128.991 L1361.295,123.402 L1366.863,123.402 L1366.863,128.991 ZM1366.863,120.042 L1361.295,120.042 L1361.295,114.453 L1366.863,114.453 L1366.863,120.042 ZM1366.863,111.094 L1361.295,111.094 L1361.295,105.505 L1366.863,105.505 L1366.863,111.094 ZM1366.863,102.147 L1361.295,102.147 L1361.295,96.557 L1366.863,96.557 L1366.863,102.147 ZM1377.267,200.576 L1371.697,200.576 L1371.697,194.987 L1377.267,194.987 L1377.267,200.576 ZM1377.267,191.628 L1371.697,191.628 L1371.697,186.039 L1377.267,186.039 L1377.267,191.628 ZM1377.267,182.680 L1371.697,182.680 L1371.697,177.091 L1377.267,177.091 L1377.267,182.680 ZM1377.267,173.731 L1371.697,173.731 L1371.697,168.142 L1377.267,168.142 L1377.267,173.731 ZM1377.267,164.784 L1371.697,164.784 L1371.697,159.194 L1377.267,159.194 L1377.267,164.784 ZM1377.267,155.834 L1371.697,155.834 L1371.697,150.247 L1377.267,150.247 L1377.267,155.834 ZM1377.267,146.887 L1371.697,146.887 L1371.697,141.298 L1377.267,141.298 L1377.267,146.887 ZM1377.267,137.939 L1371.697,137.939 L1371.697,132.350 L1377.267,132.350 L1377.267,137.939 ZM1377.267,128.991 L1371.697,128.991 L1371.697,123.402 L1377.267,123.402 L1377.267,128.991 ZM1377.267,120.042 L1371.697,120.042 L1371.697,114.453 L1377.267,114.453 L1377.267,120.042 ZM1377.267,111.094 L1371.697,111.094 L1371.697,105.505 L1377.267,105.505 L1377.267,111.094 ZM1377.267,102.147 L1371.697,102.147 L1371.697,96.557 L1377.267,96.557 L1377.267,102.147 ZM1387.669,200.576 L1382.099,200.576 L1382.099,194.987 L1387.669,194.987 L1387.669,200.576 ZM1387.669,191.628 L1382.099,191.628 L1382.099,186.039 L1387.669,186.039 L1387.669,191.628 ZM1387.669,182.680 L1382.099,182.680 L1382.099,177.091 L1387.669,177.091 L1387.669,182.680 ZM1387.669,173.731 L1382.099,173.731 L1382.099,168.142 L1387.669,168.142 L1387.669,173.731 ZM1387.669,164.784 L1382.099,164.784 L1382.099,159.194 L1387.669,159.194 L1387.669,164.784 ZM1387.669,155.834 L1382.099,155.834 L1382.099,150.247 L1387.669,150.247 L1387.669,155.834 ZM1387.669,146.887 L1382.099,146.887 L1382.099,141.298 L1387.669,141.298 L1387.669,146.887 ZM1387.669,137.939 L1382.099,137.939 L1382.099,132.350 L1387.669,132.350 L1387.669,137.939 ZM1387.669,128.991 L1382.099,128.991 L1382.099,123.402 L1387.669,123.402 L1387.669,128.991 ZM1387.669,120.042 L1382.099,120.042 L1382.099,114.453 L1387.669,114.453 L1387.669,120.042 ZM1387.669,111.094 L1382.099,111.094 L1382.099,105.505 L1387.669,105.505 L1387.669,111.094 ZM1387.669,102.147 L1382.099,102.147 L1382.099,96.557 L1387.669,96.557 L1387.669,102.147 ZM1428.584,42.100 L1441.964,42.100 L1441.964,48.572 L1428.584,48.572 L1428.584,42.100 ZM1428.584,64.294 L1441.964,64.294 L1441.964,70.766 L1428.584,70.766 L1428.584,64.294 ZM1428.584,75.391 L1441.964,75.391 L1441.964,81.862 L1428.584,81.862 L1428.584,75.391 ZM1428.584,86.488 L1441.964,86.488 L1441.964,92.959 L1428.584,92.959 L1428.584,86.488 ZM1428.584,97.585 L1441.964,97.585 L1441.964,104.056 L1428.584,104.056 L1428.584,97.585 ZM1428.584,108.682 L1441.964,108.682 L1441.964,115.153 L1428.584,115.153 L1428.584,108.682 ZM1428.584,130.876 L1441.964,130.876 L1441.964,137.347 L1428.584,137.347 L1428.584,130.876 ZM1428.584,141.973 L1441.964,141.973 L1441.964,148.444 L1428.584,148.444 L1428.584,141.973 ZM1442.092,192.664 L1428.712,192.664 L1428.712,186.193 L1442.092,186.193 L1442.092,192.664 ZM1442.092,181.568 L1428.712,181.568 L1428.712,175.096 L1442.092,175.096 L1442.092,181.568 ZM1442.092,170.471 L1428.712,170.471 L1428.712,163.999 L1442.092,163.999 L1442.092,170.471 ZM1442.092,159.373 L1428.712,159.373 L1428.712,152.902 L1442.092,152.902 L1442.092,159.373 ZM1541.215,227.079 L1538.633,227.079 L1538.633,98.765 L1541.215,98.765 L1541.215,227.079 ZM1548.092,227.079 L1545.510,227.079 L1545.510,98.765 L1548.092,98.765 L1548.092,227.079 ZM1554.969,227.079 L1552.390,227.079 L1552.390,98.765 L1554.969,98.765 L1554.969,227.079 ZM1561.852,227.079 L1559.273,227.079 L1559.273,98.765 L1561.852,98.765 L1561.852,227.079 ZM1568.732,227.079 L1566.150,227.079 L1566.150,98.765 L1568.732,98.765 L1568.732,227.079 ZM1575.609,227.079 L1573.027,227.079 L1573.027,98.765 L1575.609,98.765 L1575.609,227.079 ZM1676.222,219.078 L1640.413,219.078 L1640.413,212.607 L1676.222,212.607 L1676.222,219.078 ZM1676.222,207.981 L1640.413,207.981 L1640.413,201.510 L1676.222,201.510 L1676.222,207.981 ZM1676.222,196.885 L1640.413,196.885 L1640.413,190.413 L1676.222,190.413 L1676.222,196.885 ZM1676.222,185.788 L1640.413,185.788 L1640.413,179.316 L1676.222,179.316 L1676.222,185.788 ZM1676.222,174.691 L1640.413,174.691 L1640.413,168.219 L1676.222,168.219 L1676.222,174.691 ZM1676.222,152.497 L1640.413,152.497 L1640.413,146.025 L1676.222,146.025 L1676.222,152.497 ZM1676.222,141.400 L1640.413,141.400 L1640.413,134.928 L1676.222,134.928 L1676.222,141.400 ZM1676.222,130.303 L1640.413,130.303 L1640.413,123.831 L1676.222,123.831 L1676.222,130.303 ZM1676.222,119.206 L1640.413,119.206 L1640.413,112.734 L1676.222,112.734 L1676.222,119.206 Z" class="cls-1"/>
</svg>
