<svg xmlns="http://www.w3.org/2000/svg" xmlns:xlink="http://www.w3.org/1999/xlink" preserveAspectRatio="xMidYMid" width="1920" height="444" viewBox="0 0 1920 444">
  <defs>
    <style>
      .cls-1 {
        fill: #d7e6f1;
        fill-rule: evenodd;
      }
    </style>
  </defs>
  <path d="M1880.000,406.001 L1880.000,479.000 L1842.640,479.000 L1778.932,479.000 L1748.434,479.000 L1672.899,479.000 L1640.927,479.000 L1592.323,479.000 L1554.642,479.000 L1504.691,479.000 L1468.184,479.000 L1398.844,479.000 L1362.633,479.000 L1315.838,479.000 L1286.000,479.000 L1286.000,406.001 L961.500,406.001 L961.500,449.001 L-0.000,449.001 L-0.000,271.003 L17.516,271.003 L17.516,280.445 L32.505,280.445 L32.505,271.003 L40.448,271.003 L40.448,260.991 L42.085,260.991 L42.085,271.003 L50.024,271.003 L50.024,280.445 L65.011,280.445 L65.011,271.003 L82.526,271.003 L82.526,336.708 L91.330,336.708 L91.330,302.898 L99.789,302.898 L99.789,290.979 L107.738,290.979 L115.688,290.979 L115.688,302.898 L123.514,302.898 L123.514,262.128 L148.423,251.733 L208.634,251.733 L208.586,238.089 L225.413,231.192 L225.413,231.188 C226.371,230.986 227.339,230.795 228.310,230.608 L228.310,216.872 C231.064,216.542 233.892,216.252 236.750,215.999 L236.750,208.296 C238.743,208.053 240.786,207.842 242.851,207.654 L242.851,200.659 C259.081,198.706 279.562,199.220 279.562,199.220 L279.562,206.299 C283.358,206.316 285.667,206.375 285.667,206.375 L285.667,214.362 C288.651,214.393 290.382,214.436 290.382,214.436 L290.382,225.793 C297.016,225.828 301.104,226.007 301.104,226.007 L301.104,274.819 L309.185,274.819 L309.185,266.516 L362.502,266.516 L362.502,274.819 L372.371,274.819 L372.371,338.249 L406.727,338.249 L407.237,338.249 L408.270,338.249 L409.276,338.249 L410.562,338.249 L410.822,338.249 L419.247,338.249 L419.247,319.120 L460.575,319.120 L460.891,319.120 L462.456,319.120 L463.681,319.120 L464.937,319.120 L465.558,319.120 L507.364,319.120 L507.364,241.938 L519.372,241.938 L519.372,231.835 L584.249,231.835 L584.249,241.938 L595.107,241.938 L595.107,197.647 C595.107,197.647 600.082,197.430 608.155,197.387 L608.155,183.567 C608.155,183.567 610.261,183.515 613.892,183.478 L613.892,173.759 C613.892,173.759 616.702,173.687 621.321,173.666 L621.321,165.052 C621.321,165.052 646.242,164.427 665.991,166.803 L665.991,175.315 C668.504,175.544 670.990,175.801 673.416,176.096 L673.416,185.469 C676.893,185.777 680.335,186.130 683.686,186.532 L683.686,203.246 C684.867,203.473 686.045,203.706 687.210,203.952 L687.210,203.956 L707.686,212.349 L707.627,228.951 L780.894,228.951 L811.205,241.601 L811.205,291.211 L820.728,291.211 L820.728,276.708 L830.401,276.708 L840.074,276.708 L840.074,291.211 L850.367,291.211 L850.367,332.352 L861.079,332.352 L861.079,252.400 L882.393,252.400 L882.393,263.889 L900.629,263.889 L900.629,252.400 L910.290,252.400 L910.290,240.218 L912.281,240.218 L912.281,252.400 L921.946,252.400 L921.946,263.889 L940.186,263.889 L940.186,252.400 L961.500,252.400 L961.500,228.003 L979.016,228.003 L979.016,237.445 L994.005,237.445 L994.005,228.003 L1001.948,228.003 L1001.948,217.991 L1003.585,217.991 L1003.585,228.003 L1011.524,228.003 L1011.524,237.445 L1026.511,237.445 L1026.511,228.003 L1044.026,228.003 L1044.026,293.708 L1052.830,293.708 L1052.830,259.898 L1061.289,259.898 L1061.289,247.979 L1069.238,247.979 L1077.188,247.979 L1077.188,259.898 L1085.014,259.898 L1085.014,219.128 L1109.923,208.733 L1170.134,208.733 L1170.086,195.089 L1186.913,188.192 L1186.913,188.188 C1187.871,187.986 1188.839,187.795 1189.810,187.608 L1189.810,173.872 C1192.564,173.542 1195.392,173.252 1198.250,172.999 L1198.250,165.296 C1200.243,165.053 1202.286,164.842 1204.351,164.654 L1204.351,157.659 C1220.581,155.706 1241.062,156.220 1241.062,156.220 L1241.062,163.299 C1244.858,163.316 1247.166,163.375 1247.166,163.375 L1247.166,171.362 C1250.151,171.393 1251.882,171.436 1251.882,171.436 L1251.882,182.793 C1258.516,182.828 1262.604,183.007 1262.604,183.007 L1262.604,231.819 L1270.685,231.819 L1270.685,223.516 L1315.838,223.516 L1315.838,123.225 L1327.113,123.225 L1327.113,107.432 L1336.674,107.432 L1336.674,89.039 L1343.343,89.039 L1343.343,23.865 L1346.404,23.865 L1346.404,89.039 L1353.073,89.039 L1353.073,107.432 L1362.633,107.432 L1362.633,123.225 L1362.633,136.434 L1347.935,130.311 L1347.935,133.424 L1362.633,139.547 L1362.633,144.731 L1347.935,138.608 L1347.935,141.721 L1362.633,147.844 L1362.633,169.622 L1347.935,163.499 L1347.935,166.613 L1362.633,172.735 L1362.633,177.920 L1347.935,171.796 L1347.935,174.910 L1362.633,181.033 L1362.633,186.216 L1347.935,180.093 L1347.935,183.206 L1362.633,189.330 L1362.633,194.513 L1347.935,188.391 L1347.935,191.503 L1362.633,197.627 L1362.633,202.810 L1347.935,196.688 L1347.935,199.800 L1362.633,205.924 L1362.633,211.107 L1347.935,204.985 L1347.935,208.097 L1362.633,214.221 L1362.633,219.405 L1347.935,213.282 L1347.935,216.394 L1362.633,222.518 L1362.633,227.703 L1347.935,221.579 L1347.935,224.691 L1362.633,230.815 L1362.633,236.000 L1347.935,229.876 L1347.935,232.988 L1362.633,239.112 L1362.633,244.297 L1347.935,238.173 L1347.935,241.287 L1362.633,247.409 L1362.633,252.594 L1347.935,246.470 L1347.935,249.584 L1362.633,255.706 L1362.633,260.891 L1347.935,254.767 L1347.935,257.881 L1362.633,264.003 L1362.633,294.079 L1347.935,287.955 L1347.935,291.069 L1357.969,295.249 L1368.227,295.249 L1368.737,295.249 L1369.770,295.249 L1370.776,295.249 L1372.062,295.249 L1372.322,295.249 L1380.748,295.249 L1380.748,276.120 L1398.844,276.120 L1398.844,115.419 L1407.967,115.419 L1407.967,56.702 L1410.646,56.702 L1410.646,115.419 L1414.125,115.419 L1414.125,91.249 L1425.074,91.249 L1425.074,81.330 L1428.666,81.330 L1428.666,23.524 L1431.346,23.524 L1431.346,81.330 L1455.183,81.330 L1455.183,91.249 L1464.079,91.249 L1464.079,115.419 L1468.184,115.419 L1468.184,276.120 L1468.863,276.120 L1468.863,198.938 L1480.872,198.938 L1480.872,188.835 L1504.691,188.835 L1504.691,176.906 L1496.611,176.906 L1496.611,169.931 L1505.793,169.931 L1505.793,162.954 L1513.139,162.954 L1513.139,86.950 L1515.710,86.950 L1515.710,162.954 L1522.688,162.954 L1522.688,129.909 L1525.259,129.909 L1525.259,162.954 L1553.540,162.954 L1553.540,169.931 L1556.608,169.931 L1556.608,154.647 C1556.608,154.647 1561.582,154.430 1569.655,154.387 L1569.655,140.567 C1569.655,140.567 1571.761,140.515 1575.392,140.478 L1575.392,130.759 C1575.392,130.759 1578.202,130.687 1582.821,130.666 L1582.821,122.052 C1582.821,122.052 1586.580,121.958 1592.323,121.982 L1592.323,76.826 L1588.301,76.826 L1588.301,58.112 L1613.136,58.112 L1613.136,41.613 L1629.885,41.613 L1629.885,-0.000 L1633.333,-0.000 L1633.333,41.613 L1640.230,41.613 L1640.230,58.112 L1644.952,58.112 L1644.952,76.826 L1640.927,76.826 L1640.927,143.057 C1642.357,143.209 1643.783,143.363 1645.186,143.532 L1645.186,160.246 C1646.367,160.473 1647.545,160.706 1648.710,160.952 L1648.710,160.956 L1669.186,169.349 L1669.127,185.951 L1672.899,185.951 L1672.899,125.787 L1657.958,125.787 L1682.030,102.552 L1722.702,102.552 L1722.702,64.380 L1727.682,64.380 L1727.682,102.552 L1738.474,102.552 L1738.474,41.147 L1743.453,41.147 L1743.453,102.552 L1748.434,102.552 L1748.434,125.787 L1748.434,188.472 L1772.705,198.601 L1772.705,248.211 L1778.932,248.211 L1778.932,144.719 L1769.165,144.719 L1769.165,134.105 L1786.788,134.105 L1786.788,97.165 L1802.717,97.165 L1802.717,68.292 L1806.114,68.292 L1806.114,97.165 L1815.459,97.165 L1815.459,31.777 L1818.856,31.777 L1818.856,97.165 L1834.784,97.165 L1834.784,134.105 L1852.409,134.105 L1852.409,144.719 L1842.640,144.719 L1842.640,209.400 L1843.893,209.400 L1843.893,220.889 L1862.129,220.889 L1862.129,209.400 L1871.790,209.400 L1871.790,197.218 L1873.781,197.218 L1873.781,209.400 L1883.446,209.400 L1883.446,220.889 L1901.686,220.889 L1901.686,209.400 L1923.000,209.400 L1923.000,406.001 L1880.000,406.001 ZM1784.666,212.657 L1822.579,212.657 L1822.579,210.149 L1784.666,210.149 L1784.666,212.657 ZM1784.666,221.474 L1784.666,223.981 L1822.579,223.981 L1822.579,221.474 L1784.666,221.474 ZM1784.666,232.798 L1784.666,233.708 L1791.901,233.708 L1801.574,233.708 L1801.574,235.307 L1822.579,235.307 L1822.579,232.798 L1784.666,232.798 ZM1801.574,244.124 L1801.574,246.631 L1822.579,246.631 L1822.579,244.124 L1801.574,244.124 ZM1811.867,255.448 L1811.867,257.956 L1822.579,257.956 L1822.579,255.448 L1811.867,255.448 ZM1811.867,266.772 L1811.867,269.282 L1822.579,269.282 L1822.579,266.772 L1811.867,266.772 ZM1811.867,278.098 L1811.867,280.606 L1822.579,280.606 L1822.579,278.098 L1811.867,278.098 ZM1784.666,427.828 L1836.907,427.828 L1836.907,425.321 L1784.666,425.321 L1784.666,427.828 ZM1784.666,416.504 L1836.907,416.504 L1836.907,413.996 L1784.666,413.996 L1784.666,416.504 ZM1739.028,436.586 L1739.028,406.001 L1734.878,406.001 L1734.878,436.586 L1739.028,436.586 ZM1721.734,436.586 L1725.884,436.586 L1725.884,423.309 L1721.734,423.309 L1721.734,436.586 ZM1725.884,419.160 L1725.884,406.001 L1721.734,406.001 L1721.734,419.160 L1725.884,419.160 ZM1712.742,436.586 L1712.742,406.001 L1708.592,406.001 L1708.592,436.586 L1712.742,436.586 ZM1695.449,436.586 L1699.598,436.586 L1699.598,425.382 L1695.449,425.382 L1695.449,436.586 ZM1699.598,421.233 L1699.598,406.001 L1695.449,406.001 L1695.449,421.233 L1699.598,421.233 ZM1629.477,428.411 L1635.388,428.411 L1635.388,422.502 L1629.477,422.502 L1629.477,428.411 ZM1629.477,415.115 L1635.388,415.115 L1635.388,409.204 L1629.477,409.204 L1629.477,415.115 ZM1613.672,428.411 L1619.582,428.411 L1619.582,422.502 L1613.672,422.502 L1613.672,428.411 ZM1613.672,415.115 L1619.582,415.115 L1619.582,409.204 L1613.672,409.204 L1613.672,415.115 ZM1597.865,428.411 L1603.776,428.411 L1603.776,422.502 L1597.865,422.502 L1597.865,428.411 ZM1597.865,415.115 L1603.776,415.115 L1603.776,409.204 L1597.865,409.204 L1597.865,415.115 ZM1682.305,436.586 L1686.456,436.586 L1686.456,406.001 L1682.305,406.001 L1682.305,436.586 ZM1324.002,231.819 L1324.429,231.819 L1324.002,231.641 L1324.002,231.819 ZM1334.462,136.434 L1319.764,130.311 L1319.764,133.424 L1334.462,139.547 L1334.462,136.434 ZM1334.462,144.731 L1319.764,138.608 L1319.764,141.721 L1334.462,147.844 L1334.462,144.731 ZM1334.462,153.028 L1319.764,146.905 L1319.764,150.018 L1334.462,156.141 L1334.462,153.028 ZM1334.462,161.325 L1319.764,155.202 L1319.764,158.316 L1334.462,164.438 L1334.462,161.325 ZM1334.462,169.622 L1319.764,163.499 L1319.764,166.613 L1334.462,172.735 L1334.462,169.622 ZM1334.462,177.920 L1319.764,171.796 L1319.764,174.910 L1334.462,181.033 L1334.462,177.920 ZM1334.462,186.216 L1319.764,180.093 L1319.764,183.206 L1334.462,189.330 L1334.462,186.216 ZM1334.462,194.513 L1319.764,188.391 L1319.764,191.503 L1334.462,197.627 L1334.462,194.513 ZM1334.462,202.810 L1319.764,196.688 L1319.764,199.800 L1334.462,205.924 L1334.462,202.810 ZM1334.462,211.107 L1319.764,204.985 L1319.764,208.097 L1334.462,214.221 L1334.462,211.107 ZM1334.462,219.405 L1319.764,213.282 L1319.764,216.394 L1334.462,222.518 L1334.462,219.405 ZM1334.462,227.703 L1319.764,221.579 L1319.764,223.516 L1324.002,223.516 L1324.002,226.457 L1334.462,230.815 L1334.462,227.703 ZM1334.462,236.000 L1333.871,235.753 L1333.871,238.866 L1334.462,239.112 L1334.462,236.000 ZM1334.462,244.297 L1333.871,244.050 L1333.871,247.163 L1334.462,247.409 L1334.462,244.297 ZM1334.462,252.594 L1333.871,252.347 L1333.871,255.460 L1334.462,255.706 L1334.462,252.594 ZM1334.462,260.891 L1333.871,260.644 L1333.871,263.757 L1334.462,264.003 L1334.462,260.891 ZM1334.462,269.188 L1333.871,268.941 L1333.871,272.054 L1334.462,272.300 L1334.462,269.188 ZM1334.462,277.485 L1333.871,277.238 L1333.871,280.351 L1334.462,280.597 L1334.462,277.485 ZM1334.462,285.782 L1333.871,285.535 L1333.871,288.648 L1334.462,288.894 L1334.462,285.782 ZM1334.462,294.079 L1333.871,293.832 L1333.871,295.249 L1334.462,295.249 L1334.462,294.079 ZM1413.898,132.747 L1408.880,132.747 L1408.880,137.763 L1413.898,137.763 L1413.898,132.747 ZM1413.898,142.894 L1408.880,142.894 L1408.880,147.912 L1413.898,147.912 L1413.898,142.894 ZM1413.898,153.040 L1408.880,153.040 L1408.880,158.056 L1413.898,158.056 L1413.898,153.040 ZM1413.898,163.186 L1408.880,163.186 L1408.880,168.205 L1413.898,168.205 L1413.898,163.186 ZM1413.898,173.332 L1408.880,173.332 L1408.880,178.349 L1413.898,178.349 L1413.898,173.332 ZM1413.898,183.479 L1408.880,183.479 L1408.880,188.498 L1413.898,188.498 L1413.898,183.479 ZM1413.898,193.626 L1408.880,193.626 L1408.880,198.642 L1413.898,198.642 L1413.898,193.626 ZM1413.898,203.773 L1408.880,203.773 L1408.880,208.790 L1413.898,208.790 L1413.898,203.773 ZM1413.898,213.918 L1408.880,213.918 L1408.880,218.934 L1413.898,218.934 L1413.898,213.918 ZM1413.898,254.504 L1408.880,254.504 L1408.880,259.521 L1413.898,259.521 L1413.898,254.504 ZM1413.898,264.651 L1408.880,264.651 L1408.880,269.670 L1413.898,269.670 L1413.898,264.651 ZM1408.880,274.798 L1408.880,276.120 L1413.898,276.120 L1413.898,274.798 L1408.880,274.798 ZM1435.795,132.747 L1430.777,132.747 L1430.777,137.763 L1435.795,137.763 L1435.795,132.747 ZM1435.795,142.894 L1430.777,142.894 L1430.777,147.912 L1435.795,147.912 L1435.795,142.894 ZM1435.795,153.040 L1430.777,153.040 L1430.777,158.056 L1435.795,158.056 L1435.795,153.040 ZM1435.795,163.186 L1430.777,163.186 L1430.777,168.205 L1435.795,168.205 L1435.795,163.186 ZM1435.795,173.332 L1430.777,173.332 L1430.777,178.349 L1435.795,178.349 L1435.795,173.332 ZM1435.795,203.773 L1430.777,203.773 L1430.777,208.790 L1435.795,208.790 L1435.795,203.773 ZM1435.795,213.918 L1430.777,213.918 L1430.777,218.934 L1435.795,218.934 L1435.795,213.918 ZM1435.795,224.065 L1430.777,224.065 L1430.777,229.084 L1435.795,229.084 L1435.795,224.065 ZM1435.795,234.212 L1430.777,234.212 L1430.777,239.228 L1435.795,239.228 L1435.795,234.212 ZM1435.795,244.359 L1430.777,244.359 L1430.777,249.377 L1435.795,249.377 L1435.795,244.359 ZM1435.795,254.504 L1430.777,254.504 L1430.777,259.521 L1435.795,259.521 L1435.795,254.504 ZM1435.795,264.651 L1430.777,264.651 L1430.777,269.670 L1435.795,269.670 L1435.795,264.651 ZM1466.360,133.658 L1443.323,133.658 L1443.323,136.852 L1466.360,136.852 L1466.360,133.658 ZM1466.360,143.807 L1443.323,143.807 L1443.323,146.998 L1466.360,146.998 L1466.360,143.807 ZM1466.360,153.951 L1443.323,153.951 L1443.323,157.144 L1466.360,157.144 L1466.360,153.951 ZM1466.360,164.100 L1443.323,164.100 L1443.323,167.291 L1466.360,167.291 L1466.360,164.100 ZM1466.360,174.244 L1443.323,174.244 L1443.323,177.437 L1466.360,177.437 L1466.360,174.244 ZM1466.360,184.394 L1443.323,184.394 L1443.323,187.583 L1466.360,187.583 L1466.360,184.394 ZM1466.360,194.536 L1443.323,194.536 L1443.323,197.730 L1466.360,197.730 L1466.360,194.536 ZM1466.360,204.686 L1443.323,204.686 L1443.323,207.877 L1466.360,207.877 L1466.360,204.686 ZM1466.360,214.830 L1443.323,214.830 L1443.323,218.024 L1466.360,218.024 L1466.360,214.830 ZM1466.360,224.980 L1443.323,224.980 L1443.323,228.169 L1466.360,228.169 L1466.360,224.980 ZM1466.360,235.122 L1443.323,235.122 L1443.323,238.316 L1466.360,238.316 L1466.360,235.122 ZM1466.360,245.272 L1443.323,245.272 L1443.323,248.463 L1466.360,248.463 L1466.360,245.272 ZM1466.360,255.416 L1443.323,255.416 L1443.323,258.610 L1466.360,258.610 L1466.360,255.416 ZM1466.360,265.565 L1443.323,265.565 L1443.323,268.756 L1466.360,268.756 L1466.360,265.565 ZM1466.360,275.709 L1443.323,275.709 L1443.323,276.120 L1466.360,276.120 L1466.360,275.709 ZM1515.678,188.375 L1515.678,188.835 L1521.188,188.835 L1521.188,188.375 L1515.678,188.375 ZM1538.146,188.375 L1538.146,188.835 L1543.655,188.835 L1543.655,188.375 L1538.146,188.375 ZM1554.642,176.906 L1554.642,198.938 L1556.608,198.938 L1556.608,176.906 L1554.642,176.906 ZM1603.776,90.082 L1597.865,90.082 L1597.865,95.991 L1603.776,95.991 L1603.776,90.082 ZM1603.776,103.379 L1597.865,103.379 L1597.865,109.289 L1603.776,109.289 L1603.776,103.379 ZM1619.582,90.082 L1613.672,90.082 L1613.672,95.991 L1619.582,95.991 L1619.582,90.082 ZM1619.582,103.379 L1613.672,103.379 L1613.672,109.289 L1619.582,109.289 L1619.582,103.379 ZM1619.582,116.676 L1613.672,116.676 L1613.672,122.586 L1619.582,122.586 L1619.582,116.676 ZM1635.388,90.082 L1629.477,90.082 L1629.477,95.991 L1635.388,95.991 L1635.388,90.082 ZM1635.388,116.676 L1629.477,116.676 L1629.477,122.586 L1635.388,122.586 L1635.388,116.676 ZM1635.388,129.972 L1629.477,129.972 L1629.477,132.509 C1631.311,132.689 1633.133,132.879 1634.916,133.096 L1634.916,135.882 L1635.388,135.882 L1635.388,129.972 ZM1686.456,134.537 L1682.305,134.537 L1682.305,146.568 L1686.456,146.568 L1686.456,134.537 ZM1682.305,150.717 L1682.305,185.951 L1686.456,185.951 L1686.456,150.717 L1682.305,150.717 ZM1695.449,134.537 L1695.449,185.951 L1699.598,185.951 L1699.598,134.537 L1695.449,134.537 ZM1712.742,134.537 L1708.592,134.537 L1708.592,179.761 L1712.742,179.761 L1712.742,134.537 ZM1708.592,183.911 L1708.592,185.951 L1712.742,185.951 L1712.742,183.911 L1708.592,183.911 ZM1725.884,134.537 L1721.734,134.537 L1721.734,142.420 L1725.884,142.420 L1725.884,134.537 ZM1721.734,146.568 L1721.734,185.951 L1725.884,185.951 L1725.884,146.568 L1721.734,146.568 ZM1739.028,134.537 L1734.878,134.537 L1734.878,156.111 L1739.028,156.111 L1739.028,134.537 ZM1739.028,160.261 L1734.878,160.261 L1734.878,177.687 L1739.028,177.687 L1739.028,160.261 ZM1734.878,181.835 L1734.878,185.951 L1739.028,185.951 L1739.028,181.835 L1734.878,181.835 ZM1795.923,103.137 L1792.524,103.137 L1792.524,131.585 L1795.923,131.585 L1795.923,103.137 ZM1806.964,103.137 L1803.565,103.137 L1803.565,131.585 L1806.964,131.585 L1806.964,103.137 ZM1818.007,103.137 L1814.609,103.137 L1814.609,131.585 L1818.007,131.585 L1818.007,103.137 ZM1829.049,103.137 L1825.651,103.137 L1825.651,131.585 L1829.049,131.585 L1829.049,103.137 ZM1836.907,153.525 L1784.666,153.525 L1784.666,156.032 L1836.907,156.032 L1836.907,153.525 ZM1836.907,164.849 L1784.666,164.849 L1784.666,167.358 L1836.907,167.358 L1836.907,164.849 ZM1836.907,176.174 L1784.666,176.174 L1784.666,178.682 L1836.907,178.682 L1836.907,176.174 ZM1836.907,187.499 L1784.666,187.499 L1784.666,190.007 L1836.907,190.007 L1836.907,187.499 ZM1836.907,198.823 L1784.666,198.823 L1784.666,201.331 L1836.907,201.331 L1836.907,198.823 Z" class="cls-1"/>
</svg>
