<svg xmlns="http://www.w3.org/2000/svg" xmlns:xlink="http://www.w3.org/1999/xlink" preserveAspectRatio="xMidYMid" width="1847.316" height="710" viewBox="0 0 1847.316 710">
  <defs>
    <style>
      .cls-1 {
        fill: #fff;
        fill-rule: evenodd;
      }
    </style>
  </defs>
  <g>
    <path d="M458.456,194.000 C457.085,194.000 455.704,194.063 454.311,194.188 C450.576,195.062 446.838,195.936 443.103,196.809 C435.857,199.597 429.714,203.995 424.675,210.004 C419.532,216.194 416.163,223.745 414.823,231.682 C413.519,230.839 412.215,229.995 410.912,229.152 C407.786,227.689 404.532,226.958 401.149,226.958 C400.447,226.958 399.740,226.990 399.027,227.053 C397.114,227.491 395.203,227.929 393.290,228.367 C389.581,229.764 386.437,231.969 383.856,234.980 C379.922,239.617 377.997,245.773 378.566,251.830 C378.745,253.730 379.172,255.590 379.815,257.370 C377.995,257.795 376.176,258.219 374.357,258.645 C368.062,261.067 362.725,264.888 358.348,270.109 C351.672,278.142 348.403,288.814 349.370,299.311 C350.307,309.478 355.201,319.029 362.806,325.637 L371.194,331.183 C376.496,333.716 382.018,334.983 387.758,334.983 C388.950,334.983 390.152,334.929 391.363,334.819 L401.098,332.543 C406.636,330.413 411.429,327.198 415.483,322.901 C417.677,328.987 421.378,334.480 426.248,338.714 C428.927,340.485 431.605,342.256 434.285,344.028 C439.367,346.455 444.659,347.669 450.159,347.669 C451.301,347.669 452.451,347.617 453.611,347.512 C456.722,346.785 459.831,346.058 462.940,345.330 C468.559,343.170 473.371,339.829 477.394,335.339 C478.732,337.245 480.268,339.010 482.029,340.540 C484.083,341.897 486.135,343.254 488.187,344.611 C492.081,346.471 496.136,347.402 500.351,347.402 C501.226,347.402 502.108,347.362 502.997,347.282 C505.378,346.725 507.761,346.166 510.144,345.609 C512.682,344.634 514.997,343.338 517.110,341.744 C523.985,347.803 533.370,351.000 543.279,351.000 C553.056,351.000 561.487,345.338 567.045,337.420 C572.320,340.208 578.461,341.654 584.842,341.654 C601.842,341.654 614.406,322.963 612.929,306.918 C612.071,297.601 607.757,290.382 601.524,285.512 C604.740,279.513 606.351,272.632 605.755,266.162 C604.025,247.395 588.814,236.827 571.675,236.358 C570.002,226.290 564.845,216.976 557.212,210.343 L547.923,204.202 C542.050,201.396 535.934,199.993 529.577,199.993 C528.257,199.993 526.926,200.053 525.585,200.174 C521.991,201.014 518.396,201.855 514.802,202.695 C507.830,205.377 501.920,209.608 497.071,215.390 C496.884,215.616 496.718,215.860 496.535,216.091 C494.053,211.839 490.902,207.991 487.182,204.757 C483.964,202.629 480.745,200.503 477.527,198.375 C471.422,195.458 465.064,194.000 458.456,194.000 " class="cls-1"/>
    <path d="M1189.457,37.000 C1188.085,37.000 1186.704,37.063 1185.311,37.188 C1181.576,38.062 1177.838,38.936 1174.103,39.809 C1166.857,42.596 1160.714,46.995 1155.675,53.004 C1150.532,59.194 1147.163,66.745 1145.823,74.682 C1144.519,73.839 1143.215,72.995 1141.913,72.152 C1138.786,70.689 1135.532,69.958 1132.149,69.958 C1131.447,69.958 1130.740,69.990 1130.027,70.053 C1128.114,70.491 1126.203,70.929 1124.290,71.367 C1120.581,72.764 1117.437,74.968 1114.856,77.980 C1110.922,82.617 1108.997,88.772 1109.566,94.830 C1109.745,96.730 1110.172,98.590 1110.815,100.370 C1108.995,100.795 1107.176,101.219 1105.357,101.645 C1099.062,104.067 1093.725,107.888 1089.349,113.109 C1082.672,121.142 1079.403,131.814 1080.370,142.311 C1081.307,152.478 1086.201,162.029 1093.806,168.637 L1102.194,174.183 C1107.496,176.716 1113.018,177.983 1118.758,177.983 C1119.950,177.983 1121.152,177.929 1122.363,177.819 L1132.098,175.543 C1137.636,173.413 1142.429,170.198 1146.483,165.901 C1148.677,171.987 1152.378,177.480 1157.248,181.714 C1159.927,183.485 1162.605,185.256 1165.285,187.028 C1170.367,189.455 1175.659,190.669 1181.159,190.669 C1182.301,190.669 1183.451,190.617 1184.611,190.512 C1187.722,189.785 1190.831,189.058 1193.940,188.330 C1199.559,186.170 1204.371,182.829 1208.394,178.339 C1209.732,180.245 1211.268,182.009 1213.029,183.540 C1215.083,184.897 1217.135,186.254 1219.187,187.611 C1223.081,189.471 1227.136,190.402 1231.352,190.402 C1232.226,190.402 1233.108,190.362 1233.997,190.282 C1236.378,189.725 1238.761,189.166 1241.144,188.609 C1243.682,187.634 1245.997,186.338 1248.110,184.744 C1254.985,190.803 1264.370,194.000 1274.279,194.000 C1284.056,194.000 1292.487,188.338 1298.045,180.420 C1303.320,183.208 1309.461,184.654 1315.842,184.654 C1332.842,184.654 1345.406,165.963 1343.929,149.918 C1343.071,140.600 1338.757,133.382 1332.524,128.512 C1335.741,122.513 1337.351,115.632 1336.755,109.162 C1335.025,90.395 1319.814,79.827 1302.675,79.358 C1301.002,69.290 1295.845,59.976 1288.212,53.343 L1278.923,47.202 C1273.050,44.396 1266.934,42.993 1260.577,42.993 C1259.257,42.993 1257.926,43.053 1256.585,43.174 C1252.991,44.014 1249.396,44.855 1245.802,45.695 C1238.830,48.377 1232.920,52.608 1228.071,58.390 C1227.884,58.616 1227.718,58.860 1227.535,59.091 C1225.053,54.839 1221.902,50.991 1218.182,47.757 C1214.965,45.629 1211.745,43.503 1208.527,41.375 C1202.422,38.458 1196.064,37.000 1189.457,37.000 " class="cls-1"/>
    <path d="M1286.501,405.996 C1285.286,405.996 1284.062,406.050 1282.827,406.159 L1272.898,408.420 C1266.477,410.825 1261.036,414.621 1256.571,419.806 C1249.969,427.543 1246.648,437.740 1247.349,447.857 C1245.831,447.754 1244.284,447.704 1242.700,447.704 C1234.337,447.704 1225.352,453.315 1220.126,459.437 C1214.272,466.298 1211.407,475.411 1212.255,484.376 C1213.076,493.059 1217.368,501.216 1224.035,506.859 C1231.444,513.131 1239.657,514.701 1249.075,514.701 C1253.940,514.701 1259.012,512.795 1263.435,510.002 C1264.998,512.274 1266.855,514.350 1268.978,516.147 C1271.252,517.611 1273.525,519.076 1275.799,520.540 C1280.112,522.547 1284.604,523.551 1289.272,523.551 C1290.242,523.551 1291.219,523.507 1292.204,523.421 C1294.844,522.820 1297.484,522.219 1300.123,521.618 C1302.163,520.853 1304.074,519.906 1305.866,518.789 C1309.139,521.893 1313.797,523.539 1318.732,523.539 C1322.214,523.539 1325.330,522.049 1327.776,519.752 C1329.936,521.144 1332.097,522.534 1334.258,523.926 C1338.665,525.976 1343.251,527.001 1348.019,527.001 C1349.010,527.001 1350.007,526.957 1351.013,526.869 C1353.709,526.255 1356.405,525.640 1359.100,525.027 C1364.329,523.068 1368.762,519.977 1372.399,515.753 C1375.984,511.552 1378.378,506.459 1379.410,501.089 C1379.625,501.074 1379.837,501.072 1380.051,501.053 C1382.448,500.506 1384.844,499.960 1387.240,499.415 C1391.888,497.674 1395.828,494.927 1399.060,491.171 C1403.991,485.394 1406.404,477.720 1405.690,470.170 C1404.998,462.859 1401.383,455.989 1395.770,451.236 C1393.705,449.908 1391.640,448.578 1389.576,447.249 C1385.660,445.427 1381.583,444.516 1377.345,444.516 C1376.464,444.516 1375.578,444.555 1374.683,444.634 C1372.286,445.179 1369.892,445.726 1367.494,446.271 C1366.330,446.707 1365.209,447.208 1364.134,447.770 C1362.363,440.617 1358.335,434.084 1352.670,429.287 C1350.104,427.636 1347.540,425.985 1344.976,424.333 C1340.111,422.070 1335.046,420.939 1329.781,420.939 C1328.688,420.939 1327.587,420.987 1326.477,421.085 L1318.795,422.834 C1316.857,420.043 1314.565,417.493 1311.951,415.278 L1303.396,409.771 C1297.988,407.255 1292.355,405.996 1286.501,405.996 " class="cls-1"/>
    <path d="M90.673,536.000 C85.010,536.000 78.928,539.784 75.390,543.914 C71.426,548.542 69.486,554.688 70.060,560.735 C70.145,561.637 70.290,562.530 70.486,563.410 C70.617,563.996 70.248,564.576 69.659,564.709 C69.199,564.814 68.740,564.918 68.281,565.022 C68.225,565.034 68.170,565.051 68.117,565.071 C65.203,566.173 62.730,567.900 60.697,570.252 C57.569,573.905 56.038,578.754 56.491,583.527 C56.611,584.790 56.872,586.031 57.258,587.230 C57.405,587.687 57.830,588.000 58.313,588.000 L151.167,588.000 C151.710,588.000 152.178,587.608 152.259,587.075 C152.413,586.056 152.446,585.016 152.348,583.982 C152.034,580.680 150.406,577.577 147.878,575.415 C147.834,575.378 147.789,575.344 147.740,575.313 C146.845,574.739 145.949,574.164 145.054,573.590 C145.006,573.559 144.954,573.531 144.902,573.507 C143.136,572.701 141.298,572.298 139.389,572.298 C139.015,572.298 138.639,572.314 138.260,572.344 C138.202,572.349 138.144,572.358 138.088,572.371 C137.784,572.440 137.480,572.509 137.176,572.578 C137.093,572.597 137.010,572.606 136.928,572.606 C136.348,572.606 135.840,572.153 135.830,571.551 C135.822,571.117 135.797,570.683 135.757,570.250 C135.331,565.769 133.118,561.560 129.681,558.632 C129.639,558.596 129.594,558.563 129.548,558.533 C128.318,557.745 127.089,556.956 125.859,556.167 C125.810,556.136 125.759,556.108 125.706,556.084 C123.308,554.985 120.811,554.436 118.217,554.436 C117.701,554.436 117.182,554.457 116.658,554.501 C116.600,554.506 116.542,554.515 116.486,554.527 L116.474,554.530 C116.391,554.549 116.309,554.558 116.227,554.558 C115.724,554.558 115.270,554.214 115.156,553.705 C114.078,548.898 111.424,544.493 107.624,541.288 C102.609,537.059 97.048,536.000 90.673,536.000 " class="cls-1"/>
    <path d="M1044.673,658.000 C1039.010,658.000 1032.928,661.784 1029.390,665.914 C1025.426,670.542 1023.486,676.688 1024.060,682.735 C1024.145,683.637 1024.290,684.530 1024.486,685.410 C1024.617,685.996 1024.248,686.576 1023.659,686.709 C1023.199,686.814 1022.740,686.918 1022.281,687.022 C1022.225,687.034 1022.170,687.051 1022.117,687.071 C1019.203,688.173 1016.730,689.900 1014.697,692.252 C1011.569,695.905 1010.038,700.754 1010.491,705.527 C1010.611,706.790 1010.872,708.031 1011.258,709.230 C1011.405,709.687 1011.830,710.000 1012.313,710.000 L1105.167,710.000 C1105.710,710.000 1106.178,709.608 1106.259,709.075 C1106.413,708.056 1106.446,707.016 1106.348,705.982 C1106.034,702.680 1104.406,699.577 1101.878,697.415 C1101.834,697.378 1101.789,697.344 1101.740,697.313 C1100.844,696.739 1099.949,696.164 1099.054,695.590 C1099.006,695.559 1098.954,695.531 1098.902,695.507 C1097.136,694.701 1095.298,694.298 1093.389,694.298 C1093.015,694.298 1092.639,694.314 1092.260,694.344 C1092.202,694.349 1092.144,694.358 1092.088,694.371 C1091.784,694.440 1091.480,694.509 1091.176,694.578 C1091.093,694.597 1091.010,694.606 1090.928,694.606 C1090.348,694.606 1089.840,694.153 1089.830,693.551 C1089.822,693.117 1089.798,692.683 1089.757,692.250 C1089.331,687.769 1087.118,683.560 1083.681,680.632 C1083.639,680.596 1083.594,680.563 1083.548,680.533 C1082.318,679.745 1081.089,678.956 1079.859,678.167 C1079.810,678.136 1079.759,678.108 1079.706,678.084 C1077.308,676.985 1074.811,676.436 1072.217,676.436 C1071.701,676.436 1071.182,676.457 1070.658,676.501 C1070.600,676.506 1070.542,676.515 1070.486,676.527 L1070.474,676.530 C1070.391,676.549 1070.309,676.558 1070.227,676.558 C1069.724,676.558 1069.270,676.214 1069.156,675.705 C1068.078,670.898 1065.424,666.493 1061.624,663.288 C1056.608,659.059 1051.048,658.000 1044.673,658.000 " class="cls-1"/>
    <path d="M1457.673,589.000 C1452.010,589.000 1445.928,592.784 1442.390,596.914 C1438.426,601.542 1436.486,607.688 1437.060,613.735 C1437.145,614.637 1437.290,615.530 1437.486,616.410 C1437.617,616.996 1437.248,617.576 1436.659,617.709 C1436.199,617.814 1435.740,617.918 1435.281,618.022 C1435.225,618.034 1435.170,618.051 1435.117,618.071 C1432.203,619.173 1429.730,620.900 1427.697,623.252 C1424.569,626.905 1423.038,631.754 1423.491,636.527 C1423.611,637.790 1423.872,639.031 1424.258,640.230 C1424.405,640.687 1424.830,641.000 1425.313,641.000 L1518.167,641.000 C1518.710,641.000 1519.178,640.608 1519.259,640.075 C1519.413,639.056 1519.446,638.016 1519.348,636.982 C1519.034,633.680 1517.406,630.577 1514.878,628.415 C1514.834,628.378 1514.789,628.344 1514.740,628.313 C1513.844,627.739 1512.949,627.164 1512.054,626.590 C1512.006,626.559 1511.954,626.531 1511.902,626.507 C1510.136,625.701 1508.298,625.298 1506.389,625.298 C1506.015,625.298 1505.639,625.314 1505.260,625.344 C1505.202,625.349 1505.144,625.358 1505.088,625.371 C1504.784,625.440 1504.480,625.509 1504.176,625.578 C1504.093,625.597 1504.010,625.606 1503.928,625.606 C1503.348,625.606 1502.840,625.153 1502.830,624.551 C1502.822,624.117 1502.797,623.683 1502.757,623.250 C1502.331,618.769 1500.118,614.560 1496.681,611.632 C1496.639,611.596 1496.594,611.563 1496.548,611.533 C1495.318,610.745 1494.089,609.956 1492.859,609.167 C1492.810,609.136 1492.759,609.108 1492.706,609.084 C1490.308,607.985 1487.811,607.436 1485.217,607.436 C1484.701,607.436 1484.182,607.457 1483.658,607.501 C1483.600,607.506 1483.542,607.515 1483.486,607.527 L1483.474,607.530 C1483.391,607.549 1483.309,607.558 1483.227,607.558 C1482.724,607.558 1482.270,607.214 1482.156,606.705 C1481.078,601.898 1478.424,597.493 1474.625,594.288 C1469.608,590.059 1464.048,589.000 1457.673,589.000 " class="cls-1"/>
    <path d="M228.139,387.000 C233.803,387.000 239.885,390.784 243.423,394.914 C247.386,399.542 249.326,405.688 248.752,411.735 C248.667,412.637 248.522,413.530 248.326,414.410 C248.195,414.996 248.564,415.576 249.154,415.709 C249.613,415.814 250.072,415.918 250.531,416.022 C250.587,416.034 250.642,416.051 250.695,416.071 C253.609,417.174 256.082,418.900 258.115,421.252 C261.243,424.905 262.774,429.754 262.321,434.527 C262.202,435.790 261.941,437.031 261.554,438.230 C261.407,438.687 260.983,439.000 260.499,439.000 L167.645,439.000 C167.102,439.000 166.634,438.608 166.553,438.075 C166.399,437.056 166.367,436.016 166.465,434.982 C166.778,431.680 168.406,428.577 170.934,426.415 C170.978,426.378 171.024,426.344 171.072,426.313 C171.968,425.739 172.863,425.164 173.758,424.590 C173.807,424.559 173.858,424.531 173.911,424.507 C175.677,423.701 177.514,423.298 179.423,423.298 C179.797,423.298 180.173,423.314 180.553,423.344 C180.610,423.349 180.668,423.358 180.725,423.371 C181.029,423.440 181.333,423.509 181.636,423.578 C181.720,423.597 181.803,423.606 181.884,423.606 C182.464,423.606 182.972,423.153 182.983,422.551 C182.991,422.117 183.015,421.683 183.056,421.250 C183.482,416.769 185.694,412.560 189.131,409.632 C189.173,409.596 189.218,409.563 189.264,409.533 C190.494,408.745 191.723,407.956 192.954,407.167 C193.002,407.136 193.053,407.108 193.106,407.084 C195.505,405.985 198.001,405.436 200.595,405.436 C201.111,405.436 201.631,405.457 202.154,405.501 C202.212,405.506 202.270,405.515 202.327,405.527 L202.338,405.530 C202.421,405.549 202.504,405.558 202.585,405.558 C203.088,405.558 203.542,405.214 203.656,404.705 C204.734,399.898 207.388,395.493 211.188,392.288 C216.204,388.059 221.764,387.000 228.139,387.000 " class="cls-1"/>
    <path d="M1705.801,308.000 C1692.818,308.000 1678.876,316.733 1670.766,326.263 C1661.681,336.944 1657.233,351.126 1658.549,365.082 C1658.744,367.163 1659.076,369.223 1659.526,371.254 C1659.826,372.606 1658.980,373.944 1657.628,374.252 C1656.576,374.493 1655.523,374.734 1654.470,374.973 C1654.343,375.003 1654.217,375.041 1654.095,375.087 C1647.415,377.631 1641.746,381.615 1637.086,387.044 C1629.915,395.472 1626.406,406.664 1627.445,417.678 C1627.719,420.593 1628.317,423.457 1629.202,426.224 C1629.540,427.278 1630.513,428.000 1631.621,428.000 L1844.472,428.000 C1845.717,428.000 1846.790,427.096 1846.975,425.866 C1847.328,423.514 1847.403,421.115 1847.178,418.728 C1846.460,411.108 1842.729,403.947 1836.932,398.957 C1836.833,398.872 1836.727,398.794 1836.617,398.723 C1834.563,397.398 1832.511,396.072 1830.460,394.746 C1830.348,394.674 1830.231,394.609 1830.110,394.554 C1826.062,392.695 1821.849,391.765 1817.473,391.765 C1816.616,391.765 1815.754,391.801 1814.884,391.872 C1814.752,391.883 1814.619,391.904 1814.490,391.934 C1813.793,392.093 1813.097,392.252 1812.400,392.411 C1812.209,392.454 1812.019,392.475 1811.831,392.475 C1810.503,392.475 1809.338,391.429 1809.314,390.041 C1809.296,389.040 1809.240,388.038 1809.147,387.037 C1808.170,376.699 1803.099,366.984 1795.219,360.227 C1795.123,360.145 1795.021,360.069 1794.914,360.000 C1792.095,358.181 1789.278,356.360 1786.457,354.540 C1786.346,354.468 1786.228,354.403 1786.108,354.347 C1780.610,351.811 1774.887,350.544 1768.940,350.544 C1767.757,350.544 1766.567,350.594 1765.366,350.694 C1765.234,350.705 1765.101,350.726 1764.971,350.756 L1764.944,350.762 C1764.755,350.805 1764.566,350.826 1764.379,350.826 C1763.226,350.826 1762.185,350.031 1761.924,348.859 C1759.453,337.765 1753.369,327.598 1744.659,320.204 C1733.160,310.443 1720.414,308.000 1705.801,308.000 " class="cls-1"/>
    <path d="M66.168,-58.013 C64.542,-58.013 62.915,-57.964 61.307,-57.918 C58.589,-57.299 55.869,-56.679 53.149,-56.059 C47.876,-54.083 43.405,-50.964 39.737,-46.704 C35.066,-41.229 32.396,-34.252 32.111,-27.111 C30.737,-27.312 29.344,-27.416 27.934,-27.416 C27.095,-27.416 26.250,-27.379 25.399,-27.304 C23.035,-26.766 20.670,-26.227 18.308,-25.690 C13.722,-23.971 9.837,-21.261 6.649,-17.558 C1.786,-11.857 -0.594,-4.288 0.111,3.159 C0.793,10.371 4.357,17.147 9.895,21.836 C10.782,22.407 11.670,22.979 12.557,23.550 C12.510,24.675 12.531,25.805 12.638,26.933 C13.254,33.434 16.467,39.542 21.459,43.768 C23.295,44.951 25.129,46.133 26.965,47.314 C30.447,48.934 34.071,49.745 37.840,49.745 C38.623,49.745 39.412,49.710 40.207,49.640 L46.599,48.183 C47.632,47.796 48.627,47.353 49.583,46.853 C50.446,47.788 51.363,48.680 52.339,49.507 C54.626,50.979 56.913,52.452 59.201,53.925 C63.541,55.945 68.060,56.955 72.757,56.955 C73.732,56.955 74.714,56.912 75.705,56.825 C78.360,56.220 81.015,55.614 83.670,55.009 C88.371,53.249 92.411,50.547 95.804,46.928 C96.004,47.104 96.197,47.286 96.400,47.457 C98.758,48.975 101.114,50.494 103.472,52.012 C107.944,54.092 112.601,55.134 117.442,55.134 C118.448,55.134 119.460,55.089 120.481,54.999 C123.217,54.376 125.954,53.753 128.690,53.129 C129.185,52.943 129.665,52.738 130.146,52.533 C131.283,53.266 132.422,53.999 133.560,54.732 C138.236,56.908 143.105,57.996 148.166,57.996 C149.217,57.996 150.274,57.949 151.341,57.855 C154.202,57.203 157.064,56.551 159.924,55.899 C165.473,53.822 170.179,50.539 174.038,46.056 C175.857,43.925 177.386,41.577 178.610,39.084 C178.993,39.168 179.378,39.250 179.768,39.317 C182.312,39.422 184.856,39.524 187.399,39.629 C192.385,39.137 196.935,37.466 201.046,34.619 L202.294,33.668 C204.103,32.027 205.911,30.388 207.719,28.748 C211.052,24.807 213.175,20.299 214.090,15.222 C215.406,7.789 213.682,0.049 209.338,-6.130 C205.703,-11.301 200.407,-15.121 194.405,-16.999 C194.630,-19.117 194.649,-21.261 194.447,-23.395 C193.656,-31.747 189.528,-39.593 183.117,-45.021 C180.759,-46.539 178.402,-48.058 176.044,-49.575 C171.571,-51.657 166.913,-52.698 162.071,-52.698 C161.068,-52.698 160.056,-52.653 159.036,-52.563 C156.299,-51.939 153.562,-51.316 150.825,-50.693 C147.583,-49.478 144.645,-47.828 142.004,-45.754 C141.086,-46.780 140.099,-47.750 139.042,-48.646 C136.843,-50.061 134.643,-51.476 132.446,-52.893 C128.274,-54.834 123.932,-55.803 119.417,-55.804 C118.480,-55.804 117.536,-55.762 116.584,-55.678 C114.031,-55.098 111.479,-54.516 108.927,-53.934 C103.991,-52.086 99.804,-49.168 96.367,-45.185 C93.451,-48.780 89.723,-51.758 85.277,-53.748 C81.575,-55.404 77.644,-56.759 73.651,-57.463 C71.205,-57.895 68.687,-58.013 66.168,-58.013 " class="cls-1"/>
  </g>
</svg>
