<svg xmlns="http://www.w3.org/2000/svg" xmlns:xlink="http://www.w3.org/1999/xlink" preserveAspectRatio="xMidYMid" width="1920" height="836.719" viewBox="0 0 1920 836.719">
  <defs>
    <style>
      .cls-1 {
        fill: #fff;
        opacity: 0.5;
        fill-rule: evenodd;
      }
    </style>
  </defs>
  <path d="M2005.998,285.589 L2001.430,285.589 L2000.017,289.940 L1998.603,285.589 L1994.036,285.589 L1997.739,282.899 L1996.326,278.550 L2000.017,281.237 L2003.720,278.550 L2002.306,282.899 L2005.998,285.589 ZM1927.618,563.249 L1925.165,570.797 L1922.712,563.249 L1914.792,563.249 L1921.205,558.582 L1918.752,551.035 L1925.165,555.699 L1931.578,551.035 L1929.125,558.582 L1935.538,563.249 L1927.618,563.249 ZM1847.358,138.180 L1845.512,136.835 L1843.661,138.180 L1844.368,136.004 L1842.522,134.659 L1844.800,134.659 L1845.512,132.483 L1846.213,134.659 L1848.503,134.659 L1846.651,136.004 L1847.358,138.180 ZM1749.128,239.917 L1746.681,247.465 L1744.227,239.917 L1736.302,239.917 L1742.715,235.250 L1740.268,227.703 L1746.681,232.367 L1753.094,227.703 L1750.640,235.250 L1757.053,239.917 L1749.128,239.917 ZM1685.271,50.763 L1683.857,55.115 L1682.444,50.763 L1677.877,50.763 L1681.568,48.073 L1680.155,43.724 L1683.857,46.412 L1687.549,43.724 L1686.136,48.073 L1689.838,50.763 L1685.271,50.763 ZM1626.418,573.651 L1625.004,578.002 L1623.591,573.651 L1619.023,573.651 L1622.720,570.961 L1621.307,566.612 L1625.004,569.299 L1628.701,566.612 L1627.288,570.961 L1630.985,573.651 L1626.418,573.651 ZM1571.552,828.011 L1568.731,836.714 L1565.904,828.011 L1556.770,828.011 L1564.164,822.630 L1561.337,813.928 L1568.731,819.308 L1576.125,813.928 L1573.298,822.630 L1580.693,828.011 L1571.552,828.011 ZM1519.285,268.222 L1516.832,275.769 L1514.380,268.222 L1506.460,268.222 L1512.872,263.555 L1510.420,256.007 L1516.832,260.671 L1523.245,256.007 L1520.792,263.555 L1527.205,268.222 L1519.285,268.222 ZM1414.086,463.334 L1411.260,472.033 L1408.439,463.334 L1399.298,463.334 L1406.692,457.953 L1403.866,449.250 L1411.260,454.628 L1418.654,449.250 L1415.827,457.953 L1423.221,463.334 L1414.086,463.334 ZM1313.268,141.543 L1309.734,152.418 L1306.201,141.543 L1294.782,141.543 L1304.028,134.817 L1300.489,123.939 L1309.734,130.662 L1318.980,123.939 L1315.440,134.817 L1324.686,141.543 L1313.268,141.543 ZM1264.569,706.815 L1263.156,711.167 L1261.743,706.815 L1257.175,706.815 L1260.879,704.125 L1259.465,699.776 L1263.156,702.464 L1266.859,699.776 L1265.446,704.125 L1269.137,706.815 L1264.569,706.815 ZM1197.322,314.904 L1189.928,309.526 L1182.534,314.904 L1185.361,306.202 L1177.967,300.821 L1187.101,300.821 L1189.928,292.121 L1192.755,300.821 L1201.890,300.821 L1194.496,306.202 L1197.322,314.904 ZM1090.418,630.901 L1081.178,624.179 L1071.939,630.901 L1075.466,620.023 L1066.226,613.298 L1077.650,613.298 L1081.178,602.423 L1084.706,613.298 L1096.130,613.298 L1086.890,620.023 L1090.418,630.901 ZM874.798,176.862 L867.404,171.484 L860.010,176.862 L862.837,168.160 L855.443,162.779 L864.583,162.779 L867.404,154.079 L870.231,162.779 L879.365,162.779 L871.971,168.160 L874.798,176.862 ZM823.197,711.167 L819.501,708.479 L815.803,711.167 L817.217,706.818 L813.520,704.128 L818.087,704.128 L819.501,699.776 L820.914,704.128 L825.481,704.128 L821.784,706.818 L823.197,711.167 ZM768.245,11.399 L764.542,8.712 L760.851,11.399 L762.264,7.051 L758.562,4.361 L763.129,4.361 L764.542,0.010 L765.956,4.361 L770.523,4.361 L766.832,7.051 L768.245,11.399 ZM512.090,616.188 L505.677,611.524 L499.264,616.188 L501.718,608.641 L495.305,603.974 L503.224,603.974 L505.677,596.426 L508.130,603.974 L516.050,603.974 L509.637,608.641 L512.090,616.188 ZM489.606,272.856 L483.193,268.192 L476.780,272.856 L479.227,265.309 L472.814,260.642 L480.740,260.642 L483.193,253.094 L485.640,260.642 L493.565,260.642 L487.153,265.309 L489.606,272.856 ZM468.557,486.452 L464.859,483.765 L461.163,486.452 L462.576,482.104 L458.879,479.414 L463.446,479.414 L464.859,475.063 L466.273,479.414 L470.840,479.414 L467.143,482.104 L468.557,486.452 ZM309.941,437.180 L303.529,432.516 L297.116,437.180 L299.563,429.632 L293.150,424.965 L301.081,424.965 L303.529,417.418 L305.975,424.965 L313.907,424.965 L307.494,429.632 L309.941,437.180 ZM289.180,818.703 L282.767,814.038 L276.355,818.703 L278.807,811.155 L272.394,806.488 L280.320,806.488 L282.767,798.941 L285.220,806.488 L293.146,806.488 L286.733,811.155 L289.180,818.703 ZM74.446,124.115 L70.749,121.427 L67.052,124.115 L68.465,119.766 L64.768,117.076 L69.335,117.076 L70.749,112.724 L72.162,117.076 L76.730,117.076 L73.032,119.766 L74.446,124.115 ZM64.336,242.526 L66.789,250.074 L60.376,245.409 L53.963,250.074 L56.410,242.526 L49.997,237.859 L57.923,237.859 L60.376,230.312 L62.823,237.859 L70.749,237.859 L64.336,242.526 ZM-47.941,517.669 L-51.639,514.982 L-55.336,517.669 L-53.922,513.320 L-57.619,510.630 L-53.052,510.630 L-51.639,506.279 L-50.225,510.630 L-45.658,510.630 L-49.355,513.320 L-47.941,517.669 ZM-91.313,255.767 L-95.011,253.079 L-98.707,255.767 L-97.294,251.419 L-100.991,248.729 L-96.424,248.729 L-95.011,244.377 L-93.597,248.729 L-89.030,248.729 L-92.727,251.419 L-91.313,255.767 ZM-200.507,401.307 L-206.920,396.643 L-213.333,401.307 L-210.880,393.760 L-217.293,389.093 L-209.373,389.093 L-206.920,381.545 L-204.467,389.093 L-196.547,389.093 L-202.960,393.760 L-200.507,401.307 ZM-305.122,178.207 L-306.535,182.559 L-307.949,178.207 L-312.516,178.207 L-308.819,175.517 L-310.233,171.169 L-306.535,173.856 L-302.839,171.169 L-304.252,175.517 L-300.555,178.207 L-305.122,178.207 ZM-311.103,745.348 L-306.535,745.348 L-310.239,748.038 L-308.825,752.390 L-312.516,749.700 L-316.219,752.390 L-314.805,748.038 L-318.497,745.348 L-313.929,745.348 L-312.516,740.997 L-311.103,745.348 ZM-383.800,347.147 L-385.648,345.802 L-387.496,347.147 L-386.790,344.971 L-388.638,343.626 L-386.354,343.626 L-385.648,341.451 L-384.941,343.626 L-382.657,343.626 L-384.506,344.971 L-383.800,347.147 ZM-548.163,533.539 L-550.008,532.193 L-551.854,533.539 L-551.153,531.363 L-552.999,530.018 L-550.715,530.018 L-550.008,527.843 L-549.301,530.018 L-547.018,530.018 L-548.864,531.363 L-548.163,533.539 Z" class="cls-1"/>
</svg>
