<?xml version="1.0" encoding="utf-8"?>
<!-- Generator: Adobe Illustrator 19.1.1, SVG Export Plug-In . SVG Version: 6.00 Build 0)  -->
<svg version="1.1" id="Objects" xmlns="http://www.w3.org/2000/svg" xmlns:xlink="http://www.w3.org/1999/xlink" x="0px" y="0px"
	 viewBox="0 0 414.8 400" style="enable-background:new 0 0 414.8 400;" xml:space="preserve">
<style type="text/css">
	.st0{fill:#414042;}
	.st1{fill:#D1D3D4;}
	.st2{fill:#22363F;}
	.st3{fill:#4E7387;stroke:#578CA3;stroke-width:5;stroke-miterlimit:10;}
	.st4{fill:#204856;}
	.st5{fill:#092830;}
	.st6{opacity:0.6;fill:#FFFFFF;}
	.st7{fill:#4E7387;}
	.st8{fill:#BE1E2D;}
	.st9{fill:#939598;}
	.st10{opacity:0.3;fill:#939598;}
</style>
<g>
	
		<rect x="35.2" y="108" transform="matrix(0.7071 -0.7071 0.7071 0.7071 -85.9998 207.6219)" class="st0" width="344.9" height="199.3"/>
	<circle class="st1" cx="235.6" cy="179.6" r="86.3"/>
	
		<rect x="-21.9" y="131.6" transform="matrix(0.7071 -0.7071 0.7071 0.7071 -62.343 150.5094)" class="st1" width="344.9" height="37.7"/>
	
		<rect x="92.3" y="245.9" transform="matrix(0.7071 -0.7071 0.7071 0.7071 -109.6566 264.7344)" class="st1" width="344.9" height="37.7"/>
	<circle class="st2" cx="235.6" cy="179.6" r="73.5"/>
	<circle class="st3" cx="235.6" cy="179.6" r="53.1"/>
	<circle class="st4" cx="235.6" cy="179.6" r="28.9"/>
	<circle class="st5" cx="235.6" cy="179.6" r="18.2"/>
	<path class="st1" d="M223.4,74.8c2.5,2.5,2.4,6.6-0.2,9.2l-80.5,80.5c-2.6,2.6-6.7,2.7-9.2,0.2l-31.2-31.2
		c-2.5-2.5-2.4-6.6,0.2-9.2l80.5-80.5c2.6-2.6,6.7-2.7,9.2-0.2L223.4,74.8z"/>
	<circle class="st6" cx="187.8" cy="179.4" r="17.9"/>
	<circle class="st6" cx="215.7" cy="183.2" r="5.7"/>
	<path class="st7" d="M203.1,68.7c2.5,2.5,2.5,6.5,0,9l-37.9,37.9c-2.5,2.5-6.5,2.5-9,0l-13.5-13.5c-2.5-2.5-2.5-6.5,0-9l37.9-37.9
		c2.5-2.5,6.5-2.5,9,0L203.1,68.7z"/>
	<path class="st2" d="M138.8,114.4c2.5,2.5,2.5,6.5,0,9l-7.9,7.9c-2.5,2.5-6.5,2.5-9,0l-2.4-2.4c-2.5-2.5-2.5-6.5,0-9l7.9-7.9
		c2.5-2.5,6.5-2.5,9,0L138.8,114.4z"/>
	<circle class="st8" cx="145.1" cy="129.9" r="4.5"/>
	
		<rect x="26.2" y="213.2" transform="matrix(0.7071 -0.7071 0.7071 0.7071 -140.8849 97.639)" class="st9" width="42.4" height="11.4"/>
	
		<rect x="305.8" y="-4.1" transform="matrix(-0.7071 0.7071 -0.7071 -0.7071 613.1667 -63.0981)" class="st10" width="27.8" height="199.1"/>
	
		<rect x="83.6" y="225" transform="matrix(-0.7071 0.7071 -0.7071 -0.7071 384.0479 490.0436)" class="st10" width="13.9" height="199.1"/>
</g>
</svg>
