<svg xmlns="http://www.w3.org/2000/svg" xmlns:xlink="http://www.w3.org/1999/xlink" preserveAspectRatio="xMidYMid" width="371" height="265" viewBox="0 0 371 265">
  <defs>
    <style>
      .cls-1 {
        fill: #f2303f;
        fill-rule: evenodd;
      }
    </style>
  </defs>
  <path d="M323.500,150.416 L323.500,226.296 C323.500,247.636 306.153,265.000 284.830,265.000 L38.670,265.000 C17.347,265.000 0.000,247.636 0.000,226.296 L0.000,87.123 C0.000,65.783 17.347,48.423 38.670,48.423 L220.332,48.423 C232.083,20.000 260.058,-0.000 292.705,-0.000 C335.945,-0.000 370.999,35.081 370.999,78.357 C370.999,110.689 351.430,138.445 323.500,150.416 ZM214.873,69.834 L38.670,69.834 C29.148,69.834 21.398,77.590 21.398,87.123 L21.398,102.503 L218.200,102.488 C215.743,94.886 214.411,86.777 214.411,78.357 C214.411,75.476 214.570,72.634 214.873,69.834 ZM21.395,133.031 L21.395,226.296 C21.395,235.829 29.148,243.585 38.670,243.585 L284.830,243.585 C294.356,243.585 302.105,235.829 302.105,226.296 L302.101,226.296 L302.101,156.149 C299.020,156.518 295.885,156.713 292.705,156.713 C270.717,156.713 250.850,147.638 236.628,133.031 L21.395,133.031 ZM292.705,28.456 C276.390,28.456 261.907,36.299 252.810,48.423 C248.173,54.603 244.948,61.900 243.583,69.834 C243.106,72.605 242.844,75.449 242.844,78.357 C242.844,87.110 245.103,95.333 249.059,102.485 C257.558,117.850 273.914,128.257 292.705,128.257 C304.331,128.257 315.019,124.264 323.500,117.587 C335.104,108.450 342.566,94.280 342.566,78.357 C342.566,50.797 320.242,28.456 292.705,28.456 ZM293.585,118.846 C287.976,118.846 283.430,114.296 283.430,108.683 C283.430,106.346 284.226,104.200 285.551,102.483 C287.408,100.077 290.312,98.520 293.585,98.520 C296.857,98.520 299.760,100.076 301.617,102.482 C302.942,104.198 303.739,106.345 303.739,108.683 C303.739,114.296 299.193,118.846 293.585,118.846 ZM301.053,81.239 L300.338,92.555 L286.831,92.555 L285.398,69.863 L284.044,48.423 L283.430,38.710 L303.739,38.710 L302.843,52.893 L301.053,81.239 ZM278.940,196.978 C278.940,211.749 266.975,223.724 252.212,223.724 C246.126,223.724 240.515,221.685 236.024,218.252 C231.529,221.685 225.920,223.724 219.832,223.724 C205.069,223.724 193.103,211.749 193.103,196.978 C193.103,182.204 205.069,170.225 219.832,170.225 C225.918,170.225 231.529,172.268 236.024,175.696 C240.515,172.268 246.123,170.225 252.212,170.225 C266.975,170.225 278.940,182.204 278.940,196.978 ZM106.528,223.724 L47.951,223.724 C45.855,223.724 44.151,222.021 44.154,219.924 L44.154,208.358 C44.154,206.256 45.855,204.554 47.951,204.554 L106.528,204.554 C108.624,204.554 110.325,206.256 110.325,208.358 L110.325,219.924 C110.325,222.021 108.624,223.724 106.528,223.724 Z" class="cls-1"/>
</svg>
