<?xml version="1.0" encoding="utf-8"?>
<!-- Generator: Adobe Illustrator 19.1.1, SVG Export Plug-In . SVG Version: 6.00 Build 0)  -->
<svg version="1.1" id="Objects" xmlns="http://www.w3.org/2000/svg" xmlns:xlink="http://www.w3.org/1999/xlink" x="0px" y="0px"
	 viewBox="0 0 449.3 297.5" style="enable-background:new 0 0 449.3 297.5;" xml:space="preserve">
<style type="text/css">
	.st0{fill-rule:evenodd;clip-rule:evenodd;fill:#666666;}
	.st1{fill-rule:evenodd;clip-rule:evenodd;fill:#C1C1C1;}
	.st2{fill-rule:evenodd;clip-rule:evenodd;fill:#47B2BA;}
	.st3{opacity:0.15;}
	.st4{fill:#070707;}
	.st5{fill:#727171;}
</style>
<g>
	<g>
		<path class="st0" d="M395.6,201.3c0,7.2-5.9,13.1-13.1,13.1H68.2c-7.2,0-13.1-5.9-13.1-13.1V15c0-7.2,5.9-13.1,13.1-13.1h314.3
			c7.2,0,13.1,5.9,13.1,13.1V201.3z"/>
		<polygon class="st1" points="55,203.5 1.8,288.4 447,287.6 395.7,203 		"/>
		<path class="st0" d="M447.5,288L447.5,288c0,4.8-5.1,8.6-11.3,8.6H13.6c-6.2,0-11.3-3.9-11.3-8.6l0,0"/>
		<rect x="74.1" y="19" class="st2" width="302.7" height="168.5"/>
	</g>
	<g>
		<g class="st3">
			<polygon class="st4" points="77.3,228.6 66.9,228.6 71.6,218 81.7,218 			"/>
			<polygon class="st4" points="85.3,241.9 60.9,241.9 65.6,231.4 89.3,231.4 			"/>
			<polygon class="st4" points="80.4,256.5 55,256.5 59.7,246 84.4,246 			"/>
			<polygon class="st4" points="89.8,228.6 79.4,228.6 83.7,218 93.8,218 			"/>
			<polygon class="st4" points="102.3,228.6 91.9,228.6 95.8,218 105.8,218 			"/>
			<polygon class="st4" points="114.8,228.6 104.4,228.6 107.9,218 117.9,218 			"/>
			<polygon class="st4" points="127.3,228.6 116.9,228.6 119.9,218 130,218 			"/>
			<polygon class="st4" points="139.8,228.6 129.4,228.6 132,218 142.1,218 			"/>
			<polygon class="st4" points="152.3,228.6 141.9,228.6 144.1,218 154.2,218 			"/>
			<polygon class="st4" points="164.8,228.6 154.4,228.6 156.2,218 166.3,218 			"/>
			<polygon class="st4" points="177.3,228.6 166.9,228.6 168.3,218 178.4,218 			"/>
			<polygon class="st4" points="189.8,228.6 179.4,228.6 180.4,218 190.5,218 			"/>
			<polygon class="st4" points="202.3,228.6 191.9,228.6 192.5,218 202.5,218 			"/>
			<polygon class="st4" points="214.8,228.6 204.3,228.6 204.6,218 214.6,218 			"/>
			<polygon class="st4" points="227.3,228.6 216.8,228.6 216.6,218 226.7,218 			"/>
			<polygon class="st4" points="239.8,228.6 229.3,228.6 228.7,218 238.8,218 			"/>
			<polygon class="st4" points="252.3,228.6 241.8,228.6 240.8,218 250.9,218 			"/>
			<polygon class="st4" points="264.8,228.6 254.3,228.6 252.9,218 263,218 			"/>
			<polygon class="st4" points="277.2,228.6 266.8,228.6 265,218 275.1,218 			"/>
			<polygon class="st4" points="289.7,228.6 279.3,228.6 277.1,218 287.1,218 			"/>
			<polygon class="st4" points="302.2,228.6 291.8,228.6 289.2,218 299.2,218 			"/>
			<polygon class="st4" points="314.7,228.6 304.3,228.6 301.2,218 311.3,218 			"/>
			<polygon class="st4" points="327.2,228.6 316.8,228.6 313.3,218 323.4,218 			"/>
			<polygon class="st4" points="339.7,228.6 329.3,228.6 325.4,218 335.5,218 			"/>
			<polygon class="st4" points="352.2,228.6 341.8,228.6 337.5,218 347.6,218 			"/>
			<polygon class="st4" points="364.7,228.6 354.3,228.6 349.6,218 359.7,218 			"/>
			<polygon class="st4" points="377.2,228.6 366.8,228.6 361.7,218 371.8,218 			"/>
			<polygon class="st4" points="60.1,270.1 48.4,270.1 53.1,259.6 64.5,259.6 			"/>
			<polygon class="st4" points="74.2,270.1 62.5,270.1 66.8,259.6 78.2,259.6 			"/>
			<polygon class="st4" points="88.3,270.1 76.6,270.1 80.5,259.6 91.9,259.6 			"/>
			<polygon class="st4" points="102.4,270.1 90.7,270.1 94.2,259.6 105.6,259.6 			"/>
			<polygon class="st4" points="116.5,270.1 104.8,270.1 107.9,259.6 119.3,259.6 			"/>
			<polygon class="st4" points="130.7,270.1 118.9,270.1 121.6,259.6 133,259.6 			"/>
			<polygon class="st4" points="313.5,270.1 133.6,270.1 135.8,259.6 310.5,259.6 			"/>
			<polygon class="st4" points="328.2,270.1 316.4,270.1 313.3,259.6 324.8,259.6 			"/>
			<polygon class="st4" points="342.3,270.1 330.5,270.1 327,259.6 338.5,259.6 			"/>
			<polygon class="st4" points="356.4,270.1 344.6,270.1 340.7,259.6 352.2,259.6 			"/>
			<polygon class="st4" points="370.5,270.1 358.7,270.1 354.4,259.6 365.9,259.6 			"/>
			<polygon class="st4" points="384.6,270.1 372.9,270.1 368.1,259.6 379.5,259.6 			"/>
			<polygon class="st4" points="398.7,270.1 387,270.1 381.8,259.6 393.2,259.6 			"/>
			<polygon class="st4" points="97.8,241.9 87,241.9 90.9,231.4 101.4,231.4 			"/>
			<polygon class="st4" points="110.8,241.9 100,241.9 103.5,231.4 114,231.4 			"/>
			<polygon class="st4" points="123.8,241.9 113,241.9 116.1,231.4 126.6,231.4 			"/>
			<polygon class="st4" points="136.8,241.9 126,241.9 128.7,231.4 139.2,231.4 			"/>
			<polygon class="st4" points="149.9,241.9 139,241.9 141.3,231.4 151.8,231.4 			"/>
			<polygon class="st4" points="162.9,241.9 152,241.9 153.9,231.4 164.4,231.4 			"/>
			<polygon class="st4" points="175.9,241.9 165,241.9 166.5,231.4 177,231.4 			"/>
			<polygon class="st4" points="188.9,241.9 178.1,241.9 179.1,231.4 189.6,231.4 			"/>
			<polygon class="st4" points="201.9,241.9 191.1,241.9 191.7,231.4 202.2,231.4 			"/>
			<polygon class="st4" points="214.9,241.9 204.1,241.9 204.3,231.4 214.8,231.4 			"/>
			<polygon class="st4" points="228,241.9 217.1,241.9 216.9,231.4 227.4,231.4 			"/>
			<polygon class="st4" points="241,241.9 230.1,241.9 229.5,231.4 240,231.4 			"/>
			<polygon class="st4" points="254,241.9 243.1,241.9 242.1,231.4 252.6,231.4 			"/>
			<polygon class="st4" points="267,241.9 256.2,241.9 254.7,231.4 265.2,231.4 			"/>
			<polygon class="st4" points="280,241.9 269.2,241.9 267.3,231.4 277.8,231.4 			"/>
			<polygon class="st4" points="293,241.9 282.2,241.9 279.9,231.4 290.4,231.4 			"/>
			<polygon class="st4" points="306,241.9 295.2,241.9 292.5,231.4 303,231.4 			"/>
			<polygon class="st4" points="319.1,241.9 308.2,241.9 305.1,231.4 315.6,231.4 			"/>
			<polygon class="st4" points="332.1,241.9 321.2,241.9 317.7,231.4 328.2,231.4 			"/>
			<polygon class="st4" points="345.1,241.9 334.2,241.9 330.3,231.4 340.8,231.4 			"/>
			<polygon class="st4" points="358.1,241.9 347.3,241.9 342.9,231.4 353.5,231.4 			"/>
			<polygon class="st4" points="371.1,241.9 360.3,241.9 355.6,231.4 366.1,231.4 			"/>
			<polygon class="st4" points="391.3,255.8 380,255.8 368.2,231.4 378.7,231.4 			"/>
			<polygon class="st4" points="92.9,256.5 81.6,256.5 85.5,246 96.5,246 			"/>
			<polygon class="st4" points="106.5,256.5 95.2,256.5 98.6,246 109.6,246 			"/>
			<polygon class="st4" points="120.1,256.5 108.7,256.5 111.8,246 122.8,246 			"/>
			<polygon class="st4" points="133.6,256.5 122.3,256.5 125,246 136,246 			"/>
			<polygon class="st4" points="147.2,256.5 135.9,256.5 138.2,246 149.1,246 			"/>
			<polygon class="st4" points="160.8,256.5 149.5,256.5 151.3,246 162.3,246 			"/>
			<polygon class="st4" points="174.4,256.5 163.1,256.5 164.5,246 175.5,246 			"/>
			<polygon class="st4" points="188,256.5 176.6,256.5 177.7,246 188.6,246 			"/>
			<polygon class="st4" points="201.5,256.5 190.2,256.5 190.8,246 201.8,246 			"/>
			<polygon class="st4" points="215.1,256.5 203.8,256.5 204,246 215,246 			"/>
			<polygon class="st4" points="228.7,256.5 217.4,256.5 217.2,246 228.2,246 			"/>
			<polygon class="st4" points="242.3,256.5 231,256.5 230.4,246 241.3,246 			"/>
			<polygon class="st4" points="255.9,256.5 244.6,256.5 243.5,246 254.5,246 			"/>
			<polygon class="st4" points="269.5,256.5 258.1,256.5 256.7,246 267.7,246 			"/>
			<polygon class="st4" points="283,256.5 271.7,256.5 269.9,246 280.8,246 			"/>
			<polygon class="st4" points="296.6,256.5 285.3,256.5 283,246 294,246 			"/>
			<polygon class="st4" points="310.2,256.5 298.9,256.5 296.2,246 307.2,246 			"/>
			<polygon class="st4" points="323.8,256.5 312.5,256.5 309.4,246 320.4,246 			"/>
			<polygon class="st4" points="337.4,256.5 326,256.5 322.6,246 333.5,246 			"/>
			<polygon class="st4" points="350.9,256.5 339.6,256.5 335.7,246 346.7,246 			"/>
			<polygon class="st4" points="364.5,256.5 353.2,256.5 348.9,246 359.9,246 			"/>
			<polygon class="st4" points="378.1,256.5 366.8,256.5 362.1,246 373,246 			"/>
		</g>
		<g>
			<g>
				<polygon class="st5" points="77.3,227.6 66.9,227.6 71.6,217 81.7,217 				"/>
				<polygon class="st5" points="85.3,240.9 60.9,240.9 65.6,230.4 89.3,230.4 				"/>
				<polygon class="st5" points="80.4,255.5 55,255.5 59.7,245 84.4,245 				"/>
				<polygon class="st5" points="89.8,227.6 79.4,227.6 83.7,217 93.8,217 				"/>
				<polygon class="st5" points="102.3,227.6 91.9,227.6 95.8,217 105.8,217 				"/>
				<polygon class="st5" points="114.8,227.6 104.4,227.6 107.9,217 117.9,217 				"/>
				<polygon class="st5" points="127.3,227.6 116.9,227.6 119.9,217 130,217 				"/>
				<polygon class="st5" points="139.8,227.6 129.4,227.6 132,217 142.1,217 				"/>
				<polygon class="st5" points="152.3,227.6 141.9,227.6 144.1,217 154.2,217 				"/>
				<polygon class="st5" points="164.8,227.6 154.4,227.6 156.2,217 166.3,217 				"/>
				<polygon class="st5" points="177.3,227.6 166.9,227.6 168.3,217 178.4,217 				"/>
				<polygon class="st5" points="189.8,227.6 179.4,227.6 180.4,217 190.5,217 				"/>
				<polygon class="st5" points="202.3,227.6 191.9,227.6 192.5,217 202.5,217 				"/>
				<polygon class="st5" points="214.8,227.6 204.3,227.6 204.6,217 214.6,217 				"/>
				<polygon class="st5" points="227.3,227.6 216.8,227.6 216.6,217 226.7,217 				"/>
				<polygon class="st5" points="239.8,227.6 229.3,227.6 228.7,217 238.8,217 				"/>
				<polygon class="st5" points="252.3,227.6 241.8,227.6 240.8,217 250.9,217 				"/>
				<polygon class="st5" points="264.8,227.6 254.3,227.6 252.9,217 263,217 				"/>
				<polygon class="st5" points="277.2,227.6 266.8,227.6 265,217 275.1,217 				"/>
				<polygon class="st5" points="289.7,227.6 279.3,227.6 277.1,217 287.1,217 				"/>
				<polygon class="st5" points="302.2,227.6 291.8,227.6 289.2,217 299.2,217 				"/>
				<polygon class="st5" points="314.7,227.6 304.3,227.6 301.2,217 311.3,217 				"/>
				<polygon class="st5" points="327.2,227.6 316.8,227.6 313.3,217 323.4,217 				"/>
				<polygon class="st5" points="339.7,227.6 329.3,227.6 325.4,217 335.5,217 				"/>
				<polygon class="st5" points="352.2,227.6 341.8,227.6 337.5,217 347.6,217 				"/>
				<polygon class="st5" points="364.7,227.6 354.3,227.6 349.6,217 359.7,217 				"/>
				<polygon class="st5" points="377.2,227.6 366.8,227.6 361.7,217 371.8,217 				"/>
				<polygon class="st5" points="60.1,269.1 48.4,269.1 53.1,258.6 64.5,258.6 				"/>
				<polygon class="st5" points="74.2,269.1 62.5,269.1 66.8,258.6 78.2,258.6 				"/>
				<polygon class="st5" points="88.3,269.1 76.6,269.1 80.5,258.6 91.9,258.6 				"/>
				<polygon class="st5" points="102.4,269.1 90.7,269.1 94.2,258.6 105.6,258.6 				"/>
				<polygon class="st5" points="116.5,269.1 104.8,269.1 107.9,258.6 119.3,258.6 				"/>
				<polygon class="st5" points="130.7,269.1 118.9,269.1 121.6,258.6 133,258.6 				"/>
				<polygon class="st5" points="313.5,269.1 133.6,269.1 135.8,258.6 310.5,258.6 				"/>
				<polygon class="st5" points="328.2,269.1 316.4,269.1 313.3,258.6 324.8,258.6 				"/>
				<polygon class="st5" points="342.3,269.1 330.5,269.1 327,258.6 338.5,258.6 				"/>
				<polygon class="st5" points="356.4,269.1 344.6,269.1 340.7,258.6 352.2,258.6 				"/>
				<polygon class="st5" points="370.5,269.1 358.7,269.1 354.4,258.6 365.9,258.6 				"/>
				<polygon class="st5" points="384.6,269.1 372.9,269.1 368.1,258.6 379.5,258.6 				"/>
				<polygon class="st5" points="398.7,269.1 387,269.1 381.8,258.6 393.2,258.6 				"/>
				<polygon class="st5" points="97.8,240.9 87,240.9 90.9,230.4 101.4,230.4 				"/>
				<polygon class="st5" points="110.8,240.9 100,240.9 103.5,230.4 114,230.4 				"/>
				<polygon class="st5" points="123.8,240.9 113,240.9 116.1,230.4 126.6,230.4 				"/>
				<polygon class="st5" points="136.8,240.9 126,240.9 128.7,230.4 139.2,230.4 				"/>
				<polygon class="st5" points="149.9,240.9 139,240.9 141.3,230.4 151.8,230.4 				"/>
				<polygon class="st5" points="162.9,240.9 152,240.9 153.9,230.4 164.4,230.4 				"/>
				<polygon class="st5" points="175.9,240.9 165,240.9 166.5,230.4 177,230.4 				"/>
				<polygon class="st5" points="188.9,240.9 178.1,240.9 179.1,230.4 189.6,230.4 				"/>
				<polygon class="st5" points="201.9,240.9 191.1,240.9 191.7,230.4 202.2,230.4 				"/>
				<polygon class="st5" points="214.9,240.9 204.1,240.9 204.3,230.4 214.8,230.4 				"/>
				<polygon class="st5" points="228,240.9 217.1,240.9 216.9,230.4 227.4,230.4 				"/>
				<polygon class="st5" points="241,240.9 230.1,240.9 229.5,230.4 240,230.4 				"/>
				<polygon class="st5" points="254,240.9 243.1,240.9 242.1,230.4 252.6,230.4 				"/>
				<polygon class="st5" points="267,240.9 256.2,240.9 254.7,230.4 265.2,230.4 				"/>
				<polygon class="st5" points="280,240.9 269.2,240.9 267.3,230.4 277.8,230.4 				"/>
				<polygon class="st5" points="293,240.9 282.2,240.9 279.9,230.4 290.4,230.4 				"/>
				<polygon class="st5" points="306,240.9 295.2,240.9 292.5,230.4 303,230.4 				"/>
				<polygon class="st5" points="319.1,240.9 308.2,240.9 305.1,230.4 315.6,230.4 				"/>
				<polygon class="st5" points="332.1,240.9 321.2,240.9 317.7,230.4 328.2,230.4 				"/>
				<polygon class="st5" points="345.1,240.9 334.2,240.9 330.3,230.4 340.8,230.4 				"/>
				<polygon class="st5" points="358.1,240.9 347.3,240.9 342.9,230.4 353.5,230.4 				"/>
				<polygon class="st5" points="371.1,240.9 360.3,240.9 355.6,230.4 366.1,230.4 				"/>
				<polygon class="st5" points="391.3,254.8 380,254.8 368.2,230.4 378.7,230.4 				"/>
				<polygon class="st5" points="92.9,255.5 81.6,255.5 85.5,245 96.5,245 				"/>
				<polygon class="st5" points="106.5,255.5 95.2,255.5 98.6,245 109.6,245 				"/>
				<polygon class="st5" points="120.1,255.5 108.7,255.5 111.8,245 122.8,245 				"/>
				<polygon class="st5" points="133.6,255.5 122.3,255.5 125,245 136,245 				"/>
				<polygon class="st5" points="147.2,255.5 135.9,255.5 138.2,245 149.1,245 				"/>
				<polygon class="st5" points="160.8,255.5 149.5,255.5 151.3,245 162.3,245 				"/>
				<polygon class="st5" points="174.4,255.5 163.1,255.5 164.5,245 175.5,245 				"/>
				<polygon class="st5" points="188,255.5 176.6,255.5 177.7,245 188.6,245 				"/>
				<polygon class="st5" points="201.5,255.5 190.2,255.5 190.8,245 201.8,245 				"/>
				<polygon class="st5" points="215.1,255.5 203.8,255.5 204,245 215,245 				"/>
				<polygon class="st5" points="228.7,255.5 217.4,255.5 217.2,245 228.2,245 				"/>
				<polygon class="st5" points="242.3,255.5 231,255.5 230.4,245 241.3,245 				"/>
				<polygon class="st5" points="255.9,255.5 244.6,255.5 243.5,245 254.5,245 				"/>
				<polygon class="st5" points="269.5,255.5 258.1,255.5 256.7,245 267.7,245 				"/>
				<polygon class="st5" points="283,255.5 271.7,255.5 269.9,245 280.8,245 				"/>
				<polygon class="st5" points="296.6,255.5 285.3,255.5 283,245 294,245 				"/>
				<polygon class="st5" points="310.2,255.5 298.9,255.5 296.2,245 307.2,245 				"/>
				<polygon class="st5" points="323.8,255.5 312.5,255.5 309.4,245 320.4,245 				"/>
				<polygon class="st5" points="337.4,255.5 326,255.5 322.6,245 333.5,245 				"/>
				<polygon class="st5" points="350.9,255.5 339.6,255.5 335.7,245 346.7,245 				"/>
				<polygon class="st5" points="364.5,255.5 353.2,255.5 348.9,245 359.9,245 				"/>
				<polygon class="st5" points="378.1,255.5 366.8,255.5 362.1,245 373,245 				"/>
			</g>
		</g>
	</g>
</g>
</svg>
